<svg id="Layer_1" data-name="Layer 1" xmlns="http://www.w3.org/2000/svg" xmlns:xlink="http://www.w3.org/1999/xlink" viewBox="0 0 723.89 768.84"><defs><style>.cls-1,.cls-10,.cls-11,.cls-12,.cls-13,.cls-14,.cls-17,.cls-5,.cls-6,.cls-7,.cls-9{fill:none;}.cls-2{fill:url(#linear-gradient);}.cls-3{clip-path:url(#clip-path);}.cls-4{fill:#1a171b;}.cls-10,.cls-11,.cls-12,.cls-13,.cls-14,.cls-17,.cls-18,.cls-5,.cls-6,.cls-9{stroke:#fff;}.cls-10,.cls-11,.cls-12,.cls-13,.cls-14,.cls-17,.cls-18,.cls-5,.cls-9{stroke-miterlimit:10;}.cls-5,.cls-6,.cls-7{stroke-width:1.48px;}.cls-6,.cls-7{stroke-linejoin:round;}.cls-7{stroke:#1a171b;}.cls-18,.cls-19,.cls-8{fill:#fff;}.cls-9{stroke-width:1.85px;}.cls-10{stroke-width:1.89px;}.cls-11{stroke-width:2.06px;}.cls-12{stroke-width:0.98px;}.cls-13{stroke-width:1.92px;}.cls-14{stroke-width:1.44px;}.cls-15{clip-path:url(#clip-path-98);}.cls-16{clip-path:url(#clip-path-99);}.cls-17{stroke-width:2.23px;}.cls-19{font-size:36px;font-family:MyriadPro-Regular, Myriad Pro;}</style><linearGradient id="linear-gradient" x1="1268.5" y1="439.45" x2="1985.75" y2="233.78" gradientUnits="userSpaceOnUse"><stop offset="0" stop-color="#0f0756"/><stop offset="1" stop-color="#626177"/></linearGradient><clipPath id="clip-path" transform="translate(-1205)"><path class="cls-1" d="M1599,126.31l1.18,205c4.79-.46,20.42-7.65,26.58-8.72,44-7.53,72.29-38.77,67.62-77.61-6.21-52.44-1.14-122.68-1-123.11-.35-.08-51.44,4.15-94.33,4.48m94.32-4.56h0"/></clipPath><clipPath id="clip-path-98" transform="translate(-1205)"><rect class="cls-1" x="1497.17" y="117.33" width="203.33" height="219.25" transform="translate(-1.28 9.19) rotate(-0.33)"/></clipPath><clipPath id="clip-path-99" transform="translate(-1205)"><path class="cls-1" d="M1505.42,247.4c-6.58,47.72,27.21,71.59,72.52,76.29,5.74.57,17.6,7.86,21.88,7.84l-1.18-205c-30.39.17-94.71-3.4-94.71-3.4s9,70.5,1.49,124.31"/></clipPath></defs><title>background-mainpage-gerade2</title><path class="cls-2" d="M1286.41,2.75a487.3,487.3,0,0,0-24.26,52.91,5.21,5.21,0,0,1-4.86,3.34h-47.08a5.21,5.21,0,0,0-5.21,5.21v9.58a5.21,5.21,0,0,0,5.21,5.21h36.42a5.2,5.2,0,0,1,5,6.76l0,.16a5.2,5.2,0,0,1-5,3.66h-12.29a5.21,5.21,0,0,0-5.21,5.21h0a5.21,5.21,0,0,0,5.21,5.21h6.24a5.2,5.2,0,0,1,5,6.53c-46.5,174.64,6.16,367.3,148.49,493.38a5.2,5.2,0,0,1-3.46,9.09h-43.39a5.21,5.21,0,0,0-5.21,5.21v9.58a5.21,5.21,0,0,0,5.21,5.21h81.29a5.21,5.21,0,0,1,3,1q6.67,4.86,13.47,9.46a5.2,5.2,0,0,1-2.9,9.53h-70.38a5.21,5.21,0,0,0-5.21,5.21h0a5.21,5.21,0,0,0,5.21,5.21h104a5.15,5.15,0,0,1,2.55.68c136.69,77.46,299.79,82.94,438.64,22.1a5.22,5.22,0,0,0,3.11-4.78V5.21A5.21,5.21,0,0,0,1914.79,0H1291A5.22,5.22,0,0,0,1286.41,2.75Z" transform="translate(-1205)"/><rect class="cls-1" x="1466.33" y="104.61" width="251.79" height="236.46" transform="translate(-1206.25 9.15) rotate(-0.33)"/><g class="cls-3"><path class="cls-4" d="M1631.38,281.26Z" transform="translate(-1205)"/></g><g class="cls-3"><polygon class="cls-1" points="429.95 276.02 417.82 282 379.31 269.63 368.78 180.65 436.4 162.88 436.92 253.03 429.95 276.02"/></g><g class="cls-3"><path class="cls-5" d="M1626.21,245,1625,281.13l-2.22.87-38.43-12.37-10.15-83.84,67.41-8.61.24,57.36s-6.33.38-10.08,3S1626.21,245,1626.21,245Z" transform="translate(-1205)"/></g><g class="cls-3"><polygon class="cls-1" points="499.85 178.87 436.66 163.65 437.11 241.82 443.72 274.48 454.19 279.05 493.99 262.55 499.85 178.87"/></g><g class="cls-3"><path class="cls-5" d="M1703.58,181.53l-62.1-4.35.51,57.45s5.47-.89,9,1.66,6.31,8.86,6.31,8.86l-.16,33,2,.85,39.8-16.5Z" transform="translate(-1205)"/></g><g class="cls-3"><polygon class="cls-1" points="437.34 177.26 359.06 186.79 402.77 136.02 436.46 128.21 437.34 177.26"/></g><g class="cls-3"><polygon class="cls-6" points="437.34 177.26 359.06 186.79 402.77 136.02 436.46 128.21 437.34 177.26"/></g><g class="cls-3"><line class="cls-7" x1="402.77" y1="136.02" x2="436.46" y2="128.21"/></g><g class="cls-3"><polygon class="cls-1" points="507.57 182.17 437.34 177.26 436.46 128.21 467.94 138.99 507.57 182.17"/></g><g class="cls-3"><polygon class="cls-6" points="507.57 182.17 437.34 177.26 436.46 128.21 467.94 138.99 507.57 182.17"/></g><g class="cls-3"><path class="cls-8" d="M1635,321.56s1.46,1.45,1.29,2.14,0,2.22-.5,2.48-1-.68-.51.18,3.35,1.86,4.12,1.77,4.19-1.22,4.19-1.22.94-1,.93-1.46-.18-2-.61-2.22-.86-1.54-1.64-1.71-1.8-.84-2.48-.5-3.78-1.43-4.79.54" transform="translate(-1205)"/></g><g class="cls-3"><path class="cls-8" d="M1645.93,324.33a20,20,0,0,1,2.13-1.13,18.82,18.82,0,0,1,2.56-.78c1.29-.27,3.76-2.17,3.59-1.48s.43.51.87,1.62.78,2.74,1.21,2.82,2.14-.95,2.14,0-.67,3.17-1.52,3.35.08-.52-1.88.44-2.13,1.55-3.93,2-2.13.78-2.65,0a1.87,1.87,0,0,0-2.06-.93l-.77.18s-2.15-.85-1.81-1.45a14.4,14.4,0,0,1,1.36-1.72Z" transform="translate(-1205)"/></g><g class="cls-3"><path class="cls-8" d="M1655.58,320.33l1.21,2.48a6,6,0,0,1,1.8,0c.43.17,1.71.07,2.06.76s-.59,2.91-.59,2.91l3.68-1s3.66-4.39,3.65-4.82-1.38-2.81-1.72-2.55-3.17,0-3.68,0-4.45.71-5.14.8-1.27,1.37-1.27,1.37" transform="translate(-1205)"/></g><g class="cls-3"><path class="cls-8" d="M1661.46,316.45a6.12,6.12,0,0,0,1.27-2.58c.17-.77.41-2.83.84-2.49a3.72,3.72,0,0,0,2.06.85c.77.16,2.91-1,2.91-1a24.53,24.53,0,0,1,0-2.48c.09-.35.85-1.29,1.37-1.12s2.91.75,3.26,1.69a18,18,0,0,1,.88,3.42,17.07,17.07,0,0,1,0,3c-.07,1.45-1.09,3.26-1.86,3a20,20,0,0,1-3.61-1.69c-.43-.34-1.63-1.36-2.74-.75a12.65,12.65,0,0,1-3.08,1.21c-.25.09-1.29-1.1-1.29-1.1" transform="translate(-1205)"/></g><g class="cls-3"><path class="cls-8" d="M1670,305.1s-.84,1.46-.07,1.88,2.57.5,2.92,1.18,2.06,1.27,2.15,1.79a13.07,13.07,0,0,0,1.21,3.16c.09-.09,1.53-1.89,1.79-2.32s4.6-3.63,3-5-2.75-2.12-3.26-1.6-1.89-1.19-2.57-.93-3.15,3.61-5.22,1.83" transform="translate(-1205)"/></g><g class="cls-3"><path class="cls-8" d="M1682.59,298.35s-.67,1.88-.84,2.14,0,1.8-.51,1.89-1.11.18-1.11.6.95.94,1.21,1.37a7.85,7.85,0,0,0,1.21,1.19s1.8.33,2.31-.44a4.29,4.29,0,0,0,.84-2.75c0-1.45.33-1.54-.62-2.48a5,5,0,0,0-2.49-1.52" transform="translate(-1205)"/></g><g class="cls-3"><path class="cls-8" d="M1700.2,264.51,1662.28,280a7.83,7.83,0,0,1-4,1c-.26,0-2.06-1.11-3-1.53s-2.74.45-3,.53c-.42.09.29,5.91-.22,5.65s-5.74-.82-5.74-.82l-11.4-1.9s-3.6-1.09-4.72-1.26c-.68-.08-2.31.44-3.08.45-.59,0-2.47,1.29-2.64.95l-2.31.7-40.91-12.09-146.63,33.89,128.6,105.59,160.84-4.6,147-114.37Zm-28.8,24.14s1-.43,1.63,0,.09,1,0,1.29-1.71-.08-2.06,0S1671.4,288.65,1671.4,288.65Zm-1.44,1.29c-.68,1,1.8.51,4.71.66s1.89,2,1.9,2.64-5.47,1.15-5.64,1.32-2.14,1.64-3.25,1.3-.86-.93-.86-1.28a7.2,7.2,0,0,0-.79-2.39c-.34-.42-2,0-2.57,0s.6-.95.85-1.55c0,0,5.55-2.94,6.15-3.12S1670.64,288.83,1670,289.94Zm-4.93,6.88c.35,1.8-.16,2.31-.67,2.32s-1.8-.59-2.83.18-1.78,1.47-2.47.7-4.2-.74-4.46-.83a1.54,1.54,0,0,1-.78-1.79c.34-.94-.1-3.08.75-3.52,1-.51,3.08.41,3.59,0s.68-1,1.28-1a10.37,10.37,0,0,1,2,.59,3.94,3.94,0,0,0,2,0c.69-.18,2-.61,2.06.58S1664.68,295,1665,296.82Zm-32.89,13c.18.69,1.64,1.19.61,1.88s-2.13.61-2.21,1.9,2,1.7-.93,1.54-5.56,1-5.49-.56-1.38-3.16-.7-3.68a19.35,19.35,0,0,0,2.46-2.75,2.75,2.75,0,0,0,2.92.58c1.45-.44,4.45-1,4.45-.63S1631.88,309.17,1632.14,309.85Zm-14.76,8a6.51,6.51,0,0,0,.85-1c.42-.6-.18-1.89-.44-2.06s0-2.05,0-2.05l-.69-1.19,2.56,0,1.38.85h1a8.77,8.77,0,0,0,1.21,2.39c.43.26.18,1.12.44,1.46a2.14,2.14,0,0,1-.42,1.8,7,7,0,0,0-.93,1.71l-3.86,0C1617.73,319.69,1617,318.24,1617.38,317.9Zm-.78-.68a1.82,1.82,0,0,1-1,.6c-4.27,1.48-7.35,2.53-8.12,1.42-.44-.6.42-1,.74-3.77.17-1.46,0-2.06.5-2.74.68-1,.41-2.75.76-2.75a6,6,0,0,1,2.39.07,11,11,0,0,1,4.56,2.55,3.33,3.33,0,0,1,.19,4.62Zm2.16-12.17c-.26-.6.07-2.23,0-3.17,0,0,2.91-1.39,3.24-2.16s1.89.33,2.23.5a8.21,8.21,0,0,1,1.9,2.65l0,3.08a15.25,15.25,0,0,1-1.87,3.43c-.51.61-2.82.88-4.44.46s-1.63-.42-2.33-2.13.6-.09,1.28-.61S1619,305.73,1618.76,305.05Zm2.24-11.91c-1.2-.6,2-2.58,2-2.58,1,.16,2.3-1,3.51,0a4.49,4.49,0,0,0,3.52,1.26c1-.18,3.08.41,2.75,1.87s2,2.3,0,3.17-2.13,1.46-4.44.88-3.17-.07-5.31.28-3.92,2.85-3.34,0S1622.21,293.81,1621,293.14Zm23.92,4.65c2.24,2.13.09.6,0,2.14s-7.7.56-9.59.06-.26-1.37-.1-3.08-.18-1.89-1.39-3.16-.1-1.89-.79-2.57h2.14c1,0,3.6.58,5.06,0s1.71,1,1.64,2.3S1642.68,295.67,1644.92,297.79Zm-14.25,9.07c-1.45.53-2.48,1-2.74,0s-1.21-2.3-1.3-3.67-.2-4.28.83-4.29,2.4.84,3.17.41,2.56-1.81,2.73-1a3,3,0,0,0,1.56,2.48,9.73,9.73,0,0,0,2.83,1.18c1,.08,1.8.16,1.29,1.28s-2.22,1.21-2.55,2.24-.42,1.45-2.31,1.38S1632.12,306.43,1630.67,306.86Zm3.36,3a13.76,13.76,0,0,0,3.49-3.53,2.38,2.38,0,0,1,1.44-1.55c.6-.26,1.28-2.23,1.28-2.23.93-.69,2-.78,2.39,0s1.64,1.88,2.24,2.65a25.39,25.39,0,0,1,1.3,2.21c.69,1.11,2.82-.35.69,1.11s-2,.79-3.5,2.25-1.44,2.4-2.9,1.47a6.74,6.74,0,0,0-4-1.35C1635.06,311,1633.17,310.36,1634,309.84Zm12.9-4.52c-1-1.71-2.5-2.73-1.82-3.76s0-.77,1.1-1.72.16-2.65,1.1-2.92c1.11-.35,1.2,1.11,1.8,1.11s1.19-1.3,1.8,0,.86.93,1.46,1.36,1.63.33,2.49.84,1.13,2,1.21,2.13-.85.35-2,1.47-.85.86-3.59,1.48S1648,307,1646.93,305.32Zm12.21-21.22c.51.17,2.89-2.16,3.57-2.93s1.72.07,2.23.5.79,2.22,1.47,2.39,2.92,1.44,3.18,2.29-2.21,1.64-2.55,1.73-2.65,1.55-2.82,1.13-.52-1.2-.79-2-1.63-.85-2.74-1.36S1658.62,284,1659.14,284.1Zm-4.79,2.34a3.61,3.61,0,0,0,1.71-2.07c.42-.77,3.77,1.18,3.51,1.35s2.67,2,3.62,3.06-.76,2.41-1.53,3.18-1.28-.16-1.63-2-2.32.1-4.72-.66-1.46-1-2.41-2Zm-4.18,1.31s2.32,2.12,4.12,2.11a4,4,0,0,1,3.61,2.12c.6,1-3.33,1.31-3.59,1s-.94,1.46-2,3.09-2.74.28-3.77,0-2.91.27-3.85,0-1.47-2.9-2.16-4.19.92-2.74,2.11-4.37Zm-17.83-3.84c1.11-.52,2.22.24,3.43,1.69s2.14.25,4.37.15,1.81,1.53,1.91,4-2.66.1-4.71.2-2.91.44-4,.28-.87-1.62-2.07-2.39-1.47-1.61-2.5-2.55C1628.66,285.22,1631.23,284.43,1632.34,283.91Zm-14.7,5.65c.33-2.4,3.14-4.73,3.14-4.73s3-2,4.8-.45a51.23,51.23,0,0,0,4.21,3.4c1.46.84,2.15,1.87,0,2.57s-2.84-1.7-5.15-1C1622.44,289.87,1617.32,292,1617.64,289.56Zm-6.2,7.31a15.17,15.17,0,0,0,2.54-4c.34-1,1.88-1.46,1.88-1.46s2.48.41,3.26,1.26a2,2,0,0,1,0,2.91,5.28,5.28,0,0,0-1.26,3.52c-.08,1.11,2.49,1.53-.25,2s-1,2.58-2.73.45S1610.08,298.68,1611.44,296.87Zm-5.29,3.71c1.45-1.55,2.14-.78,2.39-1.21a1.13,1.13,0,0,1,1.88,0c.78.51,1.38.59,1.9,1.53a4,4,0,0,0,1.12,1.62c.77.77,1.72,1.45,1.89,1.19s.59-1.29.93-1.21,1.37.34,1.38,1.28.35,1.63-.5,2.4-1.37-.76-1.7,1.38,1.72,2.3-.33,2.14-1.88,1-3.09-.49-1.55-1.28-3.35-2.12-1.7,1.72-1.8-.85-1.3-2.73-1.22-3.67C1605.73,301.78,1604.79,302.13,1606.15,300.58Zm-5.1,6.88a3.05,3.05,0,0,0,0-.94l1.19-1.72,2.13-1.21s.6.17.6.6.69,1,1,2a2.39,2.39,0,0,1,.18,1.45,12.5,12.5,0,0,1,.86,1,6.41,6.41,0,0,0,1.21,1.53c.6.51-.17,1.11,0,1.46s-.59,1.11-1.53,2-.78-.85-1.72-.76a2.14,2.14,0,0,1-1.72-.84,11.86,11.86,0,0,1-2.15-2.73C1600.46,307.81,1601,307.81,1601.05,307.46ZM1596.9,315c-.35-1.11.67-2.4.93-2.66,1.1-1.29,1.36-1.72,2-1.81-.52-.51.5-1.11.59-1.11.68-.27.78,1.62,1.73,2.55.43.43.35,1.37,1.55,2s1.54.68,2,1.19a2.34,2.34,0,0,1,.78,1.79,2,2,0,0,1-1,1.55c-.6.35-.94.09-2,.1-1.89.09-2.65,1.21-3.34.79-.43-.26-.09-.69-.6-1.54-.35-.6-.69-.59-1.73-1.7A8.62,8.62,0,0,1,1596.9,315Zm1.59,8.81s-1.2.18,0-1,2.29-2.49,2.29-2.49a1.67,1.67,0,0,1,1.37-.53,20.47,20.47,0,0,0,2.48,0s1-.26.95.25.26.77.94.77.35.25,0,1.2-.43.6,0,1.62,1.8,1.1,1,2.05.09.77-1.45,1.29,1,.6-1.79.61-3.17,1-3.43-.58S1598.49,323.83,1598.49,323.83Zm10,8.76c-1.37-.08-1.8-.59-2.4-.59a23.75,23.75,0,0,1-4.28-1.08c-1.89-.51.07-1.37,0-1.89s2.48-.35,2.91-.1a4.56,4.56,0,0,0,1.88,0c.6-.09.85-1.46.85-1.46s.93-1.55,1.1-1.89c.25-.69,1.71.42,1.46,1s.44,1.62.79,2.48.94.68,1.12,1.45C1611.89,331.2,1609.84,332.67,1608.47,332.59Zm12-6.23a8.28,8.28,0,0,1-1.71.52,28.27,28.27,0,0,0-3.85.62c-1.88.53-3.85.37-3.77,0s1.44-2.83-.87-2.9-3.17-1.53-2.41-1.87a14.57,14.57,0,0,0,2.39-1.9,7.38,7.38,0,0,1,2.65-1.13,7.13,7.13,0,0,0,2.56-.44c.6-.26,2,.16,2.06.76s2.15,1.18,2.15,1.18a18,18,0,0,1-1.71,1c-.68.34-.67,1.71-.67,1.71l1.89.68C1619,324.57,1620.94,326,1620.51,326.36Zm13.43-1.11c-1.36,0-2.4-.5-4,0s-2.39,1.46-3.25.61,4.61-1.74-2.15-1.7-7.45.05-4.89-1.6a21.71,21.71,0,0,0,4.18-3.44l.86.42c-.26-.34,0-2.57.41-2.83s3.85,0,3.85,0h1.71c.09,0,.94-1.55.77,0s1.3,2.13,1.3,2.81-1.45.1-.5,2,2,2.64,2.67,2.29C1635.48,323.62,1635.31,325.24,1633.94,325.25Zm6.31-5.26c-.94.09-3.17.19-5.39.55s-1.46-1.19-2-2.56.5-1,.75-2.57-.69-.94-.78-2,1.36-1.55,2-1.81a14.79,14.79,0,0,0,2.66.85c1.28.24,1.46.42,2.75,1.78s1.89,2.13,2,3.5A2.06,2.06,0,0,1,1640.25,320Zm7.55,2.1c-3.16,1.39-3.26-.32-5.32-1.51s.76-1.12,1-2.66-.61-1.88-1.3-3.84,1.1-1,1.78-2.33c0,0,3.5-1.22,3.68-.79a3.36,3.36,0,0,0,2.58,2.13c1.71.07,3.44,3.23,3.62,5.11S1651,320.7,1647.8,322.09Zm14.07-8.47c-.33,1.2-2.63,2.93-4.68,4.14s-1.37-.25-1.88,0-1-2.39-1.39-3.25-1.21-1.19-2.07-2.9-2.23-.5-3.27-1.69.08-1.8.59-2.74a41.35,41.35,0,0,0,4.7-1c1.2-.44,2.14.16.86,1.11s3.35,1.94,6.18,2.36S1662.12,312.51,1661.87,313.62Zm4.6-4c-.83,3.61-1.88.19-2.91-.66s-2.74-.84-5.49-1.08-2.06-.76-1.38-1.71-.52-1-.78-1.71,1.09-3.94,1.53-2.66c.17.51,1.54.51,2.22-.36s2.74-1.21,4.71-1.14.35,1.89,1.21,2.82,2.75,1,2.75,1.44A22.91,22.91,0,0,0,1666.47,309.65Zm6.14-5.77c-.77.95-1.63.18-2.58-.75s-1.2-.85-3.43-1.35-.18-1-1-1.54,1-1.8,1-3a46.92,46.92,0,0,0,4.79-.8c1.11-.35,1-.69,1.2-.69s1,1.88,1.81,2a2,2,0,0,1,1.38,2C1675.75,300.53,1673.37,302.94,1672.61,303.88Zm7.26-2.52a2.32,2.32,0,0,1-1.54,1.12h-1.54a1.42,1.42,0,0,0-.43-1.11c-.52-.51.07-1.54.41-2.14a1.72,1.72,0,0,0,0-1.37,13.42,13.42,0,0,0-1.55-1.36,9.64,9.64,0,0,1-1.38-1.45s1.79-.35,2.91-.62a1.13,1.13,0,0,0,.93-1.29,7.34,7.34,0,0,0,2.14.5c.86,0,.78,1.37.53,2.06s1,1.87,1.21,2S1680.21,300.5,1679.87,301.36Z" transform="translate(-1205)"/></g><g class="cls-3"><path class="cls-8" d="M1612.65,328.8v3c0,.42-.67,1-.67,1.54s.26,1.2,2.83,1,6,.74,7-.64,1-2.14.75-2.66-4.54-.4-4.12-1.34-.78-1.8-1.12-1.54a33.37,33.37,0,0,1-4.7.63" transform="translate(-1205)"/></g><g class="cls-3"><path class="cls-8" d="M1621.79,325.07a1.51,1.51,0,0,1-.51,1.62c-.85.87-1.36.78-1.44,1.47s-1.62,1.72.09,1.71,1.62-.44,2.83.41,1.12,1.28,2.58,1.44,4-1.3,3.84-1.65a6.14,6.14,0,0,0-1.3-2,7.22,7.22,0,0,1-1.63-1.44c0-.17-.44-1.54-1-1.28s-3.51-.32-3.51-.32" transform="translate(-1205)"/></g><g class="cls-3"><path class="cls-8" d="M1629.76,326.65c-.34.34-1.62.69-.68,1.46s1.89,1.1,1.73,2.21-2.13,1.64-2,2-1,1.29,1,1.37a30.62,30.62,0,0,0,4.88,0c.6-.18,2.74-.45,3.07-1.39s.93-2,0-2.57-1.47-1.44-1.9-1.7-2.57-1.27-2.32-1.44-1.45-.08-1.88-.16a18.3,18.3,0,0,0-2.48.18h.6v.09Z" transform="translate(-1205)"/></g><g class="cls-3"><path class="cls-8" d="M1639.36,329.42c-.34.08-.16,1.37-.16,2.22s-.59,1.38-1,2.06-2.31-.07-2.39.7-.85,1.12.86,1.54,4.2.15,4.88.48,2.23.93,3,.41a7.92,7.92,0,0,0,2.56-2.49c.08-.52.84-2.15,0-2.14s-3.17-.67-3.34-1a2.84,2.84,0,0,0-1.46-1.11,4.69,4.69,0,0,0-2.92-.66" transform="translate(-1205)"/></g><g class="cls-3"><path class="cls-8" d="M1659.39,328.53a7.74,7.74,0,0,1-2.56,1.47c-.68.09-2.31.61-2.3,1.13s.25.34,1.11.42,1.36-1.64,1.8,0,.18,1.8.44,2.74.27,1.62,1.64,1.44,3.17.07,4.27-1.48,1.28-1.29,1.61-3.18.58-2.65-.53-3.16-1.46-.76-2.32-.5l-3.84,1.13Z" transform="translate(-1205)"/></g><g class="cls-3"><path class="cls-8" d="M1664.69,326.27c.25.26,1.8.94,1.8,1.88a16.64,16.64,0,0,0,0,2.91,2.24,2.24,0,0,0,2.58,1.95c1.54-.09,4.79-.54,6.5-1.58s3.83-4,3.65-5.41a4.61,4.61,0,0,0-2.16-3.84c-1.55-.76-1.8-.59-3.44-1.44s-3.35-2.37-3.68-1-3.24,2.07-3.15,3.53-2.12,3-2.12,3" transform="translate(-1205)"/></g><g class="cls-3"><path class="cls-8" d="M1674.15,320.23c.86-.86.59-1.72.76-2.75s-.27-2.31.59-2.31a3.69,3.69,0,0,0,3.07-2.07,9.14,9.14,0,0,1,1.69-3c.77-.95.76-2.15,2.13-1.3a14.39,14.39,0,0,0,3.52,1.69,2.76,2.76,0,0,1,2.24,2.56c.44,1.8-1.19,0-.84,2.74s1.82,2.48,1.4,3.94.09,1.71-2.13,2-3.86-.41-4.71.54-1.7,1.55-2.65.78a51.29,51.29,0,0,0-5.07-2.79" transform="translate(-1205)"/></g><g class="cls-3"><path class="cls-8" d="M1683.07,306.91c-.09.25,0,1.11,1.21,1.62s2.4.5,2.91,1.09a15.48,15.48,0,0,0,1.55,1.7c.52.43,2.06-.09,2-.86s-.53-2.74-.88-4.54-1.72-2.3-2.23-1.7A16.91,16.91,0,0,1,1685,306a7.7,7.7,0,0,1-2,1" transform="translate(-1205)"/></g><g class="cls-3"><polygon class="cls-1" points="422.42 203.29 400.16 203.59 399.23 189.55 421.64 186.43 422.42 203.29"/></g><g class="cls-3"><polygon class="cls-9" points="422.42 203.29 400.16 203.59 399.23 189.55 421.64 186.43 422.42 203.29"/></g><g class="cls-3"><polygon class="cls-1" points="422.56 227.69 401.66 225.5 400.55 210.61 422.29 210.4 422.56 227.69"/></g><g class="cls-3"><polygon class="cls-10" points="422.56 227.69 401.66 225.5 400.55 210.61 422.29 210.4 422.56 227.69"/></g><g class="cls-3"><path class="cls-1" d="M1641,234.2c-8.56,1.17-14.86,7-14.82,13.27L1625,280.61l32.51-3.09-.18-32.19c0-6.34-6.84-12.38-16.33-11.13" transform="translate(-1205)"/></g><g class="cls-3"><path class="cls-5" d="M1641,234.2c-8.56,1.17-14.86,7-14.82,13.27L1625,280.61l6.67-.63,18.68,3.23-.2-5,7.36-.72-.18-32.19C1657.25,239,1650.45,233,1641,234.2Z" transform="translate(-1205)"/></g><g class="cls-3"><path class="cls-1" d="M1640.21,239.09c-5.31-1.26-9.81,4.93-9.78,11.7l.17,28.93,19.71,3.23-.17-29.28c0-6.68-4.87-13.33-9.93-14.58" transform="translate(-1205)"/></g><g class="cls-3"><path class="cls-11" d="M1640.21,239.09c-5.31-1.26-9.81,4.93-9.78,11.7l.17,28.93,19.71,3.23-.17-29.28C1650.1,247,1645.27,240.34,1640.21,239.09Z" transform="translate(-1205)"/></g><g class="cls-3"><path class="cls-8" d="M1641.22,236.17c8.82,0,16,6.5,16.1,14.55a13.72,13.72,0,0,1-.16,1.88,13.9,13.9,0,0,0,.91-5c0-8.05-7.28-14.6-16.09-14.55-8.14.05-14.78,5.65-15.77,12.85a16.09,16.09,0,0,1,15-9.68" transform="translate(-1205)"/></g><g class="cls-3"><polygon class="cls-1" points="428.42 248.46 433.3 249.03 433.33 254.68 428.45 254.02 428.42 248.46"/></g><g class="cls-3"><polygon class="cls-12" points="428.42 248.46 433.3 249.03 433.33 254.68 428.45 254.02 428.42 248.46"/></g><g class="cls-3"><polygon class="cls-1" points="435.02 249.45 439.9 250.02 439.93 255.67 435.05 255.01 435.02 249.45"/></g><g class="cls-3"><polygon class="cls-12" points="435.02 249.45 439.9 250.02 439.93 255.67 435.05 255.01 435.02 249.45"/></g><g class="cls-3"><polygon class="cls-1" points="428.46 255.91 433.34 256.48 433.38 262.21 428.49 261.47 428.46 255.91"/></g><g class="cls-3"><polygon class="cls-12" points="428.46 255.91 433.34 256.48 433.38 262.21 428.49 261.47 428.46 255.91"/></g><g class="cls-3"><polygon class="cls-1" points="435.06 256.9 439.94 257.47 439.98 263.2 435.09 262.46 435.06 256.9"/></g><g class="cls-3"><polygon class="cls-12" points="435.06 256.9 439.94 257.47 439.98 263.2 435.09 262.46 435.06 256.9"/></g><g class="cls-3"><polygon class="cls-1" points="428.51 263.78 433.39 264.36 433.42 270.09 428.54 269.35 428.51 263.78"/></g><g class="cls-3"><polygon class="cls-12" points="428.51 263.78 433.39 264.36 433.42 270.09 428.54 269.35 428.51 263.78"/></g><g class="cls-3"><polygon class="cls-1" points="435.1 264.77 439.99 265.34 440.02 271.08 435.14 270.34 435.1 264.77"/></g><g class="cls-3"><polygon class="cls-12" points="435.1 264.77 439.99 265.34 440.02 271.08 435.14 270.34 435.1 264.77"/></g><g class="cls-3"><path class="cls-8" d="M1638.67,238.24a15,15,0,0,1,6.94.65c3.08.92,5.67,3.82,6.79,5.61s1.32,6.5,1.6,10.09c.28,3.17.12,6.08.14,10.1s.51,13.1.51,13.1l-3.94-.24s-.17-29-1.89-31-3.11-4.69-5.09-5.88-3.69-2.46-5.06-2.45" transform="translate(-1205)"/></g><g class="cls-3"><path class="cls-8" d="M1617.92,277.23s-4.46-1-4.64-1.52-.27-3.59,0-3.51,4.12.49,4.63,1.35a7.44,7.44,0,0,1,.28,3.76Z" transform="translate(-1205)"/></g><g class="cls-3"><path class="cls-8" d="M1605.52,265.14s-4.46-1-4.63-1.51-.28-3.6,0-3.51,4.11.49,4.63,1.34a7.59,7.59,0,0,1,.28,3.77Z" transform="translate(-1205)"/></g><g class="cls-3"><path class="cls-8" d="M1615.06,271.77s-4.46-1-4.63-1.6-.28-3.6,0-3.51,4.11.57,4.63,1.34.45,3.76.19,3.77Z" transform="translate(-1205)"/></g><g class="cls-3"><path class="cls-8" d="M1617.35,267.9s-4.46-1-4.63-1.6-.28-3.59,0-3.51,4.11.58,4.63,1.34.45,3.77.19,3.77Z" transform="translate(-1205)"/></g><g class="cls-3"><path class="cls-8" d="M1614.41,262.69s-4.46-1-4.63-1.6-.28-3.59,0-3.51,4.11.58,4.63,1.35.45,3.76.19,3.76Z" transform="translate(-1205)"/></g><g class="cls-3"><path class="cls-8" d="M1620.67,264.29s-4.46-1-4.64-1.6-.27-3.6,0-3.51,4.12.57,4.64,1.34.44,3.76.19,3.76Z" transform="translate(-1205)"/></g><g class="cls-3"><path class="cls-8" d="M1611.52,266.14s-4.46-1-4.64-1.6-.27-3.6,0-3.51,4.12.57,4.64,1.34.44,3.76.19,3.77Z" transform="translate(-1205)"/></g><g class="cls-3"><path class="cls-8" d="M1609.4,270.6s-4.46-1-4.63-1.6-.28-3.59,0-3.51,4.11.58,4.63,1.34.45,3.77.19,3.77Z" transform="translate(-1205)"/></g><g class="cls-3"><path class="cls-8" d="M1612.26,276.15s-4.46-1-4.63-1.6-.28-3.6,0-3.51,4.11.57,4.63,1.34.45,3.77.19,3.77Z" transform="translate(-1205)"/></g><g class="cls-3"><path class="cls-8" d="M1623.38,260.5s-4.45-1-4.63-1.6-.28-3.59,0-3.51,4.12.58,4.63,1.35.45,3.76.2,3.76Z" transform="translate(-1205)"/></g><g class="cls-3"><path class="cls-8" d="M1617.12,258.74s-4.45-1-4.63-1.6-.28-3.59,0-3.51,4.12.58,4.63,1.34.45,3.77.2,3.77Z" transform="translate(-1205)"/></g><g class="cls-3"><path class="cls-8" d="M1619.76,255s-4.46-.75-4.63-1.26-.45-3.59-.11-3.51,4.11.32,4.63,1.09.62,3.76.36,3.76Z" transform="translate(-1205)"/></g><g class="cls-3"><path class="cls-8" d="M1611.3,257.49s-4.46-.74-4.63-1.26-.45-3.59-.11-3.51,4.11.32,4.63,1.09.62,3.76.36,3.76Z" transform="translate(-1205)"/></g><g class="cls-3"><path class="cls-8" d="M1634.3,268.57l3.17.5.15-3.94s-1.26,3.43-3.32,3.44" transform="translate(-1205)"/></g><g class="cls-3"><path class="cls-8" d="M1640.73,269.48l3.34.49.33-3.34a4.74,4.74,0,0,1-3.67,2.85" transform="translate(-1205)"/></g><g class="cls-3"><path class="cls-8" d="M1640.94,261.77l3.43.41,0-3.77s-1.27,2.84-3.41,3.36" transform="translate(-1205)"/></g><g class="cls-3"><path class="cls-8" d="M1634.26,260.7l3.17.49.23-3.85c-.08,0-1.52,2.83-3.4,3.36" transform="translate(-1205)"/></g><g class="cls-3"><path class="cls-8" d="M1634.22,253.25l3.42.41,0-3.77a4.4,4.4,0,0,1-3.4,3.36" transform="translate(-1205)"/></g><g class="cls-3"><path class="cls-8" d="M1640.9,254.15l3.17.58,0-3.85a4.43,4.43,0,0,1-3.15,3.27" transform="translate(-1205)"/></g><g class="cls-3"><polygon class="cls-1" points="450.68 203.56 473.19 202.4 474.04 187.07 450.57 185.66 450.68 203.56"/></g><g class="cls-3"><polygon class="cls-13" points="450.68 203.56 473.19 202.4 474.04 187.07 450.57 185.66 450.68 203.56"/></g><g class="cls-3"><line class="cls-14" x1="462.57" y1="202.46" x2="463.25" y2="186.45"/></g><g class="cls-3"><line class="cls-14" x1="451.14" y1="194.56" x2="473.65" y2="193.83"/></g><g class="cls-3"><path class="cls-8" d="M1666.33,195.45l-.39,6.25-9,.05c-.09,0,8.3-1.67,9.38-6.3" transform="translate(-1205)"/></g><g class="cls-3"><path class="cls-8" d="M1669.23,192.43l7.7,0,0-4.2c0,.09-1.61,3.35-7.68,4.24" transform="translate(-1205)"/></g><g class="cls-3"><path class="cls-8" d="M1668.93,201.08l8,0,0-5.65c.09,0-1.17,4.45-7.93,5.69" transform="translate(-1205)"/></g><g class="cls-3"><path class="cls-8" d="M1657.33,192.5l9-.05,0-4.88c0,.09-1.26,4.12-9,4.93" transform="translate(-1205)"/></g><g class="cls-3"><polygon class="cls-1" points="450.56 228.13 472.2 224.06 472.88 207.97 450.2 209.55 450.56 228.13"/></g><g class="cls-3"><polygon class="cls-13" points="450.56 228.13 472.2 224.06 472.88 207.97 450.2 209.55 450.56 228.13"/></g><g class="cls-3"><line class="cls-14" x1="462.02" y1="225.49" x2="462.52" y2="208.71"/></g><g class="cls-3"><line class="cls-14" x1="450.93" y1="218.71" x2="472.57" y2="215.07"/></g><g class="cls-3"><path class="cls-8" d="M1665.69,218.31l-.3,6.59-8.64,1.25c0-.08,7.94-2.87,8.94-7.84" transform="translate(-1205)"/></g><g class="cls-3"><path class="cls-8" d="M1668.5,214.87l7.35-1.07-.11-4.37c0,.09-1.43,3.69-7.24,5.44" transform="translate(-1205)"/></g><g class="cls-3"><path class="cls-8" d="M1668.29,223.77l7.7-1.07-.12-5.82s-1.08,4.89-7.58,6.89" transform="translate(-1205)"/></g><g class="cls-3"><path class="cls-8" d="M1657,216.48l8.65-1.17-.12-5.05c0-.08-1.17,4.38-8.53,6.22" transform="translate(-1205)"/></g><g class="cls-3"><polygon class="cls-8" points="412.54 226.63 411.25 225.96 410.65 210.46 411.76 210.54 412.54 226.63"/></g><g class="cls-3"><path class="cls-8" d="M1606.44,217.28l21.07.65-.17.94-20.89-.73Z" transform="translate(-1205)"/></g><g class="cls-3"><polygon class="cls-8" points="411.64 203.61 410.35 203.19 409.75 188.21 410.95 188.03 411.64 203.61"/></g><g class="cls-3"><path class="cls-8" d="M1605.29,196.23l21.22-2.27-.16.95-21,2.26Z" transform="translate(-1205)"/></g><g class="cls-3"><path class="cls-8" d="M1606.44,202.13c-.6.17,8.22,0,8.22,0l0-5a25,25,0,0,1-8.19,5" transform="translate(-1205)"/></g><g class="cls-3"><path class="cls-8" d="M1606,195.62l8.22-1,.14-5.31s-3.91,5.51-8.36,6.3" transform="translate(-1205)"/></g><g class="cls-3"><path class="cls-8" d="M1616.59,194.62c-.26.09,9-1.08,9-1.08l-.29-5.65s-1.6,4.12-8.69,6.73" transform="translate(-1205)"/></g><g class="cls-3"><path class="cls-8" d="M1617.23,202.06,1626,202l-.38-6.59s-4.07,6.7-8.35,6.64" transform="translate(-1205)"/></g><g class="cls-3"><path class="cls-8" d="M1625.84,211.86l0,5.56-8.05-.21c0,.09,6.24-.89,8-5.35" transform="translate(-1205)"/></g><g class="cls-3"><path class="cls-8" d="M1615,212l0,5.39s-8.3-.29-7.79-.47,6.85-.46,7.76-4.92" transform="translate(-1205)"/></g><g class="cls-3"><path class="cls-8" d="M1607.77,224.12l7.62.73.14-5.65s1,3.42-7.76,4.92" transform="translate(-1205)"/></g><g class="cls-3"><path class="cls-8" d="M1618.22,225.09c-.18.09,7.79.81,7.79.81l.23-5.74c-.09,0-1.1,3.09-8,4.93" transform="translate(-1205)"/></g><g class="cls-3"><path class="cls-8" d="M1640.35,129.5,1639,175.06l-70.83,10.16s17.77-21.59,40.73-48.26c0,0,22.6-1.07,31.46-7.46" transform="translate(-1205)"/></g><g class="cls-3"><path class="cls-8" d="M1658.94,146l1.13,18,4.46.4c.08.08-4.87-12.39-5.59-18.38" transform="translate(-1205)"/></g><g class="cls-3"><polyline class="cls-6" points="359.06 186.79 402.77 136.02 436.46 128.21 437.34 177.26"/></g><g class="cls-15"><path class="cls-8" d="M1693.22,122h0m-189.46,1.08s64.32,3.57,94.71,3.4c43-.25,94.41-4.48,94.75-4.48-.08.42-5.16,70.66,1,123.1,4.59,38.85-23.57,70.17-67.62,77.62-6.33,1.06-22.63,8.69-26.92,8.71s-16.13-7.18-21.87-7.83c-45.23-4.62-79.1-28.57-72.53-76.3,7.4-53.72-1.57-124.22-1.57-124.22m189.43-6.31h-.51c-2.83.18-52.8,4.24-94.24,4.48-30,.17-93.77-3.4-94.45-3.4h-.34a5.27,5.27,0,0,0-3.76,1.65,5.34,5.34,0,0,0-1.35,4.2c.09.69,8.8,70.5,1.57,122.94-2.88,20.56,1.24,38.09,12.11,51.9,13.19,16.79,35.6,27.19,65,30.19,2.06.24,6.44,2.19,10,3.71,5.75,2.53,9.35,4.14,12.43,4.12s7.61-1.67,15.3-4.63c4.7-1.74,10-3.73,12.48-4.18a105.69,105.69,0,0,0,31.36-10.37A82.17,82.17,0,0,0,1682.51,299a68.09,68.09,0,0,0,14.15-25,71.6,71.6,0,0,0,2.66-29.64c-6.12-51.25-1.29-119.34-1-121.82a4.08,4.08,0,0,0-.1-1.72,5,5,0,0,0-5-4.08" transform="translate(-1205)"/></g><g class="cls-16"><path class="cls-8" d="M1584.83,300.19c-.33,2.23-6.36,10.74-6.36,10.74s6.74-4.4,8.93-10.67Z" transform="translate(-1205)"/></g><g class="cls-16"><path class="cls-8" d="M1592.45,299.72c.1,2.4-4,12.52-4,12.52s5.62-6.19,6.52-13.13Z" transform="translate(-1205)"/></g><g class="cls-16"><path class="cls-8" d="M1588.76,299.49a7.37,7.37,0,0,1-1.62-.17l-1-.25.33-1c.51-1.46,1.26-4.46,2.1-7.71a15,15,0,0,1-3.74,4.64c-3.84,2.93-7,.9-8.14-.55l-.6-.77.85-.6c2.39-1.81,9-18.12,12.51-28l1.8.59-3.35,12.61,7.86-3.13,4.22-10.38c.08-.6.42-1.63,1.36-1.47,1.2.17,1.37.17,0,16.27-.8,9.42-3.33,15.69-7.43,18.54A11.25,11.25,0,0,1,1588.76,299.49Zm-.09-2a6.61,6.61,0,0,0,3.93-1.31c2.47-1.73,5.61-6.11,6.58-17,.4-4.37.64-7.45.71-9.59l-3.39,4.9-3,3.1C1593.1,279.08,1590.26,292.2,1588.67,297.52Zm-9.87-3.8c.86.6,2.49,1.27,4.79-.37,3.75-2.85,6.44-11.34,7.7-15.37l-3.93.79.66-4.71C1585.23,281.18,1581.35,290.62,1578.8,293.72Z" transform="translate(-1205)"/></g><g class="cls-16"><path class="cls-8" d="M1588.32,252.23l-4,18.17s5.74-13.81,6.16-15Z" transform="translate(-1205)"/></g><g class="cls-16"><path class="cls-8" d="M1593.9,253.91l-1.7,18.67s4.12-14.66,4.37-15.95Z" transform="translate(-1205)"/></g><g class="cls-16"><path class="cls-8" d="M1586.85,279.89c-.41,2.66-6.51,13-6.51,13s6.81-5.44,9.08-13Z" transform="translate(-1205)"/></g><g class="cls-16"><path class="cls-8" d="M1594.05,280c.18,2.74-3.78,14.23-3.78,14.23s5.53-7,6.25-14.84Z" transform="translate(-1205)"/></g><g class="cls-16"><path class="cls-8" d="M1575.53,261l-7,.05-14.42,22.77s-3.51,1.21-4.27,2.59-.25,1.8-1.53,1.38-5.22.71-6.43-1.51-2.68-4-4.22-3.74-.85,1.29-.85,1.29-3,2.41-2.89,4.13.36,3,1.48,2.64,2.9-1.9,3.93-1.13,6.26,2.27,6.26,2.27a5.43,5.43,0,0,1-2.31,1.13c-1.28.18-2,1.12-3,1.13s-5.22-.23-5.64,1.4-.17.51.52,1.11.11,3.34.8,4,1.56,3.76,2.58,2.72,1.35-3.09,2.89-3.87a5.92,5.92,0,0,1,2.9-.87c.26,0,1.89-.52,2.13-1.81s3.16-2.93,3.16-2.93-2.12,3.87-1.77,4.89.86,1.37.35,2.48-2.11,5.41-1.25,6.26,1.8-1.12,3.08-1,3.44,3.32,4,2.89,1-3.52,0-5.39-1.39-4.19,0-5.57,1.08-5,1.93-6.69a19.57,19.57,0,0,1,1.36-2.32l4.37,1.09s1.55,1.45,2.14.93,2.39-1.38,3-1,3.19,2.81,3.61,1.44.82-5.32,1.6-5.15.84-2.75-1.82-2.39-6.92,2.1-8.12,1.68-3.86-.92-3.86-.92l15-18Zm-19.65,22.38,11.8-18h1.62Z" transform="translate(-1205)"/></g><g class="cls-16"><path class="cls-8" d="M1529.64,290.75s2.88-4.55,5.72-3.63,3.92-2.42,3.92-2.42S1528.55,279.46,1529.64,290.75Zm.25-1.89,1-3.43.95.94Z" transform="translate(-1205)"/></g><g class="cls-16"><path class="cls-8" d="M1537.2,295.84s-9.91,3.83-4,10.47c0,0,.31-6.42,4.07-7S1537.2,295.84,1537.2,295.84Zm-4.31,9.27-.88-3.67h1.54Z" transform="translate(-1205)"/></g><g class="cls-16"><path class="cls-8" d="M1572.59,286.48c-7.31-5.87-3.59.45-3.59.45l-.84,2.57s6.16-.55,4.14,6.14C1572.3,295.64,1580,292.34,1572.59,286.48Zm.82,7.87.49-4.2,1.38,2.05Z" transform="translate(-1205)"/></g><g class="cls-16"><path class="cls-8" d="M1553,306.11c3.81-7.21-4.72-1.08-4.72-1.08s1.09,10.69,4.77,11.36S1549.29,313.41,1553,306.11Zm-2.88,5.84.58-2.4,1.66,6Z" transform="translate(-1205)"/></g><g class="cls-16"><path class="cls-1" d="M1615.3,164.49l-4.46-16.93-6-4.84s-4.77,3-17.8-.16c-3.18-.75-2.39,2.42-2.39,2.42l-1,4.28,4.47,3.49,5.92,2.36,3.88,4.6-.58,3.34s-1.53,1.64-5.19,5.08c-6.47,6-10.79,15.48-13.21,25.94l-8.39.21c-3.85-.57-8.65-1.57-12.72-8.31-2.59-4.44.24-3.43.65-6.51.91-6.17-4.39-4.09-5.69-7-1.39-3.07,1.72-13.2,4.78-18.09.17-.26.59-1.2.76-1.38,3.36,3.07,7,.82,8.3-1.33,1.86-3.18,1-13.87-17.53-10.34a91.7,91.7,0,0,1-37.5-.81c-5,15.26,29.53,14.29,29.53,14.29-1,1.64-9.12,21.2-.53,40.85s24.38,26.74,37,27.09h.68a45.48,45.48,0,0,1,1.42,8.47c-.32,3.6-10.82,24.12-13.29,27.3s-1.08,4.89,0,4.88,6.25.48,6.53,3.73,1.47,3.07,2.75,1.1,9.93-14.79,9.93-14.79l3.73-5.33s2.18,5.64,2.52,5.73,2.12-4.47,2.12-4.47l2.33,3.5,3.56-5.84,6.49,12.89,14.22.77Z" transform="translate(-1205)"/></g><g class="cls-16"><path class="cls-8" d="M1512.88,159.86s12.26,3,23.55.89l-1.26,4.8c-4.37-.06-19-.75-22.29-5.69" transform="translate(-1205)"/></g><g class="cls-16"><path class="cls-8" d="M1513.43,181.43s12.15-1.53,21-7.06l0,5.14s-15.8,6.51-21,1.92" transform="translate(-1205)"/></g><g class="cls-16"><path class="cls-8" d="M1513.81,143.24s21.17,4.42,36.56.65c3.08-.53,16-.95,14,4.8-.76,2.06-2.47,1.9-5.13,1.05-6.86-2.18-34.32,2-45.41-6.5" transform="translate(-1205)"/></g><g class="cls-16"><path class="cls-8" d="M1514.89,211.64s13-8.29,21.71-21.44l1.22,4.19c0-.09-13.34,17.88-22.93,17.25" transform="translate(-1205)"/></g><g class="cls-16"><path class="cls-8" d="M1518.54,250.49a342.37,342.37,0,0,0,23.27-47.39l2.67,3.58s-17.31,41.53-25.94,43.81" transform="translate(-1205)"/></g><g class="cls-16"><path class="cls-8" d="M1526,277.93s8.69-8.1,13.64-24.57c3.53-11.66,9.1-25.56,11.85-38.76l3.18,2.12s-15.49,61.13-28.67,61.21" transform="translate(-1205)"/></g><g class="cls-16"><path class="cls-8" d="M1555.76,262.09s3.79-11.07,5.62-19.55a133.37,133.37,0,0,0,2.8-20.48l3.86,1.52s-3.76,31-12.28,38.51" transform="translate(-1205)"/></g><g class="cls-16"><path class="cls-8" d="M1544.1,154.54s-10.94,19.15.25,43.58c5.63,12.29,18.87,21.55,34.54,21.89l-1-5.65c-18.74,1.65-42.3-14.74-33.82-59.82" transform="translate(-1205)"/></g><g class="cls-16"><path class="cls-8" d="M1582.22,232.57l5.56.74L1570,262.09s-2.31-.67-2.4-.67Z" transform="translate(-1205)"/></g><g class="cls-16"><path class="cls-8" d="M1557.17,150.87l-7.1-.47c-2.19,7.71,0,19.86,0,19.86s1.46-15.08,7.08-19.39" transform="translate(-1205)"/></g><g class="cls-16"><path class="cls-8" d="M1594.52,168.21a48.17,48.17,0,0,0-14.54,33c-.65,21.75,2.23,29.7,2.23,29.7l5.39.91s-9.29-37.71,6.92-63.65" transform="translate(-1205)"/></g><g class="cls-16"><path class="cls-8" d="M1595.22,156.13s-6.43-.82-9.5.57-8.1,5.52-9.73,5.53a12.38,12.38,0,0,1-4-1.09,5.83,5.83,0,0,0,3.27,2.9c2.31.75,4.36-.29,10.17-3.49,6.14-3.46,10-.74,10-.74Z" transform="translate(-1205)"/></g><g class="cls-16"><path class="cls-8" d="M1583.47,168.1a6.16,6.16,0,0,1-1.28-.17,2.29,2.29,0,0,1-1.47-1.36,3.4,3.4,0,0,1,0-2.57l.17-.34,9.73-5.36,4.54.66a4.43,4.43,0,0,0-2.41-2.56c-2.49-1.1-5.65.2-6,.38-.77.43-1.38-.08-2.06-.68-.35-.34-1-.85-1.81-1.53a1.84,1.84,0,0,0-1.8-.5c-1.88.44-3.58,3.62-4.08,4.82l-.76,1.89-1-1.8c-1.73-3.15-2.09-6-.91-8.38,2.37-4.64,9.56-5.71,9.81-5.79l.94-.09.18.85c0,.09.7,3,3.19,3.66,8.92,2.52,11.09,7.56,11.62,10.3.53,3-.31,5.65-1.51,6.6a1.7,1.7,0,0,1-1.54.26c-.94-.42-4.36-.23-7.1.3-.26.09-.85.26-1.54.44A24.87,24.87,0,0,1,1583.47,168.1Zm-1-3.08a.79.79,0,0,0,.44,1c.85.33,3.67-.54,5-1a15,15,0,0,1,1.8-.53c.94-.18,5.64-1,7.87-.22a6.56,6.56,0,0,0,.66-4.37c-.44-2.3-2.26-6.57-10.24-8.84a7,7,0,0,1-4.3-4.26c-1.8.36-6.07,1.58-7.51,4.58a5.61,5.61,0,0,0,0,4.71c.93-1.54,2.46-3.61,4.51-4.13a4.06,4.06,0,0,1,3.52.92c.86.76,1.46,1.27,1.89,1.61.08.09.17.18.26.17a10.22,10.22,0,0,1,6.76-.38,7.16,7.16,0,0,1,4.4,5.54l.35,1.46-6.94-1.08Zm3.37-10c-.09,0-.09.09-.17.09A.34.34,0,0,1,1585.88,155Z" transform="translate(-1205)"/></g><g class="cls-16"><path class="cls-8" d="M1583.18,147.72a17.24,17.24,0,0,0-4.44,1.83l5.65.31Z" transform="translate(-1205)"/></g><g class="cls-16"><path class="cls-8" d="M1609.51,169.83c-2.48,0-4.31-5-5.27-8.19v-.08L1602,150.1l2.67,3.58c.26.25.69.85,1.21,1.36-.78-.94-1.82-3.33-3.22-9.14l-.18-.51.43-.43c.17-.26.42-.43.59-.69-3.76,1.39-10.1.31-13.87-.44-1-.16-1.88-.33-2.23-.33h0c-.68,0-1.87,1.56-2.29,2.67l-1.81-.84c.34-.69,2-4,4.26-3.88a16.86,16.86,0,0,1,2.57.41c3.52.67,10.12,1.83,13.19.35.94-.43,2.48-1.12,3.17-.1.26.34.77,1.11-1.61,3.78.88,3.33,2,7,2.7,7.77h.34a3.35,3.35,0,0,1,1.63.33l.6.26.09.6a3.67,3.67,0,0,1-.92,2.83,2.37,2.37,0,0,1-1,.43,8.77,8.77,0,0,0,3.9,7.6l.43.25.09.51v.18c.17.94.1,2.39-2.38,3.09A3.17,3.17,0,0,1,1609.51,169.83Zm-3.31-8.71c1,3.33,2.61,6.58,3.38,6.66.77-.26.94-.44.94-.61a10.36,10.36,0,0,1-4.42-9.3h.6a8.91,8.91,0,0,1-1.29-.68Zm.32-5.48a2.8,2.8,0,0,0,1,.5h.17c.08-.08.08-.25.17-.43h-1A1,1,0,0,1,1606.52,155.64Z" transform="translate(-1205)"/></g><g class="cls-16"><path class="cls-8" d="M1609,130.71l-1.63.78-1.37-.76-1.11.34v2.06l-1,1-.6-.43v-1.71l-1.72-.08-1.53,2,.1,2.23.69.51.94-1.12.6.51-.68.86s-1,1.46-1.1,1.63a32,32,0,0,1-4-.23,10.6,10.6,0,0,1-.78-1.37l.08-1.71h.68l.52,1.28,1.37-.18,1-1.38v-1.71l-.43-1.37-1.12.1-.85,1h-1.37l.25-1.46,2-.18V129l-1.89-.07-.69-1.11h-1.2a10,10,0,0,0-.76,1.2h-1.71l.1,2.31,1.54.16s-.17,1.37-.17,1.46a9.32,9.32,0,0,1-1.54-.25l-.52-1-1.19.18-1.11,1.89.44,1.36,1.12,1.62h.94l.85-1.29.69.08v1.54l-.68,1s-3.86-.23-4.11-.14-1-1.54-1-1.54l1-.52.08-1.46a7.36,7.36,0,0,0-.86-.76,7.65,7.65,0,0,1-.35-.94l-1.28.09-.42,1.55-.6-1,.24-1.63-.86-.93-1.79.86-1.89-.84s-.16,1.8-.16,2a14.34,14.34,0,0,1-.5,1.46l.6,1.62,2.4-.53s-.09-.17.77.43c1.2.93,2.16,3.24,2.77,4.77l10.7.37-10.44.49.26.77v.17s15.08,1.8,15.76.34,4.32-8,4.32-8l1.63.42.85-.78.08-1.2.93-1.2Z" transform="translate(-1205)"/></g><g class="cls-16"><path class="cls-8" d="M1588.64,144.52a2.21,2.21,0,0,0-1.36,1.9c0,1.37,1.82,2.55,4,2.54a4.4,4.4,0,0,0,3.75-1.73A21.53,21.53,0,0,1,1588.64,144.52Zm-.23,3.17V146l3.34.58Z" transform="translate(-1205)"/></g><line class="cls-17" x1="393.56" y1="126.49" x2="394.73" y2="331.44"/><path class="cls-8" d="M1304.76,385.88l12.16-.07,18.24,29.6-.13-22.6a7.73,7.73,0,0,0-.45-2.91,3.08,3.08,0,0,0-1.21-1.36,4.46,4.46,0,0,0-2.4-.42h-1l0-2.4,13.36-.08v2.4h-.68a7.19,7.19,0,0,0-2.4.28,2.38,2.38,0,0,0-1.27,1.46,8.62,8.62,0,0,0-.41,3l.18,32.53-3.42,0-22-35.58.16,28.34a16.29,16.29,0,0,0,.19,2.91,3.36,3.36,0,0,0,.69,1.2,3.54,3.54,0,0,0,1.2.76,15.36,15.36,0,0,0,2.92.24v2.4l-13.53.07v-2.39h.68a6,6,0,0,0,2.74-.44,2.65,2.65,0,0,0,1.11-1.38,9.77,9.77,0,0,0,.41-3.25l-.15-25.17a21.14,21.14,0,0,0-.1-2.91,2.12,2.12,0,0,0-1-1.37,6.84,6.84,0,0,0-2.91-.41h-1Z" transform="translate(-1205)"/><path class="cls-8" d="M1348.08,385.63l32.28-.19,3.83,10.42-2.48,1a13.42,13.42,0,0,0-2.08-4,12.3,12.3,0,0,0-2.67-2.47,9.34,9.34,0,0,0-3.17-1.35,29,29,0,0,0-5.74-.31l-9.59.05.08,14.56,4.8,0a7.36,7.36,0,0,0,4-.88,4.63,4.63,0,0,0,1.87-2.24,10.61,10.61,0,0,0,.41-3.51V396l2.83,0,.1,17.38-2.83,0v-1.54a11.84,11.84,0,0,0-.27-2.91,4.64,4.64,0,0,0-2.84-2.64,12.86,12.86,0,0,0-3.17-.24l-4.79,0,.07,12.84a13,13,0,0,0,.18,2.48,1.06,1.06,0,0,0,.61.6,6.55,6.55,0,0,0,2.31.15l6,0a21,21,0,0,0,7.79-1.24,13.74,13.74,0,0,0,4.94-3.71,20.81,20.81,0,0,0,3.22-5.5l2.58.93L1382,425l-33.48.19v-2.4h1.11a6.85,6.85,0,0,0,2.48-.27,2.22,2.22,0,0,0,1.11-1.2,7.22,7.22,0,0,0,.24-2.49l-.16-27.31a5.31,5.31,0,0,0-.35-2.48,2.17,2.17,0,0,0-1.29-.93,13.8,13.8,0,0,0-3.43-.15v-2.31Z" transform="translate(-1205)"/><path class="cls-8" d="M1389.52,385.39l15.32-.09,0,2.4h-1a6.57,6.57,0,0,0-2.65.36,1.69,1.69,0,0,0-.94.95,8.33,8.33,0,0,0-.32,2.74l.1,17.89c0,3.17.37,5.57,1.15,7.1a9.19,9.19,0,0,0,3.88,3.83,11.66,11.66,0,0,0,5.91,1.51,12.37,12.37,0,0,0,6.16-1.75,9.52,9.52,0,0,0,4-4.05c.76-1.54,1.17-3.94,1.15-7.28l-.09-17.21a7.31,7.31,0,0,0-.36-2.73,2.56,2.56,0,0,0-1.12-1.2,5.32,5.32,0,0,0-2.32-.41h-1.11v-2.39l13.27-.08v2.4h-.94c-1.46,0-2.57.28-3.08.88s-.85,1.63-.84,3.26l.11,18.32a16.31,16.31,0,0,1-1.84,8.31,13.61,13.61,0,0,1-5.45,5.34,17.23,17.23,0,0,1-8.29,2,17.63,17.63,0,0,1-8.23-1.92,13.57,13.57,0,0,1-5.51-4.94,14.13,14.13,0,0,1-1.75-7.44l-.11-19.43a6.57,6.57,0,0,0-.36-2.65,2.65,2.65,0,0,0-1-1.11,5.15,5.15,0,0,0-2.32-.33h-1.37Z" transform="translate(-1205)"/><path class="cls-8" d="M1435,385.13l18.83-.11a47.54,47.54,0,0,1,9.51.54,12,12,0,0,1,6,3.22,8.29,8.29,0,0,1,2.26,5.73,8.38,8.38,0,0,1-1.17,4.37,9,9,0,0,1-3.41,3.27,13.49,13.49,0,0,1-3.84,1.56,18.7,18.7,0,0,1,4.71,1.35,9.35,9.35,0,0,1,3.88,3.4,9.45,9.45,0,0,1,.14,9.93,10.36,10.36,0,0,1-3.92,3.79,14.48,14.48,0,0,1-5.89,1.92,59.61,59.61,0,0,1-6.94.46l-19.86.12v-2.4h1.37a4.15,4.15,0,0,0,2.65-.61,3.26,3.26,0,0,0,1-2.75l-.16-27.56a6.26,6.26,0,0,0-.36-2.65,1.59,1.59,0,0,0-.94-1,6.84,6.84,0,0,0-2.4-.33h-1.37l0-2.22Zm10.38,3.11.08,14.55,7.28,0a30.08,30.08,0,0,0,6.93-.56,8,8,0,0,0,4.43-2.68,7,7,0,0,0,1.52-4.71,6.13,6.13,0,0,0-1.39-4.1,7.32,7.32,0,0,0-3.78-2.21,34.63,34.63,0,0,0-6.34-.31l-8.73.06Zm.1,17.2.07,13a10.76,10.76,0,0,0,.18,2.31,1.22,1.22,0,0,0,1,.68,14.46,14.46,0,0,0,2.74.15l3.85,0a36.73,36.73,0,0,0,8.22-.65,7.83,7.83,0,0,0,4.18-2.76,7.87,7.87,0,0,0,.29-9.33,8,8,0,0,0-3.87-2.72c-1.63-.59-4.63-.83-8.82-.81l-7.79.13Z" transform="translate(-1205)"/><path class="cls-8" d="M1493.19,384.79l4.63,0,12.52,33.06a9.62,9.62,0,0,0,1.81,3.33,3.36,3.36,0,0,0,2.49.75h.6v2.4l-14.12.08,0-2.4c.43,0,1-.09,1.37-.09a4,4,0,0,0,1.8-.27,1.77,1.77,0,0,0,.85-1.38,13.23,13.23,0,0,0-.79-2.9l-2.7-7.69-14.38.08-3,8.58a6.25,6.25,0,0,0-.51,1.89,2.29,2.29,0,0,0,.27,1,1.11,1.11,0,0,0,.77.6,4.13,4.13,0,0,0,1.63.16h1.28l0,2.4-11.82.07v-2.4a5.68,5.68,0,0,0,2.39-.36,3.71,3.71,0,0,0,1.28-1,15.08,15.08,0,0,0,1.44-3.09Zm-4.83,22.2,12.24-.07-6.18-17Z" transform="translate(-1205)"/><path class="cls-8" d="M1517.51,384.65l15.32-.09,0,2.4h-1a6.57,6.57,0,0,0-2.65.36,1.67,1.67,0,0,0-.94.94,8.53,8.53,0,0,0-.33,2.74l.11,17.9c0,3.16.37,5.56,1.15,7.1a9.3,9.3,0,0,0,3.88,3.83,11.66,11.66,0,0,0,5.91,1.5,12.46,12.46,0,0,0,6.16-1.74,9.68,9.68,0,0,0,4-4.05c.76-1.55,1.17-3.95,1.15-7.28l-.1-17.21a7.2,7.2,0,0,0-.35-2.74,2.54,2.54,0,0,0-1.12-1.19,5.3,5.3,0,0,0-2.32-.42h-1.11v-2.4l13.27-.07v2.39h-.94c-1.46,0-2.57.27-3.08.87s-.85,1.63-.84,3.26l.11,18.32a16.37,16.37,0,0,1-1.84,8.32,13.67,13.67,0,0,1-5.45,5.34,17.34,17.34,0,0,1-8.29,2,17.6,17.6,0,0,1-8.23-1.92,13.55,13.55,0,0,1-5.51-4.93,14.18,14.18,0,0,1-1.75-7.44L1522.6,391a6.57,6.57,0,0,0-.36-2.65,2.58,2.58,0,0,0-1-1.1,4.84,4.84,0,0,0-2.31-.33h-1.45l0-2.31Z" transform="translate(-1205)"/><path class="cls-8" d="M1563.48,384.39l32.28-.19,3.82,10.43-2.47.95a13.65,13.65,0,0,0-2.08-4,12.3,12.3,0,0,0-2.67-2.47,9.34,9.34,0,0,0-3.17-1.35,29.85,29.85,0,0,0-5.74-.31l-9.59.06.08,14.55,4.8,0a7.38,7.38,0,0,0,4-.88,4.67,4.67,0,0,0,1.87-2.23,10.75,10.75,0,0,0,.4-3.52v-.68l2.83,0,.1,17.38-2.83,0v-1.54a12.43,12.43,0,0,0-.27-2.91A4.64,4.64,0,0,0,1582,405a12.86,12.86,0,0,0-3.17-.24l-4.8,0,.08,12.84a13,13,0,0,0,.18,2.48,1.06,1.06,0,0,0,.61.6,6.64,6.64,0,0,0,2.31.16l6,0a21,21,0,0,0,7.79-1.24,13.82,13.82,0,0,0,4.94-3.71,21.08,21.08,0,0,0,3.22-5.5l2.57.93-4.38,12.44-33.47.19v-2.4H1565a7.41,7.41,0,0,0,2.48-.27,2.25,2.25,0,0,0,1.11-1.21,7.15,7.15,0,0,0,.24-2.48l-.16-27.31a5.54,5.54,0,0,0-.35-2.48,2.14,2.14,0,0,0-1.29-.94,13.8,13.8,0,0,0-3.43-.15l-.1-2.31Z" transform="translate(-1205)"/><path class="cls-8" d="M1605.43,384.15l20.46-.12a25.63,25.63,0,0,1,8.83,1.15,10.16,10.16,0,0,1,4.64,3.48A8.71,8.71,0,0,1,1641,394a9.8,9.8,0,0,1-1.51,5.49,10.45,10.45,0,0,1-4.52,3.79,19.39,19.39,0,0,1-7.78,1.5l10.6,12.7a18.79,18.79,0,0,0,1.73,2,9.32,9.32,0,0,0,2.06,1.35,5.86,5.86,0,0,0,2.48.42h.69v2.4l-9.07.05-14.66-18.83-5.14,0,.07,12.24a13.08,13.08,0,0,0,.19,2.57,1.92,1.92,0,0,0,1,1.36,6.16,6.16,0,0,0,2.74.41h1v2.39l-15.15.09v-2.4h1.37a9.36,9.36,0,0,0,2-.19,1.81,1.81,0,0,0,.94-.69,4.55,4.55,0,0,0,.59-1.29c0-.17.08-1.19.07-2.91l-.15-25.94a6.17,6.17,0,0,0-.36-2.48,2.53,2.53,0,0,0-.94-1.11,4.56,4.56,0,0,0-2.15-.33h-1.62l0-2.39Zm10.38,3,.08,14.9L1624,402a22.81,22.81,0,0,0,5.82-.55,6.84,6.84,0,0,0,3.75-2.5,7.29,7.29,0,0,0,1.34-4.63,7.41,7.41,0,0,0-1-4,6.4,6.4,0,0,0-2.75-2.47,13.12,13.12,0,0,0-5.14-.74l-10.19.06Z" transform="translate(-1205)"/><path class="cls-8" d="M1692.33,398.29l13.18-.08v2.4h-1.62a6.52,6.52,0,0,0-2.31.27,2,2,0,0,0-1,.86,4.43,4.43,0,0,0-.67,1.8,29.84,29.84,0,0,1-4.22,11.16,11.74,11.74,0,0,0,1.91,3.24,9.68,9.68,0,0,0,2.32,2.3,4.64,4.64,0,0,0,2.14.58,3.26,3.26,0,0,0,2.4-.87,3,3,0,0,0,.57-3.59,4.94,4.94,0,0,0-1.71-1.19,3.6,3.6,0,0,1-1.47-1.19,2.86,2.86,0,0,1-.43-1.46,2.79,2.79,0,0,1,.67-1.88,2.35,2.35,0,0,1,1.88-.7,4.64,4.64,0,0,1,3.52,1.69,6.39,6.39,0,0,1,1.48,4.45,7.53,7.53,0,0,1-2.36,5.57,8.23,8.23,0,0,1-5.81,2.35,9.4,9.4,0,0,1-4.46-1.17,13.65,13.65,0,0,1-4.13-3.92,23.83,23.83,0,0,1-5.12,3.63,16.91,16.91,0,0,1-14.3,0,12.8,12.8,0,0,1-5.07-4.42,11.33,11.33,0,0,1-1.84-6.15,11.5,11.5,0,0,1,1.43-5.66,13.86,13.86,0,0,1,4.42-4.56,22.85,22.85,0,0,1,5.38-2.52,13.83,13.83,0,0,1-3.61-2,6.55,6.55,0,0,1-1.89-2.47,7.37,7.37,0,0,1-.71-3.08,7.21,7.21,0,0,1,2.62-5.75,10.28,10.28,0,0,1,7.18-2.7,9.83,9.83,0,0,1,6.86,2.36,7.53,7.53,0,0,1,2.78,5.72,8,8,0,0,1-1.09,4.12,8.9,8.9,0,0,1-3.07,3.09,10.1,10.1,0,0,1-3.33,1.31,13.63,13.63,0,0,1,4.21,2,19.06,19.06,0,0,1,3.53,3.75,34.51,34.51,0,0,1,3.55,6.23c1.77-4.12,2.69-7.13,2.68-9.18a1.54,1.54,0,0,0-.61-1.45,4.44,4.44,0,0,0-2.48-.42H1692l0-2.48Zm-12.41,2.21c-2.3,1.21-3.75,2-4.26,2.34a9.75,9.75,0,0,0-2.3,2.32,11.76,11.76,0,0,0-1.53,2.83,8.45,8.45,0,0,0-.49,2.92,10.27,10.27,0,0,0,10.16,10,10.29,10.29,0,0,0,4.44-1.05,17.28,17.28,0,0,0,4.86-3.37,6.51,6.51,0,0,1-.69-1.36l-4.5-8.71c-.35-.77-.95-1.62-1.56-2.64a10.21,10.21,0,0,0-1.63-1.79A11.27,11.27,0,0,0,1679.92,400.5Zm1.12-14.82a5,5,0,0,0-3.85,1.65,6.73,6.73,0,0,0,0,8.56,5.06,5.06,0,0,0,3.87,1.69,5.35,5.35,0,0,0,3.84-1.73,6,6,0,0,0,1.6-4.21,6.18,6.18,0,0,0-1.56-4.35A5.3,5.3,0,0,0,1681,385.68Z" transform="translate(-1205)"/><path class="cls-8" d="M1757.82,383.27h2l3.07,12.23-2.65.78a20.28,20.28,0,0,0-6.72-8.09,12.74,12.74,0,0,0-7.55-2.44,10.56,10.56,0,0,0-4.45.88,7.58,7.58,0,0,0-3,2.33,4.79,4.79,0,0,0-1,2.91,5,5,0,0,0,.78,2.57,7.31,7.31,0,0,0,2.33,2.21,24,24,0,0,0,5.15,1.94l7.46,2.18a29.19,29.19,0,0,1,3.94,1.52,15.31,15.31,0,0,1,4,2.38,10.44,10.44,0,0,1,2.33,3.06,8.84,8.84,0,0,1,.88,3.94,10.76,10.76,0,0,1-4.06,8.33c-2.73,2.41-6.32,3.54-10.68,3.57a19.33,19.33,0,0,1-6.09-.91,18.48,18.48,0,0,1-5.75-3.48l-1.27,3.78h-2l-2.74-14.2,2.65-.53a19.59,19.59,0,0,0,3.89,6.66,17.45,17.45,0,0,0,5.33,4.16,13.59,13.59,0,0,0,5.92,1.34,11.37,11.37,0,0,0,7.18-2.52,6.12,6.12,0,0,0,2.54-4.9,5.12,5.12,0,0,0-1.91-4.18c-1.29-1.11-3.52-2.12-6.7-3.05l-7.11-2c-4-1.09-6.78-2.62-8.42-4.4a9,9,0,0,1-2.52-6.15,8.47,8.47,0,0,1,1.6-5.06,11.41,11.41,0,0,1,4.86-3.89,17,17,0,0,1,7.18-1.58,17.65,17.65,0,0,1,6.34,1.08,12.08,12.08,0,0,1,4,2.29Z" transform="translate(-1205)"/><path class="cls-8" d="M1790.69,382.4a18.38,18.38,0,0,1,9.86,2.6,19.69,19.69,0,0,1,7.32,7.23,20.52,20.52,0,0,1,2.63,10.43q0,9.12-5.57,14.93c-3.74,3.87-8.61,5.78-14.43,5.82-6.59,0-11.74-2.25-15.62-6.85a22,22,0,0,1-2.2-24,19.49,19.49,0,0,1,7.5-7.41A21.3,21.3,0,0,1,1790.69,382.4Zm0,3.08a13.73,13.73,0,0,0-7.61,2.1,14.24,14.24,0,0,0-5.1,6,22.32,22.32,0,0,0-1.83,9.77,21,21,0,0,0,1.94,9.41,15,15,0,0,0,5.08,5.88,13.18,13.18,0,0,0,7.21,2,13,13,0,0,0,7-2,14.88,14.88,0,0,0,5-6.36,22.15,22.15,0,0,0,1.91-9.6,23.92,23.92,0,0,0-2-9.75,12.29,12.29,0,0,0-4.57-5.63A12.47,12.47,0,0,0,1790.71,385.48Z" transform="translate(-1205)"/><path class="cls-8" d="M1816.12,382.94l15.33-.09v2.4h-1a6.32,6.32,0,0,0-2.56.36,2.15,2.15,0,0,0-1.11,1.2,8.47,8.47,0,0,0-.24,2.66l.06,11,20.55-.11-.06-10.79a12.56,12.56,0,0,0-.19-2.65,2.68,2.68,0,0,0-1-1.37,4.25,4.25,0,0,0-2.31-.41h-1.54l0-2.39,15.15-.09,0,2.4h-1.37a4.76,4.76,0,0,0-2.23.35,2.47,2.47,0,0,0-.93,1,8.39,8.39,0,0,0-.24,2.65l.15,27a9.26,9.26,0,0,0,.27,2.82,1.66,1.66,0,0,0,1.12.85,19.67,19.67,0,0,0,3.43.16v2.39l-15.15.09,0-2.4h1.12a10.07,10.07,0,0,0,2.82-.28,1.31,1.31,0,0,0,.85-.94,15.51,15.51,0,0,0,.16-3l-.07-12.33-20.55.12.07,12.67a10,10,0,0,0,.28,2.91,1.65,1.65,0,0,0,1.11.85,25.26,25.26,0,0,0,3.6.15v2.4l-15.32.08v-2.39h.94a8.58,8.58,0,0,0,2.73-.27,1.55,1.55,0,0,0,.86-.95,5.44,5.44,0,0,0,.32-2.4l-.15-27.31a8.82,8.82,0,0,0-.27-2.56,1.83,1.83,0,0,0-1-1,5.67,5.67,0,0,0-2.14-.33h-1.63l.07-2.39Z" transform="translate(-1205)"/><path class="cls-8" d="M1862.52,382.67l12.16-.07,18.23,29.6-.13-22.6a7.57,7.57,0,0,0-.44-2.91,3.13,3.13,0,0,0-1.21-1.36,4.38,4.38,0,0,0-2.4-.41h-1l0-2.39,13.27-.08,0,2.4h-.69a7.44,7.44,0,0,0-2.39.27,2.43,2.43,0,0,0-1.28,1.46,9,9,0,0,0-.41,3l.19,32.53-3.43,0-22-35.57.16,28.34a16.38,16.38,0,0,0,.19,2.91,3.57,3.57,0,0,0,.69,1.19,3.71,3.71,0,0,0,1.21.77,16.14,16.14,0,0,0,2.91.24v2.39l-13.44.08v-2.4h.68a6.15,6.15,0,0,0,2.74-.45,2.57,2.57,0,0,0,1.1-1.37,9.37,9.37,0,0,0,.41-3.26l-.14-25.17a23,23,0,0,0-.1-2.91,2.1,2.1,0,0,0-1-1.36,6.7,6.7,0,0,0-2.92-.41h-1l0-2.48Z" transform="translate(-1205)"/><path class="cls-8" d="M1305.63,447.85V446.4l8.73,0a31.45,31.45,0,0,1,8.39.72,11.36,11.36,0,0,1,5.68,4.08,12.7,12.7,0,0,1,2.44,7.69,13.19,13.19,0,0,1-1.17,5.49,10.81,10.81,0,0,1-3.06,4.12,8.92,8.92,0,0,1-3.84,1.82,20.61,20.61,0,0,1-4.53.54l-12.5.07v-1.45h1.37a1.79,1.79,0,0,0,1-.26,1.52,1.52,0,0,0,.6-.69,7,7,0,0,0,.08-1.54l-.1-16.44a6.44,6.44,0,0,0-.18-1.8,1.64,1.64,0,0,0-.78-.76A10.4,10.4,0,0,0,1305.63,447.85Zm6.46,21.11,5.31,0a22.29,22.29,0,0,0,2.65-.27,9.62,9.62,0,0,0,2.65-.7,6.64,6.64,0,0,0,2.22-2,11.17,11.17,0,0,0,1.69-3.18,12.9,12.9,0,0,0,.57-4.28,11.58,11.58,0,0,0-.62-4.11,10.45,10.45,0,0,0-1.81-3.15,9,9,0,0,0-2.67-2.13,9.52,9.52,0,0,0-3.26-.92,31.22,31.22,0,0,0-3.25-.07l-3.6,0Z" transform="translate(-1205)"/><path class="cls-8" d="M1341,446.11l9.42-.05v1.45h-.77a3,3,0,0,0-1.46.26,1.49,1.49,0,0,0-.68.78,6,6,0,0,0-.16,2.05l.09,15.84a4.35,4.35,0,0,0,.27,1.71,1.53,1.53,0,0,0,.69.77,3,3,0,0,0,1.46.25h.68v1.46l-9.42.05v-1.45h.77a2.93,2.93,0,0,0,1.45-.26,1.57,1.57,0,0,0,.6-.69,6.9,6.9,0,0,0,.16-1.72l-.1-16.18a6.29,6.29,0,0,0-.18-1.79,1.5,1.5,0,0,0-.6-.68,2.86,2.86,0,0,0-1.46-.25H1341v-1.54Z" transform="translate(-1205)"/><path class="cls-8" d="M1360.33,446l20-.11,2.35,6.4-1.54.61a9.25,9.25,0,0,0-1.3-2.47,9.42,9.42,0,0,0-1.63-1.54,6,6,0,0,0-2-.84,17.55,17.55,0,0,0-3.51-.15l-6,0,0,9,3,0a4.9,4.9,0,0,0,2.48-.52,2.5,2.5,0,0,0,1.1-1.38,6.09,6.09,0,0,0,.24-2.14v-.43h1.71l.07,10.79h-1.72v-.94a8.67,8.67,0,0,0-.18-1.8,2.46,2.46,0,0,0-.69-1,3.52,3.52,0,0,0-1-.68,8.43,8.43,0,0,0-2-.16h-2.92l0,8a6.54,6.54,0,0,0,.09,1.54.86.86,0,0,0,.35.42,5.26,5.26,0,0,0,1.46.08l3.68,0a11.87,11.87,0,0,0,4.79-.8,11,11,0,0,0,3.07-2.24,12.27,12.27,0,0,0,2-3.35l1.63.59-2.7,7.72-20.72.12V469.2h.69a4.82,4.82,0,0,0,1.54-.18,1.53,1.53,0,0,0,.68-.78,5.32,5.32,0,0,0,.16-1.54l-.1-16.87a3.1,3.1,0,0,0-.26-1.54,1.9,1.9,0,0,0-.77-.59,9.84,9.84,0,0,0-2.06-.07V446Z" transform="translate(-1205)"/><path class="cls-8" d="M1411.18,445.71l9.42-.06v1.46h-.77a3,3,0,0,0-1.45.27,1.49,1.49,0,0,0-.69.77,6.16,6.16,0,0,0-.15,2.06l.09,15.84a4.2,4.2,0,0,0,.26,1.71,1.55,1.55,0,0,0,.69.76,2.86,2.86,0,0,0,1.46.25h.68v1.45l-9.41.06v-1.46h.77a2.88,2.88,0,0,0,1.45-.27,1.52,1.52,0,0,0,.6-.69,6.74,6.74,0,0,0,.16-1.71l-.1-16.18a6.44,6.44,0,0,0-.18-1.8,1.49,1.49,0,0,0-.6-.68,3,3,0,0,0-1.46-.25h-.77v-1.54Z" transform="translate(-1205)"/><path class="cls-8" d="M1430.53,445.6l7.79-.05,7.39,19.39,7-19.47,7.44,0v1.45h-.6a5.89,5.89,0,0,0-1.54.18,1.22,1.22,0,0,0-.59.69,3.84,3.84,0,0,0-.25,1.63l.09,16.18a7.83,7.83,0,0,0,.19,2,1.15,1.15,0,0,0,.6.68,3.57,3.57,0,0,0,1.63.25h.6v1.45l-9.5.06v-1.46h.69a4.63,4.63,0,0,0,1.28-.18,1.88,1.88,0,0,0,.68-.43,2.45,2.45,0,0,0,.34-.69,6.61,6.61,0,0,0,.08-1.11l-.1-18.07-7.92,22H1444l-8.17-21.61.1,17.38a4.44,4.44,0,0,0,.26,1.8,1.79,1.79,0,0,0,.69.68,4.18,4.18,0,0,0,1.72.24h.6V470l-8.64.05v-1.46h.51a4.55,4.55,0,0,0,1.8-.27,1.62,1.62,0,0,0,.76-.77,4.56,4.56,0,0,0,.25-1.89l-.09-15.92a8.61,8.61,0,0,0-.18-1.8,2.35,2.35,0,0,0-.61-.68,3.68,3.68,0,0,0-1.62-.16h-.86V445.6Z" transform="translate(-1205)"/><path class="cls-8" d="M1470.51,445.37l7.79-.05,7.39,19.39,7-19.47,7.44,0v1.45h-.6a5.11,5.11,0,0,0-1.54.18,1.17,1.17,0,0,0-.59.68,3.84,3.84,0,0,0-.25,1.63l.09,16.18a7.83,7.83,0,0,0,.19,2,1.15,1.15,0,0,0,.6.68,3.57,3.57,0,0,0,1.63.25h.6v1.45l-9.33.05v-1.45h.69a4.56,4.56,0,0,0,1.28-.18,1.82,1.82,0,0,0,.69-.44,2.25,2.25,0,0,0,.33-.68,5.73,5.73,0,0,0,.08-1.12l-.1-18.06-7.92,22h-1.8L1476,448.16l.1,17.38a4.44,4.44,0,0,0,.26,1.8,1.86,1.86,0,0,0,.69.68,4.18,4.18,0,0,0,1.72.24h.6v1.46l-8.65,0v-1.46h.51a4.55,4.55,0,0,0,1.8-.27,1.66,1.66,0,0,0,.77-.78,4.52,4.52,0,0,0,.24-1.88l-.09-15.92a7.41,7.41,0,0,0-.18-1.8,2.32,2.32,0,0,0-.6-.68,3.76,3.76,0,0,0-1.63-.16h-.86v-1.45Z" transform="translate(-1205)"/><path class="cls-8" d="M1523.5,444.63a11.3,11.3,0,0,1,6.09,1.6,12.64,12.64,0,0,1,4.56,4.51,13.09,13.09,0,0,1,1.58,6.41,12.85,12.85,0,0,1-3.45,9.27,11.93,11.93,0,0,1-9,3.64,12.08,12.08,0,0,1-9.7-4.22,12.55,12.55,0,0,1-3-8.38,12.72,12.72,0,0,1,1.59-6.51,12.38,12.38,0,0,1,4.6-4.57A13.69,13.69,0,0,1,1523.5,444.63Zm0,2a8.47,8.47,0,0,0-4.7,1.31,9,9,0,0,0-3.14,3.7,14.17,14.17,0,0,0-1.17,6,13.42,13.42,0,0,0,1.24,5.82,8.35,8.35,0,0,0,3.18,3.66,8.19,8.19,0,0,0,4.46,1.26,8.42,8.42,0,0,0,4.36-1.22,8.67,8.67,0,0,0,3.06-4,13.47,13.47,0,0,0,1.17-5.91,15.9,15.9,0,0,0-1.24-6.08,7.8,7.8,0,0,0-2.84-3.49A8,8,0,0,0,1523.51,446.6Z" transform="translate(-1205)"/><path class="cls-8" d="M1545.85,444.93l11.64-.06a27.77,27.77,0,0,1,5.83.39,6.5,6.5,0,0,1,3.69,2,5.36,5.36,0,0,1,1.39,3.51,5.29,5.29,0,0,1-.67,2.65,7.7,7.7,0,0,1-2,2.07,9.52,9.52,0,0,1-2.39,1,11.92,11.92,0,0,1,2.91.84,5.7,5.7,0,0,1,2.41,2.12,5.6,5.6,0,0,1,.88,3.08,5.71,5.71,0,0,1-.84,3.09,6.9,6.9,0,0,1-2.39,2.32,9.7,9.7,0,0,1-3.67,1.22,35,35,0,0,1-4.28.28l-12.33.07v-1.45h.86a2.48,2.48,0,0,0,1.62-.35,2,2,0,0,0,.59-1.71l-.09-17a6.79,6.79,0,0,0-.18-1.63c-.18-.25-.35-.51-.61-.59a3.07,3.07,0,0,0-1.45-.16h-.86Zm6.43,1.94,0,9,4.46,0a23.29,23.29,0,0,0,4.28-.28,5.19,5.19,0,0,0,2.73-1.64,4.59,4.59,0,0,0,.92-2.92,3.41,3.41,0,0,0-.87-2.48,4.53,4.53,0,0,0-2.32-1.35,18.49,18.49,0,0,0-3.94-.24l-5.31-.05Zm.06,10.7.05,8a5.52,5.52,0,0,0,.09,1.46.85.85,0,0,0,.61.42,6.41,6.41,0,0,0,1.71.08h2.4a22.63,22.63,0,0,0,5-.46,4.72,4.72,0,0,0,2.56-1.73,4.83,4.83,0,0,0,1.1-3.09,4.18,4.18,0,0,0-.87-2.65,5,5,0,0,0-2.41-1.69,19.62,19.62,0,0,0-5.48-.49l-4.8.12Z" transform="translate(-1205)"/><path class="cls-8" d="M1579.32,444.74l9.42-.05v1.45h-.68a3,3,0,0,0-1.46.26,1.49,1.49,0,0,0-.68.78,6,6,0,0,0-.16,2.05l.09,15.84a4.35,4.35,0,0,0,.27,1.71,1.53,1.53,0,0,0,.69.77,3,3,0,0,0,1.46.25h.68v1.46l-9.42.05v-1.45h.77a3,3,0,0,0,1.46-.26,1.55,1.55,0,0,0,.59-.69,6,6,0,0,0,.16-1.72l-.09-16.18a6.29,6.29,0,0,0-.18-1.79,1.56,1.56,0,0,0-.6-.68,2.88,2.88,0,0,0-1.46-.25h-.77l-.1-1.54Z" transform="translate(-1205)"/><path class="cls-8" d="M1598.67,444.63l9.51-.05V446h-.85a4.88,4.88,0,0,0-1.46.18c-.25.17-.51.34-.59.6a2.77,2.77,0,0,0-.17,1.37l.1,17.12a4.2,4.2,0,0,0,.1,1.37,1,1,0,0,0,.43.43,5.06,5.06,0,0,0,1.45.07h1.29a10.9,10.9,0,0,0,3.93-.71,9.65,9.65,0,0,0,2.9-1.9,12.32,12.32,0,0,0,2.29-3.78l1.54.5-2.69,7.72-17.64.1v-1.45h.77a5.89,5.89,0,0,0,1.54-.18,1.69,1.69,0,0,0,.59-.69,3.33,3.33,0,0,0,.16-1.55l-.09-16.69a7,7,0,0,0-.18-1.71,1.06,1.06,0,0,0-.61-.6,5.66,5.66,0,0,0-1.54-.16h-.77v-1.46Z" transform="translate(-1205)"/><path class="cls-8" d="M1626.84,444.47l9.42-.06v1.46h-.68a3,3,0,0,0-1.45.27,1.43,1.43,0,0,0-.68.77,5.82,5.82,0,0,0-.16,2.06l.09,15.84a4.2,4.2,0,0,0,.26,1.71,1.55,1.55,0,0,0,.69.76,2.86,2.86,0,0,0,1.46.25h.68V469l-9.41.06v-1.46h.77a2.88,2.88,0,0,0,1.45-.27,1.52,1.52,0,0,0,.6-.69,6.74,6.74,0,0,0,.16-1.71l-.09-16.18a6.71,6.71,0,0,0-.19-1.8,1.49,1.49,0,0,0-.6-.68,3,3,0,0,0-1.46-.25h-.77l-.09-1.54Z" transform="translate(-1205)"/><path class="cls-8" d="M1646.19,444.36l19.94-.12,2.35,6.41-1.53.61a10,10,0,0,0-1.3-2.48,7.24,7.24,0,0,0-1.64-1.53,5.7,5.7,0,0,0-2-.84,17.6,17.6,0,0,0-3.51-.15l-6,0,.06,9,3,0a4.79,4.79,0,0,0,2.48-.53,2.42,2.42,0,0,0,1.11-1.37,6.12,6.12,0,0,0,.24-2.14v-.43h1.71l.06,10.78h-1.71v-.94a8.41,8.41,0,0,0-.19-1.79,2.26,2.26,0,0,0-.69-1,3.46,3.46,0,0,0-1-.68,5.72,5.72,0,0,0-2-.16l-3,0,0,8a5.7,5.7,0,0,0,.1,1.54.86.86,0,0,0,.34.43,5.76,5.76,0,0,0,1.46.08l3.68,0a12.05,12.05,0,0,0,4.79-.8,9.86,9.86,0,0,0,3.07-2.25,11.73,11.73,0,0,0,2-3.35l1.63.59-2.7,7.72-20.72.12v-1.45h.69a4.26,4.26,0,0,0,1.54-.18,1.51,1.51,0,0,0,.68-.77,5.32,5.32,0,0,0,.16-1.54l-.09-16.87a3.2,3.2,0,0,0-.27-1.54,1.9,1.9,0,0,0-.77-.59,9.48,9.48,0,0,0-2.06-.08v-1.62Z" transform="translate(-1205)"/><path class="cls-8" d="M1678.81,444.17l7.53,0,11.23,18.34-.08-14a4.38,4.38,0,0,0-.26-1.79,2,2,0,0,0-.78-.85,3.3,3.3,0,0,0-1.46-.25h-.59v-1.45l8.22-.05v1.45h-.42a4.88,4.88,0,0,0-1.46.18,1.85,1.85,0,0,0-.85.94,3.93,3.93,0,0,0-.25,1.8l.12,20.12h-2.14l-13.57-22,.1,17.55a8.51,8.51,0,0,0,.1,1.8,3.72,3.72,0,0,0,.43.77,1.79,1.79,0,0,0,.77.42,6.32,6.32,0,0,0,1.8.16v1.46l-8.3.05v-1.46h.43a3.81,3.81,0,0,0,1.71-.27,1.81,1.81,0,0,0,.68-.86,5.83,5.83,0,0,0,.24-2.05l-.09-15.59a8.6,8.6,0,0,0-.09-1.79,1.33,1.33,0,0,0-.61-.86,3.86,3.86,0,0,0-1.8-.24h-.6v-1.54Z" transform="translate(-1205)"/><path class="cls-8" d="M1712.36,444l7.8-.05,7.38,19.39,7-19.47,7.45,0v1.45h-.59a5,5,0,0,0-1.54.18,1.15,1.15,0,0,0-.6.68,3.84,3.84,0,0,0-.25,1.63l.1,16.18a7.53,7.53,0,0,0,.18,2,1.19,1.19,0,0,0,.6.68,3.57,3.57,0,0,0,1.63.25h.6v1.45l-9.33,0v-1.45h.68a4.71,4.71,0,0,0,1.29-.18,2,2,0,0,0,.68-.43,2.76,2.76,0,0,0,.34-.69,6.66,6.66,0,0,0,.08-1.12l-.11-18.06-7.92,22H1726l-8.17-21.61.1,17.38a4.4,4.4,0,0,0,.27,1.8,1.73,1.73,0,0,0,.69.68,4.1,4.1,0,0,0,1.71.24h.6v1.46l-8.65.05v-1.46h.52a4.53,4.53,0,0,0,1.79-.27,1.69,1.69,0,0,0,.77-.77,4.6,4.6,0,0,0,.24-1.89l-.09-15.92a7.41,7.41,0,0,0-.18-1.8,1.67,1.67,0,0,0-.69-.68,3.73,3.73,0,0,0-1.63-.16h-.85l-.1-1.45Z" transform="translate(-1205)"/><path class="cls-8" d="M1761.51,443.69h2.91l7.73,20.5a5.35,5.35,0,0,0,1.13,2.05,2.06,2.06,0,0,0,1.54.5h.43v1.46l-8.73.05v-1.46h.85a2.73,2.73,0,0,0,1.12-.18,1.06,1.06,0,0,0,.51-.86,8,8,0,0,0-.53-1.8l-1.65-4.69-8.91.05-1.85,5.32a4.47,4.47,0,0,0-.25,1.11,1.18,1.18,0,0,0,.18.6.82.82,0,0,0,.51.42,2.42,2.42,0,0,0,1,.17h.77v1.46l-7.36,0V467a5.57,5.57,0,0,0,1.45-.18,2,2,0,0,0,.77-.69,6.67,6.67,0,0,0,.84-1.89Zm-3,13.81,7.54-.05-3.83-10.51Z" transform="translate(-1205)"/><path class="cls-8" d="M1783.76,443.57l9.51-.06V445h-.69a3.7,3.7,0,0,0-1.62.27,1.63,1.63,0,0,0-.68.86,4.89,4.89,0,0,0-.17,1.45l.06,9.34,9.19-9.82a5.06,5.06,0,0,0,.85-1,1.28,1.28,0,0,0,.17-.51.64.64,0,0,0-.35-.52,4.27,4.27,0,0,0-1.37-.16h-.6V443.4l8.73,0v1.45a7.11,7.11,0,0,0-1.88.27,4.18,4.18,0,0,0-1.37.61A16.06,16.06,0,0,0,1802,447l-6.55,6.8,7.59,9.89a10,10,0,0,0,1.64,1.87,2.83,2.83,0,0,0,1.2.68,6,6,0,0,0,2,.16v1.46l-10.45.06v-1.46h.6a3.34,3.34,0,0,0,1.2-.09l.51-.26a.86.86,0,0,0,.17-.43,5.31,5.31,0,0,0-1.21-2l-5.52-7.5-3.15,3.18,0,4.71a3.54,3.54,0,0,0,.26,1.63,2.1,2.1,0,0,0,.78.68,9.12,9.12,0,0,0,2.14.16v1.45l-9.51.06v-1.46h.77a3.2,3.2,0,0,0,1.54-.27,1.36,1.36,0,0,0,.59-.77,4.51,4.51,0,0,0,.25-1.8l-.1-16a6,6,0,0,0-.18-1.71,1.55,1.55,0,0,0-.6-.68,4.11,4.11,0,0,0-1.71-.17h-.52v-1.54Z" transform="translate(-1205)"/><path class="cls-8" d="M1816.38,443.38l9.51-.06v1.46H1825a5.66,5.66,0,0,0-1.46.18c-.25.18-.51.35-.59.61a2.75,2.75,0,0,0-.17,1.37l.1,17.12a4.24,4.24,0,0,0,.1,1.37,1,1,0,0,0,.43.43,5.06,5.06,0,0,0,1.45.07h1.29a10.7,10.7,0,0,0,3.93-.7,9.65,9.65,0,0,0,2.9-1.9,12.32,12.32,0,0,0,2.29-3.78l1.54.5-2.69,7.72-17.64.1v-1.45h.77a5.11,5.11,0,0,0,1.54-.18,1.6,1.6,0,0,0,.59-.68,3.35,3.35,0,0,0,.16-1.55l-.09-16.69a6.91,6.91,0,0,0-.18-1.71,1.41,1.41,0,0,0-.61-.6,5.66,5.66,0,0,0-1.54-.16h-.77v-1.45Z" transform="translate(-1205)"/><path class="cls-8" d="M1844.89,443.22l19.95-.12,2.35,6.41-1.54.61a9.33,9.33,0,0,0-1.3-2.48,6.78,6.78,0,0,0-1.63-1.53,5.77,5.77,0,0,0-2-.85,18.37,18.37,0,0,0-3.51-.15l-6,0,0,9,3,0a4.89,4.89,0,0,0,2.48-.53,2.45,2.45,0,0,0,1.1-1.37,6.34,6.34,0,0,0,.25-2.15v-.42h1.72l.06,10.78h-1.72v-.94a8.75,8.75,0,0,0-.18-1.8,2.46,2.46,0,0,0-.69-1,3.74,3.74,0,0,0-1-.68,5.76,5.76,0,0,0-2-.16l-3,0,0,8a5.45,5.45,0,0,0,.09,1.54.91.91,0,0,0,.34.43,5.51,5.51,0,0,0,1.46.07l3.68,0a11.86,11.86,0,0,0,4.79-.79,9.74,9.74,0,0,0,3.07-2.25,11.73,11.73,0,0,0,2-3.35l1.63.59-2.69,7.72-20.72.12v-1.45h.68a4.26,4.26,0,0,0,1.54-.18,1.43,1.43,0,0,0,.68-.77,5.21,5.21,0,0,0,.17-1.54l-.1-16.87a3,3,0,0,0-.27-1.54,1.9,1.9,0,0,0-.77-.59,9.36,9.36,0,0,0-2-.08v-1.62Z" transform="translate(-1205)"/><path class="cls-8" d="M1877.59,443l12.68-.08a15.45,15.45,0,0,1,5.48.74,6.58,6.58,0,0,1,2.84,2.13,5.4,5.4,0,0,1,1,3.24,6.62,6.62,0,0,1-.92,3.43,5.43,5.43,0,0,1-2.81,2.33,11.16,11.16,0,0,1-4.88.89l6.56,7.84a9.88,9.88,0,0,0,1,1.19,11.92,11.92,0,0,0,1.29.85,4,4,0,0,0,1.54.24h.43v1.46l-5.57,0-9-11.68-3.17,0,0,7.53a5.85,5.85,0,0,0,.1,1.55,1.68,1.68,0,0,0,.6.85,3.65,3.65,0,0,0,1.71.24h.6v1.46l-9.42,0v-1.45h.85a5.21,5.21,0,0,0,1.29-.09,1.51,1.51,0,0,0,.93-1.21c0-.17,0-.68.08-1.79l-.1-16.1a6.09,6.09,0,0,0-.18-1.54,1.15,1.15,0,0,0-.6-.68,2.49,2.49,0,0,0-1.28-.16h-1l-.1-1.28ZM1884,445l0,9.25,5.05,0a11.92,11.92,0,0,0,3.6-.37,3.75,3.75,0,0,0,2.3-1.55,4.5,4.5,0,0,0,.84-2.83,4.41,4.41,0,0,0-.62-2.48,3.72,3.72,0,0,0-1.72-1.53,7.66,7.66,0,0,0-3.17-.5l-6.33,0Z" transform="translate(-1205)"/><path class="cls-8" d="M1672.78,141l-29.34-10.36.86,44.86,48.74,3.83.59-15.67Zm-19.07,17.49c0-1-.33-12-.33-12l4.19-1,.54,18.92Zm11.86,7.81-6.43-1-1.06-19.94,8.4.72Z" transform="translate(-1205)"/><path class="cls-8" d="M1537.16,168.45a52.38,52.38,0,0,1-6.85.55c-12.84.08-17.14-2.81-18.44-5.2a5.8,5.8,0,0,1,.23-5.39c7,3,20.47,1.25,27.14.18l.59-2.14c-6.25,1.06-21.22,3.12-27.66-.27l-.77-.42-.51.77c-.09.17-2.8,4.3-.72,8.22,2.25,4.18,9,6.29,20.15,6.22a53.51,53.51,0,0,0,6.68-.46Z" transform="translate(-1205)"/><path class="cls-8" d="M1541,197.54c-16.24,19-22.48,20.42-24.71,19.49-2-.85-2.25-4.1-2.18-5.81,8.45-5,18.4-17.74,23.49-24.71l-.7-2.48c-4.75,6.62-15.63,21-24.25,25.74l-.43.26-.08.51c0,.26-.56,6.77,3.39,8.37a4.72,4.72,0,0,0,2,.34c5,0,13.15-6.59,24.54-19.75Z" transform="translate(-1205)"/><path class="cls-8" d="M1536.9,183.09c-11.1,6.23-22.58,4.07-24.22,1.68a4.63,4.63,0,0,1-.29-4.79c8.48.55,20-6,24.18-8.45l.33-2.48a8.44,8.44,0,0,0-1.11.61c-10.49,6.05-18.52,8.84-23.92,8.27l-.6-.09-.34.52c-.09.17-2.55,3.95,0,7.62,1.38,1.88,5.42,3.22,10.72,3.19a33.18,33.18,0,0,0,15.22-3.85Z" transform="translate(-1205)"/><path class="cls-8" d="M1549,210l-.52-.68c-2.11,4.38-5.58,11.59-10.49,21.2-8.55,16.75-17.51,23.05-20.42,22.72a1.18,1.18,0,0,1-.95-.5,3.89,3.89,0,0,1,.25-2.74c1.62-.87,3.14-3.7,5-7.31.33-.69.67-1.29.93-1.72,1.1-2.06,14.88-31.33,19.37-40.69l-1-2.56c-3,6.52-18.94,40.26-20.13,42.32-.25.51-.59,1.12-.93,1.8-.85,1.72-3.22,6.27-4.25,6.53l-.51.09-.17.43c-.17.34-1.35,3.09-.31,4.88a3,3,0,0,0,2.4,1.44h.43c2.31,0,5.56-1.91,9.13-5.36,3.15-3,7.91-8.78,12.91-18.48,4.66-9.1,8-16.06,10.15-20.52Z" transform="translate(-1205)"/><path class="cls-8" d="M1561.16,219c-1.76,5.48-5.05,14.58-11.22,29.51-4.72,11.59-13.94,31.07-22.24,31.63a5.39,5.39,0,0,1-4-1.68c8.54-4.51,15.93-29.2,16.77-32.12l10.76-34.48-1.55-1.62-11.1,35.51c-2.35,8.06-9.93,29.51-16.68,31.26l-1.29.35.61,1.11a7.34,7.34,0,0,0,6.18,3.65h.43c7.11-.47,15.18-11.47,24-32.84,6-14.59,9.45-23.85,11.3-29.6Z" transform="translate(-1205)"/><path class="cls-8" d="M1573.85,222.52c-7.08,33.26-14.06,40.06-17.65,41.19a3.51,3.51,0,0,1-2.75-.24c4.5-7.39,8.8-34.21,10.2-43.55h-.17l-1.72-.93c-2.14,14.48-6.54,39.25-10.53,44.07l-.6.69.6.59a5.42,5.42,0,0,0,3.69,1.44,6.3,6.3,0,0,0,1.63-.27c7-2,13.6-16.86,19.1-42.83A4.6,4.6,0,0,1,1573.85,222.52Z" transform="translate(-1205)"/><path class="cls-8" d="M1598.63,259.19c-.49,3.08-.9,5.66-1.07,7-.08.51-.08,1-.16,1.62-.4,4.37-.89,8.91-8.25,9.38l2.5-12.08-2-.42c-1.18,4.63-3.13,7.72-5.52,9a4.77,4.77,0,0,1-2.82.62c1.69-4.21,3.86-14.75,5.44-22.81l-2.89,4.39c-1.66,8.22-3.59,16.63-4.86,18.6l-.68,1,1.12.42a7.37,7.37,0,0,0,5.56-.46,8.59,8.59,0,0,0,2.9-2.41l-1.25,6.26h1.2c7.36,0,9.82-3.31,10.83-6.82l-.08-13.36Z" transform="translate(-1205)"/><polygon class="cls-8" points="385.64 284.24 385.99 284.23 386.24 283.03 385.64 284.24"/><path class="cls-8" d="M1600.31,282v1.63s-1,2.48-2.2,5.23c-.16,2.06-.31,4.8-.64,8.39-1,11-4.1,15.27-6.58,17a7.12,7.12,0,0,1-3.93,1.31c1.09-3.77,3.1-11.92,4.44-17.49l-1.2.61-1.54-.25c-2.36,6.78-4.81,11.41-6.86,13-2.21,1.72-3.93,1.05-4.79.37,2.46-3.1,6.35-12.28,9-19.32l-.09.17-2.89,2c-3.13,7.81-6.51,15.27-8.13,16.4l-.85.6.6.77c1.12,1.45,4.3,3.48,8.14.55a16.89,16.89,0,0,0,4-5.42c-.92,3.69-1.76,6.95-2.26,8.41l-.34,1,1,.25a9.17,9.17,0,0,0,1.63.16,8.67,8.67,0,0,0,4.95-1.57c4.1-2.85,6.63-9.11,7.43-18.54C1600.34,287.09,1600.57,283.41,1600.31,282Z" transform="translate(-1205)"/><polygon class="cls-8" points="377.42 149.53 377.42 149.61 377.42 149.61 377.42 149.53"/><path class="cls-8" d="M1587.17,141.54a2.93,2.93,0,0,0-3,.53,3.41,3.41,0,0,0-.67,2.83l-.42,1.71,1.81,1.19.66-2.92-.08-.25a1.82,1.82,0,0,1,.08-1.2c.08-.09.42-.17,1.11,0a44.24,44.24,0,0,0,11.91,1.48v-2A43.86,43.86,0,0,1,1587.17,141.54Z" transform="translate(-1205)"/><path class="cls-8" d="M1598.06,159.11l-3.35-1.52,2,2.38-.49,2.66c-.51.52-2.13,2.15-4.94,4.82-6,5.52-10.62,14.36-13.38,25.68l-7.53.21c-3.17-.49-8-1.23-11.95-7.8-1.3-2.22-1-2.48-.53-3.17a4.84,4.84,0,0,0,1.27-2.75c.66-4.62-1.83-5.55-3.63-6.22-1.12-.43-1.81-.68-2.07-1.36-1.12-2.48,1.56-12.08,4.7-17.15.08-.09.08-.17.17-.35a5.62,5.62,0,0,0,4.11.92,7,7,0,0,0,4.78-3.28,8.06,8.06,0,0,0-.73-8.21c-2-2.82-6.71-5.7-17.83-3.58a90.37,90.37,0,0,1-37.08-.82l-.94-.25-.34.86a8.19,8.19,0,0,0,1,7.87c5.26,7.08,22.47,7.66,28,7.72-2.36,5.66-7.31,23.15.15,40.23,11,25,31.66,27.56,37.83,27.7.44,2.05,1.32,6.07,1.24,7.35-.32,3.26-10.74,23.69-13,26.79-2,2.67-1.69,4.38-1.26,5.14a2.31,2.31,0,0,0,2.07,1.36c.85,0,5.31.48,5.49,2.8.09,1.28.45,3,1.73,3.32.17,0,.26.09.43.09.86,0,1.63-.61,2.39-1.9,1.19-1.89,9.85-14.61,9.93-14.7l2.63-3.78c1.74,4.36,2.08,4.44,2.51,4.61.77.17,1.2.16,2.64-3.35l2.16,3.15,2.88-4.81,0-3.85-3,4.89-2.51-3.75-.67,1.8c-.34.95-.85,2-1.18,2.84-.44-1.11-1.13-2.65-1.65-4l-.7-1.79-4.84,6.87c-.34.52-8.74,12.9-10,14.79a3.69,3.69,0,0,1-.59.77,7.12,7.12,0,0,1-.27-1.45c-.36-3.77-5.67-4.68-7.56-4.67-.08,0-.17-.08-.26-.25-.25-.43-.09-1.54,1.1-3,2.29-3.09,13.05-23.87,13.45-27.81.17-1.29-.28-3.85-1.42-8.81l-.17-.77h-1.46c-5.82-.14-25.61-2.42-36.11-26.51-8.85-20.24.37-39.81.46-40l.93-1.55h-1.8c-.26,0-22.43.56-27.86-6.86a6.13,6.13,0,0,1-1-5.22,94.28,94.28,0,0,0,37,.65c7.87-1.5,13.44-.51,15.86,2.73a6.17,6.17,0,0,1,.63,6.08,5,5,0,0,1-3.32,2.33,4.26,4.26,0,0,1-3.43-1.18l-.69-.6-.68.61c-.26.17-.34.51-.68,1.11a1.46,1.46,0,0,0-.17.43c-3.06,4.73-6.42,15.36-4.86,18.95a4.93,4.93,0,0,0,3.27,2.47c1.72.59,2.83,1,2.33,4a2.94,2.94,0,0,1-.84,1.71c-1.11,1.38-1.36,2.58.29,5.48,4.06,6.91,9.12,8.17,13.4,8.83h.09l9.24-.23.17-.77c2.68-11.31,7-20.24,13-25.41,3.75-3.28,5.89-4.23,5.2-5.17l.17-.26.66-3.43v-.85l-.69-.77Z" transform="translate(-1205)"/><rect class="cls-18" x="89.5" y="544.5" width="137" height="20" rx="10"/><text x="-1205"/><text x="-1205"/><text x="-1205"/><text class="cls-19" transform="translate(95.03 301.08) rotate(-77.24)">J</text><text class="cls-19" transform="matrix(0.27, -0.96, 0.96, 0.27, 97.84, 288.36)">e</text><text class="cls-19" transform="translate(102.7 271.31) rotate(-71.54)">t</text><text class="cls-19" transform="matrix(0.36, -0.93, 0.93, 0.36, 106.35, 260.24)">z</text><text class="cls-19" transform="matrix(0.4, -0.92, 0.92, 0.4, 111.81, 246.1)">t</text><text class="cls-19" transform="translate(116.52 235.37) rotate(-64.63)"> </text><text class="cls-19" transform="translate(119.59 228.65) rotate(-62.28)">S</text><text class="cls-19" transform="matrix(0.51, -0.86, 0.86, 0.51, 127.71, 213.31)">t</text><text class="cls-19" transform="translate(133.55 203.25) rotate(-56.85)">a</text><text class="cls-19" transform="translate(142.79 188.99) rotate(-53.38)">d</text><text class="cls-19" transform="matrix(0.64, -0.77, 0.77, 0.64, 154.8, 173)">t</text><text class="cls-19" transform="translate(162.25 163.99) rotate(-48.22)">t</text><text class="cls-19" transform="translate(169.79 155.42) rotate(-45.51)">e</text><text class="cls-19" transform="translate(182.34 142.79) rotate(-43.08)">i</text><text class="cls-19" transform="matrix(0.75, -0.66, 0.66, 0.75, 188.37, 137.14)">l</text><text class="cls-19" transform="matrix(0.77, -0.64, 0.64, 0.77, 194.6, 131.63)"> </text><text class="cls-19" transform="translate(200.21 126.78) rotate(-37.74)">a</text><text class="cls-19" transform="translate(213.61 116.35) rotate(-34.32)">u</text><text class="cls-19" transform="matrix(0.86, -0.52, 0.52, 0.86, 229.76, 105.4)">s</text><text class="cls-19" transform="translate(241.51 98.04) rotate(-27.4)">w</text><text class="cls-19" transform="translate(264.6 86.23) rotate(-23.36)"></text><text class="cls-19" transform="translate(280.2 79.44) rotate(-19.88)">h</text><text class="cls-19" transform="translate(298.77 72.86) rotate(-17.23)">l</text><text class="cls-19" transform="matrix(0.97, -0.25, 0.25, 0.97, 306.6, 70.31)">e</text><text class="cls-19" transform="translate(323.68 65.77) rotate(-11.23)">n</text><text class="cls-19" transform="translate(343.05 62.06) rotate(-8.66)"> </text><text class="cls-19" transform="translate(350.32 60.81) rotate(-6.13)">u</text><text class="cls-19" transform="matrix(1, -0.04, 0.04, 1, 369.66, 58.72)">n</text><text class="cls-19" transform="matrix(1, 0.02, -0.02, 1, 389.23, 57.86)">d</text><text class="cls-19" transform="translate(409.26 58.4) rotate(3.73)"> </text><text class="cls-19" transform="translate(415.3 58.42) rotate(7)">W</text><text class="cls-19" transform="translate(443.88 62.1) rotate(11.27)">e</text><text class="cls-19" transform="translate(461.27 65.64) rotate(14.04)">r</text><text class="cls-19" transform="translate(473.29 68.65) rotate(16.41)">t</text><text class="cls-19" transform="translate(484.53 72) rotate(18.23)"> </text><text class="cls-19" transform="matrix(0.94, 0.34, -0.34, 0.94, 491.62, 74.32)">i</text><text class="cls-19" transform="translate(499.34 76.94) rotate(22.36)">h</text><text class="cls-19" transform="translate(517.5 84.52) rotate(25.31)">r</text><text class="cls-19" transform="translate(527.62 89.2) rotate(28.01)">e</text><text class="cls-19" transform="translate(543.25 97.57) rotate(31)">s</text><text class="cls-19" transform="translate(555.24 104.84) rotate(33.02)"> </text><text class="cls-19" transform="matrix(0.81, 0.59, -0.59, 0.81, 561.52, 108.65)">O</text><text class="cls-19" transform="translate(581.2 123.02) rotate(40.18)">b</text><text class="cls-19" transform="matrix(0.73, 0.68, -0.68, 0.73, 596.55, 136.16)">j</text><text class="cls-19" transform="matrix(0.7, 0.71, -0.71, 0.7, 602.85, 141.86)">e</text><text class="cls-19" transform="translate(615.29 154.46) rotate(48.53)">k</text><text class="cls-19" transform="matrix(0.63, 0.78, -0.78, 0.63, 626.24, 166.93)">t</text><text class="cls-19" transform="translate(633.58 176) rotate(53.59)">s</text><text class="cls-19" transform="translate(641.88 187.35) rotate(55.61)"> </text><text class="cls-19" transform="translate(646.15 193.38) rotate(57.98)">e</text><text class="cls-19" transform="matrix(0.49, 0.87, -0.87, 0.49, 655.5, 208.47)">r</text><text class="cls-19" transform="translate(661.41 218.35) rotate(64.63)">m</text><text class="cls-19" transform="translate(673.82 245.27) rotate(68.2)">i</text><text class="cls-19" transform="translate(676.9 252.91) rotate(70.1)">t</text><text class="cls-19" transform="translate(680.88 263.89) rotate(72.32)">t</text><text class="cls-19" transform="matrix(0.26, 0.97, -0.97, 0.26, 684.44, 274.76)">e</text><text class="cls-19" transform="matrix(0.22, 0.98, -0.98, 0.22, 688.92, 291.96)">l</text><text class="cls-19" transform="translate(690.83 299.95) rotate(80.18)">n</text><text x="-1205"/></svg>