<svg id="Layer_1" data-name="Layer 1" xmlns="http://www.w3.org/2000/svg" xmlns:xlink="http://www.w3.org/1999/xlink" viewBox="0 0 715 723.51"><defs><style>.cls-1,.cls-10,.cls-11,.cls-12,.cls-13,.cls-14,.cls-17,.cls-5,.cls-6,.cls-7,.cls-9{fill:none;}.cls-2{fill:url(#linear-gradient);}.cls-3{clip-path:url(#clip-path);}.cls-4{fill:#1a171b;}.cls-10,.cls-11,.cls-12,.cls-13,.cls-14,.cls-17,.cls-18,.cls-5,.cls-6,.cls-9{stroke:#fff;}.cls-10,.cls-11,.cls-12,.cls-13,.cls-14,.cls-17,.cls-18,.cls-5,.cls-9{stroke-miterlimit:10;}.cls-5,.cls-6,.cls-7{stroke-width:1.48px;}.cls-6,.cls-7{stroke-linejoin:round;}.cls-7{stroke:#1a171b;}.cls-18,.cls-8{fill:#fff;}.cls-9{stroke-width:1.85px;}.cls-10{stroke-width:1.89px;}.cls-11{stroke-width:2.06px;}.cls-12{stroke-width:0.98px;}.cls-13{stroke-width:1.92px;}.cls-14{stroke-width:1.44px;}.cls-15{clip-path:url(#clip-path-98);}.cls-16{clip-path:url(#clip-path-99);}.cls-17{stroke-width:2.23px;}</style><linearGradient id="linear-gradient" x1="1268.41" y1="439.13" x2="1986.85" y2="233.12" gradientUnits="userSpaceOnUse"><stop offset="0" stop-color="#0f0756"/><stop offset="1" stop-color="#626177"/></linearGradient><clipPath id="clip-path" transform="translate(-1205)"><path class="cls-1" d="M1774.83,183.87l-159.29,129c3.35,3.46,18.74,11.16,23.41,15.3,33.4,29.69,75.44,32.22,102.85,4.3,37.07-37.62,95.07-77.54,95.46-77.74-.15-.32-35.37-37.56-62.43-70.84m62.5,70.79h0"/></clipPath><clipPath id="clip-path-98" transform="translate(-1205)"><rect class="cls-1" x="1586.53" y="144.97" width="219.25" height="203.33" transform="translate(222.76 1122.36) rotate(-39)"/></clipPath><clipPath id="clip-path-99" transform="translate(-1205)"><path class="cls-1" d="M1621.83,186.47c-41.37,24.69-38.89,66-14.25,104.3,3.14,4.83,4.85,18.65,7.55,22l159.35-129c-19.13-23.62-56.53-76.07-56.53-76.07s-49.43,51.05-96.12,78.83"/></clipPath></defs><title>background-mainpage</title><path class="cls-2" d="M1287.89,0a487.67,487.67,0,0,0-27,59H1205V79h48.77q-1.74,5.28-3.36,10.58h-21.33V100h18.28c-50.78,180.59,5.17,381.7,157.26,509H1342v20h88.19q14.47,10.59,29.47,20h-93.13V659.4h110.54c137.94,78.69,303,83.87,442.93,21.4V0Z" transform="translate(-1205)"/><rect class="cls-1" x="1577.01" y="113" width="236.46" height="251.79" transform="translate(-977.57 1120.05) rotate(-39)"/><g class="cls-3"><path class="cls-4" d="M1674.09,306Z" transform="translate(-1205)"/></g><g class="cls-3"><polygon class="cls-1" points="475.42 305.49 463.17 299.75 448.76 261.96 511.66 198.15 567.78 239.84 497.72 296.57 475.42 305.49"/></g><g class="cls-3"><path class="cls-5" d="M1699.18,279.27l-29,21.61-2.07-1.19L1653.76,262l59.12-60.32,48.84,47.26-44.63,36s-4.25-4.71-8.62-6S1699.18,279.27,1699.18,279.27Z" transform="translate(-1205)"/></g><g class="cls-3"><polygon class="cls-1" points="594.94 299.36 567.34 240.52 506.6 289.71 485.22 315.28 488.2 326.31 525.95 347.08 594.94 299.36"/></g><g class="cls-3"><path class="cls-5" d="M1797.07,300l-35.4-51.21-44.54,36.29s4.11,3.72,4.33,8.06-3,10.46-3,10.46l-25.9,20.53.58,2.07L1730.89,347Z" transform="translate(-1205)"/></g><g class="cls-3"><polygon class="cls-1" points="557.14 249.55 500.79 194.38 567.74 196.8 594.89 218.22 557.14 249.55"/></g><g class="cls-3"><polygon class="cls-6" points="557.14 249.55 500.79 194.38 567.74 196.8 594.89 218.22 557.14 249.55"/></g><g class="cls-3"><line class="cls-7" x1="567.74" y1="196.8" x2="594.89" y2="218.22"/></g><g class="cls-3"><polygon class="cls-1" points="597.19 307.45 557.14 249.55 594.89 218.22 606.14 249.53 597.19 307.45"/></g><g class="cls-3"><polygon class="cls-6" points="597.19 307.45 557.14 249.55 594.89 218.22 606.14 249.53 597.19 307.45"/></g><g class="cls-3"><path class="cls-8" d="M1644.91,334s-.21,2.05-.85,2.35-1.73,1.4-2.26,1.16-.11-1.23-.45-.29.63,3.78,1.19,4.33,3.57,2.5,3.57,2.5,1.32.14,1.72-.18,1.42-1.37,1.35-1.87.66-1.63.31-2.34-.47-1.94-1.16-2.25-1.24-3.85-3.42-3.41" transform="translate(-1205)"/></g><g class="cls-3"><path class="cls-8" d="M1649.56,344.24a20.62,20.62,0,0,1,2.21,1,18.37,18.37,0,0,1,2.21,1.51c1,.83,4,1.58,3.4,1.88s-.13.65-.73,1.68-1.64,2.33-1.44,2.71,2.08,1.07,1.35,1.67-2.89,1.46-3.57.9.46-.26-1.51-1.19-2.55-.7-4-1.83-2-1.17-1.67-2.06a1.88,1.88,0,0,0-.56-2.19l-.62-.49s-.68-2.2,0-2.31a14.17,14.17,0,0,1,2.19,0Z" transform="translate(-1205)"/></g><g class="cls-3"><path class="cls-8" d="M1658.71,349.28l-1.18,2.5a6.11,6.11,0,0,1,1.13,1.39c.14.44,1,1.39.7,2.09s-2.64,1.36-2.64,1.36l3,2.27s5.71.11,6-.16,1.33-2.84.92-2.94-2-2.47-2.32-2.86-3.33-3-3.83-3.51-1.87-.14-1.87-.14" transform="translate(-1205)"/></g><g class="cls-3"><path class="cls-8" d="M1665.42,351.45a6,6,0,0,0,2.8-.62c.71-.35,2.47-1.44,2.47-.9a3.77,3.77,0,0,0,.63,2.14c.35.71,2.56,1.67,2.56,1.67a24,24,0,0,1,1.93-1.56c.32-.15,1.54-.15,1.73.36s1.23,2.75.71,3.61a18.05,18.05,0,0,1-2.12,2.82,17.24,17.24,0,0,1-2.33,1.88c-1.18.85-3.23,1.18-3.51.42a19.71,19.71,0,0,1-.93-3.87c0-.55,0-2.12-1.13-2.61a12.47,12.47,0,0,1-2.87-1.64c-.23-.15.06-1.7.06-1.7" transform="translate(-1205)"/></g><g class="cls-3"><path class="cls-8" d="M1679.64,351.06s-1.67.25-1.52,1.12,1.22,2.32.9,3,.3,2.41,0,2.8a12.85,12.85,0,0,0-1.7,2.92c.12,0,2.43,0,2.92-.06s5.71,1.33,5.8-.72-.06-3.48-.78-3.56-.25-2.21-.88-2.59-4.79-.19-4.69-2.92" transform="translate(-1205)"/></g><g class="cls-3"><path class="cls-8" d="M1692.75,356.64s-1.89.65-2.2.68-1.4,1.13-1.79.78-.83-.75-1.16-.48-.14,1.32-.31,1.79a7.06,7.06,0,0,0-.18,1.68s.86,1.62,1.79,1.53a4.16,4.16,0,0,0,2.66-1.06c1.13-.91,1.42-.7,1.56-2a5,5,0,0,0-.37-2.89" transform="translate(-1205)"/></g><g class="cls-3"><path class="cls-8" d="M1730.17,349.25l-35.76-19.95a7.8,7.8,0,0,1-3.27-2.54c-.16-.2-.42-2.3-.68-3.3s-2.06-1.86-2.29-2-4.43,3.91-4.55,3.35-2.95-5-2.95-5L1675,309.73s-1.4-3.5-2-4.47c-.36-.58-1.78-1.53-2.27-2.12s-2.56-1.13-2.4-1.47l-2-1.37-16.12-39.5-118.08-93.31-2.09,166.39,104.1,122.7,181.16,43.33Zm-36.84-7.41s1,.53,1,1.27-.75.71-1,.81-1-1.39-1.29-1.6S1693.33,341.84,1693.33,341.84Zm-1.91-.32c-1.23.12.73,1.72,2.43,4.09s-.35,2.7-.88,3.14-4.31-3.56-4.55-3.59-2.61-.64-3.05-1.72.2-1.26.46-1.47a7.08,7.08,0,0,0,1.38-2.11c.12-.53-1.24-1.53-1.62-2s1.11-.13,1.74-.31c0,0,5.76,2.49,6.27,2.85S1692.71,341.35,1691.42,341.52ZM1683,342c-1.18,1.4-1.9,1.32-2.23.92s-.66-1.77-1.91-2.08-2.26-.48-2.09-1.5-2-3.75-2.14-4a1.57,1.57,0,0,1,.91-1.73c1-.33,2.35-2,3.22-1.61,1,.47,1.6,2.66,2.26,2.79s1.23-.11,1.61.36a10.57,10.57,0,0,1,.77,1.9,3.78,3.78,0,0,0,1.24,1.53c.56.43,1.7,1.16.83,2S1684.15,340.57,1683,342Zm-30.72-17.53c-.43.56.09,2-1.09,1.65s-1.81-1.29-2.86-.55-.09,2.61-1.79.24-4.24-3.73-3-4.63,1.6-3.06,2.43-2.85a20,20,0,0,0,3.7.2,2.69,2.69,0,0,0,1.36,2.64c1.25.86,3.54,2.87,3.27,3.09S1652.62,323.81,1652.25,324.44Zm-15.51-6.5a6.26,6.26,0,0,0,1.34,0c.73,0,1.35-1.32,1.32-1.63S1641,315,1641,315l.5-1.29,1.62,2,.19,1.6.65.8a8.77,8.77,0,0,0-1.11,2.44c.07.49-.75.83-.86,1.25a2.12,2.12,0,0,1-1.67.8,7,7,0,0,0-1.92.34l-2.42-3C1635.56,319.34,1636.26,317.89,1636.74,317.94Zm0-1a2,2,0,0,1-1.12-.42c-3.82-2.41-6.56-4.16-6.18-5.46.2-.71,1.07-.32,3.41-1.77,1.24-.79,1.6-1.3,2.46-1.33,1.16-.06,2.4-1.39,2.61-1.12a5.59,5.59,0,0,1,1.44,1.91,10.88,10.88,0,0,1,.86,5.15,3.33,3.33,0,0,1-3.48,3Zm10.85-5.92c.3-.58,1.78-1.34,2.46-2,0,0,2.89,1.4,3.71,1.19s.92,1.67,1,2.05a8.25,8.25,0,0,1-.88,3.13l-2.39,1.94a15,15,0,0,1-3.85.69c-.79,0-2.44-1.65-3.13-3.19s-.69-1.53.21-3.14.44.41,1.27.62S1647.27,311.62,1647.64,311Zm10.7-5.69c-.29-1.31,3.23-.09,3.23-.09.52.91,2.26,1.15,2.21,2.73a4.52,4.52,0,0,0,1.21,3.53c.78.69,1.61,2.67.26,3.32s-.55,3-2.46,2-2.48-.75-3.46-2.92-1.93-2.52-3.54-4-4.68-1.29-2.11-2.6S1658.56,306.66,1658.34,305.3Zm11.3,21.58c-.26,3.07-.41.44-1.66,1.34s-5.25-5.66-6-7.45.9-1.06,2.34-2,1.35-1.31,1.6-3.05,1.41-1.26,1.51-2.22l1.35,1.66c.64.8,1.79,3.18,3.17,3.93s.28,2-.77,2.72S1669.91,323.8,1669.64,326.88Zm-16-5.46c-1.31-.81-2.29-1.34-1.72-2.13s1-2.38,2-3.31,3.22-2.83,3.87-2,.84,2.4,1.66,2.73,3,.86,2.45,1.54a3,3,0,0,0-1,2.76,9.75,9.75,0,0,0,.85,2.95c.58.85,1,1.5-.19,1.8s-2.33-1-3.35-.59-1.4.58-2.52-.94S1654.91,322.28,1653.66,321.42Zm-.23,4.48a13.81,13.81,0,0,0,4.94.52,2.37,2.37,0,0,1,2.11.16c.58.31,2.54-.4,2.54-.4,1.13.3,1.84,1,1.51,1.86s-.44,2.45-.66,3.4-.56,1.22-.92,2.4,2,2-.44,1.23-1.84-1-3.94-1.32-2.77.37-3-1.35a6.66,6.66,0,0,0-1.47-4C1653.22,327.4,1652.5,325.56,1653.43,325.9Zm11.6,7.25c.74-1.81.57-3.66,1.79-3.77s.6-.49,2-.21,2.17-1.54,3-1c1,.65-.11,1.63.26,2.1s1.76.12,1.14,1.39-.2,1.26-.15,2,.76,1.48.89,2.47-.83,2.1-.9,2.27-.81-.45-2.43-.68-1.2-.12-3.39-1.88S1664.34,335,1665,333.15Zm24.19-3.73c.19.51,3.5.92,4.53,1s1,1.39,1,2.06-1.25,2-1,2.64.7,3.17.2,3.91-2.67-.7-3-.92-2.87-1.09-2.64-1.49.61-1.15,1.11-1.89-.36-1.81-.66-3S1689,329,1689.22,329.42Zm-4.81-2.27a3.61,3.61,0,0,0,2.67,0c.87-.16,1.44,3.68,1.15,3.59s.07,3.35-.14,4.73-2.34.91-3.43.8-.67-1.11.51-2.51-1.52-1.74-2.43-4.09-.12-1.77.09-3.15Zm-3.64-2.45s-.21,3.14.92,4.54a4,4,0,0,1,.6,4.14c-.42,1.11-3.1-1.79-3.06-2.15s-1.72.18-3.69.34-1.92-2-2.37-2.92-2-2.1-2.42-3,1.34-3,1.91-4.3,2.72-1,4.74-1.09Zm-8.15-16.32c1.1.54,1.2,1.89.83,3.74s1.15,1.82,2.61,3.5-.06,2.37-1.94,4-1.74-2-3.1-3.56a18.92,18.92,0,0,1-2.73-3c-.56-1,.73-1.69.57-3.11s.35-2.15.44-3.54C1669.31,306.33,1671.52,307.84,1672.62,308.38ZM1659,300.44c2.08-1.25,5.66-.5,5.66-.5s3.41,1.09,3.34,3.45-.21,3.81,0,5.42-.11,2.85-2,1.61-.45-3.27-2.44-4.63C1661.78,304.38,1657,301.68,1659,300.44Zm-9.59-.28a15.25,15.25,0,0,0,4.75-.54,3,3,0,0,1,2.31.55s1.23,2.2,1,3.34a2,2,0,0,1-2.26,1.83,5.24,5.24,0,0,0-3.54,1.21c-.91.63.37,2.9-1.69,1s-2.64.82-2-1.86S1647.18,300.23,1649.44,300.16Zm-6.2-1.81c2.12.16,2,1.18,2.44,1.11a1.13,1.13,0,0,1,1.19,1.46c.08.93.39,1.45,0,2.44a4.3,4.3,0,0,0-.57,1.89c-.11,1.08,0,2.24.26,2.21s1.37-.34,1.52,0,.6,1.28-.14,1.87-1,1.29-2.18,1.11-.27-1.55-2.14-.47-.72,2.79-1.88,1.09-1.92-.88-1.54-2.72,0-2-.44-3.94-2.41-.26-.47-1.94,1.32-2.72,2.11-3.25S1641.18,298.26,1643.24,298.35Zm-8.55.32a3.23,3.23,0,0,0,.73-.59l2.08-.15,2.28.91s.25.57-.09.84-.36,1.18-.88,2a2.4,2.4,0,0,1-1,1,13,13,0,0,1-.26,1.31,6.42,6.42,0,0,0-.45,1.9c0,.79-1,.57-1.13.92s-1.24.23-2.5,0,.18-1.14-.48-1.82a2.14,2.14,0,0,1-.41-1.87,12,12,0,0,1,.78-3.38C1634,298.42,1634.37,298.82,1634.69,298.67Zm-8.5,1.48c.65-1,2.3-1,2.66-.94,1.7.06,2.19,0,2.63.4.08-.72,1.19-.3,1.25-.23.63.37-.78,1.62-.92,2.94-.07.61-.85,1.13-.56,2.44s.43,1.63.3,2.28a2.31,2.31,0,0,1-.91,1.73,2,2,0,0,1-1.84.18c-.65-.25-.66-.68-1.31-1.48-1.25-1.41-2.6-1.31-2.7-2.11-.07-.49.48-.5.82-1.44a14.94,14.94,0,0,0,.26-2.4A7.37,7.37,0,0,1,1626.19,300.15Zm-5.88,6.75s-.89-.83.8-.65,3.38.23,3.38.23a1.69,1.69,0,0,1,1.26.75,21.48,21.48,0,0,0,1.57,1.93s.84.63.39.89-.44.68,0,1.22,0,.42-.93.75-.73,0-1.26,1,.26,2.1-1,2.1-.55.55-1.92-.33.18,1.18-1.6-1-2.72-1.87-1.68-3S1620.31,306.9,1620.31,306.9Zm-.6,13.26c-.8-1.11-.67-1.77-1-2.24a24.28,24.28,0,0,1-1.83-4c-.78-1.79,1.12-.8,1.47-1.19s1.83,1.72,1.9,2.21a4.37,4.37,0,0,0,1.18,1.46c.44.42,1.67-.25,1.67-.25s1.79-.23,2.17-.32c.69-.23.74,1.6.11,1.78s-1,1.36-1.44,2.16.06,1.16-.43,1.78C1622.92,322,1620.5,321.28,1619.71,320.16Zm12.38,5.51a8.28,8.28,0,0,1-1.47-1,27.86,27.86,0,0,0-2.89-2.62c-1.59-1.14-2.7-2.78-2.38-2.93s3.12-.64,1.73-2.49-.8-3.43,0-3.05a14.72,14.72,0,0,0,3,.68,7.25,7.25,0,0,1,2.53,1.36,7.37,7.37,0,0,0,2,1.73c.58.3,1.11,1.63.69,2.08s.42,2.42.42,2.42-1.23-.44-1.81-.74-1.76.54-1.76.54l.65,1.9C1632.57,323.4,1632.63,325.78,1632.09,325.67Zm9.26,9.8c-.86-1.07-1.11-2.19-2.53-3.13s-2.64-.95-2.52-2.15,4.24,2.51,0-2.74-4.69-5.79-1.81-4.82a22,22,0,0,0,5.3,1.11l.21.93c.1-.41,2-1.62,2.46-1.44s2.43,3,2.43,3l1.08,1.33c0,.07,1.79-.24.48.6s-.85,2.34-1.39,2.78-1-1.08-1.85.84-.82,3.2-.13,3.51C1643.58,335.64,1642.21,336.53,1641.35,335.47Zm8,1.63c-.65-.67-2.12-2.35-3.79-3.87s0-1.88.76-3.14,1.12-.25,2.48-1,.3-1.12,1-1.84,2.06.1,2.64.4a15.35,15.35,0,0,0,1,2.6c.6,1.16.58,1.4.32,3.26s-.48,2.81-1.49,3.74A2.06,2.06,0,0,1,1649.39,337.1Zm3.08,7.21c-3.06-1.6-1.78-2.75-2.14-5.1s1.35-.1,2.71-.87,1.09-1.65,2.18-3.42,1.5.21,2.93-.06c0,0,3.14,2,2.92,2.37a3.41,3.41,0,0,0,0,3.35c1,1.38-.37,4.71-1.73,6S1655.53,345.91,1652.47,344.31Zm15.41,5.69c-1.14.49-3.93-.23-6.15-1.07s-.67-1.23-1.19-1.46,1.22-2.31,1.67-3.12.17-1.68,1-3.42-1-2.06-.72-3.61,1.45-1.06,2.51-1.26a38.94,38.94,0,0,0,3.69,3.07c1.09.66,1.21,1.77-.33,1.36s.58,3.84,2,6.3S1668.91,349.5,1667.88,350Zm6,1.12c-3.33,1.6-1.32-1.36-1.3-2.69s-1.06-2.67-2.58-5-.69-2.09.47-2.15.47-1,.84-1.67,3.77-1.62,3-.47c-.29.45.57,1.52,1.66,1.51s2.66,1.37,3.83,3-1.25,1.45-1.44,2.71.93,2.77.59,3A23.38,23.38,0,0,0,1673.85,351.12Zm8.34,1.18c-1.22,0-1.16-1.16-1-2.48s-.09-1.47-1.09-3.53.69-.77.55-1.76,2-.34,3-1.09a48.26,48.26,0,0,0,3.61,3.24c1,.65,1.18.37,1.29.5s-.87,1.92-.47,2.69a2,2,0,0,1-.66,2.3C1686.78,352.66,1683.41,352.31,1682.19,352.3Zm6.51,4.09a2.35,2.35,0,0,1-1.84-.5l-1-1.19a1.42,1.42,0,0,0,.6-1c.08-.72,1.25-.9,1.93-1a1.73,1.73,0,0,0,1.07-.86,14.51,14.51,0,0,0,.09-2.06,10,10,0,0,1,.27-2s1.4,1.18,2.3,1.88a1.13,1.13,0,0,0,1.59-.07,7.39,7.39,0,0,0,1,2c.54.67-.58,1.46-1.28,1.7s-.87,1.91-.84,2.22S1689.58,356.12,1688.7,356.39Z" transform="translate(-1205)"/></g><g class="cls-3"><path class="cls-8" d="M1625.27,321.05l-2.33,1.89c-.33.27-1.23.11-1.62.44s-.77.95,1,2.84,3.17,5.14,4.88,5.08,2.31-.55,2.55-1.07-2.53-3.8-1.53-4.06.92-1.73.5-1.83a34.15,34.15,0,0,1-3.43-3.29" transform="translate(-1205)"/></g><g class="cls-3"><path class="cls-8" d="M1633.9,325.86a1.5,1.5,0,0,1-1.59.62c-1.2-.13-1.46-.58-2-.21s-2.35-.19-1.27,1.14,1.35,1,1.44,2.47-.3,1.67.49,2.91,3.53,2.32,3.69,2a6.14,6.14,0,0,0,.72-2.24,6.92,6.92,0,0,1,.11-2.18c.13-.11.92-1.3.4-1.54s-1.94-2.94-1.94-2.94" transform="translate(-1205)"/></g><g class="cls-3"><path class="cls-8" d="M1637.64,333.07c-.48-.05-1.55-.84-1.56.38s.32,2.17-.65,2.73-2.61-.64-2.82-.35-1.65,0-.42,1.66a30.7,30.7,0,0,0,3.07,3.79c.51.36,2.06,1.86,3,1.53s2.13-.51,2-1.61a13.9,13.9,0,0,1,.15-2.55c-.07-.49-.62-2.8-.33-2.71s-.85-1.18-1-1.57a17,17,0,0,0-1.7-1.82l.38.46-.07.06Z" transform="translate(-1205)"/></g><g class="cls-3"><path class="cls-8" d="M1641.48,342.3c-.28-.21-1.17.73-1.83,1.27s-1.45.39-2.25.49-1.39-1.85-2-1.43-1.4,0-.66,1.63,2.51,3.37,2.67,4.12.67,2.32,1.56,2.6,3.09.69,3.54.43,2.21-.68,1.67-1.35a7.77,7.77,0,0,1-1.31-3.24,2.75,2.75,0,0,0,0-1.83,4.59,4.59,0,0,0-1.3-2.69" transform="translate(-1205)"/></g><g class="cls-3"><path class="cls-8" d="M1654.69,357.38a7.87,7.87,0,0,1-2.75-1.08c-.5-.48-1.92-1.42-2.32-1.09s-.1.41.37,1.13,2.13,0,1.13,1.4-1.29,1.26-1.86,2.05-1.1,1.23-.11,2.18,1.93,2.52,3.83,2.42,1.81.19,3.48-.73,2.44-1.21,2.14-2.4-.31-1.61-1-2.12-3.29-2.29-3.29-2.29l.43.53Z" transform="translate(-1205)"/></g><g class="cls-3"><path class="cls-8" d="M1659.76,360.11c0,.36.4,2-.33,2.58a16.59,16.59,0,0,0-2.26,1.83,2.23,2.23,0,0,0,.08,3.24c1,1.14,3.42,3.4,5.29,4.08s5.55.46,6.51-.53a4.62,4.62,0,0,0,1.65-4.09c-.37-1.68-.67-1.77-1-3.58s-.23-4.1-1.51-3.5-3.65-1.24-4.72-.26-3.68.23-3.68.23" transform="translate(-1205)"/></g><g class="cls-3"><path class="cls-8" d="M1670.4,363.72c1.2.13,1.71-.61,2.61-1.12s1.64-1.66,2.17-1a3.69,3.69,0,0,0,3.54,1.1,9.39,9.39,0,0,1,3.41-.56c1.21,0,2.15-.74,2.34.86a14.81,14.81,0,0,0,.88,3.8,2.77,2.77,0,0,1-.59,3.35c-1.13,1.46-.76-.93-2.67,1.06s-.8,3-2.2,3.54-1.28,1.15-2.88-.42-2.09-3.27-3.36-3.34-2.28-.36-2.27-1.58a50.69,50.69,0,0,0-1-5.7" transform="translate(-1205)"/></g><g class="cls-3"><path class="cls-8" d="M1686.37,362.36c-.26.09-.87.7-.51,1.95s1.11,2.19,1,3a16,16,0,0,0-.36,2.28c0,.67,1.36,1.54,2,1.06s1.81-2.13,3-3.52.72-2.79-.07-2.81a17.94,17.94,0,0,1-3-1,7.36,7.36,0,0,1-2-.93" transform="translate(-1205)"/></g><g class="cls-3"><polygon class="cls-1" points="527.5 254.17 513.36 236.98 523.73 227.48 540.17 243.02 527.5 254.17"/></g><g class="cls-3"><polygon class="cls-9" points="527.5 254.17 513.36 236.98 523.73 227.48 540.17 243.02 527.5 254.17"/></g><g class="cls-3"><polygon class="cls-1" points="508.54 269.52 497.19 251.83 508.12 241.66 521.87 258.51 508.54 269.52"/></g><g class="cls-3"><polygon class="cls-10" points="508.54 269.52 497.19 251.83 508.12 241.66 521.87 258.51 508.54 269.52"/></g><g class="cls-3"><path class="cls-1" d="M1716.82,284.05c-6.26-5.95-14.77-7.21-19.62-3.28l-26.61,19.79L1693.32,324l25-20.26c4.92-4,5.39-13.07-1.52-19.7" transform="translate(-1205)"/></g><g class="cls-3"><path class="cls-5" d="M1716.82,284.05c-6.26-5.95-14.77-7.21-19.62-3.28l-26.61,19.79,4.66,4.81,9.15,16.6,3.75-3.25,5.17,5.29,25-20.26C1723.26,299.76,1723.73,290.68,1716.82,284.05Z" transform="translate(-1205)"/></g><g class="cls-3"><path class="cls-1" d="M1712.54,286.52c-2.34-4.93-10-4.58-15.24-.32l-22.49,18.21,9.79,17.4,22.76-18.42c5.19-4.21,7.36-12.13,5.18-16.87" transform="translate(-1205)"/></g><g class="cls-3"><path class="cls-11" d="M1712.54,286.52c-2.34-4.93-10-4.58-15.24-.32l-22.49,18.21,9.79,17.4,22.76-18.42C1712.55,299.18,1714.72,291.26,1712.54,286.52Z" transform="translate(-1205)"/></g><g class="cls-3"><path class="cls-8" d="M1715.45,285.49c5.55,6.85,5,16.59-1.3,21.65a12.47,12.47,0,0,1-1.58,1.06,14,14,0,0,0,4.52-2.45c6.26-5.06,6.85-14.8,1.31-21.66-5.12-6.32-13.65-8-19.89-4.28a16.11,16.11,0,0,1,16.94,5.68" transform="translate(-1205)"/></g><g class="cls-3"><polygon class="cls-1" points="495.98 287.07 498.58 291.24 494.19 294.8 491.65 290.57 495.98 287.07"/></g><g class="cls-3"><polygon class="cls-12" points="495.98 287.07 498.58 291.24 494.19 294.8 491.65 290.57 495.98 287.07"/></g><g class="cls-3"><polygon class="cls-1" points="499.33 292.84 501.93 297.01 497.54 300.57 495 296.34 499.33 292.84"/></g><g class="cls-3"><polygon class="cls-12" points="499.33 292.84 501.93 297.01 497.54 300.57 495 296.34 499.33 292.84"/></g><g class="cls-3"><polygon class="cls-1" points="490.19 291.76 492.79 295.93 488.34 299.54 485.86 295.26 490.19 291.76"/></g><g class="cls-3"><polygon class="cls-12" points="490.19 291.76 492.79 295.93 488.34 299.54 485.86 295.26 490.19 291.76"/></g><g class="cls-3"><polygon class="cls-1" points="493.54 297.53 496.14 301.7 491.69 305.31 489.21 301.03 493.54 297.53"/></g><g class="cls-3"><polygon class="cls-12" points="493.54 297.53 496.14 301.7 491.69 305.31 489.21 301.03 493.54 297.53"/></g><g class="cls-3"><polygon class="cls-1" points="484.07 296.72 486.67 300.89 482.21 304.5 479.74 300.22 484.07 296.72"/></g><g class="cls-3"><polygon class="cls-12" points="484.07 296.72 486.67 300.89 482.21 304.5 479.74 300.22 484.07 296.72"/></g><g class="cls-3"><polygon class="cls-1" points="487.42 302.49 490.02 306.66 485.56 310.27 483.09 305.99 487.42 302.49"/></g><g class="cls-3"><polygon class="cls-12" points="487.42 302.49 490.02 306.66 485.56 310.27 483.09 305.99 487.42 302.49"/></g><g class="cls-3"><path class="cls-8" d="M1712.24,284.79a15,15,0,0,1,3.83,5.82c1.2,3,.56,6.81-.14,8.81s-4.25,5.09-6.88,7.55c-2.3,2.2-4.67,3.9-7.8,6.43s-9.91,8.57-9.91,8.57l-2.28-3.22s22.56-18.26,23-20.83,1.72-5.36,1.41-7.65-.38-4.42-1.24-5.48" transform="translate(-1205)"/></g><g class="cls-3"><path class="cls-8" d="M1668.83,293s-2-4.11-1.71-4.57,2.63-2.46,2.73-2.21,2.18,3.52,1.84,4.46a7.54,7.54,0,0,1-2.77,2.57Z" transform="translate(-1205)"/></g><g class="cls-3"><path class="cls-8" d="M1670.52,275.71s-2-4.1-1.71-4.56,2.63-2.46,2.72-2.21,2.19,3.52,1.85,4.46a7.54,7.54,0,0,1-2.77,2.57Z" transform="translate(-1205)"/></g><g class="cls-3"><path class="cls-8" d="M1671.31,287.3s-2-4.1-1.65-4.61,2.64-2.47,2.73-2.21,2.12,3.57,1.85,4.45-2.66,2.7-2.82,2.5Z" transform="translate(-1205)"/></g><g class="cls-3"><path class="cls-8" d="M1675.76,286.67s-2-4.1-1.65-4.61,2.64-2.47,2.73-2.21,2.12,3.57,1.85,4.45-2.66,2.71-2.82,2.51Z" transform="translate(-1205)"/></g><g class="cls-3"><path class="cls-8" d="M1678,281.12s-2-4.1-1.64-4.61,2.63-2.46,2.73-2.21,2.12,3.57,1.84,4.45-2.66,2.71-2.82,2.51Z" transform="translate(-1205)"/></g><g class="cls-3"><path class="cls-8" d="M1680.65,287s-2-4.11-1.64-4.62,2.63-2.46,2.73-2.21,2.12,3.57,1.84,4.46-2.66,2.7-2.82,2.5Z" transform="translate(-1205)"/></g><g class="cls-3"><path class="cls-8" d="M1673.49,281s-2-4.11-1.64-4.62,2.63-2.46,2.72-2.21,2.12,3.57,1.85,4.46-2.66,2.7-2.82,2.5Z" transform="translate(-1205)"/></g><g class="cls-3"><path class="cls-8" d="M1668.68,282.16s-2-4.11-1.64-4.62,2.63-2.46,2.73-2.21,2.12,3.57,1.84,4.46-2.66,2.7-2.82,2.5Z" transform="translate(-1205)"/></g><g class="cls-3"><path class="cls-8" d="M1666.14,287.85s-2-4.1-1.65-4.61,2.64-2.47,2.73-2.21,2.12,3.57,1.85,4.45-2.66,2.71-2.82,2.51Z" transform="translate(-1205)"/></g><g class="cls-3"><path class="cls-8" d="M1685.31,286.76s-2-4.1-1.65-4.61,2.63-2.46,2.73-2.21,2.12,3.57,1.84,4.45-2.66,2.71-2.82,2.51Z" transform="translate(-1205)"/></g><g class="cls-3"><path class="cls-8" d="M1682.77,280.78s-2-4.11-1.65-4.62,2.64-2.46,2.73-2.21,2.12,3.57,1.85,4.46-2.66,2.7-2.82,2.5Z" transform="translate(-1205)"/></g><g class="cls-3"><path class="cls-8" d="M1687.37,280.47s-2.21-4-1.91-4.4,2.52-2.6,2.67-2.28,2.32,3.41,2,4.29-2.55,2.84-2.71,2.64Z" transform="translate(-1205)"/></g><g class="cls-3"><path class="cls-8" d="M1680.1,275.44s-2.2-3.94-1.91-4.4,2.53-2.59,2.68-2.27,2.32,3.41,2,4.29-2.55,2.84-2.71,2.64Z" transform="translate(-1205)"/></g><g class="cls-3"><path class="cls-8" d="M1685.83,300.33l1.59,2.79,3.17-2.35s-3.47,1.16-4.76-.44" transform="translate(-1205)"/></g><g class="cls-3"><path class="cls-8" d="M1689.14,305.92l1.7,2.91,2.81-1.83a4.76,4.76,0,0,1-4.51-1.08" transform="translate(-1205)"/></g><g class="cls-3"><path class="cls-8" d="M1695.29,301.27l1.82,2.93,2.93-2.37s-3,.78-4.75-.56" transform="translate(-1205)"/></g><g class="cls-3"><path class="cls-8" d="M1692,295.38l1.59,2.78,3.16-2.22c-.06-.07-3.17.58-4.75-.56" transform="translate(-1205)"/></g><g class="cls-3"><path class="cls-8" d="M1697.74,290.69l1.82,2.93,2.93-2.37a4.43,4.43,0,0,1-4.75-.56" transform="translate(-1205)"/></g><g class="cls-3"><path class="cls-8" d="M1701.21,296.47l1.52,2.84,3-2.42a4.45,4.45,0,0,1-4.52-.42" transform="translate(-1205)"/></g><g class="cls-3"><polygon class="cls-1" points="544.95 276.39 559.91 293.25 572.41 284.33 558.85 265.13 544.95 276.39"/></g><g class="cls-3"><polygon class="cls-13" points="544.95 276.39 559.91 293.25 572.41 284.33 558.85 265.13 544.95 276.39"/></g><g class="cls-3"><line class="cls-14" x1="553.23" y1="285" x2="566.16" y2="275.52"/></g><g class="cls-3"><line class="cls-14" x1="552.25" y1="271.14" x2="566.89" y2="288.26"/></g><g class="cls-3"><path class="cls-8" d="M1762.93,279.65l-5.12,3.6-5.66-7c-.05-.07,6.49,5.43,10.78,3.39" transform="translate(-1205)"/></g><g class="cls-3"><path class="cls-8" d="M1767.09,280l4.85,6,3.26-2.64c-.06.05-3.62.84-8.11-3.35" transform="translate(-1205)"/></g><g class="cls-3"><path class="cls-8" d="M1760.16,285.2l5,6.19,4.39-3.56c0,.07-4.21,1.87-9.4-2.63" transform="translate(-1205)"/></g><g class="cls-3"><path class="cls-8" d="M1759.61,270.77l5.65,7,3.79-3.07c-.06.05-4,1.59-9.44-3.92" transform="translate(-1205)"/></g><g class="cls-3"><polygon class="cls-1" points="525.69 291.66 542.38 306.01 555.37 296.48 539.96 279.77 525.69 291.66"/></g><g class="cls-3"><polygon class="cls-13" points="525.69 291.66 542.38 306.01 555.37 296.48 539.96 279.77 525.69 291.66"/></g><g class="cls-3"><line class="cls-14" x1="534.9" y1="298.96" x2="548.32" y2="288.86"/></g><g class="cls-3"><line class="cls-14" x1="533.28" y1="286.06" x2="549.63" y2="300.69"/></g><g class="cls-3"><path class="cls-8" d="M1744.68,293.43l-5.33,3.88-6.38-6c.07-.05,7.21,4.41,11.71,2.08" transform="translate(-1205)"/></g><g class="cls-3"><path class="cls-8" d="M1749.12,293.47l5.43,5.08,3.34-2.82c-.06.06-3.77,1.19-8.77-2.26" transform="translate(-1205)"/></g><g class="cls-3"><path class="cls-8" d="M1742,298.88l5.65,5.34,4.47-3.73s-4.49,2.2-10.12-1.61" transform="translate(-1205)"/></g><g class="cls-3"><path class="cls-8" d="M1740.71,285.53l6.3,6,3.87-3.25c.07-.05-4.14,1.82-10.17-2.77" transform="translate(-1205)"/></g><g class="cls-3"><polygon class="cls-8" points="503.1 261.04 502.82 259.61 514.54 249.46 515.17 250.38 503.1 261.04"/></g><g class="cls-3"><path class="cls-8" d="M1708.47,246.53l12.65,16.85-.84.46-12.48-16.77Z" transform="translate(-1205)"/></g><g class="cls-3"><polygon class="cls-8" points="520.51 245.95 520.03 244.68 531.36 234.85 532.24 235.68 520.51 245.95"/></g><g class="cls-3"><path class="cls-8" d="M1724.19,232.48l15,15.15-.84.46-14.91-15Z" transform="translate(-1205)"/></g><g class="cls-3"><path class="cls-8" d="M1720.3,237.06c-.51-.36,5.17,6.39,5.17,6.39l3.86-3.13a24.76,24.76,0,0,1-9-3.26" transform="translate(-1205)"/></g><g class="cls-3"><path class="cls-8" d="M1725.08,232.63l5.91,5.8,4.23-3.21s-6.74.39-10.14-2.59" transform="translate(-1205)"/></g><g class="cls-3"><path class="cls-8" d="M1732.5,240.29c-.23-.15,6.45,6.34,6.45,6.34l4.23-3.76s-4.22,1.33-10.68-2.58" transform="translate(-1205)"/></g><g class="cls-3"><path class="cls-8" d="M1727.08,245.44l5.5,6.79,4.91-4.42s-7.78,1-10.41-2.37" transform="translate(-1205)"/></g><g class="cls-3"><path class="cls-8" d="M1724.82,258.29l-4.32,3.5-4.87-6.41c-.07.05,4.6,4.32,9.19,2.91" transform="translate(-1205)"/></g><g class="cls-3"><path class="cls-8" d="M1717.91,249.9l-4.19,3.39s-5-6.67-4.5-6.38,4.64,5.06,8.69,3" transform="translate(-1205)"/></g><g class="cls-3"><path class="cls-8" d="M1704,251.84l4.2,6.4,4.5-3.42s-2,2.95-8.7-3" transform="translate(-1205)"/></g><g class="cls-3"><path class="cls-8" d="M1709.73,260.6c-.18-.08,4.23,6.59,4.23,6.59l4.62-3.41c0-.06-3.09,1.08-8.85-3.18" transform="translate(-1205)"/></g><g class="cls-3"><path class="cls-8" d="M1798.19,218.16l-36.42,27.4-52.2-48.95s28,.38,63.14,1.64c0,0,15,17,25.48,19.91" transform="translate(-1205)"/></g><g class="cls-3"><path class="cls-8" d="M1796.92,243l-13.33,12.12,2.47,3.73c0,.12,6.63-11.54,10.86-15.85" transform="translate(-1205)"/></g><g class="cls-3"><polyline class="cls-6" points="500.79 194.38 567.74 196.8 594.89 218.22 557.14 249.55"/></g><g class="cls-15"><path class="cls-8" d="M1837.07,254.75h0M1717.85,107.51s37.4,52.45,56.52,76.07c27.05,33.4,62.49,70.91,62.7,71.17-.38.21-58.39,40.13-95.46,77.74-27.46,27.86-69.51,25.44-102.84-4.3-4.79-4.27-20.93-12.24-23.63-15.57s-4.47-17.08-7.55-22c-24.65-38.2-27.12-79.61,14.25-104.3,46.57-27.79,96-78.84,96-78.84m123.28,144-.32-.4c-1.91-2.09-36.3-38.58-62.38-70.78-18.86-23.29-55.93-75.33-56.36-75.87l-.22-.26a5.3,5.3,0,0,0-3.63-1.91,5.39,5.39,0,0,0-4.13,1.58c-.48.5-49.54,50.91-95,78-17.86,10.6-29,24.77-32.95,41.89-4.87,20.79,1,44.78,17,69.6,1.09,1.76,2.31,6.39,3.32,10.09,1.61,6.07,2.61,9.89,4.55,12.28s6.06,4.9,13.17,9.06c4.3,2.58,9.17,5.47,11.06,7.13a105.89,105.89,0,0,0,27.69,18,82.3,82.3,0,0,0,29.21,7.09,67.88,67.88,0,0,0,28.35-4.57,71.31,71.31,0,0,0,24.8-16.44c36.19-36.8,92.38-75.57,94.47-76.93a3.92,3.92,0,0,0,1.27-1.15,5,5,0,0,0,.07-6.44" transform="translate(-1205)"/></g><g class="cls-16"><path class="cls-8" d="M1630.23,281.46c-2,1.14-12.36,1.75-12.36,1.75s7.65,2.5,13.91.3Z" transform="translate(-1205)"/></g><g class="cls-16"><path class="cls-8" d="M1635.35,287.11c-1.8,1.58-12.24,4.74-12.24,4.74s8.34.51,14.33-3.12Z" transform="translate(-1205)"/></g><g class="cls-16"><path class="cls-8" d="M1633.24,284.09a6.9,6.9,0,0,1-.89-1.37l-.45-1,1-.38c1.46-.52,4.27-1.81,7.34-3.19a14.84,14.84,0,0,1-6,0c-4.69-1.16-5.09-4.91-4.66-6.69l.22-1,1,.28c2.9.74,19.75-4.31,29.66-7.71l.67,1.77-11.94,5.26,7.35,4.18,10.75-3.19c.52-.31,1.53-.69,2,.15.62,1,.73,1.17-12.69,10.17-7.86,5.26-14.33,7.2-19.12,5.78A11.09,11.09,0,0,1,1633.24,284.09Zm1.47-1.31a6.59,6.59,0,0,0,3.48,2.26c2.89.85,8.28.56,17.38-5.48,3.66-2.42,6.22-4.16,7.93-5.44l-5.94.41-4.29-.39C1651.87,274.73,1639.86,280.71,1634.71,282.78Zm-3.2-10.07c.07,1,.57,2.74,3.29,3.51,4.56,1.15,12.87-2.06,16.81-3.59l-3.08-2.58,4.09-2.43C1645.32,269.9,1635.52,272.77,1631.51,272.71Z" transform="translate(-1205)"/></g><g class="cls-16"><path class="cls-8" d="M1669.86,254.22l-16.69,8.23s14.37-4.15,15.57-4.58Z" transform="translate(-1205)"/></g><g class="cls-16"><path class="cls-8" d="M1672,259.62,1656.39,270s14-6,15.18-6.56Z" transform="translate(-1205)"/></g><g class="cls-16"><path class="cls-8" d="M1647.34,270.36c-2.33,1.33-14.19,3-14.19,3s8.5,1.93,15.81-1Z" transform="translate(-1205)"/></g><g class="cls-16"><path class="cls-8" d="M1651.73,276.05c-2,1.86-13.46,5.95-13.46,5.95s8.89,0,15.49-4.4Z" transform="translate(-1205)"/></g><g class="cls-16"><path class="cls-8" d="M1655,249.73l-4.42-5.45-26.79,3s-3.14-2-4.69-1.71-1.56.93-2-.33-3.82-3.63-2.85-6,1.46-4.6.29-5.63-1.54.14-1.54.14-3.75-.82-5,.32-2.12,2.16-1.15,2.8,3.3,1.08,3.34,2.36,2.14,6.32,2.14,6.32a5.5,5.5,0,0,1-2.32-1.1c-.94-.89-2.1-.83-2.75-1.63s-3.09-4.22-4.62-3.53-.51.19-.54,1.1-2.54,2.17-2.64,3.13-2,3.57-.52,3.72,3.26-.87,4.83-.16a6,6,0,0,1,2.5,1.72,2.71,2.71,0,0,0,2.74.54c1.16-.61,4.26.63,4.26.63s-4.34.76-4.93,1.67-.52,1.53-1.71,1.83-5.54,1.73-5.67,2.93,2,.7,2.67,1.81-.43,4.76.27,5,3.38-1.42,4.2-3.4,2.39-3.7,4.32-3.5,4.56-2.26,6.43-2.67a18.74,18.74,0,0,1,2.66-.39l1.88,4.09s-.16,2.11.62,2.26,2.57,1,2.61,1.73-.2,4.24,1.14,3.71,4.66-2.67,5-2,2.67-1,.73-2.9-6-4.1-6.38-5.3-1.69-3.58-1.69-3.58l23.39.45Zm-29.75-1.36,21.4-2,1,1.26Z" transform="translate(-1205)"/></g><g class="cls-16"><path class="cls-8" d="M1603.12,232.47s5.35-.59,6.4,2.2,4.34,1.55,4.34,1.55S1611.25,224.56,1603.12,232.47Zm1.62-1,3.31-1.35-.14,1.32Z" transform="translate(-1205)"/></g><g class="cls-16"><path class="cls-8" d="M1603.86,241.56s-9.17-5.35-10.7,3.38c0,0,5.21-3.78,8-1.17S1603.86,241.56,1603.86,241.56Zm-9.93,2.42,2.32-3,1,1.2Z" transform="translate(-1205)"/></g><g class="cls-16"><path class="cls-8" d="M1633.29,263.34c0-9.37-2.6-2.53-2.6-2.53l-2.53.95s4.28,4.47-2.21,7.08C1626,268.84,1633.33,272.78,1633.29,263.34Zm-5.64,5.55,3.59-2.24-.74,2.36Z" transform="translate(-1205)"/></g><g class="cls-16"><path class="cls-8" d="M1605.73,260.32c8-1.53-2.1-4.36-2.1-4.36s-7.67,7.53-5.89,10.82S1597.7,262,1605.73,260.32Zm-6.36,1.4,2.24-1-3.63,5Z" transform="translate(-1205)"/></g><g class="cls-16"><path class="cls-1" d="M1755.22,220.46l10.42-14.06,0-7.73s-5.34-1.84-11-14c-1.4-2.95-3.37-.35-3.37-.35l-4,1.89.08,5.67,1.85,6.1-1.17,5.9-3,1.64s-2.23-.18-7.21-.88c-8.69-1.34-18.82,1.25-28.5,5.89l-5.41-6.41c-2-3.37-4.18-7.75-1.46-15.13,1.85-4.8,2.83-2,5.49-3.56,5.38-3.15.45-6,1.9-8.81,1.53-3,11.38-6.9,17.11-7.58.31,0,1.31-.29,1.55-.26-.29,4.53,3.75,6,6.22,5.64,3.65-.52,11.48-7.86-2.87-20.14a91.67,91.67,0,0,1-22.8-29.79c-15.07,5.6,7.29,32,7.29,32-1.91.23-22.25,6.12-32.22,25.1s-5.65,35.75,1.94,45.8l.43.53a45.43,45.43,0,0,1-5.72,6.4c-3,2-25.6,6.62-29.62,6.69s-4.49,2.2-3.79,3.07,3.53,5.18,1.16,7.43-1.47,3.07.86,2.82,17.75-1.48,17.75-1.48l6.5-.41s-3,5.22-2.9,5.54,4.81-1.14,4.81-1.14l-1.28,4,6.79-.87-6,13.12,8.27,11.59Z" transform="translate(-1205)"/></g><g class="cls-16"><path class="cls-8" d="M1694.84,137.6s5.31,11.45,14,18.94l-4.54,2c-2.68-3.45-11.29-15.31-9.48-21" transform="translate(-1205)"/></g><g class="cls-16"><path class="cls-8" d="M1678.34,151.51s8.78,8.53,18.64,12l-4,3.23s-15-8.26-14.65-15.23" transform="translate(-1205)"/></g><g class="cls-16"><path class="cls-8" d="M1708.39,127.94s9.78,19.29,22.34,28.95c2.34,2.08,10.74,11.91,5,13.92-2.08.69-3-.74-4-3.35-2.58-6.72-23-25.55-23.3-39.52" transform="translate(-1205)"/></g><g class="cls-16"><path class="cls-8" d="M1655.66,171.52s14.63,5,30.31,3.55l-2.51,3.58c.07-.06-22.3.76-27.8-7.13" transform="translate(-1205)"/></g><g class="cls-16"><path class="cls-8" d="M1627.61,198.64a341.28,341.28,0,0,0,51.54-11.44l-1.12,4.33s-43.25,12.43-50.42,7.11" transform="translate(-1205)"/></g><g class="cls-16"><path class="cls-8" d="M1610.83,221.59s11.75,1.73,27.71-4.69c11.31-4.53,25.64-8.87,37.67-15l.33,3.81s-57.41,26.1-65.71,15.85" transform="translate(-1205)"/></g><g class="cls-16"><path class="cls-8" d="M1641.81,235s11-4,18.78-7.83a133.6,133.6,0,0,0,17.73-10.61l1.23,4S1653,236.92,1641.81,235" transform="translate(-1205)"/></g><g class="cls-16"><path class="cls-8" d="M1718.5,158.65s-21.79,3.43-33.87,27.42c-6.08,12.09-5,28.21,4.49,40.65l3.8-4.29c-13-13.6-14.92-42.23,25.58-63.78" transform="translate(-1205)"/></g><g class="cls-16"><path class="cls-8" d="M1681.39,237.17l2.9,4.81-33.6,4.07s-.92-2.22-1-2.29Z" transform="translate(-1205)"/></g><g class="cls-16"><path class="cls-8" d="M1729.53,166.57l-4.07-5.85c-7.39,3.12-15.49,12.43-15.49,12.43s12.68-8.28,19.56-6.58" transform="translate(-1205)"/></g><g class="cls-16"><path class="cls-8" d="M1739.33,206.55a48.17,48.17,0,0,0-34.88,9.3c-17.39,13.09-21.8,20.29-21.8,20.29l2.66,4.79s23.64-30.81,54-34.38" transform="translate(-1205)"/></g><g class="cls-16"><path class="cls-8" d="M1749.2,199.56s-3.38-5.53-6.38-7.07-9.38-2.87-10.4-4.13a12.36,12.36,0,0,1-1.67-3.83,5.86,5.86,0,0,0-.22,4.36c.86,2.28,3,3.23,9.08,5.76,6.54,2.64,6.83,7.36,6.83,7.36Z" transform="translate(-1205)"/></g><g class="cls-16"><path class="cls-8" d="M1732.51,197.86a6.46,6.46,0,0,1-.67-1.1,2.34,2.34,0,0,1,.15-2,3.4,3.4,0,0,1,2-1.61l.38-.08,10.26,4.24,2.33,4a4.44,4.44,0,0,0,.48-3.48c-.69-2.63-3.68-4.28-4-4.44-.82-.33-.8-1.12-.76-2q.08-.72.06-2.37a1.84,1.84,0,0,0-.73-1.72c-1.52-1.19-5.06-.53-6.31-.17l-2,.58.8-1.86c1.39-3.33,3.37-5.37,6-5.95,5.1-1,10.42,3.9,10.65,4l.66.68-.56.67c-.07.06-1.9,2.42-.87,4.78,3.61,8.54,1,13.38-.77,15.5-2,2.29-4.61,3.29-6.1,3a1.71,1.71,0,0,1-1.17-1c-.26-1-2.54-3.56-4.67-5.36-.23-.15-.74-.51-1.3-.93A24.87,24.87,0,0,1,1732.51,197.86Zm1.81-2.67a.78.78,0,0,0-.53,1c.27.88,2.71,2.54,3.91,3.33a17.51,17.51,0,0,1,1.53,1.08c.72.62,4.29,3.8,5.09,6a6.65,6.65,0,0,0,3.82-2.21c1.53-1.79,3.72-5.88.51-13.52a7,7,0,0,1,.63-6c-1.39-1.19-5-3.76-8.26-3a5.61,5.61,0,0,0-3.66,3c1.79-.24,4.35-.33,6,.94a4.06,4.06,0,0,1,1.48,3.32c-.06,1.15-.08,1.94-.08,2.49a.47.47,0,0,0,0,.3,10.19,10.19,0,0,1,4.52,5.05,7.11,7.11,0,0,1-1.57,6.89l-.92,1.18-3.5-6.09Zm9.93-3.64c0-.07-.12,0-.17-.08A.26.26,0,0,1,1744.25,191.55Z" transform="translate(-1205)"/></g><g class="cls-16"><path class="cls-8" d="M1748.24,184.91a17.21,17.21,0,0,0-4.2-2.33l3.29,4.61Z" transform="translate(-1205)"/></g><g class="cls-16"><path class="cls-8" d="M1747.43,219.28c-1.57-1.93,1.23-6.51,3.1-9.24l.06,0,7.52-9-1.12,4.33c0,.36-.24,1.07-.31,1.79.24-1.19,1.46-3.5,5.12-8.23l.29-.45.6.06c.31,0,.61.06.91,0-3.43-2.07-6.55-7.69-8.32-11.11-.52-.9-.92-1.68-1.14-1.94h0c-.43-.53-2.38-.5-3.52-.13l-.46-1.93c.74-.17,4.3-.95,5.68.9a16,16,0,0,1,1.29,2.26c1.68,3.16,4.89,9,8,10.52.93.46,2.43,1.23,2.06,2.41-.1.41-.38,1.3-4,1.1-2,2.77-4.22,6-4.38,7l.21.27a3.19,3.19,0,0,1,.76,1.48l.18.62-.41.45a3.69,3.69,0,0,1-2.79,1,2.22,2.22,0,0,1-1-.53,8.76,8.76,0,0,0-3.5,7.79l.07.5-.34.39-.14.1c-.62.73-1.81,1.58-3.9.08A3.42,3.42,0,0,1,1747.43,219.28Zm4.74-8c-2,2.9-3.51,6.15-3.09,6.8.68.44.92.46,1.06.35a10.35,10.35,0,0,1,4.5-9.26l.38.46a8.83,8.83,0,0,1-.28-1.43Zm4.47-3.18a2.93,2.93,0,0,0,.25,1.12l.11.13c.12,0,.25-.09.44-.13l-.22-.27-.38-.46A1,1,0,0,1,1756.64,208.07Z" transform="translate(-1205)"/></g><g class="cls-16"><path class="cls-8" d="M1777.67,194.45l-1.62-.77-.26-1.55-1-.65-1.6,1.29-1.38-.21,0-.73,1.33-1.08-1-1.38-2.5,0-1.68,1.47,0,.85,1.45,0,0,.79h-1.1s-1.77.12-2,.16a31.52,31.52,0,0,1-2.33-3.29,10.09,10.09,0,0,1,.58-1.46l1.38-1,.43.53-.67,1.21,1,1,1.71-.06,1.34-1.08.79-1.19-.77-.81-1.33,0-.87-1.07,1.3-.71,1.37,1.42,1.8-1.46-1.12-1.51.43-1.24-.75-.93a10.26,10.26,0,0,0-1.42.16l-1.08-1.33-1.74,1.52.84,1.3s-1.18.73-1.24.79a9.53,9.53,0,0,1-.77-1.36l.47-1-.88-.82-2.17.32-.79,1.19-.57,1.89.6.73,1.53-.14.37.59-1.2,1-1.23.11s-2.23-3.16-2.45-3.3.55-1.77.55-1.77l1,.48,1.19-.85a8.33,8.33,0,0,0,.06-1.15,6.3,6.3,0,0,1,.51-.86l-.87-.95-1.47.64.42-1.11,1.43-.83.19-1.25-1.79-.86-.52-2s-1.51,1-1.64,1.1a13.28,13.28,0,0,1-1.46.52l-.88,1.49,1.9,1.54s.08-.18.16.87c0,1.52-1.18,3.71-2,5.14l6.41,8.59-6.91-7.85-.44.68-.13.11s8,12.9,9.58,12.51,8.94-1.61,8.94-1.61l.69,1.53,1.14.18,1-.69,1.52,0Z" transform="translate(-1205)"/></g><g class="cls-16"><path class="cls-8" d="M1754.15,187.17a2.21,2.21,0,0,0-2.33.12c-1.06.87-.86,3,.49,4.68a4.41,4.41,0,0,0,3.7,1.85A21.49,21.49,0,0,1,1754.15,187.17Zm-2.62,1.8,1.33-1.08,1.63,3Z" transform="translate(-1205)"/></g><line class="cls-17" x1="569.43" y1="183.64" x2="410.14" y2="312.62"/><path class="cls-8" d="M1388.34,116.33l7.65,9.45-11.72,32.73,17.56-14.22a7.81,7.81,0,0,0,2-2.16,3.23,3.23,0,0,0,.31-1.8,4.52,4.52,0,0,0-1.18-2.13l-.65-.8,1.87-1.51,8.4,10.38-1.86,1.51-.43-.53a7.38,7.38,0,0,0-1.71-1.7,2.37,2.37,0,0,0-1.94-.08A8.89,8.89,0,0,0,1404,147l-25.28,20.47-2.16-2.66,14.06-39.37-22,17.84a16.29,16.29,0,0,0-2.15,2,3.28,3.28,0,0,0-.5,1.29,3.4,3.4,0,0,0,.15,1.42,15.59,15.59,0,0,0,1.63,2.42l-1.86,1.51-8.51-10.51,1.86-1.51.43.53a6.15,6.15,0,0,0,2.06,1.86,2.63,2.63,0,0,0,1.76,0,9.41,9.41,0,0,0,2.8-1.71l19.56-15.84a21,21,0,0,0,2.21-1.9,2.11,2.11,0,0,0,.47-1.59,6.7,6.7,0,0,0-1.5-2.54l-.64-.79Z" transform="translate(-1205)"/><path class="cls-8" d="M1415.6,150l20.31,25.08-5.75,9.5-2.29-1.33a13.47,13.47,0,0,0,1.83-4.13,11.94,11.94,0,0,0,.26-3.63,9.3,9.3,0,0,0-.93-3.32,28.61,28.61,0,0,0-3.34-4.67l-6-7.46-11.31,9.16,3,3.73a7.42,7.42,0,0,0,3.2,2.59,4.69,4.69,0,0,0,2.91.06,10.44,10.44,0,0,0,3-1.88l.53-.43,1.78,2.2-13.51,10.94-1.77-2.2,1.19-1a12.24,12.24,0,0,0,2.11-2,4.67,4.67,0,0,0,.28-3.87,13,13,0,0,0-1.79-2.62l-3-3.73-10,8.08a12,12,0,0,0-1.82,1.7,1,1,0,0,0-.09.84,6.49,6.49,0,0,0,1.32,1.91l3.77,4.65a20.62,20.62,0,0,0,5.84,5.3,13.67,13.67,0,0,0,6,1.55,21.22,21.22,0,0,0,6.31-.92l.88,2.59L1406,201,1385,175l1.86-1.51.7.87a7.27,7.27,0,0,0,1.76,1.77,2.17,2.17,0,0,0,1.63.11,7.15,7.15,0,0,0,2.09-1.36l21.23-17.19a5.33,5.33,0,0,0,1.71-1.83,2.15,2.15,0,0,0-.07-1.59,14.5,14.5,0,0,0-2-2.77l1.79-1.45-.05-.07Z" transform="translate(-1205)"/><path class="cls-8" d="M1441.67,182.2l9.65,11.91-1.87,1.51-.64-.8a6.63,6.63,0,0,0-1.94-1.85,1.69,1.69,0,0,0-1.32-.13,8.27,8.27,0,0,0-2.35,1.45l-13.9,11.26c-2.46,2-4.11,3.77-4.82,5.34a9.16,9.16,0,0,0-.57,5.42,11.64,11.64,0,0,0,2.52,5.56,12.35,12.35,0,0,0,5.21,3.71,9.54,9.54,0,0,0,5.65.6c1.69-.37,3.82-1.55,6.41-3.65l13.38-10.83a7.17,7.17,0,0,0,1.91-2,2.47,2.47,0,0,0,.23-1.62,5.11,5.11,0,0,0-1.12-2.06l-.7-.87,1.86-1.51,8.35,10.31-1.86,1.51-.59-.73c-.92-1.13-1.82-1.83-2.61-1.86s-1.8.36-3.06,1.39l-14.24,11.53a16.33,16.33,0,0,1-7.64,3.76,13.6,13.6,0,0,1-7.57-.92,17.17,17.17,0,0,1-6.76-5.21,17.55,17.55,0,0,1-3.64-7.63,13.43,13.43,0,0,1,.41-7.38,14,14,0,0,1,4.71-6l15.1-12.23a6.63,6.63,0,0,0,1.85-1.94,2.58,2.58,0,0,0,.22-1.5,5.06,5.06,0,0,0-1.19-2l-.86-1.06Z" transform="translate(-1205)"/><path class="cls-8" d="M1470.28,217.53l11.86,14.64a47.8,47.8,0,0,1,5.51,7.76,12,12,0,0,1,1.24,6.71,8.32,8.32,0,0,1-3.05,5.34,8.42,8.42,0,0,1-4.15,1.81,9,9,0,0,1-4.69-.61,14,14,0,0,1-3.62-2,18.49,18.49,0,0,1,1.9,4.53,9.28,9.28,0,0,1-.24,5.15,9.43,9.43,0,0,1-7.66,6.31,10.4,10.4,0,0,1-5.41-.69,14.63,14.63,0,0,1-5.18-3.4,59.64,59.64,0,0,1-4.69-5.12l-12.5-15.44,1.86-1.51.86,1.07a4.21,4.21,0,0,0,2.14,1.68,3.26,3.26,0,0,0,2.77-.92l21.43-17.35a6.21,6.21,0,0,0,1.84-1.94,1.58,1.58,0,0,0,.21-1.38,7,7,0,0,0-1.24-2.08l-.86-1.06,1.73-1.4-.06-.07Zm4.06,10.05L1463,236.74l4.58,5.65a30.31,30.31,0,0,0,4.76,5.07,8.07,8.07,0,0,0,4.87,1.79,7.07,7.07,0,0,0,4.62-1.77,6.13,6.13,0,0,0,2.34-3.65,7.38,7.38,0,0,0-.64-4.33,33.81,33.81,0,0,0-3.73-5.14l-5.49-6.78ZM1461,238.41l-10.12,8.18a10,10,0,0,0-1.69,1.59,1.23,1.23,0,0,0,.06,1.17,14.68,14.68,0,0,0,1.6,2.23l2.42,3a37.07,37.07,0,0,0,5.64,6,7.82,7.82,0,0,0,4.77,1.53,7.85,7.85,0,0,0,7.46-5.6,7.92,7.92,0,0,0-.29-4.72c-.56-1.64-2.24-4.13-4.88-7.39l-5-6Z" transform="translate(-1205)"/><path class="cls-8" d="M1506.92,262.78l2.91,3.59-18,30.43a9.66,9.66,0,0,0-1.47,3.5,3.32,3.32,0,0,0,1,2.41l.37.47-1.86,1.51-8.89-11,1.86-1.51c.27.33.66.68.93,1a4.15,4.15,0,0,0,1.33,1.24,1.78,1.78,0,0,0,1.61-.2,13,13,0,0,0,1.77-2.43l4.32-6.91-9-11.18-8.59,3a6.37,6.37,0,0,0-1.79.79,2.38,2.38,0,0,0-.64.84,1.12,1.12,0,0,0,0,1,4.3,4.3,0,0,0,.89,1.37l.81,1-1.86,1.51-7.44-9.18,1.87-1.51a5.79,5.79,0,0,0,1.77,1.65,4,4,0,0,0,1.61.35,15.78,15.78,0,0,0,3.31-.81Zm-20.36,10.09,7.71,9.52,9.41-15.45Z" transform="translate(-1205)"/><path class="cls-8" d="M1522.22,281.67l9.64,11.91-1.86,1.51-.65-.8a6.51,6.51,0,0,0-1.93-1.85,1.72,1.72,0,0,0-1.33-.13,8.13,8.13,0,0,0-2.34,1.45L1509.84,305c-2.46,2-4.11,3.77-4.82,5.34a9.31,9.31,0,0,0-.57,5.42,11.64,11.64,0,0,0,2.52,5.56,12.48,12.48,0,0,0,5.21,3.71,9.57,9.57,0,0,0,5.66.6c1.68-.37,3.81-1.55,6.41-3.65l13.37-10.83a7.4,7.4,0,0,0,1.92-2,2.6,2.6,0,0,0,.23-1.62,5.47,5.47,0,0,0-1.12-2.07l-.7-.86,1.86-1.51,8.35,10.31-1.86,1.51-.6-.73c-.91-1.13-1.81-1.83-2.6-1.86s-1.8.36-3.07,1.39l-14.24,11.53a16.28,16.28,0,0,1-7.64,3.76,13.62,13.62,0,0,1-7.57-.92,17.24,17.24,0,0,1-6.76-5.21,17.78,17.78,0,0,1-3.64-7.63,13.62,13.62,0,0,1,.41-7.38,14.19,14.19,0,0,1,4.71-6l15.11-12.23a6.42,6.42,0,0,0,1.84-1.94,2.58,2.58,0,0,0,.22-1.5,4.94,4.94,0,0,0-1.19-2l-.91-1.13,1.8-1.45,0,.06Z" transform="translate(-1205)"/><path class="cls-8" d="M1551.15,317.4l20.31,25.08-5.74,9.51-2.3-1.34a13.67,13.67,0,0,0,1.84-4.13,12.26,12.26,0,0,0,.25-3.63,9.29,9.29,0,0,0-.92-3.32,29.31,29.31,0,0,0-3.35-4.67l-6-7.45-11.31,9.15,3,3.73a7.47,7.47,0,0,0,3.2,2.59,4.72,4.72,0,0,0,2.92.06,10.71,10.71,0,0,0,3-1.87l.54-.44,1.77,2.2-13.5,10.94-1.78-2.2,1.2-1a12.09,12.09,0,0,0,2.1-2,4.67,4.67,0,0,0,.28-3.87,13,13,0,0,0-1.79-2.62l-3-3.73-10,8.09a12.18,12.18,0,0,0-1.82,1.69,1,1,0,0,0-.09.84,6.49,6.49,0,0,0,1.32,1.91l3.77,4.66a21.07,21.07,0,0,0,5.84,5.3,13.66,13.66,0,0,0,6,1.54,20.89,20.89,0,0,0,6.31-.92l.88,2.59-12.44,4.35-21.07-26,1.86-1.51.7.86a7.45,7.45,0,0,0,1.76,1.77,2.19,2.19,0,0,0,1.64.11,7.19,7.19,0,0,0,2.09-1.36l21.22-17.19a5.4,5.4,0,0,0,1.72-1.83,2.16,2.16,0,0,0-.08-1.59,13.56,13.56,0,0,0-2-2.77l1.74-1.52Z" transform="translate(-1205)"/><path class="cls-8" d="M1577.55,350l12.88,15.91a25.61,25.61,0,0,1,4.61,7.6,10.2,10.2,0,0,1,.19,5.8,8.68,8.68,0,0,1-3.11,4.61,9.76,9.76,0,0,1-5.22,2.25,10.52,10.52,0,0,1-5.79-1.16,19.22,19.22,0,0,1-6-5.14l-3.29,16.22a17.06,17.06,0,0,0-.45,2.57,9.41,9.41,0,0,0,.23,2.45,5.84,5.84,0,0,0,1.23,2.2l.43.54-1.86,1.5-5.71-7.05,5.54-23.22-3.23-4-9.52,7.71a12.43,12.43,0,0,0-1.88,1.75,1.9,1.9,0,0,0-.42,1.66,6.14,6.14,0,0,0,1.39,2.39l.64.8-1.86,1.51-9.53-11.77,1.86-1.51.86,1.06a9,9,0,0,0,1.43,1.49,1.76,1.76,0,0,0,1.12.3,4.34,4.34,0,0,0,1.38-.34c.13-.11,1-.69,2.31-1.77l20.16-16.32a6.15,6.15,0,0,0,1.72-1.83,2.49,2.49,0,0,0,.27-1.43,4.34,4.34,0,0,0-1.08-1.88l-1-1.27,1.86-1.5-.11-.14Zm4.12,10-11.57,9.38,5.12,6.32a22.38,22.38,0,0,0,4.06,4.2,6.86,6.86,0,0,0,4.3,1.37,8.46,8.46,0,0,0,6.93-5.18,6.35,6.35,0,0,0,.21-3.69,13,13,0,0,0-2.63-4.48l-6.42-7.92Z" transform="translate(-1205)"/><path class="cls-8" d="M1620.8,426.68l8.3,10.25-1.86,1.51-1-1.27a6.3,6.3,0,0,0-1.65-1.63,2,2,0,0,0-1.31-.26,4.38,4.38,0,0,0-1.83.6,29.89,29.89,0,0,1-11.34,3.68,11.59,11.59,0,0,0-1.35,3.51,9.78,9.78,0,0,0-.34,3.25,4.9,4.9,0,0,0,.88,2,3.3,3.3,0,0,0,2.18,1.32,2.56,2.56,0,0,0,2.19-.56,2.6,2.6,0,0,0,1-1.24,5.19,5.19,0,0,0-.15-2.08,3.6,3.6,0,0,1,0-1.89,2.87,2.87,0,0,1,.86-1.24,2.8,2.8,0,0,1,1.89-.66,2.34,2.34,0,0,1,1.72,1,4.62,4.62,0,0,1,.88,3.8,6.37,6.37,0,0,1-2.54,3.93,7.54,7.54,0,0,1-5.84,1.64,8.2,8.2,0,0,1-5.46-3.07,9.34,9.34,0,0,1-1.87-4.21,13.57,13.57,0,0,1,.48-5.67,24.06,24.06,0,0,1-6-1.73,16.93,16.93,0,0,1-8.93-11.17,12.79,12.79,0,0,1,.28-6.72,11.25,11.25,0,0,1,3.66-5.28,11.64,11.64,0,0,1,5.31-2.43,14.15,14.15,0,0,1,6.32.61,22.78,22.78,0,0,1,5.33,2.63,13.71,13.71,0,0,1-.67-4.09,6.63,6.63,0,0,1,.75-3,7.45,7.45,0,0,1,2-2.47,7.19,7.19,0,0,1,6.13-1.54,10.24,10.24,0,0,1,6.59,3.91,9.83,9.83,0,0,1,2.44,6.84,7.48,7.48,0,0,1-2.73,5.73,7.79,7.79,0,0,1-3.89,1.73,9,9,0,0,1-4.34-.46,9.87,9.87,0,0,1-3.1-1.79,13.72,13.72,0,0,1,1,4.56,19.18,19.18,0,0,1-.72,5.09,34.55,34.55,0,0,1-2.65,6.67c4.32-1.19,7.24-2.35,8.84-3.64a1.58,1.58,0,0,0,.76-1.38,4.5,4.5,0,0,0-1.23-2.2l-1.08-1.33,1.93-1.56.21.26Zm-9.47-8.3c-2.39-1-3.9-1.69-4.49-1.87a9.85,9.85,0,0,0-3.25-.34,11.38,11.38,0,0,0-3.17.58,8,8,0,0,0-2.58,1.43,10.27,10.27,0,0,0-1.5,14.21,10.21,10.21,0,0,0,3.6,2.81,17.43,17.43,0,0,0,5.67,1.69,6.5,6.5,0,0,1,.63-1.39l4-9c.38-.75.67-1.75,1.09-2.86a9.91,9.91,0,0,0,.37-2.4A10.87,10.87,0,0,0,1611.33,418.38Zm12.26-8.39a5,5,0,0,0-3.69-2,6.73,6.73,0,0,0-6.65,5.39,5.05,5.05,0,0,0,1.09,4.07,5.38,5.38,0,0,0,3.76,1.92,5.94,5.94,0,0,0,4.28-1.38,6.17,6.17,0,0,0,2.43-3.94A5.33,5.33,0,0,0,1623.59,410Z" transform="translate(-1205)"/><path class="cls-8" d="M1673.45,468.44l1.29,1.59-7.63,10-2.26-1.58a20.35,20.35,0,0,0,2.11-10.31,12.77,12.77,0,0,0-2.81-7.42,10.61,10.61,0,0,0-3.46-2.92A7.63,7.63,0,0,0,1657,457a4.82,4.82,0,0,0-2.91,1,5.07,5.07,0,0,0-1.51,2.22,7.13,7.13,0,0,0-.27,3.19,23.46,23.46,0,0,0,1.7,5.23l3,7.19a30.66,30.66,0,0,1,1.28,4,15.66,15.66,0,0,1,.67,4.64,10.68,10.68,0,0,1-.94,3.74,8.9,8.9,0,0,1-2.52,3.14,10.76,10.76,0,0,1-9,2c-3.59-.62-6.72-2.71-9.47-6.11a19.41,19.41,0,0,1-3.09-5.31,18.41,18.41,0,0,1-.88-6.67l-3.74,1.37-1.24-1.53,9.38-11,2.07,1.74a19.69,19.69,0,0,0-2.77,7.19,17.45,17.45,0,0,0,.08,6.77,13.68,13.68,0,0,0,2.65,5.45,11.34,11.34,0,0,0,6.46,4,6.09,6.09,0,0,0,5.41-1.08,5.12,5.12,0,0,0,2.07-4.1,18.65,18.65,0,0,0-1.8-7.13l-2.88-6.82c-1.61-3.76-2.19-6.92-1.82-9.32a9,9,0,0,1,3.23-5.81,8.44,8.44,0,0,1,5-1.91,11.35,11.35,0,0,1,6.06,1.37,16.92,16.92,0,0,1,5.73,4.62,17.76,17.76,0,0,1,3.12,5.62,12,12,0,0,1,.68,4.51Z" transform="translate(-1205)"/><path class="cls-8" d="M1694.67,493.55a18.47,18.47,0,0,1,4.13,9.33,19.78,19.78,0,0,1-1.07,10.23,20.55,20.55,0,0,1-6.5,8.57q-7.1,5.73-15.14,5a19.41,19.41,0,0,1-13.56-7.63c-4.15-5.13-5.58-10.57-4.41-16.48a21.92,21.92,0,0,1,17.4-16.73A19.44,19.44,0,0,1,1686,487,21.39,21.39,0,0,1,1694.67,493.55Zm-2.39,1.94a13.75,13.75,0,0,0-6.4-4.63,14.27,14.27,0,0,0-7.89-.22,22.52,22.52,0,0,0-8.77,4.68,21.08,21.08,0,0,0-6.13,7.39,15,15,0,0,0-1.41,7.65,13.08,13.08,0,0,0,2.93,6.88,12.85,12.85,0,0,0,5.94,4.21,14.78,14.78,0,0,0,8.11-.06,22,22,0,0,0,8.69-4.5,23.88,23.88,0,0,0,6.34-7.67,12.25,12.25,0,0,0,1.54-7.09A12.52,12.52,0,0,0,1692.28,495.49Z" transform="translate(-1205)"/><path class="cls-8" d="M1710.14,513.75l9.64,11.91-1.86,1.5-.65-.79a6.29,6.29,0,0,0-1.88-1.79,2.26,2.26,0,0,0-1.63-.11,8.61,8.61,0,0,0-2.22,1.47l-8.59,6.95,12.93,16,8.39-6.79a12.16,12.16,0,0,0,2-1.8,2.57,2.57,0,0,0,.47-1.59,4.18,4.18,0,0,0-1.12-2.07l-1-1.2,1.86-1.5,9.54,11.77-1.86,1.51-.86-1.06a4.83,4.83,0,0,0-1.67-1.52,2.53,2.53,0,0,0-1.33-.14,8.61,8.61,0,0,0-2.22,1.47l-21,17a9.18,9.18,0,0,0-2,2,1.66,1.66,0,0,0,0,1.41,21.78,21.78,0,0,0,2,2.76l-1.86,1.51-9.53-11.77,1.86-1.51.7.86a10.05,10.05,0,0,0,2,2,1.37,1.37,0,0,0,1.27.07,17,17,0,0,0,2.43-1.75l9.58-7.76-12.93-16-9.84,8a10,10,0,0,0-2.1,2,1.64,1.64,0,0,0,0,1.4,23.75,23.75,0,0,0,2.13,2.9L1689,550.6l-9.65-11.91,1.87-1.51.59.73a8.83,8.83,0,0,0,1.92,2,1.57,1.57,0,0,0,1.27.07,5.34,5.34,0,0,0,2.08-1.24l21.23-17.19a8.45,8.45,0,0,0,1.83-1.81,1.86,1.86,0,0,0,.21-1.38,6,6,0,0,0-1.08-1.88l-1-1.26,1.92-1.44Z" transform="translate(-1205)"/><path class="cls-8" d="M1739.34,549.81l7.65,9.45L1735.27,592l17.57-14.22a7.74,7.74,0,0,0,2-2.17,3.12,3.12,0,0,0,.31-1.79,4.43,4.43,0,0,0-1.18-2.13l-.64-.8,1.86-1.51,8.35,10.31-1.86,1.51-.43-.53a7.38,7.38,0,0,0-1.71-1.7,2.41,2.41,0,0,0-1.94-.09,9.19,9.19,0,0,0-2.6,1.56l-25.28,20.47-2.16-2.66,14.06-39.37-22,17.84a16.29,16.29,0,0,0-2.15,2,3.28,3.28,0,0,0-.5,1.29,3.69,3.69,0,0,0,.15,1.41,15.51,15.51,0,0,0,1.63,2.43l-1.86,1.51-8.46-10.45,1.87-1.51.43.53a6,6,0,0,0,2,1.86,2.65,2.65,0,0,0,1.77,0,9.62,9.62,0,0,0,2.8-1.72l19.56-15.84a22.05,22.05,0,0,0,2.21-1.9,2.1,2.1,0,0,0,.47-1.59,6.91,6.91,0,0,0-1.5-2.53l-.65-.8,1.93-1.56Z" transform="translate(-1205)"/><path class="cls-8" d="M1340.49,155.74l1.13-.92,5.49,6.79a31.4,31.4,0,0,1,4.69,7,11.41,11.41,0,0,1,.36,7,12.69,12.69,0,0,1-4.48,6.71,13.18,13.18,0,0,1-5,2.52,10.87,10.87,0,0,1-5.14.19,9,9,0,0,1-3.82-1.86,20.94,20.94,0,0,1-3.25-3.2l-7.87-9.72,1.13-.91.65.79.21.27a1.9,1.9,0,0,0,.85.64,1.5,1.5,0,0,0,.91,0,6.65,6.65,0,0,0,1.25-.9l12.78-10.35a6.33,6.33,0,0,0,1.28-1.26,1.68,1.68,0,0,0,.12-1.08A10.5,10.5,0,0,0,1340.49,155.74ZM1328,174l3.34,4.12a22.63,22.63,0,0,0,1.87,1.91,9.9,9.9,0,0,0,2.2,1.63,6.73,6.73,0,0,0,2.93.49,11.29,11.29,0,0,0,3.54-.66,13.34,13.34,0,0,0,3.71-2.23,11.76,11.76,0,0,0,2.81-3,10.17,10.17,0,0,0,1.33-3.4,8.83,8.83,0,0,0,0-3.4,9.81,9.81,0,0,0-1.32-3.13,31.83,31.83,0,0,0-2-2.58l-2.26-2.79Z" transform="translate(-1205)"/><path class="cls-8" d="M1363.94,182.25l5.92,7.32-1.13.91-.48-.6a3,3,0,0,0-1.12-1,1.51,1.51,0,0,0-1,0,5.85,5.85,0,0,0-1.7,1.16l-12.31,10a4.27,4.27,0,0,0-1.17,1.28,1.52,1.52,0,0,0-.17,1,2.94,2.94,0,0,0,.72,1.29l.43.53-1.13.92-5.93-7.32,1.13-.92.49.6a2.86,2.86,0,0,0,1.11,1,1.59,1.59,0,0,0,.91,0,6.36,6.36,0,0,0,1.44-1l12.58-10.18a7.14,7.14,0,0,0,1.29-1.26,1.57,1.57,0,0,0,.15-.9,2.84,2.84,0,0,0-.72-1.29l-.48-.6,1.2-1Z" transform="translate(-1205)"/><path class="cls-8" d="M1376.11,197.28l12.56,15.51-3.54,5.83-1.43-.82a10,10,0,0,0,1.12-2.56A9.48,9.48,0,0,0,1385,213a5.79,5.79,0,0,0-.57-2.07,18.28,18.28,0,0,0-2.08-2.84l-3.77-4.65-7,5.65,1.89,2.33a4.87,4.87,0,0,0,2,1.61,2.45,2.45,0,0,0,1.77,0,6,6,0,0,0,1.82-1.15l.33-.26,1.08,1.33-8.38,6.78-1.08-1.33.73-.59a8.61,8.61,0,0,0,1.29-1.26,2.46,2.46,0,0,0,.37-1.18,3.41,3.41,0,0,0-.12-1.23,8.52,8.52,0,0,0-1.1-1.64l-1.83-2.26-6.19,5a5.13,5.13,0,0,0-1.14,1,.83.83,0,0,0-.12.53,5.08,5.08,0,0,0,.85,1.19l2.31,2.86a12,12,0,0,0,3.62,3.24,10.87,10.87,0,0,0,3.67,1,11.7,11.7,0,0,0,3.83-.57l.56,1.64L1370,228.9l-13-16.1,1.13-.92.43.54a4.52,4.52,0,0,0,1.11,1.09,1.46,1.46,0,0,0,1,0,5.34,5.34,0,0,0,1.3-.83l13.11-10.62a3,3,0,0,0,1-1.17,1.78,1.78,0,0,0,0-1,10.28,10.28,0,0,0-1.23-1.65l1.26-1Z" transform="translate(-1205)"/><path class="cls-8" d="M1408.12,236.81l5.92,7.31-1.13.92-.48-.6a3,3,0,0,0-1.12-1,1.46,1.46,0,0,0-1,0,5.72,5.72,0,0,0-1.7,1.16l-12.31,10a4.27,4.27,0,0,0-1.17,1.28,1.52,1.52,0,0,0-.17,1,3,3,0,0,0,.72,1.29l.43.53-1.13.92-5.93-7.32,1.13-.92.49.6a3,3,0,0,0,1.11,1,1.59,1.59,0,0,0,.91,0,6.84,6.84,0,0,0,1.44-1l12.57-10.18a6.15,6.15,0,0,0,1.29-1.27,1.46,1.46,0,0,0,.16-.89,3,3,0,0,0-.72-1.3l-.48-.59,1.2-1Z" transform="translate(-1205)"/><path class="cls-8" d="M1420.29,251.84l4.9,6.06-10.52,17.88,19.58-6.7,4.68,5.78-1.13.92-.38-.47a5.56,5.56,0,0,0-1.1-1.09,1.19,1.19,0,0,0-.91,0,3.79,3.79,0,0,0-1.42.82l-12.58,10.19a7.33,7.33,0,0,0-1.42,1.37,1.25,1.25,0,0,0-.16.9,3.54,3.54,0,0,0,.83,1.42l.37.47-1.13.91-6-7.38,1.13-.92.44.53a3.78,3.78,0,0,0,.94.89,1.88,1.88,0,0,0,.76.27,2.5,2.5,0,0,0,.75-.17,6,6,0,0,0,.92-.63l14-11.37L1410.8,279l-1.13-1.4,11.77-19.88-13.51,10.93a4.51,4.51,0,0,0-1.24,1.33,1.84,1.84,0,0,0-.1,1,4.47,4.47,0,0,0,.88,1.49l.38.47-1.13.91-5.44-6.72,1.13-.91.32.39a4.39,4.39,0,0,0,1.33,1.24,1.61,1.61,0,0,0,1.08.11,4.52,4.52,0,0,0,1.63-1l12.38-10a7.86,7.86,0,0,0,1.28-1.27,2.13,2.13,0,0,0,.16-.89,3.91,3.91,0,0,0-.89-1.38l-.54-.66,1.13-.92Z" transform="translate(-1205)"/><path class="cls-8" d="M1445.45,282.91l4.9,6.06-10.52,17.88,19.58-6.7,4.68,5.79-1.13.91-.38-.46a5,5,0,0,0-1.1-1.09,1.15,1.15,0,0,0-.91,0,3.71,3.71,0,0,0-1.42.83l-12.58,10.18a7.33,7.33,0,0,0-1.42,1.37,1.25,1.25,0,0,0-.16.9,3.54,3.54,0,0,0,.83,1.42l.38.47-1.14.91-5.87-7.25,1.13-.91.43.53a4.7,4.7,0,0,0,.94.89,1.9,1.9,0,0,0,.77.26,2.85,2.85,0,0,0,.75-.16,6.7,6.7,0,0,0,.92-.64l14-11.36-22.09,7.53-1.13-1.39L1446.7,289l-13.5,10.94a4.39,4.39,0,0,0-1.24,1.33,1.71,1.71,0,0,0-.1,1,4,4,0,0,0,.88,1.49l.38.47-1.14.92-5.44-6.72,1.13-.92.33.4a4.53,4.53,0,0,0,1.33,1.24,1.75,1.75,0,0,0,1.08.11,4.44,4.44,0,0,0,1.63-1l12.37-10a7.67,7.67,0,0,0,1.29-1.26,2.35,2.35,0,0,0,.16-.9,3.9,3.9,0,0,0-.89-1.37l-.54-.67,1.13-.91Z" transform="translate(-1205)"/><path class="cls-8" d="M1479.13,323.83a11.4,11.4,0,0,1,2.57,5.75A12.81,12.81,0,0,1,1481,336a13.1,13.1,0,0,1-4,5.24,12.77,12.77,0,0,1-9.39,3.09,11.92,11.92,0,0,1-8.45-4.72,12.13,12.13,0,0,1-2.76-10.22,12.53,12.53,0,0,1,4.68-7.54,12.69,12.69,0,0,1,6.09-2.83,12.36,12.36,0,0,1,6.43.74A13.51,13.51,0,0,1,1479.13,323.83Zm-1.53,1.24a8.37,8.37,0,0,0-4-2.85,9,9,0,0,0-4.85-.15,14.18,14.18,0,0,0-5.41,2.84,13.35,13.35,0,0,0-3.77,4.6,8.35,8.35,0,0,0-.87,4.78,8.2,8.2,0,0,0,1.8,4.26,8.3,8.3,0,0,0,3.68,2.64,8.63,8.63,0,0,0,5-.08,13.57,13.57,0,0,0,5.35-2.79,15.74,15.74,0,0,0,4-4.75,7.11,7.11,0,0,0-.94-8.5Z" transform="translate(-1205)"/><path class="cls-8" d="M1492.86,341.47l7.33,9a28,28,0,0,1,3.33,4.8,6.53,6.53,0,0,1,.72,4.15,5.26,5.26,0,0,1-4.36,4.41,7.69,7.69,0,0,1-2.89-.3,9.31,9.31,0,0,1-2.24-1.27,12.2,12.2,0,0,1,1.17,2.8,5.83,5.83,0,0,1-.16,3.21,5.93,5.93,0,0,1-4.79,3.88,6.85,6.85,0,0,1-3.3-.41,9.74,9.74,0,0,1-3.25-2.11,32.56,32.56,0,0,1-2.89-3.16l-7.76-9.58,1.13-.92.54.67c.48.6.93,1,1.29,1.05a2.12,2.12,0,0,0,1.71-.62l13.24-10.72a6.24,6.24,0,0,0,1.15-1.15,1.35,1.35,0,0,0,.09-.85,3.28,3.28,0,0,0-.78-1.24l-.54-.66Zm2.51,6.22-7,5.66,2.8,3.46a22.69,22.69,0,0,0,2.89,3.17,5.14,5.14,0,0,0,3,1.1,4.56,4.56,0,0,0,2.86-1.1,3.39,3.39,0,0,0,1.39-2.23,4.57,4.57,0,0,0-.39-2.65,18.72,18.72,0,0,0-2.28-3.23l-3.28-4.18Zm-8.31,6.74-6.26,5.06a4.87,4.87,0,0,0-1.07,1,.83.83,0,0,0,0,.73,7.21,7.21,0,0,0,1,1.39l1.51,1.86a22.45,22.45,0,0,0,3.51,3.66,4.76,4.76,0,0,0,3,.91,4.82,4.82,0,0,0,3.09-1.07,4.13,4.13,0,0,0,1.53-2.34,5,5,0,0,0-.18-2.94,19.66,19.66,0,0,0-3-4.58l-3.08-3.67Z" transform="translate(-1205)"/><path class="cls-8" d="M1513.93,367.48l5.93,7.32-1.14.92-.43-.54a3.05,3.05,0,0,0-1.11-1,1.52,1.52,0,0,0-1,0,5.73,5.73,0,0,0-1.71,1.16l-12.31,10a4.2,4.2,0,0,0-1.16,1.28,1.46,1.46,0,0,0-.17,1,2.94,2.94,0,0,0,.71,1.29l.43.53-1.13.92-5.92-7.32,1.13-.92.48.6a2.89,2.89,0,0,0,1.12,1,1.58,1.58,0,0,0,.91,0,6.84,6.84,0,0,0,1.44-.95l12.57-10.18a6.79,6.79,0,0,0,1.29-1.26,1.57,1.57,0,0,0,.16-.9,2.94,2.94,0,0,0-.72-1.29l-.49-.6,1.15-1Z" transform="translate(-1205)"/><path class="cls-8" d="M1526.1,382.52l6,7.38-1.14.92-.53-.67a5.73,5.73,0,0,0-1.05-1,1.42,1.42,0,0,0-.85-.09,2.82,2.82,0,0,0-1.17.73L1514,400.55a4.61,4.61,0,0,0-1,.92,1.06,1.06,0,0,0-.06.61,5,5,0,0,0,.85,1.18l.81,1a10.89,10.89,0,0,0,3,2.63,9.58,9.58,0,0,0,3.29,1.08,12.41,12.41,0,0,0,4.39-.58l.57,1.52-7.72,2.72-11.09-13.7,1.13-.92.48.6a5.82,5.82,0,0,0,1.1,1.09,1.55,1.55,0,0,0,.91,0c.31,0,.71-.35,1.31-.83l13-10.51a6.49,6.49,0,0,0,1.23-1.21,1.07,1.07,0,0,0,.09-.84,5.62,5.62,0,0,0-.84-1.31l-.49-.6,1.13-.91Z" transform="translate(-1205)"/><path class="cls-8" d="M1543.83,404.41l5.93,7.32-1.13.91-.44-.53a3,3,0,0,0-1.11-1,1.52,1.52,0,0,0-1-.05,6.32,6.32,0,0,0-1.71,1.16l-12.3,10a4.13,4.13,0,0,0-1.17,1.28,1.5,1.5,0,0,0-.17,1,3,3,0,0,0,.71,1.3l.44.53-1.14.92-5.92-7.32,1.13-.92.48.6a3,3,0,0,0,1.12,1,1.5,1.5,0,0,0,.91,0,6.27,6.27,0,0,0,1.44-.94l12.57-10.18a6.73,6.73,0,0,0,1.29-1.27,1.47,1.47,0,0,0,.16-.89,3,3,0,0,0-.72-1.3l-.48-.6,1.14-1Z" transform="translate(-1205)"/><path class="cls-8" d="M1556,419.44,1568.56,435l-3.54,5.83-1.43-.82a9.37,9.37,0,0,0,1.12-2.56,6.69,6.69,0,0,0,.17-2.23,5.59,5.59,0,0,0-.57-2.07,18.28,18.28,0,0,0-2.08-2.84l-3.77-4.65-7,5.65,1.88,2.33a4.87,4.87,0,0,0,2,1.61,2.45,2.45,0,0,0,1.77,0,5.92,5.92,0,0,0,1.82-1.15l.34-.26,1.07,1.33-8.38,6.78-1.08-1.33.74-.59a8.43,8.43,0,0,0,1.28-1.26,2.35,2.35,0,0,0,.37-1.18,3.66,3.66,0,0,0-.11-1.23,5.55,5.55,0,0,0-1.11-1.64l-1.88-2.33-6.19,5a5.58,5.58,0,0,0-1.15,1,.91.91,0,0,0-.11.53,5.08,5.08,0,0,0,.85,1.19l2.31,2.86a11.9,11.9,0,0,0,3.62,3.24,9.72,9.72,0,0,0,3.67,1,12.07,12.07,0,0,0,3.83-.58l.56,1.65-7.71,2.72-13-16.11,1.13-.91.43.53a4.32,4.32,0,0,0,1.11,1.09,1.51,1.51,0,0,0,1,0,5.48,5.48,0,0,0,1.3-.84l13.11-10.61a3.11,3.11,0,0,0,1-1.17,1.73,1.73,0,0,0,0-1,9.68,9.68,0,0,0-1.22-1.65l1.26-1Z" transform="translate(-1205)"/><path class="cls-8" d="M1576.53,444.79l4.74,5.86-7.3,20.23,10.85-8.78a4.33,4.33,0,0,0,1.23-1.33,1.81,1.81,0,0,0,.18-1.14,3.29,3.29,0,0,0-.71-1.29l-.38-.47,1.13-.91,5.17,6.38-1.13.92-.27-.33a5.28,5.28,0,0,0-1-1,1.94,1.94,0,0,0-1.27-.07,3.85,3.85,0,0,0-1.55.93l-15.64,12.66-1.35-1.66,8.71-24.34-13.64,11a7.94,7.94,0,0,0-1.34,1.2,3.2,3.2,0,0,0-.33.82,1.64,1.64,0,0,0,.15.86,6.45,6.45,0,0,0,1,1.51l-1.13.91-5.23-6.45,1.13-.92.27.34a3.81,3.81,0,0,0,1.28,1.17,1.76,1.76,0,0,0,1.09,0,5.94,5.94,0,0,0,1.76-1.09L1575,450a8.65,8.65,0,0,0,1.35-1.2,1.32,1.32,0,0,0,.28-1,3.66,3.66,0,0,0-.93-1.56l-.37-.47,1.19-1Z" transform="translate(-1205)"/><path class="cls-8" d="M1597.65,470.88l4.91,6.05L1592,494.82l19.58-6.71,4.68,5.79-1.13.91-.37-.46a5.22,5.22,0,0,0-1.11-1.09,1.19,1.19,0,0,0-.91,0,3.71,3.71,0,0,0-1.42.83l-12.58,10.18a8,8,0,0,0-1.42,1.37,1.25,1.25,0,0,0-.16.9,3.41,3.41,0,0,0,.83,1.42l.38.47-1.14.92-5.87-7.26,1.13-.91.43.53a4.18,4.18,0,0,0,1,.89,1.68,1.68,0,0,0,.76.26,2.85,2.85,0,0,0,.75-.16,5.91,5.91,0,0,0,.92-.64l14-11.36-22.09,7.53-1.13-1.39,11.77-19.89-13.51,10.94a4.39,4.39,0,0,0-1.24,1.33,1.72,1.72,0,0,0-.1,1,4.09,4.09,0,0,0,.88,1.5l.38.46-1.13.92-5.45-6.72,1.14-.92.32.4a4.39,4.39,0,0,0,1.33,1.24,1.75,1.75,0,0,0,1.08.11,4.44,4.44,0,0,0,1.63-1l12.37-10a7.67,7.67,0,0,0,1.29-1.26,1.62,1.62,0,0,0,.1-1,3.63,3.63,0,0,0-.89-1.38l-.53-.66,1.07-1Z" transform="translate(-1205)"/><path class="cls-8" d="M1628.58,509.07l1.83,2.26-11.17,18.85a5.34,5.34,0,0,0-.9,2.16,2.1,2.1,0,0,0,.57,1.52l.27.33-1.13.92-5.5-6.79,1.13-.91.54.66a2.59,2.59,0,0,0,.84.76,1.08,1.08,0,0,0,1-.14,8.08,8.08,0,0,0,1.07-1.53l2.63-4.23-5.6-6.92-5.31,1.88a4.61,4.61,0,0,0-1,.5,1.27,1.27,0,0,0-.35.51.85.85,0,0,0,0,.67,2.52,2.52,0,0,0,.51.9l.49.6-1.14.92-4.63-5.72,1.13-.92a4.89,4.89,0,0,0,1,1,1.9,1.9,0,0,0,1,.17,6.44,6.44,0,0,0,2-.52Zm-12.65,6.28,4.74,5.85,5.81-9.55Z" transform="translate(-1205)"/><path class="cls-8" d="M1642.59,526.37l6,7.38-1.14.92-.43-.54a3.8,3.8,0,0,0-1.22-1.1,1.73,1.73,0,0,0-1.1,0,4.94,4.94,0,0,0-1.23.78l-7.26,5.87,13.41,1a5.27,5.27,0,0,0,1.33,0,1.29,1.29,0,0,0,.51-.19.63.63,0,0,0,.18-.59,3.82,3.82,0,0,0-.72-1.17l-.38-.47,1.13-.92,5.49,6.79-1.13.92a6.53,6.53,0,0,0-1.38-1.31,4.09,4.09,0,0,0-1.33-.68,14.83,14.83,0,0,0-2-.39l-9.4-.87-3,12.1a10.46,10.46,0,0,0-.44,2.45,2.91,2.91,0,0,0,.22,1.37,6.16,6.16,0,0,0,1.11,1.63l-1.13.92-6.57-8.12,1.13-.91.37.46c.43.54.7.87.82.88l.53.24a.92.92,0,0,0,.44-.14,5.41,5.41,0,0,0,.84-2.22l2.41-9-4.46-.47-3.66,3a3.46,3.46,0,0,0-1.1,1.23,2.06,2.06,0,0,0,0,1,8.78,8.78,0,0,0,1.22,1.77l-1.13.91-6-7.38,1.13-.92.48.6a3.26,3.26,0,0,0,1.17,1,1.38,1.38,0,0,0,1,0,4.58,4.58,0,0,0,1.56-.93l12.44-10.08a6.65,6.65,0,0,0,1.22-1.21,1.66,1.66,0,0,0,.16-.9,4.22,4.22,0,0,0-1-1.44l-.32-.39,1.2-1Z" transform="translate(-1205)"/><path class="cls-8" d="M1663.11,551.72l6,7.38L1668,560l-.54-.67a4.89,4.89,0,0,0-1.05-1,1.32,1.32,0,0,0-.84-.09c-.31,0-.64.3-1.17.73l-13.31,10.77c-.6.49-1,.81-1,.93a1,1,0,0,0-.06.6,4.92,4.92,0,0,0,.85,1.19l.81,1a10.75,10.75,0,0,0,3,2.63,9.49,9.49,0,0,0,3.29,1.07,12.29,12.29,0,0,0,4.38-.57l.57,1.52-7.71,2.72-11.1-13.71,1.13-.91.49.6a5.27,5.27,0,0,0,1.1,1.09,1.63,1.63,0,0,0,.91,0,3.41,3.41,0,0,0,1.31-.83l13-10.51a6,6,0,0,0,1.22-1.21,1.26,1.26,0,0,0,.09-.84,5.15,5.15,0,0,0-.83-1.31l-.49-.6,1.13-.91Z" transform="translate(-1205)"/><path class="cls-8" d="M1681.05,573.87l12.56,15.5-3.54,5.84-1.43-.82a10,10,0,0,0,1.12-2.56,7,7,0,0,0,.17-2.23,5.59,5.59,0,0,0-.57-2.07,17.81,17.81,0,0,0-2.08-2.84l-3.77-4.66-7,5.66,1.89,2.33a4.87,4.87,0,0,0,2,1.61,2.45,2.45,0,0,0,1.77,0,6.26,6.26,0,0,0,1.82-1.15l.33-.27,1.08,1.33-8.38,6.79-1.08-1.33.73-.59a8.11,8.11,0,0,0,1.29-1.27,2.38,2.38,0,0,0,.37-1.17,3.39,3.39,0,0,0-.12-1.23,5.46,5.46,0,0,0-1.1-1.64l-1.89-2.33-6.18,5a5.58,5.58,0,0,0-1.15,1,.83.83,0,0,0-.12.53,5.84,5.84,0,0,0,.85,1.19l2.32,2.86a11.92,11.92,0,0,0,3.62,3.24,9.71,9.71,0,0,0,3.67,1,11.74,11.74,0,0,0,3.83-.57l.56,1.64-7.71,2.72-13-16.1,1.13-.91.43.53a4.75,4.75,0,0,0,1.1,1.09,1.52,1.52,0,0,0,1,.05,5.62,5.62,0,0,0,1.31-.84l13.1-10.61a3.16,3.16,0,0,0,1-1.17,1.93,1.93,0,0,0,0-1,9.27,9.27,0,0,0-1.22-1.65l1.26-1Z" transform="translate(-1205)"/><path class="cls-8" d="M1701.63,599.29l8,9.85a15.18,15.18,0,0,1,2.85,4.74,6.59,6.59,0,0,1,.11,3.54,5.46,5.46,0,0,1-1.88,2.85,6.71,6.71,0,0,1-3.25,1.42,5.54,5.54,0,0,1-3.58-.74,11.17,11.17,0,0,1-3.73-3.25l-2,10a11.1,11.1,0,0,0-.29,1.55,12.37,12.37,0,0,0,.15,1.54,4,4,0,0,0,.77,1.36l.27.33-1.14.92-3.5-4.33,3.46-14.37-2-2.46L1690,617a6,6,0,0,0-1.14,1,1.65,1.65,0,0,0-.29,1,3.73,3.73,0,0,0,.88,1.5l.38.46-1.14.92-5.92-7.32,1.13-.92.54.67a4.92,4.92,0,0,0,.87.94,1.56,1.56,0,0,0,.71.2,1.68,1.68,0,0,0,.82-.22c.13-.11.53-.43,1.45-1.06l12.51-10.13a6.42,6.42,0,0,0,1.09-1.11,1.18,1.18,0,0,0,.15-.89,2.64,2.64,0,0,0-.67-1.11l-.65-.8.94-.87Zm2.51,6.23-7.18,5.82,3.18,3.92a11.94,11.94,0,0,0,2.53,2.58,3.74,3.74,0,0,0,2.65.83,4.39,4.39,0,0,0,2.73-1.12,4.48,4.48,0,0,0,1.56-2,3.84,3.84,0,0,0,.12-2.3,7.77,7.77,0,0,0-1.6-2.79l-4-4.92Z" transform="translate(-1205)"/><path class="cls-8" d="M1809.44,250.69l-10.24-29.38L1764.71,250l27.46,40.44,12.61-9.33Zm-25.58-4c.8-.64,9.16-7.74,9.16-7.74l3.37,2.67L1782,253.89Zm1.32,14.14-3.24-5.63,14.91-13.29,4.68,7Z" transform="translate(-1205)"/><path class="cls-8" d="M1703.3,161.92a52.93,52.93,0,0,1-4.71-5c-8.08-10-8.51-15.14-7.46-17.64a5.82,5.82,0,0,1,4.35-3.2c2.09,7.34,11.82,16.77,16.82,21.31l2-.88c-4.73-4.21-15.69-14.62-17.07-21.76l-.15-.87-.93.09c-.18,0-5.1.49-6.87,4.57-1.86,4.37.74,11,7.74,19.62a54.54,54.54,0,0,0,4.53,4.92Z" transform="translate(-1205)"/><path class="cls-8" d="M1683,183.1c-25-.8-30-4.8-30.66-7.12-.57-2.07,1.8-4.31,3.18-5.32,9.19,3.46,25.34,3.27,34,2.9l1.49-2.1c-8.14.42-26.14.91-35.24-2.85l-.47-.17-.46.25c-.2.17-5.63,3.79-4.42,7.88a4.63,4.63,0,0,0,1,1.74c3.18,3.93,13.35,6.16,30.75,6.83Z" transform="translate(-1205)"/><path class="cls-8" d="M1691.71,170.87c-11.8-4.77-17.29-15.09-16.45-17.86a4.63,4.63,0,0,1,3.57-3.22c4.86,7,17.19,11.85,21.7,13.61l2.14-1.3a7.37,7.37,0,0,0-1.16-.49c-11.29-4.41-18.48-8.94-21.41-13.51l-.31-.52-.62.06c-.18,0-4.67.48-5.92,4.79-.6,2.25.87,6.24,4.21,10.37a33.2,33.2,0,0,0,12.52,9.47Z" transform="translate(-1205)"/><path class="cls-8" d="M1678.29,197.16l.21-.84c-4.74,1.09-12.54,2.89-23.12,5.06-18.41,3.79-28.93.73-30.49-1.74a1.17,1.17,0,0,1-.19-1.06,3.81,3.81,0,0,1,2.29-1.52c1.69.72,4.85.14,8.83-.66.75-.16,1.43-.27,1.92-.34,2.3-.43,33.77-8,43.88-10.3l1.4-2.35c-7,1.7-43.27,10.36-45.62,10.72-.56.13-1.24.24-2,.4-1.87.42-6.91,1.41-7.75.77l-.39-.34-.44.13c-.38.09-3.26.88-4,2.81a3,3,0,0,0,.38,2.78l.27.33c1.45,1.8,5,3.14,9.89,3.78,4.32.57,11.79.69,22.49-1.47,10-2,17.56-3.76,22.37-4.89Z" transform="translate(-1205)"/><path class="cls-8" d="M1678.83,212.25c-5.39,2.05-14.54,5.16-30,9.68-12,3.55-33,8.53-38.6,2.4a5.36,5.36,0,0,1-1.2-4.21c8.85,3.85,32.75-5.81,35.55-7L1678.17,200l.3-2.22-34.66,13.52c-7.76,3.21-29.24,10.69-34.83,6.51l-1.08-.78-.48,1.16a7.35,7.35,0,0,0,1,7.11l.27.33c4.81,5.25,18.44,4.68,40.61-1.82,15.14-4.43,24.53-7.52,30.18-9.67Z" transform="translate(-1205)"/><path class="cls-8" d="M1684,224.36c-30.39,15.25-40.07,14-43.19,11.95a3.49,3.49,0,0,1-1.53-2.29c8.58-1.11,32.21-14.51,40.37-19.25l-.1-.13-.35-1.93c-12.64,7.38-34.73,19.42-41,19.31l-.91,0-.08.84a5.36,5.36,0,0,0,1.18,3.78,5.75,5.75,0,0,0,1.22,1.1c5.95,4.22,21.67.09,45.38-11.85A4.8,4.8,0,0,1,1684,224.36Z" transform="translate(-1205)"/><path class="cls-8" d="M1670.87,266.62c-2.72,1.54-5,2.82-6.16,3.55-.45.26-.85.58-1.37.89-3.66,2.42-7.51,4.87-12.48-.58l11-5.6-.91-1.8c-4.35,2-8,2.39-10.49,1.33a4.77,4.77,0,0,1-2.24-1.81c4.34-1.31,13.92-6.21,21.2-10l-5.23.48c-7.46,3.85-15.22,7.6-17.56,7.84l-1.23.11.37,1.14a7.43,7.43,0,0,0,3.83,4,8.48,8.48,0,0,0,3.7.75l-5.67,2.94.76.93c4.63,5.72,8.72,5.6,12.1,4.19l10.38-8.4Z" transform="translate(-1205)"/><polygon class="cls-8" points="441.32 276.03 441.54 276.3 442.63 275.74 441.32 276.03"/><path class="cls-8" d="M1654.07,282.2l-1.26,1s-2.58.76-5.46,1.55c-1.71,1.16-3.94,2.75-6.95,4.75-9.17,6.1-14.49,6.33-17.38,5.48a7.25,7.25,0,0,1-3.48-2.25c3.63-1.51,11.25-5,16.43-7.47l-1.22-.55-.77-1.36c-6.76,2.39-11.92,3.37-14.41,2.74-2.73-.65-3.28-2.41-3.28-3.51,4,0,13.55-2.71,20.73-5l-.18,0s-1.89-.56-3.37-1c-8,2.44-16,4.47-17.88,3.9l-1-.29-.22.95c-.43,1.78,0,5.54,4.65,6.7a16.72,16.72,0,0,0,6.72-.27c-3.45,1.59-6.52,3-8,3.49l-1,.38.45,1a9.51,9.51,0,0,0,.89,1.37,8.66,8.66,0,0,0,4.32,2.89c4.79,1.42,11.26-.52,19.12-5.78C1650.15,285.38,1653.17,283.26,1654.07,282.2Z" transform="translate(-1205)"/><polygon class="cls-8" points="541.36 185.44 541.29 185.5 541.29 185.5 541.36 185.44"/><path class="cls-8" d="M1755.56,184.16a2.94,2.94,0,0,0-2.28-2,3.38,3.38,0,0,0-2.63,1.25l-1.6.74.2,2.15,2.69-1.3.15-.22c.21-.29.74-.72,1-.69s.4.22.7.86a44,44,0,0,0,6.29,10.22l1.53-1.24A44,44,0,0,1,1755.56,184.16Z" transform="translate(-1205)"/><path class="cls-8" d="M1748.65,203.64l-.91-3.57-.62,3-2.39,1.27c-.72-.07-3-.31-6.85-.84-8-1.21-17.84.68-28.41,5.6l-4.87-5.75c-1.59-2.78-4-7-1.37-14.2.92-2.4,1.29-2.37,2.14-2.4a4.8,4.8,0,0,0,2.94-.72c4-2.38,3.19-4.9,2.59-6.73-.36-1.13-.6-1.83-.23-2.46,1.23-2.43,10.41-6.33,16.33-7a1.3,1.3,0,0,0,.37-.08,5.64,5.64,0,0,0,1.86,3.79,7,7,0,0,0,5.54,1.67,8,8,0,0,0,6-5.7c1-3.31.25-8.8-8.35-16.16a90.57,90.57,0,0,1-22.53-29.45l-.39-.9-.88.28a8.17,8.17,0,0,0-5.53,5.69c-2.24,8.53,8.06,22.33,11.44,26.64-5.9,1.69-22.65,8.76-31.32,25.26-12.65,24.23-1.73,41.94,2,46.84a47.88,47.88,0,0,1-5,5.56c-2.75,1.78-25.21,6.42-29.06,6.56-3.36.08-4.47,1.42-4.8,2.24a2.31,2.31,0,0,0,.23,2.46c.54.66,2.94,4.45,1.25,6-.94.88-2.06,2.22-1.52,3.44.11.13.1.25.21.38.53.67,1.49.89,3,.68,2.22-.25,17.56-1.44,17.68-1.43l4.6-.31c-2.32,4.08-2.17,4.4-2,4.84.35.71.62,1,4.26,0l-1.11,3.66,5.55-.75,3-2.43-5.68.74,1.37-4.3-1.83.6c-1,.33-2.07.58-3,.85.59-1,1.36-2.54,2.1-3.8l1-1.66-8.4.52-17.8,1.41a4,4,0,0,1-1,0,6.9,6.9,0,0,1,1-1.11c2.71-2.64.1-7.36-1.09-8.82-.05-.07,0-.19,0-.36.17-.47,1.15-1,3-1,3.85-.15,26.79-4.74,30.12-6.88,1.11-.68,2.84-2.63,6-6.61l.49-.62-.49-.6-.43-.53c-3.53-4.64-14.11-21.51-1.87-44.76,10.27-19.55,31.32-24.58,31.5-24.63l1.79-.23-1.13-1.4c-.16-.2-14.45-17.16-12-26a6.14,6.14,0,0,1,3.46-4,94.35,94.35,0,0,0,22.61,29.28c6.09,5.21,8.8,10.18,7.78,14.09a6.16,6.16,0,0,1-4.35,4.29,5,5,0,0,1-3.9-1.14,4.27,4.27,0,0,1-1.22-3.42l0-.91-.89-.15c-.3-.09-.62.06-1.3.17a1.56,1.56,0,0,0-.44.13c-5.6.57-16,4.59-17.83,8.05a4.87,4.87,0,0,0,.12,4.09c.61,1.71,1,2.84-1.67,4.33a2.89,2.89,0,0,1-1.87.41c-1.77,0-2.86.55-4.1,3.65-2.86,7.49-.68,12.22,1.48,16l.06.07,6,7.08.71-.36c10.5-5,20.17-7.19,27.93-5.76,4.9.88,7,2,7.28.82l.31,0,3.09-1.62.67-.54.17-1Z" transform="translate(-1205)"/><rect class="cls-18" x="89.5" y="544.5" width="137" height="20"/></svg>