<svg id="Layer_1" data-name="Layer 1" xmlns="http://www.w3.org/2000/svg" viewBox="0 0 829.85 809.85"><defs><style>.cls-1,.cls-10,.cls-7{fill:#bbbbbc;}.cls-12,.cls-2,.cls-5,.cls-6{fill:#0f0756;}.cls-3,.cls-4,.cls-8,.cls-9{fill:none;}.cls-3,.cls-8,.cls-9{stroke:#0f0756;}.cls-10,.cls-3,.cls-4,.cls-5,.cls-6,.cls-7,.cls-8,.cls-9{stroke-miterlimit:10;}.cls-4,.cls-5,.cls-6,.cls-7{stroke:#000;}.cls-12,.cls-6,.cls-9{fill-rule:evenodd;}.cls-10,.cls-8,.cls-9{stroke-width:4px;}.cls-10{stroke:#bbbbbc;}.cls-11{fill:#cecece;}</style></defs><title>bauland</title><rect class="cls-1" x="550.5" y="652.35" width="92" height="92"/><path class="cls-2" d="M838,766v91H747V766h91m1-1H746v93h93V765Z" transform="translate(-196 -113.15)"/><line class="cls-3" x1="550.5" y1="651.35" x2="643.5" y2="744.35"/><line class="cls-3" x1="643.5" y1="651.35" x2="550.5" y2="744.35"/><rect class="cls-1" x="550.5" y="559.35" width="92" height="92"/><path class="cls-2" d="M838,673v91H747V673h91m1-1H746v93h93V672Z" transform="translate(-196 -113.15)"/><line class="cls-3" x1="550.5" y1="558.35" x2="643.5" y2="651.35"/><line class="cls-3" x1="643.5" y1="558.35" x2="550.5" y2="651.35"/><rect class="cls-1" x="550.5" y="466.35" width="92" height="92"/><path class="cls-2" d="M838,580v91H747V580h91m1-1H746v93h93V579Z" transform="translate(-196 -113.15)"/><line class="cls-3" x1="550.5" y1="465.35" x2="643.5" y2="558.35"/><line class="cls-3" x1="643.5" y1="465.35" x2="550.5" y2="558.35"/><rect class="cls-1" x="550.5" y="373.35" width="92" height="92"/><path class="cls-2" d="M838,487v91H747V487h91m1-1H746v93h93V486Z" transform="translate(-196 -113.15)"/><line class="cls-3" x1="550.5" y1="372.35" x2="643.5" y2="465.35"/><line class="cls-3" x1="643.5" y1="372.35" x2="550.5" y2="465.35"/><rect class="cls-1" x="550.5" y="280.35" width="92" height="92"/><path class="cls-2" d="M838,394v91H747V394h91m1-1H746v93h93V393Z" transform="translate(-196 -113.15)"/><line class="cls-3" x1="550.5" y1="279.35" x2="643.5" y2="372.35"/><line class="cls-3" x1="643.5" y1="279.35" x2="550.5" y2="372.35"/><rect class="cls-1" x="550.5" y="187.35" width="92" height="92"/><path class="cls-2" d="M838,301v91H747V301h91m1-1H746v93h93V300Z" transform="translate(-196 -113.15)"/><line class="cls-3" x1="550.5" y1="186.35" x2="643.5" y2="279.35"/><line class="cls-3" x1="643.5" y1="186.35" x2="550.5" y2="279.35"/><rect class="cls-1" x="550.5" y="94.35" width="92" height="92"/><path class="cls-2" d="M838,208v91H747V208h91m1-1H746v93h93V207Z" transform="translate(-196 -113.15)"/><line class="cls-3" x1="550.5" y1="93.35" x2="643.5" y2="186.35"/><line class="cls-3" x1="643.5" y1="93.35" x2="550.5" y2="186.35"/><rect class="cls-1" x="457.5" y="93.35" width="92" height="92"/><path class="cls-2" d="M745,207v91H654V207h91m1-1H653v93h93V206Z" transform="translate(-196 -113.15)"/><line class="cls-3" x1="457.5" y1="92.35" x2="550.5" y2="185.35"/><line class="cls-3" x1="550.5" y1="92.35" x2="457.5" y2="185.35"/><rect class="cls-1" x="364.5" y="93.35" width="92" height="92"/><path class="cls-2" d="M652,207v91H561V207h91m1-1H560v93h93V206Z" transform="translate(-196 -113.15)"/><line class="cls-3" x1="364.5" y1="92.35" x2="457.5" y2="185.35"/><line class="cls-3" x1="457.5" y1="92.35" x2="364.5" y2="185.35"/><rect class="cls-1" x="270.5" y="93.35" width="92" height="92"/><path class="cls-2" d="M558,207v91H467V207h91m1-1H466v93h93V206Z" transform="translate(-196 -113.15)"/><line class="cls-3" x1="270.5" y1="92.35" x2="363.5" y2="185.35"/><line class="cls-3" x1="363.5" y1="92.35" x2="270.5" y2="185.35"/><line class="cls-4" x1="270.5" y1="92.35" x2="177.5" y2="185.35"/><rect class="cls-1" x="643.5" y="94.35" width="92" height="92"/><path class="cls-2" d="M931,208v91H840V208h91m1-1H839v93h93V207Z" transform="translate(-196 -113.15)"/><line class="cls-3" x1="643.5" y1="93.35" x2="736.5" y2="186.35"/><line class="cls-3" x1="736.5" y1="93.35" x2="643.5" y2="186.35"/><rect class="cls-1" x="736.5" y="94.35" width="92" height="92"/><path class="cls-2" d="M1024,208v91H933V208h91m1-1H932v93h93V207Z" transform="translate(-196 -113.15)"/><line class="cls-3" x1="736.5" y1="93.35" x2="829.5" y2="186.35"/><line class="cls-3" x1="829.5" y1="93.35" x2="736.5" y2="186.35"/><rect class="cls-1" x="550.5" y="1.35" width="92" height="92"/><path class="cls-2" d="M838,115v91H747V115h91m1-1H746v93h93V114Z" transform="translate(-196 -113.15)"/><line class="cls-3" x1="550.5" y1="0.35" x2="643.5" y2="93.35"/><line class="cls-3" x1="643.5" y1="0.35" x2="550.5" y2="93.35"/><polygon class="cls-1" points="177.5 185.35 177.5 185.11 269.25 93.35 269.5 93.35 269.5 185.35 177.5 185.35"/><path class="cls-2" d="M465,207.46V298H374.46L465,207.46m1-1.46h-.95L373,298.05V299h93V206Z" transform="translate(-196 -113.15)"/><rect class="cls-5" x="529.5" y="744.35" width="124" height="21"/><polygon class="cls-6" points="689.5 802.35 503.5 802.35 529.5 774.35 653.5 774.35 689.5 802.35"/><rect class="cls-7" x="278.5" y="186.35" width="51" height="30"/><line class="cls-7" x1="304" y1="216.35" x2="303.5" y2="346.35"/><rect class="cls-7" x="296.5" y="346.35" width="13" height="35"/><line class="cls-8" x1="302.5" y1="381.85" x2="302.5" y2="387.85"/><path class="cls-9" d="M487.69,514a11,11,0,1,0,10.81-13c-.34,0-.67,0-1,.05" transform="translate(-196 -113.15)"/><rect class="cls-10" x="2" y="565.85" width="214" height="242"/><path class="cls-11" d="M73,703.85h0a34,34,0,0,1,34,34v71a0,0,0,0,1,0,0H39a0,0,0,0,1,0,0v-71A34,34,0,0,1,73,703.85Z"/><polygon class="cls-12" points="224.89 429.14 307.73 346.31 338.05 459.46 368.37 572.62 255.21 542.3 142.06 511.98 224.89 429.14"/></svg>