<svg id="Ebene_1" data-name="Ebene 1" xmlns="http://www.w3.org/2000/svg" viewBox="0 0 1204.34 635.65"><defs><style>.cls-1{fill:#0f0756;}.cls-2{fill:#fefefe;}.cls-3{fill:#faf9fa;}.cls-4{fill:#bbbbbc;}.cls-5{fill:#cfd0cf;}.cls-6{fill:#dddcde;}.cls-7{fill:#e6e6e6;}.cls-8{fill:#dfdfdf;}.cls-9{fill:#fdfefe;}</style></defs><title>doppehhaushaelfte</title><path class="cls-1" d="M1285.4,665.42V767.1c-1.55.79-3.22.39-4.84.39q-596.68,0-1193.37,0c-6.39,0-5.55.84-5.55-5.75q0-45.91,0-91.83a17.06,17.06,0,0,1,.21-4.51c1.43-1.63,3.39-1.61,5.29-1.61,15.81,0,31.62-.14,47.43.05,6.28,1,12.54-.08,18.81-.08q101.52,0,203,0h66.85c4.37,0,8.74,0,13.11.17a24.34,24.34,0,0,1,4.9-.19q124.51,0,249,0c3.41,0,6.82,0,10.21.32a29.5,29.5,0,0,1,5.71-.34H913a36.3,36.3,0,0,1,5.71.28c9.15-.43,18.28,0,27.42.07,24.45.23,48.91.29,73.35,0,86.32-.86,172.64-.15,259-.35C1280.86,663.81,1283.41,663.45,1285.4,665.42Z" transform="translate(-81.11 -132.35)"/><path class="cls-2" d="M81.21,245.56c1.24,1.23.8,2.8.8,4.24,0,8.65,0,17.3,0,26,0,1.44-.41,3,.75,4.26s.89,2.79.89,4.27q-.06,186.69,0,373.4c0,2.69.47,5.52-1.53,7.84q0,49.4-.14,98.79c0,2.1.56,3.06,2.76,2.8a27.6,27.6,0,0,1,3.28,0H1285.4c-.18.25.42.86-.41.83-1.09,0-2.18,0-3.28,0q-598.26,0-1196.52.08c-3.16,0-4.08-.4-4.08-3.89Q81.28,504.84,81.21,245.56Z" transform="translate(-81.11 -132.35)"/><path class="cls-3" d="M1285.4,521.09l-.84,0c-1.46-2.27-1-4.88-.6-7.16.83-4.77.58-9.52.58-14.28q.09-126.54.12-253.1c0-1.71-.58-3.57.74-5.12Z" transform="translate(-81.11 -132.35)"/><path class="cls-1" d="M861.49,167.8c7.24,0,14.48,0,21.72-.16a8.9,8.9,0,0,1,5.35,1.54Q992.21,238.6,1095.9,308c.71.48,1.86.65,1.84,3.12h-37.91c-44.95-.46-89.91-.14-134.87-.12a20.87,20.87,0,0,1-14.14-5.05q-49.87-40.65-99.88-81.17c-4.44-3.58-4.51-3.45-8.87.33q-28.79,25-57.6,49.92c-11.67,10.1-23.45,20.08-34.94,30.39-4.32,3.86-8.82,6.21-14.75,5.55-2.83-.31-5.73,0-8.6-.09-1.79-.06-3.58-.16-4.87-1.71C680,307.21,680,305,680,302.82c0-22.79-.13-45.58.07-68.37,0-6.25.94-12.5.82-18.78a6,6,0,0,1,1.16-3.85c1.8-1.61,4-1.46,6.19-1.47,8.3,0,16.6,0,24.9,0,4.32,0,4.58-.29,4.6-4.69,0-10.2-.06-20.4.07-30.6,0-2.14-.6-4.78,2.37-5.82q50-.39,100-.76c12.29-.09,24.59-.1,36.88-.17C858.55,168.27,860.09,168.62,861.49,167.8Z" transform="translate(-81.11 -132.35)"/><path class="cls-4" d="M682.56,212c-1.07,31.31-.77,62.63-.83,93.95a5.08,5.08,0,0,0,.86,3.49c-1.13,1.62-2.84,1.3-4.44,1.31-8.39,0-16.79,0-25.17,0-2.85.26-4.9-1.4-6.93-3-16.6-13.34-33.08-26.82-49.61-40.24s-33.09-26.8-49.55-40.31c-3-2.44-5-1.67-7.39.48-14.81,13.12-29.88,25.94-44.8,38.93-15.23,13.26-30.56,26.4-45.75,39.7-2.11,1.84-4.1,4.1-7.22,4.42a80.31,80.31,0,0,1-9.81.41l-140.45,0a23.37,23.37,0,0,1-6.52-.42c-2.13-.62-2.61-1.79-1-3.53a17.34,17.34,0,0,1,2.49-2.12c9.32-6.91,19-13.35,28.32-20.21,1.6-1.18,3.56-1.36,5.23-2.28,7.14-4,13.48-9.16,20.14-13.85Q362.5,252.91,384.77,237a30.62,30.62,0,0,0,2.45-2.11c10.16-6.37,19.7-13.62,29.49-20.52,18.91-13.35,37.88-26.62,56.56-40.28a24.27,24.27,0,0,1,15.4-4.91c54.76.16,109.52.09,164.29.08,1.87,1.68,1.58,4,1.6,6.1.06,9.95,0,19.9,0,29.85,0,4.82.3,5.08,5.11,5.11,5.72,0,11.45,0,17.17,0C678.9,210.39,681,210.17,682.56,212Z" transform="translate(-81.11 -132.35)"/><path class="cls-5" d="M682.56,212c-8.57,0-17.14-.14-25.71,0-3.06.06-4-1-3.94-4,.13-12.91.05-25.83.05-38.75a21.47,21.47,0,0,0,.84-6.44c-.06-8.85,0-17.71-.07-26.57,0-2.67.58-3.93,3.61-3.91q29.24.17,58.48,0c3,0,3.65,1.2,3.62,3.89-.12,9.41,0,18.81-.05,28.21,0,1.64-.13,3.29.83,4.76-1.17,1.27-.68,2.84-.69,4.29,0,11.42-.15,22.85.06,34.27.07,3.48-1.06,4.32-4.38,4.26C704.33,211.84,693.44,212,682.56,212Z" transform="translate(-81.11 -132.35)"/><path class="cls-6" d="M651.33,309.58l31.26-.15c4.51,0,9-.36,13.52.07,4.81.47,8.2-1.41,11.67-4.44,31.71-27.64,63.56-55.13,95.26-82.78,2.65-2.32,4.13-2.52,7-.17,34.57,28.3,69.29,56.4,103.92,84.62a11.54,11.54,0,0,0,7.81,2.74q66.65-.14,133.29,0c1.62,0,4-1.27,4.76,1.62,0,2.82-.09,5.64-.13,8.45-2.19,1.95-4.9,1.45-7.44,1.45q-62.12,0-124.22,0c-7.66,0-7.67,0-7.67,7.6V652c0,7.71,0,7.56,7.58,7.77,5,.14,10.1-1,15,1a1.15,1.15,0,0,1,.42,1.42c-6.87,0-13.73,0-20.6,0-2.24,0-4.13.25-4,3.16-1.09,0-2.18.13-3.27.13H703.38c-1,0-1.91-.08-2.86-.13-1.61-1.63-3.69-1.52-5.73-1.53-12.38-.06-24.76.08-37.13-.11-2,0-4.86.91-5.47-2.52a4.86,4.86,0,0,1,3.7-1.35c8,0,15.91-.4,23.85.19,5.1-.47,10.22-.11,15.33-.25,1.58-.05,3.27.28,4.6-1,1.22-1.65,1.3-3.54,1.3-5.48q0-162.94,0-325.89c0-1.94-.07-3.84-1.32-5.45-1.89-1.53-4.14-.85-6.23-1-3.89-.21-7.82.34-11.69-.44a3.48,3.48,0,0,1-2-.91,5.13,5.13,0,0,1-1-2.2c-1.31-5.4-1.32-5.42-7-5.5-5.29-.06-10.58.13-15.86-.1C654.18,311.73,651.93,312.2,651.33,309.58Z" transform="translate(-81.11 -132.35)"/><path class="cls-7" d="M652.16,661.28c1.34,1.38,3.06.83,4.63.84,12.88,0,25.77,0,38.66,0,2.23,0,4.89-.36,5.07,3.12q-24.16.08-48.32.13H440.46c-1.36,0-2.72-.08-4.09-.13-1.17-1.88-.78-4-.78-6q0-166.77,0-333.56c0-1.85.61-3.84-.73-5.54a1.54,1.54,0,0,1-1.7-.86c1.28-3.56,4.76-4.92,7.28-7.22a10.23,10.23,0,0,0,2.54-2.5q19.47-16.82,38.93-33.63,20-17.19,39.94-34.34c6.6-5.69,13.18-11.39,19.7-17.17,1.32-1.17,2.06-1.54,3.68-.22q38.46,31.31,77,62.44,13.32,10.79,26.59,21.64a4.38,4.38,0,0,0,2.5,1.26c3.08,1.56,6.37.59,9.56.73,4.19.17,8.4,0,12.6,0,5.81,0,6.53.76,6.53,6.56,0,.82,0,1.63,0,2.44-1.54,1.78-3.67,1.61-5.7,1.64-5.33.06-10.66.12-16,0-3.37-.08-4.76,1.34-4.56,4.64.1,1.77,0,3.55,0,5.33q0,161.06,0,322.13C653.75,655.88,654.4,658.88,652.16,661.28Z" transform="translate(-81.11 -132.35)"/><path class="cls-1" d="M943.3,661.26c-7.37,0-14.74,0-22.12.08-2,0-2.71-.78-2.57-2.67.08-1,0-1.92,0-2.87V325.09c0-5.6,0-5.61,5.39-5.61l135.69.06q.06,49.11.13,98.22c0,1.63.09,3.27.13,4.9,0,33.74-.53,67.48.37,101.22q0,1.23,0,2.46.09,65.37.25,130.74c0,3.66-.82,5-4.73,4.91-11.2-.27-22.41-.1-33.62-.11-2.3-1.85-1.67-4.48-1.68-6.85-.05-29.24,0-58.49,0-87.73,0-18.77-10.84-32.94-29-37.2-24.2-5.67-47.1,12.42-46.76,36.09.42,29.37.12,58.75.07,88.13C944.84,656.71,945.41,659.31,943.3,661.26Z" transform="translate(-81.11 -132.35)"/><path class="cls-1" d="M1055.37,274.46c-10.1-6.37-19.41-12.28-28.77-18.11a3.65,3.65,0,0,1-1.74-3.38c-.67-12.33-.7-12.33,11.69-12.33,5.32,0,10.64,0,16,0,1.67,0,2.9.09,2.89,2.3C1055.34,253.13,1055.37,263.33,1055.37,274.46Z" transform="translate(-81.11 -132.35)"/><path class="cls-4" d="M324.8,272.7c0-13,0-25,0-37,0-2.43,1.45-3.09,3.39-3.1,7.65-.06,15.3-.05,22.95,0,2.71,0,3.92,1.61,3.93,4.21,0,2.87.1,5.74,0,8.6a8.89,8.89,0,0,1-4,7.48C342.37,259.05,334.05,265.65,324.8,272.7Z" transform="translate(-81.11 -132.35)"/><path class="cls-2" d="M943.3,661.26q0-47.76,0-95.52c0-21.47,17.09-38.11,39.22-38.21,21.79-.1,39.29,16.38,39.48,37.61.21,23.78,0,47.56.06,71.34,0,8.46.11,16.93.16,25.4-.06,2.06-1.13,2.75-3.16,2.74q-36.47-.06-72.92,0c-1.76,0-3-.39-2.83-2.47C943.34,661.85,943.32,661.56,943.3,661.26Z" transform="translate(-81.11 -132.35)"/><path class="cls-1" d="M683.19,135.65c.4-2.28,2.23-1.56,3.56-1.56,9.22-.05,18.45,0,27.67,0a14.06,14.06,0,0,1,1.3,6.34c0,21-.1,42.09.06,63.13,0,3.56-1.23,4.42-4.5,4.36-8.06-.17-16.13,0-24.19-.07-4.28,0-5.21-.89-5.38-5.3s-.05-8.75-.05-13.12q0-23.58,0-47.15C681.67,140,681.45,137.57,683.19,135.65Z" transform="translate(-81.11 -132.35)"/><path class="cls-4" d="M683.19,135.65c0,22.14.17,44.27,0,66.41,0,3.86.83,5.23,4.91,5.05,7.78-.34,15.58-.17,23.37-.06,2.5,0,3.71-.47,3.69-3.35-.09-21.31,0-42.63-.08-63.95a47.84,47.84,0,0,0-.69-5.68c1.8,1.33,1.69,3.28,1.69,5.2,0,21.71-.07,43.42.07,65.13,0,3.51-1.17,4.35-4.47,4.32q-25.2-.21-50.41,0c-3.52,0-4.32-1.2-4.3-4.49q.18-32.16,0-64.32c0-3.52,1.19-4.39,4.49-4.3C668.71,135.82,676,135.66,683.19,135.65Z" transform="translate(-81.11 -132.35)"/><path class="cls-4" d="M433.12,319.32l1.7.86q0,28.69-.05,57.39,0,141.85,0,283.71c-6.64,1-13.32.19-20,.43-1.77.06-2.29-1.24-2.59-2.64a28.56,28.56,0,0,1-.31-6.13c0-30.06-.42-60.13.14-90.18.38-19.91-16.88-36.79-36.9-37C353.7,525.51,336,542,336.18,564.38c.27,28.42.06,56.85.06,85.27,0,1.64,0,3.28,0,4.92-.07,7-.24,7.25-7,7.13-7.21-.14-14.43.55-21.63-.41q0-168.7-.09-337.4c0-3.64,1-4.6,4.62-4.59C352.47,319.41,392.79,319.34,433.12,319.32Z" transform="translate(-81.11 -132.35)"/><path class="cls-8" d="M307.61,661.29c7.52,0,15-.17,22.55.11,3.62.13,4.62-1,4.61-4.6-.14-31.28-.06-62.56-.09-93.85,0-21.66,17.61-38.36,38.76-38.77,19-.36,35.78,12.36,39.54,30.61a26.48,26.48,0,0,1,.44,5.27c0,32.1.08,64.21-.07,96.31,0,3.91,1,5.28,5,5,5.44-.34,10.93-.11,16.39-.12-1.21,1.3-2.8.84-4.25.84q-59.31,0-118.63,0C310.42,662.12,308.83,662.58,307.61,661.29Z" transform="translate(-81.11 -132.35)"/><path class="cls-1" d="M706.52,490q0-82.4,0-164.77c0-5.7,0-5.71,5.81-5.71q98,0,196-.08c4,0,5.34.85,5.34,5.14q-.2,165.38,0,330.77c0,4.22-1.19,5.19-5.29,5.18q-98.21-.19-196.4-.09c-5.43,0-5.43,0-5.43-5.67Q706.52,572.33,706.52,490Z" transform="translate(-81.11 -132.35)"/><path class="cls-4" d="M652.16,661.28q0-168.9-.1-337.79c0-3.23.93-4.26,4.18-4.18,7.92.21,15.85.05,23.78,0l1.84.21c1.69,1.79,1.43,4.05,1.43,6.21,0,21.46.53,42.93-.08,64.37-1.55,54.24.25,108.49-.89,162.71-.72,34.16-.29,68.31-.66,102.46,0,2,.15,4.14-1.41,5.81Z" transform="translate(-81.11 -132.35)"/><path class="cls-1" d="M906,309.06H714.14c2.77-3.72,6.4-6.11,9.6-8.89,26.25-22.86,52.63-45.57,78.83-68.48,3.1-2.71,4.87-3,8.28-.19,30,24.61,60.13,49,90.23,73.41C902.5,306.07,903.89,307.28,906,309.06Z" transform="translate(-81.11 -132.35)"/><path class="cls-1" d="M680.25,661.12q-.07-28.05-.13-56.11c0-.69,0-1.37,0-2q.38-64.31.73-128.6c.11-24.58-.45-49.18.24-73.74.76-27,0-54.05.72-81.06l19.27-.06c1.18,1.14.6,2.59.6,3.89q0,167,0,333.94c0,1.28.61,2.74-.65,3.84Z" transform="translate(-81.11 -132.35)"/><path class="cls-4" d="M701.08,661.17c.08-1.77.25-3.54.25-5.31q0-165.53,0-331c0-1.77-.13-3.54-.2-5.32,1.63,1.05,1,2.72,1,4.12q0,166.74,0,333.47C702.13,658.49,702.78,660.16,701.08,661.17Z" transform="translate(-81.11 -132.35)"/><path class="cls-4" d="M440.43,489.89q0-81.36,0-162.73c0-5.3,0-5.31,5.39-5.31H641c5.44,0,5.45,0,5.45,5.26q0,163.33.09,326.69c0,4.21-1.18,5.22-5.28,5.21q-97.8-.19-195.59-.09c-5.24,0-5.24,0-5.24-5.48Q440.43,571.67,440.43,489.89Z" transform="translate(-81.11 -132.35)"/><path class="cls-4" d="M641.56,312.58H450.34c5.08-4.49,9.58-8.52,14.14-12.49Q479,287.49,493.54,275q16.88-14.54,33.78-29c4.65-4,9.39-7.92,13.83-12.14,1.82-1.73,2.79-1.64,4.65-.11C558.32,244,571,254.11,583.54,264.31l36.51,29.58c6.56,5.32,13.13,10.61,19.65,16C640.47,310.5,641.56,311.06,641.56,312.58Z" transform="translate(-81.11 -132.35)"/><path class="cls-2" d="M1017,397.25c0,6.29-.11,12.57.05,18.85.07,2.57-.83,3.27-3.3,3.23q-12.09-.18-24.19,0c-2.5.05-3.32-.78-3.31-3.26q.13-19.06,0-38.12c0-2.38.88-3,3.13-3q12.3.15,24.6,0c2.29,0,3.11.67,3.07,3C1017,384.41,1017,390.83,1017,397.25Z" transform="translate(-81.11 -132.35)"/><path class="cls-2" d="M948.26,397.17c0-6.28.08-12.56,0-18.84,0-2.29.31-3.45,3.06-3.39,8.33.17,16.66.11,25,0,2.13,0,2.86.72,2.85,2.83q-.11,19.24,0,38.5c0,2.26-.83,3.07-3.15,3-8.19-.12-16.38-.15-24.57,0-2.64.05-3.19-.95-3.14-3.34C948.35,409.73,948.26,403.45,948.26,397.17Z" transform="translate(-81.11 -132.35)"/><path class="cls-2" d="M963.85,366.24c-4.22,0-8.45-.07-12.67,0-1.94,0-3-.3-3-2.63q.18-10.62,0-21.26c0-2.29,1-2.68,2.93-2.66,8.31.07,16.63.1,24.94,0,2.34,0,3.08.77,3,3.06q-.17,10.22,0,20.43c0,2.26-.63,3.18-3,3.09C972,366.12,967.94,366.24,963.85,366.24Z" transform="translate(-81.11 -132.35)"/><path class="cls-2" d="M1001.77,366.24c-4.09,0-8.18-.09-12.27,0-2.15.06-3.25-.42-3.21-2.89.13-6.95.1-13.9,0-20.85,0-2.12.72-2.85,2.85-2.83,8.31.09,16.63.11,24.94,0,2.38,0,3,.86,3,3.1q-.17,10.21,0,20.44c0,2.33-.74,3.12-3,3C1010,366.13,1005.86,366.24,1001.77,366.24Z" transform="translate(-81.11 -132.35)"/><path class="cls-8" d="M370.76,397.28c0,6.28-.08,12.56,0,18.84.05,2.5-.88,3.35-3.35,3.32-7.64-.11-15.3-.26-22.94.05-4.16.17-4.84-2.05-4.85-5.25q0-12.08,0-24.17c0-3.41,0-6.82,0-10.24,0-3.16,1.09-4.94,4.87-4.8,7.5.3,15,.2,22.54,0,2.88-.06,3.81.93,3.74,3.77C370.65,385,370.76,391.13,370.76,397.28Z" transform="translate(-81.11 -132.35)"/><path class="cls-8" d="M408.51,397.28c0,6.29-.08,12.57,0,18.85.05,2.51-.9,3.34-3.36,3.31q-11.88-.17-23.77,0c-2.52,0-3.32-.91-3.31-3.36q.12-18.84,0-37.69c0-2.52.91-3.34,3.36-3.31q11.88.17,23.77,0c2.52,0,3.36.9,3.31,3.36C408.44,384.72,408.51,391,408.51,397.28Z" transform="translate(-81.11 -132.35)"/><path class="cls-8" d="M393.34,366.11c-4.1,0-8.2-.06-12.3,0-2.09.05-2.93-.78-2.91-2.89q.11-10.25,0-20.49c0-2.09.78-2.93,2.89-2.91q12.3.09,24.6,0c2.09,0,2.94.78,2.91,2.89q-.09,10.25,0,20.49c0,2.1-.78,3-2.89,2.91C401.54,366.05,397.44,366.11,393.34,366.11Z" transform="translate(-81.11 -132.35)"/><path class="cls-2" d="M727.12,580.65c0-11.6.09-23.2-.06-34.8,0-3,.74-4,3.88-4q18.84.25,37.67,0c3.3,0,4.07,1.13,4,4.25q-.18,35.22,0,70.42c0,3.1-.86,3.89-3.9,3.85q-19-.25-38.09,0c-2.93,0-3.65-.91-3.62-3.71C727.2,604.67,727.12,592.66,727.12,580.65Z" transform="translate(-81.11 -132.35)"/><path class="cls-2" d="M834.12,581.34c0,11.87-.08,23.74,0,35.61,0,2.72-.81,3.45-3.48,3.42q-19.25-.18-38.49,0c-2.48,0-3.63-.39-3.62-3.28q.17-35.82,0-71.65c0-2.62.72-3.58,3.46-3.55q19.25.18,38.49,0c2.93,0,3.65,1.07,3.62,3.83C834,557.59,834.12,569.46,834.12,581.34Z" transform="translate(-81.11 -132.35)"/><path class="cls-2" d="M894.82,581.45c0,11.74-.09,23.48.06,35.21,0,2.79-.64,3.76-3.6,3.72q-19.24-.23-38.49,0c-2.68,0-3.51-.72-3.5-3.42q.13-35.82,0-71.64c0-2.78,1-3.45,3.59-3.43q19,.15,38.08,0c3,0,4,.84,3.93,4C894.71,557.7,894.82,569.58,894.82,581.45Z" transform="translate(-81.11 -132.35)"/><path class="cls-2" d="M894,412.32c0,10.79-.08,21.57,0,32.36,0,2.61-.64,3.52-3.41,3.49-12.7-.14-25.4-.12-38.1,0-2.53,0-3.25-.76-3.24-3.24q.12-33,0-65.95c0-2.24.6-3.09,3-3.07q19.26.15,38.52,0c2.52,0,3.26.74,3.23,3.24C893.93,390.2,894,401.26,894,412.32Z" transform="translate(-81.11 -132.35)"/><path class="cls-2" d="M788.64,411.61c0-10.65.08-21.3,0-31.95,0-2.72.52-3.82,3.55-3.78,12.57.17,25.13.14,37.7,0,2.61,0,3.53.62,3.51,3.39q-.15,32.76,0,65.53c0,2.81-1,3.38-3.54,3.35-12.56-.11-25.13-.15-37.69,0-3.08.05-3.56-1.13-3.53-3.81C788.72,433.45,788.64,422.53,788.64,411.61Z" transform="translate(-81.11 -132.35)"/><path class="cls-2" d="M727.12,412.05c0-10.79.07-21.57,0-32.36,0-2.67.44-3.86,3.52-3.81q18.84.25,37.69,0c3,0,3.56,1.06,3.55,3.77q-.15,32.37,0,64.72c0,2.66-.42,3.86-3.5,3.81q-18.84-.26-37.69,0c-3,0-3.6-1.05-3.56-3.77C727.2,433.62,727.12,422.83,727.12,412.05Z" transform="translate(-81.11 -132.35)"/><path class="cls-9" d="M872.06,535.52c-6.55,0-13.1-.07-19.65,0-2.28,0-3.13-.73-3.1-3.06q.13-13.9,0-27.83c0-2.58,1-3.18,3.4-3.17q19.44.15,38.89,0c2.47,0,3.32.7,3.28,3.24-.13,9.14-.17,18.28,0,27.41.06,2.87-1.06,3.46-3.58,3.41C884.89,535.44,878.47,535.52,872.06,535.52Z" transform="translate(-81.11 -132.35)"/><path class="cls-9" d="M811.27,501.54c6.55,0,13.1.1,19.65-.05,2.53-.06,3.28.78,3.24,3.27-.12,9.14-.16,18.28,0,27.42.06,2.9-1.14,3.39-3.62,3.37-12.82-.08-25.65-.1-38.48,0-2.69,0-3.53-.86-3.49-3.52.13-9,.16-18,0-27-.06-3,1.16-3.62,3.86-3.55C798.71,501.64,805,501.54,811.27,501.54Z" transform="translate(-81.11 -132.35)"/><path class="cls-9" d="M750.15,501.54c6.42,0,12.83.1,19.24-.05,2.53-.06,3.29.78,3.25,3.27-.12,9.14-.16,18.28,0,27.42.06,2.9-1.14,3.39-3.62,3.37-12.82-.08-25.65-.1-38.48,0-2.69,0-3.53-.86-3.49-3.52.13-9,.16-18,0-27-.06-3,1.16-3.62,3.86-3.55C737.33,501.64,743.74,501.54,750.15,501.54Z" transform="translate(-81.11 -132.35)"/><path class="cls-2" d="M871.63,367.06c-6.42,0-12.83-.08-19.24,0-2.29,0-3.12-.68-3.08-3q.16-10.63,0-21.27c0-2.23.58-3.14,3-3.12,13,.1,25.92.08,38.88,0,2.08,0,2.88.64,2.85,2.8-.1,7.23-.13,14.46,0,21.68.05,2.51-1,2.93-3.18,2.9C884.45,367,878,367.06,871.63,367.06Z" transform="translate(-81.11 -132.35)"/><path class="cls-2" d="M811.29,339.74c6.28,0,12.55.1,18.82-.05,2.53-.06,3.29.8,3.23,3.28q-.21,10.42,0,20.86c.06,2.49-.72,3.29-3.23,3.27q-19.23-.15-38.47,0c-2.35,0-3.07-.79-3-3.07q.15-10.63,0-21.27c0-2.29.7-3.11,3-3.06C798.19,339.82,804.74,339.74,811.29,339.74Z" transform="translate(-81.11 -132.35)"/><path class="cls-2" d="M749.56,367.06c-6.41,0-12.82-.11-19.23.05-2.54.06-3.3-.82-3.25-3.28q.2-10.43,0-20.86c-.05-2.47.71-3.3,3.25-3.28q19.23.17,38.46,0c2.34,0,3.06.77,3,3.06q-.16,10.64,0,21.27c0,2.3-.68,3.11-3,3.07C762.38,367,756,367.06,749.56,367.06Z" transform="translate(-81.11 -132.35)"/><path class="cls-8" d="M628.34,581.79c0,11.6-.08,23.2,0,34.79,0,2.82-.82,3.82-3.72,3.79q-19.24-.2-38.49,0c-2.85,0-3.79-.87-3.77-3.74.09-22.93,0-45.85.07-68.77,0-5,1.27-6.18,6.4-6.2q17-.09,34,0c5,0,5.47.57,5.48,5.75Z" transform="translate(-81.11 -132.35)"/><path class="cls-8" d="M506.11,581.17c0,11.73-.08,23.47.06,35.2,0,3-.82,4-3.92,4q-19-.23-38.08,0c-3,0-4-.87-4-4,.11-22.79,0-45.57.08-68.36,0-5.25,1.22-6.39,6.6-6.42q16.57-.06,33.16,0c5.69,0,6.1.46,6.1,6Q506.13,564.39,506.11,581.17Z" transform="translate(-81.11 -132.35)"/><path class="cls-8" d="M567.64,581.41c0,11.6-.11,23.2.06,34.8,0,3.24-.94,4.22-4.18,4.17q-18.82-.24-37.67,0c-3.27,0-4.18-1-4.16-4.2.12-22.52,0-45,.07-67.55,0-5.88,1.08-7,6.85-7q16.59,0,33.17,0c5.43,0,5.85.5,5.85,5.78Q567.65,564.42,567.64,581.41Z" transform="translate(-81.11 -132.35)"/><path class="cls-8" d="M627.52,412.07c0,10.79-.09,21.57.05,32.36,0,2.89-.94,3.76-3.78,3.73q-18.84-.18-37.69,0c-2.94,0-3.7-1.05-3.69-3.83q.14-32.35,0-64.71c0-2.89.94-3.76,3.78-3.73q18.84.18,37.69,0c3,0,3.72,1.05,3.69,3.83C627.44,390.5,627.52,401.29,627.52,412.07Z" transform="translate(-81.11 -132.35)"/><path class="cls-8" d="M521.76,412c0-10.78.07-21.57-.06-32.35,0-2.82.83-3.82,3.73-3.8q18.86.19,37.69,0c2.88,0,3.76.92,3.75,3.76q-.15,32.35,0,64.71c0,2.82-.81,3.82-3.71,3.79q-18.85-.18-37.7,0c-2.87,0-3.78-.92-3.75-3.76C521.83,433.61,521.76,422.83,521.76,412Z" transform="translate(-81.11 -132.35)"/><path class="cls-8" d="M460.23,411.6c0-10.65.08-21.3-.05-32,0-2.86.9-3.78,3.76-3.75q18.84.18,37.69,0c2.92,0,3.72,1,3.71,3.8q-.13,32.35,0,64.72c0,2.85-.88,3.78-3.75,3.75q-18.84-.18-37.69,0c-2.91,0-3.75-1-3.72-3.81C460.31,433.44,460.23,422.52,460.23,411.6Z" transform="translate(-81.11 -132.35)"/><path class="cls-8" d="M545.08,501.42c6.42,0,12.84.08,19.26,0,2.49,0,3.36.86,3.33,3.34q-.15,13.51,0,27c0,2.84-1.17,4-3.85,4q-18.84,0-37.7,0c-2.79,0-4.33-1.55-4.34-4.35,0-8.73,0-17.47,0-26.21,0-2.68,1.23-3.89,4.05-3.83C532.24,501.51,538.66,501.42,545.08,501.42Z" transform="translate(-81.11 -132.35)"/><path class="cls-8" d="M483.4,501.42c6.41,0,12.82.1,19.23,0,2.68-.06,3.57.9,3.53,3.55-.13,8.18-.05,16.36-.05,24.54,0,6-.29,6.32-6.53,6.33q-14.11,0-28.23,0c-2.19,0-4.37,0-6.55,0-3,0-4.54-1.59-4.55-4.58,0-8.45,0-16.9,0-25.36,0-3,1.16-4.68,4.71-4.51C471.11,501.63,477.26,501.42,483.4,501.42Z" transform="translate(-81.11 -132.35)"/><path class="cls-8" d="M606,501.42c6.28,0,12.57.1,18.85,0,2.67-.06,3.58.88,3.54,3.55-.12,8.87-.16,17.75,0,26.62.06,2.91-1.31,4.12-3.78,4.14q-18.84.12-37.69,0c-3,0-4.39-2-4.42-4.78q-.1-12.7,0-25.4c0-2.87,1.33-4.32,4.63-4.18C593.42,501.61,599.71,501.42,606,501.42Z" transform="translate(-81.11 -132.35)"/><path class="cls-8" d="M605.38,339.86c6.28,0,12.57.08,18.85,0,2.5,0,3.37.87,3.32,3.35q-.16,10.23,0,20.48c.05,2.5-.87,3.34-3.34,3.32-12.57-.08-25.14-.11-37.71,0-2.76,0-3.84-1.34-3.89-3.58q-.2-10,0-20.07c0-2.6,1.56-3.64,4.33-3.55C593.08,340,599.23,339.86,605.38,339.86Z" transform="translate(-81.11 -132.35)"/><path class="cls-8" d="M544.35,366.94c-6,0-12-.17-18,.07-3.05.12-4.41-1.19-4.46-3.89q-.17-9.84,0-19.66c.05-2.54,1.41-3.7,4.24-3.66,12.29.14,24.59.12,36.89,0,2.73,0,3.94.67,3.85,3.66-.18,6.55-.21,13.12,0,19.67.11,3.2-1.17,3.93-4.09,3.85C556.65,366.81,550.5,366.94,544.35,366.94Z" transform="translate(-81.11 -132.35)"/><path class="cls-8" d="M483.57,339.86c6.15,0,12.3.08,18.44,0,2.5-.05,3.36.88,3.32,3.35q-.16,10.24,0,20.49c0,2.5-.89,3.33-3.35,3.31-12.57-.08-25.14-.11-37.71,0-2.76,0-3.83-1.34-3.88-3.58q-.21-10,0-20.07c.05-2.61,1.56-3.64,4.33-3.55C471,340,477.28,339.86,483.57,339.86Z" transform="translate(-81.11 -132.35)"/></svg>