<svg id="Layer_1" data-name="Layer 1" xmlns="http://www.w3.org/2000/svg" viewBox="0 0 1065 645"><defs><style>.cls-1{fill:#fff;stroke:#0f0756;stroke-miterlimit:10;stroke-width:40px;}.cls-2{fill:#0f0756;}</style></defs><title>einZimmer</title><polyline class="cls-1" points="374 20 1045 20 1045 625 20 625 20 20 221 20"/><path class="cls-2" d="M433.48,203.06a5.68,5.68,0,0,0,4.35,1.06,4.37,4.37,0,0,0,3.44-2.21,2.67,2.67,0,0,0-.91-3.27c-2.95-2.43-5.76-5-8.37-7.55a5.3,5.3,0,0,0-3.71-1.37,5,5,0,0,0-4.09,1.83,2.6,2.6,0,0,0,.4,3.48C427.35,197.78,430.34,200.48,433.48,203.06Z" transform="translate(-174 -78)"/><path class="cls-2" d="M457.82,219.29a5.81,5.81,0,0,0,6.41-.7c1.5-1.48,1.08-3.56-1-4.66-3.56-1.92-7-4-10.36-6.13a5.72,5.72,0,0,0-3.06-.84h0a4.81,4.81,0,0,0-4.29,2.15,2.77,2.77,0,0,0,1.24,3.68C450.33,215.07,454,217.25,457.82,219.29Z" transform="translate(-174 -78)"/><path class="cls-2" d="M473.67,226.78c4.12,1.7,8.38,3.27,12.65,4.67a6.06,6.06,0,0,0,4.57-.33,3.07,3.07,0,0,0,1.89-3,3.63,3.63,0,0,0-2.68-2.71c-4-1.32-8-2.8-11.9-4.39a5.87,5.87,0,0,0-2.26-.44c-2.09,0-3.91,1-4.44,2.49S471.86,226,473.67,226.78Z" transform="translate(-174 -78)"/><path class="cls-2" d="M504,236.34c4.52,1,9.13,1.91,13.72,2.62,2.48.39,4.92-.76,5.45-2.56s-1-3.58-3.52-4c-4.32-.68-8.67-1.5-12.91-2.47a6.32,6.32,0,0,0-1.37-.15c-2.27,0-4.2,1.2-4.54,2.84S501.84,235.85,504,236.34Z" transform="translate(-174 -78)"/><path class="cls-2" d="M536.41,241c4.66.31,9.42.46,14.16.46v-6.67c-4.46,0-9-.15-13.33-.44h-.42c-2.45,0-4.47,1.41-4.58,3.19S534,240.86,536.41,241Z" transform="translate(-174 -78)"/><path class="cls-2" d="M402.29,147.41a5.39,5.39,0,0,0-3.56,1.23,2.67,2.67,0,0,0-.93,2.79,87.71,87.71,0,0,0,3.54,10,4.3,4.3,0,0,0,3.36,2.28,5.77,5.77,0,0,0,4.39-1,2.71,2.71,0,0,0,1-3.25,83.92,83.92,0,0,1-3.34-9.39c-.45-1.54-2.32-2.65-4.49-2.65Z" transform="translate(-174 -78)"/><path class="cls-2" d="M408.32,171.1a2.55,2.55,0,0,0-.34,3.17,105.65,105.65,0,0,0,6.37,9.21,5,5,0,0,0,4,1.71,5.1,5.1,0,0,0,4-1.64,2.56,2.56,0,0,0,.05-3.34,98.39,98.39,0,0,1-6-8.66,4.88,4.88,0,0,0-4.19-2h0A5.17,5.17,0,0,0,408.32,171.1Z" transform="translate(-174 -78)"/><path class="cls-2" d="M400,140.88c2.53-.16,4.4-1.78,4.18-3.61a81.34,81.34,0,0,1-.53-9.23h-9.19a84.5,84.5,0,0,0,.58,9.8C395.26,139.67,397.49,141,400,140.88Z" transform="translate(-174 -78)"/><rect class="cls-2" x="220.47" y="10" width="9.18" height="33.37"/><rect class="cls-2" x="372.14" y="9.52" width="7.77" height="151.57"/></svg>