<svg id="Layer_1" data-name="Layer 1" xmlns="http://www.w3.org/2000/svg" viewBox="0 0 857.46 775.23"><defs><style>.cls-1,.cls-2{fill:#0f0756;}.cls-2{stroke:#f5f5f8;stroke-miterlimit:10;stroke-width:19px;}</style></defs><title>fourStar</title><polygon class="cls-1" points="423.68 0 500.99 156.65 673.86 181.76 548.77 303.69 578.3 475.86 423.68 394.58 269.06 475.86 298.59 303.69 173.51 181.76 346.37 156.65 423.68 0"/><polygon class="cls-1" points="250.18 299.36 327.49 456.01 500.35 481.13 375.26 603.06 404.79 775.23 250.18 693.94 95.56 775.23 125.09 603.06 0 481.13 172.87 456.01 250.18 299.36"/><polygon class="cls-1" points="607.28 299.36 684.59 456.01 857.46 481.13 732.37 603.06 761.9 775.23 607.28 693.94 452.66 775.23 482.19 603.06 357.1 481.13 529.97 456.01 607.28 299.36"/><polygon class="cls-2" points="423.68 275.05 500.99 431.7 673.86 456.82 548.77 578.75 578.3 750.92 423.68 669.63 269.06 750.92 298.59 578.75 173.51 456.82 346.37 431.7 423.68 275.05"/></svg>