<svg id="Layer_1" data-name="Layer 1" xmlns="http://www.w3.org/2000/svg" xmlns:xlink="http://www.w3.org/1999/xlink" viewBox="0 0 1025.82 580"><defs><style>.cls-1,.cls-2,.cls-9{fill:#fff;}.cls-1,.cls-2,.cls-3{stroke:#0f0756;}.cls-1,.cls-11,.cls-2,.cls-3,.cls-6,.cls-7{stroke-miterlimit:10;}.cls-1,.cls-6,.cls-7{stroke-width:3px;}.cls-2,.cls-3{stroke-width:10px;}.cls-10,.cls-11,.cls-3,.cls-7{fill:#0f0756;}.cls-4{fill:url(#linear-gradient);}.cls-5{fill:url(#linear-gradient-2);}.cls-6,.cls-8{fill:#bbbbbc;}.cls-11,.cls-6,.cls-7{stroke:#fff;}.cls-11{stroke-width:4px;}</style><linearGradient id="linear-gradient" x1="154.42" y1="647.17" x2="244.33" y2="647.17" gradientTransform="translate(24.43)" gradientUnits="userSpaceOnUse"><stop offset="0.01" stop-color="#0f078d"/><stop offset="1" stop-color="#0f0756"/></linearGradient><linearGradient id="linear-gradient-2" x1="945.66" y1="634.14" x2="1035.57" y2="634.14" xlink:href="#linear-gradient"/></defs><title>Freistehend</title><rect class="cls-1" x="104.87" y="439.58" width="24.84" height="45.16"/><polyline class="cls-2" points="117.29 126.84 84.7 198.35 95.16 198.35 68.4 257.06 78.95 257.06 43.96 333.83 55.8 333.83 7.77 439.21 117.29 439.21"/><polyline class="cls-3" points="117.29 127.22 149.88 198.72 139.42 198.72 166.18 257.43 155.63 257.43 190.62 334.21 178.78 334.21 226.81 439.58 117.29 439.58"/><path class="cls-4" d="M232.43,667c-7.75-5.27-10.87-13.49-15.05-22.94,1.76,1.65,3.44,3.41,5.09,5.22,2.55,2.78,5,5.66,7.61,8.35-.84-3.08-1.91-6.58-2.52-9.48,1.9,3.78,3.87,7.85,6.57,11-3.3-6.1-2.59-15.36-3.6-21.54,2.71,7.76,4,17.91,9,24.13-2.05-8.38-1.81-15.78-.59-24.32.14,7.25,1.21,18.65,5.44,24.32-2-6.15-1.56-14.94-.27-21.15,1.15,6,1.28,12.43,3,18.3.9-3.36.94-7,1.44-10.45a60.18,60.18,0,0,0,1.68,11.92c.61-10-.73-24.77,5.11-33,.68,11-1.94,22,.13,33,1.38-6.75,2.21-14.54,5.71-20.41.26,6.39-2.37,13.37-.81,19.79,1.34-3.39,2.43-7.31,3.69-10.82.86,4.1-.56,8.79.35,13a29.07,29.07,0,0,1,2-6c.43,2.56.6,5.16,1,7.72,4.83-9.21,1.92-21.5,8.81-30.61a85,85,0,0,0-2.12,31.64c1.45-4.17,1.63-10,4.53-13.1.54,4.94-1.78,10.17-2,15.34Z" transform="translate(-130.96 -173)"/><rect class="cls-1" x="896.11" y="426.55" width="24.84" height="45.16"/><polyline class="cls-2" points="908.53 113.81 875.94 185.32 886.4 185.32 859.64 244.03 870.19 244.03 835.2 320.8 847.04 320.8 799.01 426.18 908.53 426.18"/><polyline class="cls-3" points="908.53 114.19 941.12 185.69 930.66 185.69 957.42 244.4 946.87 244.4 981.86 321.18 970.01 321.18 1018.04 426.55 908.53 426.55"/><path class="cls-5" d="M1023.67,653.93c-7.75-5.27-10.88-13.49-15-22.94,1.76,1.65,3.44,3.41,5.09,5.22,2.55,2.78,5,5.66,7.61,8.35-.84-3.07-1.91-6.58-2.53-9.48,1.91,3.78,3.87,7.85,6.58,11-3.3-6.1-2.6-15.36-3.6-21.54,2.71,7.76,4,17.91,9,24.13-2-8.38-1.81-15.78-.59-24.32.14,7.25,1.21,18.65,5.44,24.32-1.95-6.15-1.56-14.94-.27-21.15,1.15,6,1.28,12.43,3,18.3.89-3.36.94-7,1.44-10.45a60.92,60.92,0,0,0,1.67,11.92c.62-10-.72-24.77,5.12-33,.68,11-1.94,22,.12,33,1.39-6.75,2.22-14.54,5.72-20.41.26,6.39-2.37,13.37-.81,19.79,1.34-3.39,2.43-7.31,3.68-10.82.87,4.1-.55,8.79.36,13a29.07,29.07,0,0,1,2-6c.43,2.56.6,5.17,1,7.72,4.83-9.21,1.92-21.5,8.81-30.61a85,85,0,0,0-2.12,31.64c1.45-4.17,1.63-10,4.53-13.1.53,4.94-1.78,10.17-2,15.34Z" transform="translate(-130.96 -173)"/><rect class="cls-6" x="190.22" y="1.5" width="36.27" height="125.57"/><rect class="cls-7" x="226.5" y="1.5" width="53.02" height="125.57"/><rect class="cls-8" x="144.98" y="182.28" width="462.99" height="316.49"/><path class="cls-9" d="M737.43,356.78V670.27h-460V356.78h460m3-3h-466V673.27h466V353.78Z" transform="translate(-130.96 -173)"/><polygon class="cls-8" points="146.81 179.28 283.68 24.63 745.66 24.63 608.79 179.28 146.81 179.28"/><path class="cls-9" d="M873.28,199.13,739.08,350.78h-458L415.31,199.13h458m6.66-3H414L274.44,353.78h466L879.94,196.13Z" transform="translate(-130.96 -173)"/><polygon class="cls-10" points="612.8 179.28 748.96 25.42 878.31 179.28 612.8 179.28"/><path class="cls-9" d="M879.89,200.72,1006,350.78H747.09l132.8-150.06m.05-4.59L740.43,353.78h272.06L879.94,196.13Z" transform="translate(-130.96 -173)"/><rect class="cls-10" x="610.97" y="182.28" width="269.06" height="316.49"/><path class="cls-9" d="M1009.49,356.78V670.27H743.43V356.78h266.06m3-3H740.43V673.27h272.06V353.78Z" transform="translate(-130.96 -173)"/><path class="cls-7" d="M276.5,365.64h40.9a23.5,23.5,0,0,1,23.5,23.5v109a2.84,2.84,0,0,1-2.84,2.84H255.84a2.84,2.84,0,0,1-2.84-2.84v-109A23.5,23.5,0,0,1,276.5,365.64Z"/><rect class="cls-6" x="365.94" y="450.88" width="21.48" height="127.62"/><rect class="cls-7" x="384.26" y="450.88" width="26.53" height="127.62"/><path class="cls-11" d="M503.69,628.94V597.25c0-.45,0-.91,0-1.36v-.41a3.94,3.94,0,0,0-.16-.91l-.12-.46a2.89,2.89,0,0,0-.24-.83l-.15-.43a8.55,8.55,0,0,0-.33-.81l-.32-.37c-.14-.26-.28-.52-.42-.76l-.22-.38c-.17-.26-.34-.51-.53-.75l-.17-.33c-.23-.3-.48-.58-.74-.86l-.12-.12a11.62,11.62,0,0,0-.95-.88l-3.43-2.86h49.9A10.45,10.45,0,0,1,556,595.24v33.7Z" transform="translate(-130.96 -173)"/><path class="cls-10" d="M538.34,578.87l-5.43-7.36,5.43-7.33H516.62V604a1.43,1.43,0,0,0,2.86,0h0v-25.1Z" transform="translate(-130.96 -173)"/><path class="cls-6" d="M480.41,620.3v-23a12.51,12.51,0,0,1,25,0v31.69h-25V617.61" transform="translate(-130.96 -173)"/><rect class="cls-9" x="406.84" y="262.76" width="50.96" height="37.9" rx="3.5"/><path class="cls-10" d="M585.26,437.26a2,2,0,0,1,2,2v30.9a2,2,0,0,1-2,2h-44a2,2,0,0,1-2-2v-30.9a2,2,0,0,1,2-2h44m0-3h-44a5,5,0,0,0-5,5v30.9a5,5,0,0,0,5,5h44a5,5,0,0,0,5-5v-30.9a5,5,0,0,0-5-5Z" transform="translate(-130.96 -173)"/><rect class="cls-9" x="455.58" y="262.76" width="50.96" height="37.9" rx="3.5"/><path class="cls-10" d="M634,437.26a2,2,0,0,1,2,2v30.9a2,2,0,0,1-2,2H590a2,2,0,0,1-2-2v-30.9a2,2,0,0,1,2-2h44m0-3H590a5,5,0,0,0-5,5v30.9a5,5,0,0,0,5,5h44a5,5,0,0,0,5-5v-30.9a5,5,0,0,0-5-5Z" transform="translate(-130.96 -173)"/><rect class="cls-9" x="406.84" y="300.59" width="50.96" height="56.85" rx="3.5"/><path class="cls-10" d="M585.26,475.09a2,2,0,0,1,2,2v49.85a2,2,0,0,1-2,2h-44a2,2,0,0,1-2-2V477.09a2,2,0,0,1,2-2h44m0-3h-44a5,5,0,0,0-5,5v49.85a5,5,0,0,0,5,5h44a5,5,0,0,0,5-5V477.09a5,5,0,0,0-5-5Z" transform="translate(-130.96 -173)"/><rect class="cls-9" x="455.58" y="300.59" width="50.96" height="56.85" rx="3.5"/><path class="cls-10" d="M634,475.09a2,2,0,0,1,2,2v49.85a2,2,0,0,1-2,2H590a2,2,0,0,1-2-2V477.09a2,2,0,0,1,2-2h44m0-3H590a5,5,0,0,0-5,5v49.85a5,5,0,0,0,5,5h44a5,5,0,0,0,5-5V477.09a5,5,0,0,0-5-5Z" transform="translate(-130.96 -173)"/><rect class="cls-9" x="715.9" y="228.76" width="34.43" height="25.37" rx="3.5"/><path class="cls-10" d="M877.78,403.26a2,2,0,0,1,2,2v18.36a2,2,0,0,1-2,2H850.36a2,2,0,0,1-2-2V405.26a2,2,0,0,1,2-2h27.42m0-3H850.36a5,5,0,0,0-5,5v18.36a5,5,0,0,0,5,5h27.42a5,5,0,0,0,5-5V405.26a5,5,0,0,0-5-5Z" transform="translate(-130.96 -173)"/><rect class="cls-9" x="749.7" y="228.76" width="34.43" height="25.37" rx="3.5"/><path class="cls-10" d="M911.59,403.26a2,2,0,0,1,2,2v18.36a2,2,0,0,1-2,2H884.16a2,2,0,0,1-2-2V405.26a2,2,0,0,1,2-2h27.43m0-3H884.16a5,5,0,0,0-5,5v18.36a5,5,0,0,0,5,5h27.43a5,5,0,0,0,5-5V405.26a5,5,0,0,0-5-5Z" transform="translate(-130.96 -173)"/><rect class="cls-9" x="715.9" y="254.99" width="34.43" height="38.51" rx="3.5"/><path class="cls-10" d="M877.78,429.49a2,2,0,0,1,2,2V463a2,2,0,0,1-2,2H850.36a2,2,0,0,1-2-2V431.49a2,2,0,0,1,2-2h27.42m0-3H850.36a5,5,0,0,0-5,5V463a5,5,0,0,0,5,5h27.42a5,5,0,0,0,5-5V431.49a5,5,0,0,0-5-5Z" transform="translate(-130.96 -173)"/><rect class="cls-9" x="749.7" y="254.99" width="34.43" height="38.51" rx="3.5"/><path class="cls-10" d="M911.59,429.49a2,2,0,0,1,2,2V463a2,2,0,0,1-2,2H884.16a2,2,0,0,1-2-2V431.49a2,2,0,0,1,2-2h27.43m0-3H884.16a5,5,0,0,0-5,5V463a5,5,0,0,0,5,5h27.43a5,5,0,0,0,5-5V431.49a5,5,0,0,0-5-5Z" transform="translate(-130.96 -173)"/></svg>