<svg id="Layer_1" data-name="Layer 1" xmlns="http://www.w3.org/2000/svg" xmlns:xlink="http://www.w3.org/1999/xlink" viewBox="0 0 532 688"><defs><style>.cls-1{fill:none;}.cls-2,.cls-4{fill:#0f0756;}.cls-2,.cls-7{stroke:#0f0756;stroke-miterlimit:10;}.cls-2{stroke-width:5px;}.cls-3{fill:#fefdfd;}.cls-5{fill:url(#New_Pattern);}.cls-6,.cls-7{fill:#bbbbbc;}.cls-7{stroke-width:2px;}.cls-8{fill:gray;}.cls-9{fill:url(#New_Pattern-3);}</style><pattern id="New_Pattern" data-name="New Pattern" width="119" height="105" patternUnits="userSpaceOnUse" viewBox="0 0 119 105"><rect class="cls-1" width="119" height="105"/><line class="cls-2" x1="36" y1="89" x2="797" y2="646"/><line class="cls-2" x1="-83" y1="89" x2="678" y2="646"/><line class="cls-2" x1="-202" y1="89" x2="559" y2="646"/><line class="cls-2" x1="-321" y1="89" x2="440" y2="646"/><line class="cls-2" x1="-440" y1="89" x2="321" y2="646"/><line class="cls-2" x1="-559" y1="89" x2="202" y2="646"/><line class="cls-2" x1="-678" y1="89" x2="83" y2="646"/><line class="cls-2" x1="36" y1="-16" x2="797" y2="541"/><line class="cls-2" x1="-83" y1="-16" x2="678" y2="541"/><line class="cls-2" x1="-202" y1="-16" x2="559" y2="541"/><line class="cls-2" x1="-321" y1="-16" x2="440" y2="541"/><line class="cls-2" x1="-440" y1="-16" x2="321" y2="541"/><line class="cls-2" x1="-559" y1="-16" x2="202" y2="541"/><line class="cls-2" x1="-678" y1="-16" x2="83" y2="541"/><line class="cls-2" x1="36" y1="-121" x2="797" y2="436"/><line class="cls-2" x1="-83" y1="-121" x2="678" y2="436"/><line class="cls-2" x1="-202" y1="-121" x2="559" y2="436"/><line class="cls-2" x1="-321" y1="-121" x2="440" y2="436"/><line class="cls-2" x1="-440" y1="-121" x2="321" y2="436"/><line class="cls-2" x1="-559" y1="-121" x2="202" y2="436"/><line class="cls-2" x1="-678" y1="-121" x2="83" y2="436"/><line class="cls-2" x1="36" y1="-226" x2="797" y2="331"/><line class="cls-2" x1="-83" y1="-226" x2="678" y2="331"/><line class="cls-2" x1="-202" y1="-226" x2="559" y2="331"/><line class="cls-2" x1="-321" y1="-226" x2="440" y2="331"/><line class="cls-2" x1="-440" y1="-226" x2="321" y2="331"/><line class="cls-2" x1="-559" y1="-226" x2="202" y2="331"/><line class="cls-2" x1="-678" y1="-226" x2="83" y2="331"/><line class="cls-2" x1="36" y1="-331" x2="797" y2="226"/><line class="cls-2" x1="-83" y1="-331" x2="678" y2="226"/><line class="cls-2" x1="-202" y1="-331" x2="559" y2="226"/><line class="cls-2" x1="-321" y1="-331" x2="440" y2="226"/><line class="cls-2" x1="-440" y1="-331" x2="321" y2="226"/><line class="cls-2" x1="-559" y1="-331" x2="202" y2="226"/><line class="cls-2" x1="-678" y1="-331" x2="83" y2="226"/><line class="cls-2" x1="36" y1="-436" x2="797" y2="121"/><line class="cls-2" x1="-83" y1="-436" x2="678" y2="121"/><line class="cls-2" x1="-202" y1="-436" x2="559" y2="121"/><line class="cls-2" x1="-321" y1="-436" x2="440" y2="121"/><line class="cls-2" x1="-440" y1="-436" x2="321" y2="121"/><line class="cls-2" x1="-559" y1="-436" x2="202" y2="121"/><line class="cls-2" x1="-678" y1="-436" x2="83" y2="121"/><line class="cls-2" x1="36" y1="-541" x2="797" y2="16"/><line class="cls-2" x1="-83" y1="-541" x2="678" y2="16"/><line class="cls-2" x1="-202" y1="-541" x2="559" y2="16"/><line class="cls-2" x1="-321" y1="-541" x2="440" y2="16"/><line class="cls-2" x1="-440" y1="-541" x2="321" y2="16"/><line class="cls-2" x1="-559" y1="-541" x2="202" y2="16"/><line class="cls-2" x1="-678" y1="-541" x2="83" y2="16"/></pattern><pattern id="New_Pattern-3" data-name="New Pattern" x="-465" y="-20" width="119" height="105" patternUnits="userSpaceOnUse" viewBox="0 0 119 105"><rect class="cls-1" width="119" height="105"/><line class="cls-2" x1="36" y1="89" x2="797" y2="646"/><line class="cls-2" x1="-83" y1="89" x2="678" y2="646"/><line class="cls-2" x1="-202" y1="89" x2="559" y2="646"/><line class="cls-2" x1="-321" y1="89" x2="440" y2="646"/><line class="cls-2" x1="-440" y1="89" x2="321" y2="646"/><line class="cls-2" x1="-559" y1="89" x2="202" y2="646"/><line class="cls-2" x1="-678" y1="89" x2="83" y2="646"/><line class="cls-2" x1="36" y1="-16" x2="797" y2="541"/><line class="cls-2" x1="-83" y1="-16" x2="678" y2="541"/><line class="cls-2" x1="-202" y1="-16" x2="559" y2="541"/><line class="cls-2" x1="-321" y1="-16" x2="440" y2="541"/><line class="cls-2" x1="-440" y1="-16" x2="321" y2="541"/><line class="cls-2" x1="-559" y1="-16" x2="202" y2="541"/><line class="cls-2" x1="-678" y1="-16" x2="83" y2="541"/><line class="cls-2" x1="36" y1="-121" x2="797" y2="436"/><line class="cls-2" x1="-83" y1="-121" x2="678" y2="436"/><line class="cls-2" x1="-202" y1="-121" x2="559" y2="436"/><line class="cls-2" x1="-321" y1="-121" x2="440" y2="436"/><line class="cls-2" x1="-440" y1="-121" x2="321" y2="436"/><line class="cls-2" x1="-559" y1="-121" x2="202" y2="436"/><line class="cls-2" x1="-678" y1="-121" x2="83" y2="436"/><line class="cls-2" x1="36" y1="-226" x2="797" y2="331"/><line class="cls-2" x1="-83" y1="-226" x2="678" y2="331"/><line class="cls-2" x1="-202" y1="-226" x2="559" y2="331"/><line class="cls-2" x1="-321" y1="-226" x2="440" y2="331"/><line class="cls-2" x1="-440" y1="-226" x2="321" y2="331"/><line class="cls-2" x1="-559" y1="-226" x2="202" y2="331"/><line class="cls-2" x1="-678" y1="-226" x2="83" y2="331"/><line class="cls-2" x1="36" y1="-331" x2="797" y2="226"/><line class="cls-2" x1="-83" y1="-331" x2="678" y2="226"/><line class="cls-2" x1="-202" y1="-331" x2="559" y2="226"/><line class="cls-2" x1="-321" y1="-331" x2="440" y2="226"/><line class="cls-2" x1="-440" y1="-331" x2="321" y2="226"/><line class="cls-2" x1="-559" y1="-331" x2="202" y2="226"/><line class="cls-2" x1="-678" y1="-331" x2="83" y2="226"/><line class="cls-2" x1="36" y1="-436" x2="797" y2="121"/><line class="cls-2" x1="-83" y1="-436" x2="678" y2="121"/><line class="cls-2" x1="-202" y1="-436" x2="559" y2="121"/><line class="cls-2" x1="-321" y1="-436" x2="440" y2="121"/><line class="cls-2" x1="-440" y1="-436" x2="321" y2="121"/><line class="cls-2" x1="-559" y1="-436" x2="202" y2="121"/><line class="cls-2" x1="-678" y1="-436" x2="83" y2="121"/><line class="cls-2" x1="36" y1="-541" x2="797" y2="16"/><line class="cls-2" x1="-83" y1="-541" x2="678" y2="16"/><line class="cls-2" x1="-202" y1="-541" x2="559" y2="16"/><line class="cls-2" x1="-321" y1="-541" x2="440" y2="16"/><line class="cls-2" x1="-440" y1="-541" x2="321" y2="16"/><line class="cls-2" x1="-559" y1="-541" x2="202" y2="16"/><line class="cls-2" x1="-678" y1="-541" x2="83" y2="16"/></pattern></defs><title>garageIcon</title><path class="cls-3" d="M465,552V20H997V552Zm427.36-71.64c55.88,1.14,55.88,1.14,55-54.23q0-82.58,0-165.15c.43-6.37-.3-13.14,6-17.48,5.14.17,9.5,5.87,14.4,2.7,8-28.9-2.73-44.39-29.91-56.76C873.32,160,810.26,127.18,747.11,94.68c-13.66-7-24.08-6.77-37.6.16-64,32.83-127.91,66-193.28,96-27.7,12.69-34.63,29.3-27.06,56.69l14-3.83c6.3,4.33,5.46,11.08,5.91,17.39q0,82.54,0,165.08c-.84,55.36-.84,55.36,55,54.24Z" transform="translate(-465 -20)"/><path class="cls-1" d="M509.13,426.13q0-82.53,0-165.08c67.54-27.35,130.73-63.68,196-95.63,16.4-8,29.54-8.38,46-.13,65,32.64,130.78,63.91,196.26,95.68V426.13l-53.69-.42q-.81-49-1.6-98-.08-11.4-.13-22.78c.15-6.89,3.15-14.2-2.46-20.28h-325V304.9q-.07,11.39-.13,22.78-.81,49-1.6,98Zm188-218.84v41.34h63.41c.21-14.83,2.43-28-1.55-41.34Z" transform="translate(-465 -20)"/><path class="cls-4" d="M503.2,243.66l-14,3.83c-7.57-27.39-.64-44,27.06-56.69,65.37-30,129.28-63.13,193.28-96,13.52-6.93,23.94-7.19,37.6-.16,63.15,32.5,126.21,65.34,190.81,94.76,27.18,12.37,37.94,27.86,29.91,56.76-4.9,3.17-9.26-2.53-14.39-2.69Q845.31,188.45,737.23,133.24c-6.38-3.26-11.53-3.14-17.87.13C647.5,170.51,573.53,203.51,503.2,243.66Z" transform="translate(-465 -20)"/><path class="cls-5" d="M892.36,480.36H564.14c.09-1.82.16-3.64.24-5.46,7.47-6.54,16.21-12.09,22.15-19.8,18.22-23.64,41-32,70.88-29.85,35.27,2.49,71,2.88,106.25,0,49.55-4,93.55,2.09,123.78,47,.89,1.32,3.09,1.77,4.68,2.62Z" transform="translate(-465 -20)"/><path class="cls-6" d="M503.2,243.66c70.33-40.15,144.3-73.15,216.16-110.29,6.34-3.27,11.49-3.39,17.87-.13q108,55.35,216.21,110.27c-6.34,4.33-5.61,11.1-6,17.47-65.49-31.78-131.23-63.05-196.27-95.69-16.44-8.25-29.58-7.88-46,.13-65.31,32-128.5,68.28-196,95.63C508.66,254.74,509.5,248,503.2,243.66Z" transform="translate(-465 -20)"/><path class="cls-6" d="M564.38,474.91c-.08,1.82-.15,3.64-.24,5.46-55.86,1.12-55.86,1.12-55-54.24l53.69-.42Z" transform="translate(-465 -20)"/><path class="cls-6" d="M892.36,480.36l-.24-5.44q.79-24.6,1.58-49.21l53.69.42C948.24,481.5,948.24,481.5,892.36,480.36Z" transform="translate(-465 -20)"/><path class="cls-4" d="M893.7,425.71q-.8,24.6-1.58,49.21c-1.59-.85-3.79-1.3-4.68-2.62-30.23-44.92-74.23-51-123.78-47-35.21,2.85-71,2.46-106.25,0-29.89-2.11-52.66,6.21-70.88,29.85-5.94,7.71-14.68,13.26-22.15,19.8l-1.56-49.2q.79-49,1.6-98l21.44-1.42H870.65l21.45,1.42Q892.9,376.69,893.7,425.71Z" transform="translate(-465 -20)"/><path class="cls-6" d="M564.55,304.9V284.62h325c5.61,6.08,2.61,13.39,2.46,20.28l-21.37.75H585.92Z" transform="translate(-465 -20)"/><path class="cls-7" d="M564.55,325.9V305.62h325c5.61,6.08,2.61,13.39,2.46,20.28l-21.37.75H585.92Z" transform="translate(-465 -20)"/><path class="cls-7" d="M564.55,346.9V326.62h325c5.61,6.08,2.61,13.39,2.46,20.28l-21.37.75H585.92Z" transform="translate(-465 -20)"/><path class="cls-7" d="M564.55,367.9V347.62h325c5.61,6.08,2.61,13.39,2.46,20.28l-21.37.75H585.92Z" transform="translate(-465 -20)"/><path class="cls-4" d="M697.15,207.29H759c4,13.32,1.76,26.51,1.55,41.34H697.15Z" transform="translate(-465 -20)"/><path class="cls-8" d="M585.86,326.26" transform="translate(-465 -20)"/><rect class="cls-9" x="98" y="460" width="329" height="228"/></svg>