<svg xmlns="http://www.w3.org/2000/svg" viewBox="0 0 2267.54 835.99"><defs><style>.cls-1{fill:#0f0756;}.cls-2,.cls-3{fill:#bbbbbc;}.cls-3{stroke:#aaa;stroke-width:21px;}.cls-10,.cls-11,.cls-12,.cls-3,.cls-5,.cls-6,.cls-7,.cls-8,.cls-9{stroke-miterlimit:10;}.cls-4{fill:#754c24;}.cls-10,.cls-11,.cls-12,.cls-5,.cls-6,.cls-7,.cls-8,.cls-9{fill:none;}.cls-10,.cls-11,.cls-5,.cls-6,.cls-7,.cls-8,.cls-9{stroke:#000;}.cls-5{stroke-width:7px;}.cls-6{stroke-width:10px;}.cls-7,.cls-8,.cls-9{stroke-width:8px;}.cls-8{stroke-dasharray:12.31 12.31;}.cls-9{stroke-dasharray:11.85 11.85;}.cls-10,.cls-11{stroke-width:5px;}.cls-10{fill-rule:evenodd;}.cls-12{stroke:#fff;stroke-width:30px;}</style></defs><title>grundstueck</title><g id="Layer_2" data-name="Layer 2"><rect class="cls-1" x="104.56" y="282.7" width="1137.18" height="226.1" transform="translate(99.78 210.85) rotate(-17.38)"/><rect class="cls-1" x="73.98" y="264" width="817.87" height="94.92" transform="translate(116.28 150.17) rotate(-17.38)"/><rect class="cls-1" x="96.99" y="280.35" width="547.1" height="59.79" transform="translate(111.51 116.54) rotate(-17.38)"/><rect class="cls-1" x="90.99" y="246.04" width="522.66" height="44.98" transform="translate(123.14 109.19) rotate(-17.38)"/><rect class="cls-1" x="82.36" y="245.54" width="369.38" height="26.27" transform="translate(122.19 83.27) rotate(-17.38)"/><rect class="cls-1" x="64.86" y="244.01" width="285.91" height="46.71" transform="translate(153.97 21.27) rotate(-7.54)"/><rect class="cls-1" x="328.08" y="224.31" width="393.58" height="64.74" transform="translate(134.56 160.2) rotate(-17.38)"/><rect class="cls-1" x="820.34" y="299" width="536.62" height="49.8" transform="matrix(0.95, -0.3, 0.3, 0.95, 140.22, 331.7)"/><rect class="cls-1" x="772.93" y="263.6" width="520.54" height="50.74" transform="translate(148.13 313.53) rotate(-17.38)"/><circle class="cls-2" cx="421.59" cy="434.34" r="80.97"/><line class="cls-3" x1="423.36" y1="495.68" x2="423.36" y2="589.11"/><circle class="cls-2" cx="395.42" cy="364.79" r="28.05"/><circle class="cls-2" cx="357.97" cy="392.85" r="28.05"/><circle class="cls-2" cx="348.7" cy="430.29" r="28.05"/><circle class="cls-2" cx="357.97" cy="477.01" r="28.05"/><circle class="cls-2" cx="386.03" cy="495.68" r="28.05"/><circle class="cls-2" cx="432.75" cy="364.79" r="28.05"/><circle class="cls-2" cx="470.07" cy="383.57" r="28.05"/><circle class="cls-2" cx="492.03" cy="410.54" r="28.58"/><circle class="cls-2" cx="492.03" cy="439.13" r="28.58"/><circle class="cls-2" cx="482.46" cy="477.28" r="28.58"/><circle class="cls-2" cx="444.43" cy="496.29" r="28.58"/><rect class="cls-1" x="511.7" y="200" width="522.66" height="55.8" transform="translate(154.49 233.02) rotate(-17.38)"/><rect class="cls-1" x="592.99" y="200.03" width="522.66" height="55.8" transform="translate(158.19 257.31) rotate(-17.38)"/><rect class="cls-1" x="730.31" y="242.17" width="522.66" height="55.8" transform="translate(151.88 300.26) rotate(-17.38)"/><circle class="cls-2" cx="1300.52" cy="195.37" r="46.4"/><line class="cls-3" x1="1301.53" y1="230.52" x2="1301.53" y2="284.06"/><circle class="cls-2" cx="1285.52" cy="155.52" r="16.08"/><circle class="cls-2" cx="1264.07" cy="171.6" r="16.08"/><circle class="cls-2" cx="1258.75" cy="193.06" r="16.08"/><circle class="cls-2" cx="1264.07" cy="219.83" r="16.08"/><circle class="cls-2" cx="1280.14" cy="230.52" r="16.08"/><circle class="cls-2" cx="1306.91" cy="155.52" r="16.08"/><circle class="cls-2" cx="1328.3" cy="166.28" r="16.08"/><circle class="cls-2" cx="1340.88" cy="181.74" r="16.38"/><circle class="cls-2" cx="1340.88" cy="198.12" r="16.38"/><circle class="cls-2" cx="1335.4" cy="219.98" r="16.38"/><circle class="cls-2" cx="1313.61" cy="230.87" r="16.38"/></g><g id="Layer_1" data-name="Layer 1"><line class="cls-4" x1="1585.57" y1="262.55" x2="334.67" y2="665.18"/><line class="cls-5" x1="1585.57" y1="262.55" x2="334.67" y2="665.18"/><line class="cls-6" x1="1585.57" y1="262.55" x2="334.67" y2="665.18"/><line class="cls-7" x1="259.37" y1="234.89" x2="260.39" y2="240.8"/><line class="cls-8" x1="262.48" y1="252.93" x2="332.6" y2="659.34"/><line class="cls-7" x1="333.65" y1="665.41" x2="334.67" y2="671.32"/><line class="cls-7" x1="1302.81" y1="351.68" x2="1306.67" y2="356.27"/><line class="cls-9" x1="1314.29" y1="365.35" x2="1691.62" y2="814.33"/><line class="cls-7" x1="1695.43" y1="818.87" x2="1699.29" y2="823.46"/><path class="cls-10" d="M1310.5,330.5" transform="translate(187.27 -8.33)"/><rect class="cls-11" x="-189.67" y="133.94" width="2272.34" height="28" transform="translate(176.82 94.97) rotate(-6.21)"/><rect class="cls-11" x="1543.35" y="-128.63" width="28" height="968.06" transform="translate(694.79 1551.02) rotate(-61.77)"/><rect class="cls-11" x="115.8" y="458.19" width="1314.1" height="28" transform="translate(79.77 251.17) rotate(-17.84)"/><rect class="cls-11" x="115.8" y="458.19" width="1314.1" height="28" transform="translate(79.77 251.17) rotate(-17.84)"/><rect class="cls-11" x="115.8" y="458.19" width="1314.1" height="28" transform="translate(79.77 251.17) rotate(-17.84)"/><rect class="cls-11" x="95.75" y="239.99" width="28" height="442.88" transform="translate(110.41 17.05) rotate(-9.79)"/><rect class="cls-11" x="58.61" y="243.17" width="28" height="6" transform="translate(146.48 7.6) rotate(-9.79)"/><rect class="cls-11" x="96.27" y="258.26" width="28" height="412.41" transform="matrix(0.99, -0.17, 0.17, 0.99, 109.91, 17.18)"/><rect class="cls-11" x="132.89" y="673.69" width="28" height="6" transform="translate(74.38 26.49) rotate(-9.79)"/><rect class="cls-11" x="1299.78" y="287.77" width="28" height="616.25" transform="translate(111.9 976.62) rotate(-40.04)"/><rect class="cls-11" x="1103.47" y="359.3" width="28" height="6" transform="translate(216.17 795.59) rotate(-40.04)"/><rect class="cls-11" x="1301.69" y="304.92" width="28" height="586.48" transform="translate(110.88 978.38) rotate(-40.04)"/><rect class="cls-11" x="1496.09" y="826.49" width="28" height="6" transform="translate(7.63 1157.64) rotate(-40.04)"/><path class="cls-11" d="M1310.5,330.5" transform="translate(187.27 -8.33)"/><line class="cls-12" x1="4.27" y1="262.55" x2="2263.27" y2="16.67"/><line class="cls-12" x1="1318.18" y1="118.1" x2="2171.07" y2="576.04"/><line class="cls-12" x1="1585.57" y1="262.55" x2="334.67" y2="665.18"/><line class="cls-12" x1="1585.57" y1="262.55" x2="334.67" y2="665.18"/><line class="cls-12" x1="1585.57" y1="262.55" x2="334.67" y2="665.18"/><line class="cls-12" x1="259.37" y1="234.89" x2="334.67" y2="671.32"/><line class="cls-12" x1="259.37" y1="234.89" x2="260.39" y2="240.8"/><line class="cls-12" x1="262.48" y1="252.93" x2="332.6" y2="659.34"/><line class="cls-12" x1="333.65" y1="665.41" x2="334.67" y2="671.32"/><line class="cls-12" x1="1302.81" y1="351.68" x2="1699.29" y2="823.46"/><line class="cls-12" x1="1302.81" y1="351.68" x2="1306.67" y2="356.27"/><line class="cls-12" x1="1314.29" y1="365.35" x2="1691.62" y2="814.33"/><line class="cls-12" x1="1695.43" y1="818.87" x2="1699.29" y2="823.46"/><path class="cls-12" d="M1310.5,330.5" transform="translate(187.27 -8.33)"/></g></svg>