<svg xmlns="http://www.w3.org/2000/svg" viewBox="0 0 1366 768"><defs><style>.cls-1{fill:#0f0756;}.cls-2,.cls-3{fill:#bbbbbc;}.cls-3{stroke:#aaa;stroke-width:21px;}.cls-10,.cls-11,.cls-3,.cls-5,.cls-6,.cls-7,.cls-8,.cls-9{stroke-miterlimit:10;}.cls-4{fill:#754c24;}.cls-10,.cls-11,.cls-5,.cls-6,.cls-7,.cls-8,.cls-9{fill:none;}.cls-10,.cls-5,.cls-6,.cls-7,.cls-8,.cls-9{stroke:#000;}.cls-5{stroke-width:7px;}.cls-6{stroke-width:10px;}.cls-7,.cls-8,.cls-9{stroke-width:8px;}.cls-8{stroke-dasharray:12.31 12.31;}.cls-9{stroke-dasharray:11.85 11.85;}.cls-10{stroke-width:5px;}.cls-11{stroke:#fff;stroke-width:30px;}</style></defs><title>grundstueck</title><g id="Layer_2" data-name="Layer 2"><rect class="cls-1" x="104.56" y="282.7" width="1137.18" height="226.1" transform="translate(-87.49 219.18) rotate(-17.38)"/><rect class="cls-1" x="73.98" y="264" width="817.87" height="94.92" transform="translate(-70.99 158.49) rotate(-17.38)"/><rect class="cls-1" x="96.99" y="280.35" width="547.1" height="59.79" transform="translate(-75.76 124.87) rotate(-17.38)"/><rect class="cls-1" x="90.99" y="246.04" width="522.66" height="44.98" transform="translate(-64.13 117.52) rotate(-17.38)"/><rect class="cls-1" x="82.36" y="245.54" width="369.38" height="26.27" transform="translate(-65.08 91.59) rotate(-17.38)"/><rect class="cls-1" x="64.86" y="244.01" width="285.91" height="46.71" transform="translate(-33.3 29.6) rotate(-7.54)"/><rect class="cls-1" x="328.08" y="224.31" width="393.58" height="64.74" transform="translate(-52.71 168.53) rotate(-17.38)"/><rect class="cls-1" x="820.34" y="299" width="536.62" height="49.8" transform="matrix(0.95, -0.3, 0.3, 0.95, -47.05, 340.02)"/><rect class="cls-1" x="772.93" y="263.6" width="520.54" height="50.74" transform="translate(-39.14 321.86) rotate(-17.38)"/><circle class="cls-2" cx="234.31" cy="442.67" r="80.97"/><line class="cls-3" x1="236.5" y1="504" x2="236.5" y2="597"/><circle class="cls-2" cx="208.15" cy="373.12" r="28.05"/><circle class="cls-2" cx="170.7" cy="401.17" r="28.05"/><circle class="cls-2" cx="161.43" cy="438.62" r="28.05"/><circle class="cls-2" cx="170.7" cy="485.34" r="28.05"/><circle class="cls-2" cx="198.76" cy="504" r="28.05"/><circle class="cls-2" cx="245.48" cy="373.12" r="28.05"/><circle class="cls-2" cx="282.8" cy="391.9" r="28.05"/><circle class="cls-2" cx="304.76" cy="418.87" r="28.58"/><circle class="cls-2" cx="304.76" cy="447.45" r="28.58"/><circle class="cls-2" cx="295.19" cy="485.6" r="28.58"/><circle class="cls-2" cx="257.16" cy="504.62" r="28.58"/><rect class="cls-1" x="511.7" y="200" width="522.66" height="55.8" transform="translate(-32.78 241.35) rotate(-17.38)"/><rect class="cls-1" x="592.99" y="200.03" width="522.66" height="55.8" transform="translate(-29.08 265.63) rotate(-17.38)"/><rect class="cls-1" x="730.31" y="242.17" width="522.66" height="55.8" transform="translate(-35.39 308.58) rotate(-17.38)"/><circle class="cls-2" cx="1113.25" cy="203.7" r="46.4"/><line class="cls-3" x1="1114.5" y1="239" x2="1114.5" y2="292"/><circle class="cls-2" cx="1098.25" cy="163.85" r="16.08"/><circle class="cls-2" cx="1076.8" cy="179.93" r="16.08"/><circle class="cls-2" cx="1071.48" cy="201.38" r="16.08"/><circle class="cls-2" cx="1076.8" cy="228.15" r="16.08"/><circle class="cls-2" cx="1092.87" cy="238.85" r="16.08"/><circle class="cls-2" cx="1119.64" cy="163.85" r="16.08"/><circle class="cls-2" cx="1141.03" cy="174.61" r="16.08"/><circle class="cls-2" cx="1153.61" cy="190.06" r="16.38"/><circle class="cls-2" cx="1153.61" cy="206.44" r="16.38"/><circle class="cls-2" cx="1148.13" cy="228.3" r="16.38"/><circle class="cls-2" cx="1126.34" cy="239.2" r="16.38"/></g><g id="Layer_1" data-name="Layer 1"><line class="cls-4" x1="1398.3" y1="270.88" x2="147.4" y2="673.5"/><line class="cls-5" x1="1398.3" y1="270.88" x2="147.4" y2="673.5"/><line class="cls-6" x1="1398.3" y1="270.88" x2="147.4" y2="673.5"/><line class="cls-7" x1="72.1" y1="243.22" x2="73.12" y2="249.13"/><line class="cls-8" x1="75.21" y1="261.26" x2="145.33" y2="667.67"/><line class="cls-7" x1="146.38" y1="673.74" x2="147.4" y2="679.65"/><line class="cls-7" x1="1115.54" y1="360.01" x2="1119.4" y2="364.6"/><line class="cls-9" x1="1127.02" y1="373.67" x2="1504.35" y2="822.66"/><rect class="cls-10" x="-189.67" y="133.94" width="2272.34" height="28" transform="translate(-10.45 103.3) rotate(-6.21)"/><rect class="cls-10" x="1543.35" y="-128.63" width="28" height="968.06" transform="translate(507.52 1559.35) rotate(-61.77)"/><rect class="cls-10" x="115.8" y="458.19" width="1314.1" height="28" transform="translate(-107.5 259.5) rotate(-17.84)"/><rect class="cls-10" x="115.8" y="458.19" width="1314.1" height="28" transform="translate(-107.5 259.5) rotate(-17.84)"/><rect class="cls-10" x="115.8" y="458.19" width="1314.1" height="28" transform="translate(-107.5 259.5) rotate(-17.84)"/><rect class="cls-10" x="95.75" y="239.99" width="28" height="442.88" transform="translate(-76.86 25.38) rotate(-9.79)"/><rect class="cls-10" x="58.61" y="243.17" width="28" height="6" transform="translate(-40.79 15.93) rotate(-9.79)"/><rect class="cls-10" x="96.27" y="258.26" width="28" height="412.41" transform="matrix(0.99, -0.17, 0.17, 0.99, -77.36, 25.51)"/><rect class="cls-10" x="132.89" y="673.69" width="28" height="6" transform="translate(-112.89 34.82) rotate(-9.79)"/><rect class="cls-10" x="1299.78" y="287.77" width="28" height="616.25" transform="translate(-75.37 984.95) rotate(-40.04)"/><rect class="cls-10" x="1103.47" y="359.3" width="28" height="6" transform="translate(28.9 803.91) rotate(-40.04)"/><rect class="cls-10" x="1301.69" y="304.92" width="28" height="586.48" transform="translate(-76.39 986.71) rotate(-40.04)"/><line class="cls-11" x1="-183" y1="270.88" x2="2076" y2="25"/><line class="cls-11" x1="1130.91" y1="126.42" x2="1983.8" y2="584.37"/><line class="cls-11" x1="1398.3" y1="270.88" x2="147.4" y2="673.5"/><line class="cls-11" x1="1398.3" y1="270.88" x2="147.4" y2="673.5"/><line class="cls-11" x1="1398.3" y1="270.88" x2="147.4" y2="673.5"/><line class="cls-11" x1="72.1" y1="243.22" x2="147.4" y2="679.65"/><line class="cls-11" x1="72.1" y1="243.22" x2="73.12" y2="249.13"/><line class="cls-11" x1="75.21" y1="261.26" x2="145.33" y2="667.67"/><line class="cls-11" x1="146.38" y1="673.74" x2="147.4" y2="679.65"/><line class="cls-11" x1="1115.54" y1="360.01" x2="1512.02" y2="831.79"/><line class="cls-11" x1="1115.54" y1="360.01" x2="1119.4" y2="364.6"/><line class="cls-11" x1="1127.02" y1="373.67" x2="1504.35" y2="822.66"/></g></svg>