<svg id="Layer_1" data-name="Layer 1" xmlns="http://www.w3.org/2000/svg" viewBox="0 0 899.64 729.79"><defs><style>.cls-1{fill:#0f0756;}.cls-2{fill:#fff;}</style></defs><title>mehrFamilienhaus</title><polygon class="cls-1" points="10 703.01 10 57.03 415.82 11.19 415.82 703.01 10 703.01"/><path class="cls-2" d="M687.18,33.59V704.21H301.36v-627L687.18,33.59m20-22.38L281.36,59.31v664.9H707.18v-713Z" transform="translate(-281.36 -11.21)"/><rect class="cls-2" x="159.86" y="520.61" width="106.1" height="192.4"/><rect class="cls-2" x="275.96" y="58.1" width="86.1" height="87.52"/><path class="cls-2" d="M633.43,79.31v67.51H567.32V79.31h66.11m20-20H547.32V166.82H653.43V59.31Z" transform="translate(-281.36 -11.21)"/><rect class="cls-2" x="275.96" y="175.52" width="86.1" height="87.52"/><path class="cls-2" d="M633.43,196.73v67.51H567.32V196.73h66.11m20-20H547.32V284.24H653.43V176.73Z" transform="translate(-281.36 -11.21)"/><rect class="cls-2" x="63.76" y="175.52" width="86.1" height="87.52"/><path class="cls-2" d="M421.22,196.73v67.51h-66.1V196.73h66.1m20-20H335.12V284.24h106.1V176.73Z" transform="translate(-281.36 -11.21)"/><rect class="cls-2" x="275.96" y="292.94" width="86.1" height="87.52"/><path class="cls-2" d="M633.43,314.15v67.51H567.32V314.15h66.11m20-20H547.32V401.66H653.43V294.15Z" transform="translate(-281.36 -11.21)"/><rect class="cls-2" x="63.76" y="292.94" width="86.1" height="87.52"/><path class="cls-2" d="M421.22,314.15v67.51h-66.1V314.15h66.1m20-20H335.12V401.66h106.1V294.15Z" transform="translate(-281.36 -11.21)"/><rect class="cls-2" x="275.96" y="410.36" width="86.1" height="87.52"/><path class="cls-2" d="M633.43,431.57v67.51H567.32V431.57h66.11m20-20H547.32V519.08H653.43V411.57Z" transform="translate(-281.36 -11.21)"/><rect class="cls-2" x="63.76" y="410.36" width="86.1" height="87.52"/><path class="cls-2" d="M421.22,431.57v67.51h-66.1V431.57h66.1m20-20H335.12V519.08h106.1V411.57Z" transform="translate(-281.36 -11.21)"/><polygon class="cls-1" points="491.2 703.01 491.2 23.56 889.64 68.57 889.64 703.01 491.2 703.01"/><path class="cls-2" d="M782.56,46,1161,88.71v615.5H782.56V46m-20-22.38V724.21H1181V70.84L762.56,23.58Z" transform="translate(-281.36 -11.21)"/><rect class="cls-2" x="638.29" y="523.95" width="104.26" height="189.06"/><rect class="cls-2" x="544.03" y="69.63" width="84.26" height="85.65"/><path class="cls-2" d="M899.65,90.84v65.65H835.39V90.84h64.26m20-20H815.39V176.49H919.65V70.84Z" transform="translate(-281.36 -11.21)"/><rect class="cls-2" x="544.03" y="185.02" width="84.26" height="85.65"/><path class="cls-2" d="M899.65,206.22v65.66H835.39V206.22h64.26m20-20H815.39V291.88H919.65V186.22Z" transform="translate(-281.36 -11.21)"/><rect class="cls-2" x="752.55" y="185.02" width="84.26" height="85.65"/><path class="cls-2" d="M1108.17,206.22v65.66h-64.26V206.22h64.26m20-20H1023.91V291.88h104.26V186.22Z" transform="translate(-281.36 -11.21)"/><rect class="cls-2" x="544.03" y="300.4" width="84.26" height="85.65"/><path class="cls-2" d="M899.65,321.61v65.65H835.39V321.61h64.26m20-20H815.39V407.26H919.65V301.61Z" transform="translate(-281.36 -11.21)"/><rect class="cls-2" x="752.55" y="300.4" width="84.26" height="85.65"/><path class="cls-2" d="M1108.17,321.61v65.65h-64.26V321.61h64.26m20-20H1023.91V407.26h104.26V301.61Z" transform="translate(-281.36 -11.21)"/><rect class="cls-2" x="544.03" y="415.78" width="84.26" height="85.65"/><path class="cls-2" d="M899.65,437v65.65H835.39V437h64.26m20-20H815.39V522.64H919.65V417Z" transform="translate(-281.36 -11.21)"/><rect class="cls-2" x="752.55" y="415.78" width="84.26" height="85.65"/><path class="cls-2" d="M1108.17,437v65.65h-64.26V437h64.26m20-20H1023.91V522.64h104.26V417Z" transform="translate(-281.36 -11.21)"/><polygon class="cls-1" points="249.12 719.79 249.12 142.84 586.34 180.93 586.34 719.79 249.12 719.79"/><path class="cls-2" d="M540.48,165.24,857.7,201.07V721H540.48V165.24m-20-22.39V741H877.7V183.2L520.48,142.85Z" transform="translate(-281.36 -11.21)"/><rect class="cls-2" x="373.23" y="568.39" width="89.01" height="161.4"/><rect class="cls-2" x="294.22" y="182" width="69.01" height="70.2"/><path class="cls-2" d="M634.59,203.2v50.2h-49V203.2h49m20-20h-89v90.2h89V183.2Z" transform="translate(-281.36 -11.21)"/><rect class="cls-2" x="294.22" y="280.5" width="69.01" height="70.2"/><path class="cls-2" d="M634.59,301.71V351.9h-49V301.71h49m20-20h-89V371.9h89V281.71Z" transform="translate(-281.36 -11.21)"/><rect class="cls-2" x="472.24" y="280.5" width="69.01" height="70.2"/><path class="cls-2" d="M812.61,301.71V351.9h-49V301.71h49m20-20h-89V371.9h89V281.71Z" transform="translate(-281.36 -11.21)"/><rect class="cls-2" x="294.22" y="379.01" width="69.01" height="70.2"/><path class="cls-2" d="M634.59,400.21v50.2h-49v-50.2h49m20-20h-89v90.2h89v-90.2Z" transform="translate(-281.36 -11.21)"/><rect class="cls-2" x="472.24" y="379.01" width="69.01" height="70.2"/><path class="cls-2" d="M812.61,400.21v50.2h-49v-50.2h49m20-20h-89v90.2h89v-90.2Z" transform="translate(-281.36 -11.21)"/><rect class="cls-2" x="294.22" y="477.51" width="69.01" height="70.2"/><path class="cls-2" d="M634.59,498.72v50.19h-49V498.72h49m20-20h-89v90.19h89V478.72Z" transform="translate(-281.36 -11.21)"/><rect class="cls-2" x="472.24" y="477.51" width="69.01" height="70.2"/><path class="cls-2" d="M812.61,498.72v50.19h-49V498.72h49m20-20h-89v90.19h89V478.72Z" transform="translate(-281.36 -11.21)"/></svg>