<svg id="Layer_1" data-name="Layer 1" xmlns="http://www.w3.org/2000/svg" viewBox="0 0 783 687.41"><defs><style>.cls-1,.cls-2,.cls-4{fill:#fff;stroke:#0f0756;stroke-miterlimit:10;}.cls-1{stroke-width:20px;}.cls-2{stroke-width:15px;}.cls-3{fill:#0f0756;}.cls-4{stroke-width:18px;}</style></defs><title>miete</title><rect class="cls-1" x="131" y="357.41" width="520" height="220"/><circle class="cls-2" cx="391" cy="467.41" r="65"/><path class="cls-3" d="M707.92,494.56a33.09,33.09,0,0,1-15.61,4.22,24.36,24.36,0,0,1-18-7.42c-3.45-3.84-6-9.34-7-16.76h36.21v-6.27H666.33V466c0-1.79.13-3.71.26-5.37h36.85v-6.4h-35.7c1.28-6.78,3.84-12.54,7.68-16.25a22.27,22.27,0,0,1,16.89-7,29.45,29.45,0,0,1,14.33,3.58l2.56-8.44a36.18,36.18,0,0,0-17-4.1,33.76,33.76,0,0,0-25.34,10.62,40.52,40.52,0,0,0-10.49,21.63H647.9v6.4h7.55c-.13,1.79-.25,3.71-.25,5.76v1.92h-7.3v6.27h7.94c1.15,9.21,4.35,16.64,9.21,22C671.45,504,680.66,508,691,508a34.5,34.5,0,0,0,19.07-5.38Z" transform="translate(-292 0.41)"/><rect class="cls-3" x="178.5" y="467.41" width="106" height="17"/><rect class="cls-3" x="497.5" y="467.41" width="106" height="17"/><path class="cls-4" d="M498.56,577H423V518A78.53,78.53,0,0,1,498.56,577Z" transform="translate(-292 0.41)"/><path class="cls-4" d="M943,519.54V577H882.44A78.6,78.6,0,0,1,943,519.54Z" transform="translate(-292 0.41)"/><path class="cls-4" d="M943,357v87.46A78.55,78.55,0,0,1,880.7,357Z" transform="translate(-292 0.41)"/><path class="cls-4" d="M501,357.5A78.49,78.49,0,0,1,423,436V357h78C501,357.17,501,357.33,501,357.5Z" transform="translate(-292 0.41)"/><rect class="cls-1" x="573" y="173.52" width="220" height="520" transform="matrix(0.13, -0.99, 0.99, 0.13, -129.2, 1053.46)"/><circle class="cls-2" cx="391" cy="433.93" r="65"/><path class="cls-3" d="M704.05,464.14a33.15,33.15,0,0,1-16,2.11,24.35,24.35,0,0,1-16.91-9.74c-2.91-4.27-4.72-10.06-4.75-17.55l35.89,4.8.83-6.21-36.78-4.92.31-2.29c.23-1.78.62-3.66,1-5.29l36.52,4.88.85-6.34-35.39-4.73c2.17-6.55,5.47-11.92,9.77-15.09A22.25,22.25,0,0,1,697,399a29.35,29.35,0,0,1,13.73,5.45l3.66-8a36.12,36.12,0,0,0-16.33-6.32,33.77,33.77,0,0,0-26.52,7.17,40.59,40.59,0,0,0-13.27,20.05l-8.37-1.12-.85,6.34,7.48,1c-.36,1.76-.74,3.65-1,5.68l-.25,1.9-7.24-1-.83,6.21,7.87,1.05c-.08,9.28,2.11,17.07,6.21,23,5.37,8.2,14,13.36,24.25,14.73a34.49,34.49,0,0,0,19.61-2.8Z" transform="translate(-292 0.41)"/><rect class="cls-3" x="470.78" y="412.31" width="106" height="17" transform="translate(-231.62 -65.28) rotate(7.61)"/><rect class="cls-3" x="786.97" y="454.58" width="106" height="17" transform="translate(-223.23 -106.81) rotate(7.61)"/><path class="cls-4" d="M485.61,518.11l-74.89-10,7.81-58.47A78.52,78.52,0,0,1,485.61,518.11Z" transform="translate(-292 0.41)"/><path class="cls-4" d="M933.75,520.05l-7.62,57-60-8A78.57,78.57,0,0,1,933.75,520.05Z" transform="translate(-292 0.41)"/><path class="cls-4" d="M955.28,358.94l-11.59,86.69a78.61,78.61,0,0,1-50.16-94.95Z" transform="translate(-292 0.41)"/><path class="cls-4" d="M517.11,300.87a78.48,78.48,0,0,1-87.71,67.46L439.87,290l77.3,10.33A4.26,4.26,0,0,1,517.11,300.87Z" transform="translate(-292 0.41)"/><rect class="cls-1" x="573" y="142.57" width="220" height="520" transform="translate(-176.84 956.25) rotate(-74.77)"/><circle class="cls-2" cx="391" cy="402.98" r="65"/><path class="cls-3" d="M699.81,435.71a33.09,33.09,0,0,1-16.17,0,24.36,24.36,0,0,1-15.47-11.9c-2.32-4.61-3.35-10.59-2.38-18l34.94,9.51,1.64-6-35.8-9.75.6-2.23c.47-1.72,1.1-3.54,1.66-5.11l35.56,9.68,1.68-6.17-34.45-9.38c3-6.21,7-11.09,11.68-13.66a22.24,22.24,0,0,1,18.15-2.36,29.4,29.4,0,0,1,12.89,7.22L719,370a36,36,0,0,0-15.34-8.43,33.73,33.73,0,0,0-27.24,3.59,40.5,40.5,0,0,0-15.81,18.12l-8.15-2.22-1.68,6.17,7.29,2c-.6,1.69-1.22,3.51-1.76,5.49l-.5,1.85-7.05-1.92-1.64,6.05,7.66,2.09c-1.31,9.19-.18,17.2,3.1,23.65,4.23,8.84,12.07,15.09,22.08,17.82a34.51,34.51,0,0,0,19.81-.18Z" transform="translate(-292 0.41)"/><rect class="cls-3" x="473.87" y="360.37" width="106" height="17" transform="translate(-176.61 -125.03) rotate(15.23)"/><rect class="cls-3" x="781.67" y="444.17" width="106" height="17" transform="translate(-143.79 -202.94) rotate(15.23)"/><path class="cls-4" d="M476.14,460.26l-72.9-19.85,15.49-56.92A78.54,78.54,0,0,1,476.14,460.26Z" transform="translate(-292 0.41)"/><path class="cls-4" d="M920.07,521.56,905,577l-58.44-15.91A78.61,78.61,0,0,1,920.07,521.56Z" transform="translate(-292 0.41)"/><path class="cls-4" d="M962.76,364.73l-23,84.38a78.58,78.58,0,0,1-37.14-100.75Z" transform="translate(-292 0.41)"/><path class="cls-4" d="M536.15,249.11a78.49,78.49,0,0,1-95.88,55.24L461,228.14l75.25,20.48A4.37,4.37,0,0,1,536.15,249.11Z" transform="translate(-292 0.41)"/><rect class="cls-1" x="573" y="114.69" width="220" height="520" transform="translate(-219.45 859.08) rotate(-67.16)"/><circle class="cls-2" cx="391" cy="375.1" r="65"/><path class="cls-3" d="M695.27,409.77a33.22,33.22,0,0,1-16-2.17,24.37,24.37,0,0,1-13.75-13.85c-1.69-4.88-1.91-10.94,0-18.17l33.37,14.05,2.43-5.78-34.2-14.4.9-2.13c.69-1.65,1.56-3.37,2.32-4.85l34,14.31,2.49-5.9L673.89,357c3.81-5.75,8.4-10.07,13.38-12a22.28,22.28,0,0,1,18.3.06A29.56,29.56,0,0,1,717.39,354l5.63-6.79a36.12,36.12,0,0,0-14.09-10.38,33.72,33.72,0,0,0-27.48-.05,40.57,40.57,0,0,0-18.06,15.86l-7.79-3.28-2.48,5.9,7,2.93c-.82,1.6-1.67,3.32-2.47,5.21l-.75,1.77-6.72-2.84-2.44,5.78,7.32,3.08c-2.52,8.94-2.45,17-.06,23.86,3,9.33,10,16.56,19.52,20.59A34.49,34.49,0,0,0,694.15,418Z" transform="translate(-292 0.41)"/><rect class="cls-3" x="479.71" y="312.11" width="106" height="17" transform="translate(-125.76 -181.25) rotate(22.84)"/><rect class="cls-3" x="773.69" y="435.95" width="106" height="17" transform="translate(-54.63 -285.66) rotate(22.84)"/><path class="cls-4" d="M470.32,404.47l-69.63-29.34,22.9-54.36A78.51,78.51,0,0,1,470.32,404.47Z" transform="translate(-292 0.41)"/><path class="cls-4" d="M902.21,524.05l-22.3,53L824.1,553.49A78.59,78.59,0,0,1,902.21,524.05Z" transform="translate(-292 0.41)"/><path class="cls-4" d="M965.31,374.25l-33.95,80.6A78.54,78.54,0,0,1,907.9,350.07Z" transform="translate(-292 0.41)"/><path class="cls-4" d="M557.78,203.13a78.49,78.49,0,0,1-102.35,42.05l30.66-72.79L558,202.66C557.91,202.82,557.85,203,557.78,203.13Z" transform="translate(-292 0.41)"/><rect class="cls-1" x="573" y="90.39" width="220" height="520" transform="translate(-257.24 761.94) rotate(-59.54)"/><circle class="cls-2" cx="391" cy="350.79" r="65"/><path class="cls-3" d="M690.51,386.78a33,33,0,0,1-15.59-4.28A24.32,24.32,0,0,1,663.12,367c-1-5.06-.45-11.1,2.43-18l31.22,18.36,3.18-5.41-32-18.81,1.17-2c.9-1.54,2-3.13,2.94-4.49l31.77,18.67,3.24-5.51-30.77-18.1c4.54-5.19,9.67-8.86,14.86-10.11A22.26,22.26,0,0,1,709.29,324a29.36,29.36,0,0,1,10.54,10.35l6.49-6a36.23,36.23,0,0,0-12.6-12.16,33.76,33.76,0,0,0-27.22-3.69,40.49,40.49,0,0,0-20,13.33l-7.28-4.29L656,327.12l6.51,3.83c-1,1.48-2.1,3.07-3.13,4.84l-1,1.65-6.29-3.7-3.18,5.41,6.85,4c-3.68,8.52-4.69,16.55-3.22,23.64,1.75,9.64,7.68,17.73,16.62,23a34.5,34.5,0,0,0,19.17,5Z" transform="translate(-292 0.41)"/><rect class="cls-3" x="488.2" y="268.37" width="106" height="17" transform="matrix(0.86, 0.51, -0.51, 0.86, -76.98, -235.72)"/><rect class="cls-3" x="763.18" y="430.06" width="106" height="17" transform="translate(42.93 -352.79) rotate(30.46)"/><path class="cls-4" d="M468.25,351.72l-65.13-38.3L433,262.57A78.51,78.51,0,0,1,468.25,351.72Z" transform="translate(-292 0.41)"/><path class="cls-4" d="M880.49,527.47,851.36,577l-52.2-30.7A78.61,78.61,0,0,1,880.49,527.47Z" transform="translate(-292 0.41)"/><path class="cls-4" d="M962.88,387.36l-44.33,75.39a78.52,78.52,0,0,1-15.3-98.28,79.56,79.56,0,0,1,5.93-8.69Z" transform="translate(-292 0.41)"/><path class="cls-4" d="M581.62,163.74a78.49,78.49,0,0,1-107,28.12l40-68.09,67.22,39.54C581.79,163.46,581.7,163.6,581.62,163.74Z" transform="translate(-292 0.41)"/><rect class="cls-1" x="573" y="70.08" width="220" height="520" transform="translate(-290.02 664.63) rotate(-51.93)"/><circle class="cls-2" cx="391" cy="330.48" r="65"/><path class="cls-3" d="M685.62,367.14a33.13,33.13,0,0,1-14.89-6.3,24.33,24.33,0,0,1-9.63-17c-.35-5.15,1-11.05,4.8-17.52l28.5,22.32,3.87-4.93-29.21-22.89,1.42-1.81c1.1-1.41,2.39-2.84,3.52-4.07l29,22.72,3.94-5-28.1-22c5.19-4.55,10.75-7.5,16.07-8.06a22.26,22.26,0,0,1,17.63,4.88,29.48,29.48,0,0,1,9.08,11.65l7.22-5.07A36.31,36.31,0,0,0,718,300.31a33.77,33.77,0,0,0-26.5-7.26,40.48,40.48,0,0,0-21.6,10.56l-6.65-5.21-4,5,6,4.66c-1.21,1.33-2.49,2.77-3.75,4.38L660.29,314l-5.74-4.5-3.87,4.94,6.25,4.89c-4.77,8-6.83,15.78-6.32,23,.46,9.79,5.27,18.59,13.43,25a34.49,34.49,0,0,0,18.33,7.52Z" transform="translate(-292 0.41)"/><rect class="cls-3" x="499.19" y="229.91" width="106" height="17" transform="translate(-27.5 -289.37) rotate(38.07)"/><rect class="cls-3" x="750.32" y="426.62" width="106" height="17" transform="translate(147.22 -402.38) rotate(38.07)"/><path class="cls-4" d="M470,302.94l-59.48-46.59,36.37-46.44A78.53,78.53,0,0,1,470,302.94Z" transform="translate(-292 0.41)"/><path class="cls-4" d="M855.29,531.76,819.85,577l-47.67-37.34A78.6,78.6,0,0,1,855.29,531.76Z" transform="translate(-292 0.41)"/><path class="cls-4" d="M955.51,403.81l-53.93,68.85a78.54,78.54,0,0,1-2.14-99.44,79.94,79.94,0,0,1,7-7.83Z" transform="translate(-292 0.41)"/><path class="cls-4" d="M607.24,131.64a78.49,78.49,0,0,1-109.8,13.7l48.71-62.19,61.39,48.1A3.68,3.68,0,0,1,607.24,131.64Z" transform="translate(-292 0.41)"/><rect class="cls-1" x="573" y="54.12" width="220" height="520" transform="translate(-317.14 566.91) rotate(-44.31)"/><circle class="cls-2" cx="391" cy="314.53" r="65"/><path class="cls-3" d="M680.69,351.2A33,33,0,0,1,666.76,343a24.41,24.41,0,0,1-7.3-18.1c.34-5.15,2.49-10.82,7.09-16.73l25.29,25.9,4.49-4.38L670.4,303.12l1.66-1.61c1.28-1.25,2.74-2.5,4-3.57l25.74,26.37,4.58-4.47-24.94-25.55c5.75-3.82,11.66-6,17-5.85a22.28,22.28,0,0,1,16.84,7.16,29.44,29.44,0,0,1,7.45,12.76l7.83-4.07a36.11,36.11,0,0,0-9-15,33.8,33.8,0,0,0-25.3-10.71,40.51,40.51,0,0,0-22.8,7.6l-5.91-6L663,284.57l5.28,5.4c-1.37,1.16-2.83,2.41-4.3,3.85l-1.37,1.34-5.1-5.23L653,294.32l5.55,5.68c-5.79,7.25-8.87,14.73-9.32,22-.83,9.77,2.76,19.13,10,26.55a34.55,34.55,0,0,0,17.18,9.88Z" transform="translate(-292 0.41)"/><rect class="cls-3" x="512.49" y="197.43" width="106" height="17" transform="translate(25.79 -342.14) rotate(45.69)"/><rect class="cls-3" x="735.34" y="425.68" width="106" height="17" transform="translate(256.27 -432.8) rotate(45.69)"/><path class="cls-4" d="M475.44,259l-52.78-54.07,42.21-41.21A78.53,78.53,0,0,1,475.44,259Z" transform="translate(-292 0.41)"/><path class="cls-4" d="M827,536.86,785.93,577l-42.31-43.33A78.6,78.6,0,0,1,827,536.86Z" transform="translate(-292 0.41)"/><path class="cls-4" d="M943.34,423.31l-62.58,61.1a78.6,78.6,0,0,1,19.06-105.68Z" transform="translate(-292 0.41)"/><path class="cls-4" d="M634.2,107.4a78.49,78.49,0,0,1-110.65-1l56.52-55.18L634.55,107A4,4,0,0,1,634.2,107.4Z" transform="translate(-292 0.41)"/><rect class="cls-1" x="573" y="42.8" width="220" height="520" transform="translate(-337.57 468.61) rotate(-36.7)"/><circle class="cls-2" cx="391" cy="303.21" r="65"/><path class="cls-3" d="M675.8,339.25a33.18,33.18,0,0,1-12.72-10,24.35,24.35,0,0,1-4.83-18.91c1-5.06,3.89-10.4,9.23-15.65l21.64,29,5-3.75L672,290.23l1.85-1.38c1.44-1.07,3.06-2.11,4.46-3l22,29.54,5.13-3.82L684.1,283c6.2-3,12.35-4.42,17.62-3.56a22.27,22.27,0,0,1,15.74,9.34,29.39,29.39,0,0,1,5.69,13.62l8.3-3a36.15,36.15,0,0,0-6.88-16.09,33.75,33.75,0,0,0-23.66-14,40.46,40.46,0,0,0-23.61,4.51l-5-6.77-5.14,3.82,4.52,6.06c-1.52,1-3.13,2-4.77,3.24l-1.54,1.15L661,275.45l-5,3.75,4.74,6.37C654,292,649.93,299,648.53,306.1c-2.12,9.57.2,19.33,6.4,27.64a34.51,34.51,0,0,0,15.71,12.08Z" transform="translate(-292 0.41)"/><rect class="cls-3" x="527.86" y="171.5" width="106" height="17" transform="translate(86.04 -392.89) rotate(53.3)"/><rect class="cls-3" x="718.51" y="427.26" width="106" height="17" transform="translate(367.81 -442.83) rotate(53.3)"/><path class="cls-4" d="M484.58,220.66l-45.16-60.58,47.3-35.26A78.53,78.53,0,0,1,484.58,220.66Z" transform="translate(-292 0.41)"/><path class="cls-4" d="M796.26,542.66,750.19,577,714,528.44A78.6,78.6,0,0,1,796.26,542.66Z" transform="translate(-292 0.41)"/><path class="cls-4" d="M926.58,445.52l-70.12,52.27a78.51,78.51,0,0,1,32.89-102.22Z" transform="translate(-292 0.41)"/><path class="cls-4" d="M662,91.44A78.51,78.51,0,0,1,552.48,75.81L615.81,28.6l46.61,62.53Z" transform="translate(-292 0.41)"/><rect class="cls-1" x="573" y="36.31" width="220" height="520" transform="translate(-349.91 369.8) rotate(-29.09)"/><circle class="cls-2" cx="391" cy="296.72" r="65"/><path class="cls-3" d="M671,331.49a33.18,33.18,0,0,1-11.28-11.59,24.38,24.38,0,0,1-2.29-19.38c1.68-4.88,5.24-9.79,11.23-14.29l17.6,31.64,5.48-3.05-18-32.43,2-1.12c1.57-.87,3.31-1.69,4.82-2.38l17.92,32.2,5.59-3.11-17.36-31.2c6.55-2.18,12.83-2.74,17.94-1.19A22.27,22.27,0,0,1,719,286.93a29.46,29.46,0,0,1,3.84,14.26l8.62-1.86a36.27,36.27,0,0,0-4.69-16.87,33.75,33.75,0,0,0-21.6-17,40.52,40.52,0,0,0-24,1.35l-4.11-7.39-5.59,3.11,3.67,6.6c-1.63.76-3.37,1.59-5.16,2.58l-1.68.94-3.55-6.38-5.47,3,3.86,6.93c-7.49,5.49-12.43,11.9-14.76,18.75-3.37,9.2-2.37,19.18,2.67,28.24a34.48,34.48,0,0,0,14,14.05Z" transform="translate(-292 0.41)"/><rect class="cls-3" x="545.04" y="152.56" width="106" height="17" transform="translate(156.07 -439.44) rotate(60.91)"/><rect class="cls-3" x="700.11" y="431.33" width="106" height="17" transform="translate(479.37 -431.71) rotate(60.91)"/><path class="cls-4" d="M497.21,188.61l-36.73-66L512,93.9A78.53,78.53,0,0,1,497.21,188.61Z" transform="translate(-292 0.41)"/><path class="cls-4" d="M763.48,549.07,713.26,577l-29.44-52.92A78.6,78.6,0,0,1,763.48,549.07Z" transform="translate(-292 0.41)"/><path class="cls-4" d="M905.52,470.05l-76.43,42.52a78.55,78.55,0,0,1,46.14-97Z" transform="translate(-292 0.41)"/><path class="cls-4" d="M690.22,84A78.5,78.5,0,0,1,583.71,54l69-38.4,37.91,68.15Z" transform="translate(-292 0.41)"/><rect class="cls-1" x="573" y="34.78" width="220" height="520" transform="translate(-352.5 270.87) rotate(-21.47)"/><circle class="cls-2" cx="391" cy="295.19" r="65"/><path class="cls-3" d="M666.47,328.06a33.19,33.19,0,0,1-9.64-13,24.36,24.36,0,0,1,.3-19.52c2.31-4.61,6.49-9,13-12.67l13.26,33.69,5.83-2.29-13.58-34.54,2.15-.84c1.67-.66,3.5-1.24,5.09-1.73l13.49,34.3,6-2.35-13.07-33.22c6.78-1.29,13.07-1,17.93,1.2A22.26,22.26,0,0,1,720,290.25a29.39,29.39,0,0,1,1.91,14.65l8.79-.71a36.16,36.16,0,0,0-2.41-17.34,33.75,33.75,0,0,0-19.16-19.69,40.51,40.51,0,0,0-24-1.85L682,257.45l-6,2.34,2.76,7c-1.71.53-3.54,1.12-5.45,1.87l-1.78.71-2.68-6.8-5.83,2.3,2.91,7.39c-8.15,4.44-13.9,10.14-17.12,16.62-4.56,8.68-4.88,18.7-1.09,28.35a34.62,34.62,0,0,0,12,15.78Z" transform="translate(-292 0.41)"/><rect class="cls-3" x="563.71" y="140.96" width="106" height="17" transform="matrix(0.37, 0.93, -0.93, 0.37, 238.05, -478.75)"/><rect class="cls-3" x="680.47" y="437.82" width="106" height="17" transform="translate(588.34 -399.21) rotate(68.53)"/><path class="cls-4" d="M513.12,163.41,485.46,93.09l54.9-21.59A78.53,78.53,0,0,1,513.12,163.41Z" transform="translate(-292 0.41)"/><path class="cls-4" d="M729.28,556l-53.47,21-22.17-56.36A78.61,78.61,0,0,1,729.28,556Z" transform="translate(-292 0.41)"/><path class="cls-4" d="M880.54,496.47l-81.39,32a78.63,78.63,0,0,1,58.58-90Z" transform="translate(-292 0.41)"/><path class="cls-4" d="M718.28,85.33A78.48,78.48,0,0,1,616.69,41.47l73.5-28.91,28.55,72.58Z" transform="translate(-292 0.41)"/><rect class="cls-1" x="573" y="38.22" width="220" height="520" transform="translate(-343.55 172.67) rotate(-13.86)"/><circle class="cls-2" cx="391" cy="298.63" r="65"/><path class="cls-3" d="M662.21,329a33.29,33.29,0,0,1-7.84-14.15,24.37,24.37,0,0,1,2.89-19.3c2.9-4.27,7.62-8.07,14.58-10.84l8.68,35.16,6.08-1.5-8.88-36,2.24-.56c1.74-.43,3.63-.76,5.27-1l8.83,35.78,6.21-1.54-8.55-34.66c6.89-.38,13.1.73,17.62,3.57a22.24,22.24,0,0,1,10.88,14.71,29.54,29.54,0,0,1,0,14.77l8.8.46a36.07,36.07,0,0,0-.09-17.5,33.72,33.72,0,0,0-16.38-22.06,40.47,40.47,0,0,0-23.51-5l-2-8.2-6.21,1.53,1.81,7.33c-1.77.3-3.67.65-5.66,1.14l-1.86.46-1.75-7.09-6.09,1.5,1.91,7.71C660.45,277,654,281.88,650,287.89c-5.67,8-7.32,17.88-4.83,27.95a34.41,34.41,0,0,0,9.79,17.22Z" transform="translate(-292 0.41)"/><rect class="cls-3" x="583.55" y="136.9" width="106" height="17" transform="translate(333.25 -507.04) rotate(76.14)"/><rect class="cls-3" x="659.95" y="446.61" width="106" height="17" transform="translate(692.06 -345.68) rotate(76.14)"/><path class="cls-4" d="M532,145.5l-18.1-73.36L571.2,58A78.52,78.52,0,0,1,532,145.5Z" transform="translate(-292 0.41)"/><path class="cls-4" d="M694.26,563.24,638.47,577,624,518.2A78.6,78.6,0,0,1,694.26,563.24Z" transform="translate(-292 0.41)"/><path class="cls-4" d="M852.07,524.31l-84.91,21a78.59,78.59,0,0,1,70-81.44Z" transform="translate(-292 0.41)"/><path class="cls-4" d="M745.72,95.29a78.5,78.5,0,0,1-94.89-56.93l76.7-18.92,18.68,75.72Z" transform="translate(-292 0.41)"/><rect class="cls-1" x="573" y="46.58" width="220" height="520" transform="translate(-321.29 76.5) rotate(-6.24)"/><circle class="cls-2" cx="391" cy="306.99" r="65"/><path class="cls-3" d="M658.31,334.35a33.12,33.12,0,0,1-5.89-15.06,24.37,24.37,0,0,1,5.41-18.75c3.45-3.85,8.64-7,15.9-8.81l3.94,36,6.23-.68-4-36.89,2.29-.25c1.78-.19,3.7-.27,5.37-.32l4,36.63,6.36-.7L694,290c6.88.54,12.89,2.46,17,5.87a22.26,22.26,0,0,1,8.84,16,29.44,29.44,0,0,1-2,14.64l8.67,1.63a36.21,36.21,0,0,0,2.22-17.37,33.74,33.74,0,0,0-13.31-24,40.55,40.55,0,0,0-22.64-8.08l-.92-8.4-6.36.7.82,7.5c-1.8.07-3.72.16-5.76.38l-1.91.21-.79-7.26-6.23.68.86,7.9c-9,2.14-16.07,6.13-20.88,11.55-6.68,7.16-9.62,16.75-8.49,27.06a34.45,34.45,0,0,0,7.42,18.37Z" transform="translate(-292 0.41)"/><rect class="cls-3" x="604.2" y="140.45" width="106" height="17" transform="translate(441.8 -520.15) rotate(83.76)"/><rect class="cls-3" x="638.9" y="457.56" width="106" height="17" transform="translate(787.94 -272.01) rotate(83.76)"/><path class="cls-4" d="M553.59,135.2l-8.21-75.12L604,53.67A78.52,78.52,0,0,1,553.59,135.2Z" transform="translate(-292 0.41)"/><path class="cls-4" d="M659.05,570.75,601.93,577l-6.59-60.2A78.6,78.6,0,0,1,659.05,570.75Z" transform="translate(-292 0.41)"/><path class="cls-4" d="M820.62,553.07l-86.94,9.52a78.53,78.53,0,0,1,69.65-71,79.37,79.37,0,0,1,10.52-.45Z" transform="translate(-292 0.41)"/><path class="cls-4" d="M772.06,113.75a78.5,78.5,0,0,1-86.51-69l78.52-8.59,8.48,77.53Z" transform="translate(-292 0.41)"/><rect class="cls-1" x="423" y="209.71" width="520" height="220" transform="translate(55.05 995.27) rotate(-88.63)"/><circle class="cls-2" cx="391" cy="320.11" r="65"/><path class="cls-3" d="M654.85,344A33,33,0,0,1,651,328.25a24.29,24.29,0,0,1,7.85-17.86c3.92-3.36,9.48-5.79,16.92-6.63l-.87,36.2,6.27.15.89-37.1,2.31.05c1.79.05,3.7.22,5.36.39l-.88,36.84,6.4.16.85-35.69c6.75,1.44,12.45,4.13,16.06,8.06a22.29,22.29,0,0,1,6.64,17.06,29.59,29.59,0,0,1-3.92,14.24l8.37,2.76A36.14,36.14,0,0,0,727.77,330a33.78,33.78,0,0,0-10-25.59,40.56,40.56,0,0,0-21.38-11l.21-8.45-6.4-.15-.18,7.55c-1.79-.18-3.71-.34-5.76-.39l-1.91-.05.17-7.3-6.27-.15-.19,7.94c-9.23.93-16.74,3.95-22.22,8.68-7.57,6.22-11.76,15.34-12,25.7a34.59,34.59,0,0,0,4.92,19.2Z" transform="translate(-292 0.41)"/><rect class="cls-3" x="625.32" y="151.55" width="106" height="17" transform="translate(562.55 -513.84) rotate(91.37)"/><rect class="cls-3" x="617.69" y="470.46" width="106" height="17" transform="translate(873.55 -179.67) rotate(91.37)"/><path class="cls-4" d="M577.44,132.69l1.81-75.54,59,1.41A78.53,78.53,0,0,1,577.44,132.69Z" transform="translate(-292 0.41)"/><path class="cls-4" d="M624.26,578.37,566.81,577l1.45-60.54A78.62,78.62,0,0,1,624.26,578.37Z" transform="translate(-292 0.41)"/><path class="cls-4" d="M786.75,582.26l-87.44-2.09A78.52,78.52,0,0,1,777.76,519a80.18,80.18,0,0,1,10.48,1Z" transform="translate(-292 0.41)"/><path class="cls-4" d="M796.82,140.38a78.5,78.5,0,0,1-76.6-79.86l79,1.89-1.87,78Z" transform="translate(-292 0.41)"/><ellipse class="cls-3" cx="391.5" cy="656.91" rx="391.5" ry="30.5"/></svg>