<svg id="Layer_1" data-name="Layer 1" xmlns="http://www.w3.org/2000/svg" viewBox="0 0 456 456"><defs><style>.cls-1{fill:#0f0756;}</style></defs><title>noIcon</title><path class="cls-1" d="M681,121a207.72,207.72,0,0,1,121.42,39.12L681,281.54,559.58,160.12A207.72,207.72,0,0,1,681,121m0-20a227.13,227.13,0,0,0-151.34,57.49L681,309.82,832.34,158.49A227.13,227.13,0,0,0,681,101Z" transform="translate(-453 -101)"/><path class="cls-1" d="M513.37,205.84,635,327.5,512.12,450.42a208,208,0,0,1,1.25-244.58m-1.47-29.77a228,228,0,0,0-1.41,304.27L663.32,327.5,511.9,176.07Z" transform="translate(-453 -101)"/><path class="cls-1" d="M848.63,205.84A208,208,0,0,1,849.46,451l-123-123L848.63,205.84m1.47-29.77L698.18,328,851,480.87a228,228,0,0,0-.94-304.8Z" transform="translate(-453 -101)"/><path class="cls-1" d="M680.5,374,803.58,497a208,208,0,0,1-245.74-.41L680.5,374m0-28.28L528.07,498.1a228,228,0,0,0,305.33.47L680.5,345.68Z" transform="translate(-453 -101)"/></svg>