<svg id="Layer_1" data-name="Layer 1" xmlns="http://www.w3.org/2000/svg" xmlns:xlink="http://www.w3.org/1999/xlink" viewBox="0 0 647 661"><defs><style>.cls-1{fill:none;}.cls-2,.cls-5{fill:#0f0756;}.cls-2,.cls-4{stroke:#0f0756;stroke-miterlimit:10;}.cls-2{stroke-width:5px;}.cls-3{fill:#fff;}.cls-4{stroke-width:21px;fill:url(#New_Pattern);}</style><pattern id="New_Pattern" data-name="New Pattern" width="134" height="104" patternUnits="userSpaceOnUse" viewBox="0 0 134 104"><rect class="cls-1" width="134" height="104"/><line class="cls-2" x1="30.87" y1="16.39" x2="1175.13" y2="711.61"/><line class="cls-2" x1="-103.13" y1="16.39" x2="1041.13" y2="711.61"/><line class="cls-2" x1="-237.13" y1="16.39" x2="907.13" y2="711.61"/><line class="cls-2" x1="-371.13" y1="16.39" x2="773.13" y2="711.61"/><line class="cls-2" x1="-505.13" y1="16.39" x2="639.13" y2="711.61"/><line class="cls-2" x1="-639.13" y1="16.39" x2="505.13" y2="711.61"/><line class="cls-2" x1="-773.13" y1="16.39" x2="371.13" y2="711.61"/><line class="cls-2" x1="-907.13" y1="16.39" x2="237.13" y2="711.61"/><line class="cls-2" x1="-1041.13" y1="16.39" x2="103.13" y2="711.61"/><line class="cls-2" x1="30.87" y1="-87.61" x2="1175.13" y2="607.61"/><line class="cls-2" x1="-103.13" y1="-87.61" x2="1041.13" y2="607.61"/><line class="cls-2" x1="-237.13" y1="-87.61" x2="907.13" y2="607.61"/><line class="cls-2" x1="-371.13" y1="-87.61" x2="773.13" y2="607.61"/><line class="cls-2" x1="-505.13" y1="-87.61" x2="639.13" y2="607.61"/><line class="cls-2" x1="-639.13" y1="-87.61" x2="505.13" y2="607.61"/><line class="cls-2" x1="-773.13" y1="-87.61" x2="371.13" y2="607.61"/><line class="cls-2" x1="-907.13" y1="-87.61" x2="237.13" y2="607.61"/><line class="cls-2" x1="-1041.13" y1="-87.61" x2="103.13" y2="607.61"/><line class="cls-2" x1="30.87" y1="-191.61" x2="1175.13" y2="503.61"/><line class="cls-2" x1="-103.13" y1="-191.61" x2="1041.13" y2="503.61"/><line class="cls-2" x1="-237.13" y1="-191.61" x2="907.13" y2="503.61"/><line class="cls-2" x1="-371.13" y1="-191.61" x2="773.13" y2="503.61"/><line class="cls-2" x1="-505.13" y1="-191.61" x2="639.13" y2="503.61"/><line class="cls-2" x1="-639.13" y1="-191.61" x2="505.13" y2="503.61"/><line class="cls-2" x1="-773.13" y1="-191.61" x2="371.13" y2="503.61"/><line class="cls-2" x1="-907.13" y1="-191.61" x2="237.13" y2="503.61"/><line class="cls-2" x1="-1041.13" y1="-191.61" x2="103.13" y2="503.61"/><line class="cls-2" x1="30.87" y1="-295.61" x2="1175.13" y2="399.61"/><line class="cls-2" x1="-103.13" y1="-295.61" x2="1041.13" y2="399.61"/><line class="cls-2" x1="-237.13" y1="-295.61" x2="907.13" y2="399.61"/><line class="cls-2" x1="-371.13" y1="-295.61" x2="773.13" y2="399.61"/><line class="cls-2" x1="-505.13" y1="-295.61" x2="639.13" y2="399.61"/><line class="cls-2" x1="-639.13" y1="-295.61" x2="505.13" y2="399.61"/><line class="cls-2" x1="-773.13" y1="-295.61" x2="371.13" y2="399.61"/><line class="cls-2" x1="-907.13" y1="-295.61" x2="237.13" y2="399.61"/><line class="cls-2" x1="-1041.13" y1="-295.61" x2="103.13" y2="399.61"/><line class="cls-2" x1="30.87" y1="-399.61" x2="1175.13" y2="295.61"/><line class="cls-2" x1="-103.13" y1="-399.61" x2="1041.13" y2="295.61"/><line class="cls-2" x1="-237.13" y1="-399.61" x2="907.13" y2="295.61"/><line class="cls-2" x1="-371.13" y1="-399.61" x2="773.13" y2="295.61"/><line class="cls-2" x1="-505.13" y1="-399.61" x2="639.13" y2="295.61"/><line class="cls-2" x1="-639.13" y1="-399.61" x2="505.13" y2="295.61"/><line class="cls-2" x1="-773.13" y1="-399.61" x2="371.13" y2="295.61"/><line class="cls-2" x1="-907.13" y1="-399.61" x2="237.13" y2="295.61"/><line class="cls-2" x1="-1041.13" y1="-399.61" x2="103.13" y2="295.61"/><line class="cls-2" x1="30.87" y1="-503.61" x2="1175.13" y2="191.61"/><line class="cls-2" x1="-103.13" y1="-503.61" x2="1041.13" y2="191.61"/><line class="cls-2" x1="-237.13" y1="-503.61" x2="907.13" y2="191.61"/><line class="cls-2" x1="-371.13" y1="-503.61" x2="773.13" y2="191.61"/><line class="cls-2" x1="-505.13" y1="-503.61" x2="639.13" y2="191.61"/><line class="cls-2" x1="-639.13" y1="-503.61" x2="505.13" y2="191.61"/><line class="cls-2" x1="-773.13" y1="-503.61" x2="371.13" y2="191.61"/><line class="cls-2" x1="-907.13" y1="-503.61" x2="237.13" y2="191.61"/><line class="cls-2" x1="-1041.13" y1="-503.61" x2="103.13" y2="191.61"/><line class="cls-2" x1="30.87" y1="-607.61" x2="1175.13" y2="87.61"/><line class="cls-2" x1="-103.13" y1="-607.61" x2="1041.13" y2="87.61"/><line class="cls-2" x1="-237.13" y1="-607.61" x2="907.13" y2="87.61"/><line class="cls-2" x1="-371.13" y1="-607.61" x2="773.13" y2="87.61"/><line class="cls-2" x1="-505.13" y1="-607.61" x2="639.13" y2="87.61"/><line class="cls-2" x1="-639.13" y1="-607.61" x2="505.13" y2="87.61"/><line class="cls-2" x1="-773.13" y1="-607.61" x2="371.13" y2="87.61"/><line class="cls-2" x1="-907.13" y1="-607.61" x2="237.13" y2="87.61"/><line class="cls-2" x1="-1041.13" y1="-607.61" x2="103.13" y2="87.61"/></pattern></defs><title>qmIcon</title><path class="cls-3" d="M1074,706H427V45h647ZM798.43,566v.07h106.8q60.51,0,121-.07a9.55,9.55,0,0,0,4.37-.8c5-2.68,6.41-7.44,6.41-12.65q0-224.23.07-448.47c0-4.08-1.28-8-4-10.11a19.93,19.93,0,0,0-11.39-3.93c-53.65-.25-107.31-.17-161-.18l-205.92,0c-27,0-54.05-.23-81.07.17-7.47.11-13.11,3.57-13.1,12.83q.23,226,.09,451.93c0,7.87,3.26,11.22,11,11.23Zm196.34,67,1,1.39c-2,1.68-4,3.31-6,5-5.67,5-6.69,10.48-2.4,17.22a10.06,10.06,0,0,0,14.33,2.65,79.81,79.81,0,0,0,8.48-7.11c4.74-4.52,9.32-9.21,13.94-13.86,2-2,3.61-4.79,6-6,4.55-2.4,4.91-7,6.84-10.8a3.28,3.28,0,0,0-.39-2.52c-1.69-3.11-3.14-6.11-6-8.72-9.07-8.17-17.45-17.1-26.11-25.72-3.24-3.22-10.17-4.17-13.89-2-7.24,4.19-7.59,14.64-1.27,19.82,2.32,1.9,4.39,4.1,7,6.57H573c2-2.39,3.41-4.41,5.18-6,5.61-4.91,7.38-9.38,3.48-16.57-2.68-4.94-12.3-7.06-16.58-3.2-4.7,4.24-9,8.86-13.53,13.32-5.35,5.3-10.53,10.8-16.1,15.86-4,3.62-5.21,9.57-1.74,14a150.07,150.07,0,0,0,10.07,11.48c3.41,3.57,7,7,10.63,10.32,4,3.74,8.24,7.27,12.19,11.09,3.11,3,6.68,2.66,9.89,1.09A12.08,12.08,0,0,0,583.72,650c.36-4.69-2.23-7.69-5.12-10.7-1.75-1.82-3.43-3.72-5.72-6.21ZM494.5,553.87l-2.29,1.9c-1.37-2.34-2.4-5-4.2-6.94s-4.19-3.19-6.47-4.52c-5.23-3.06-13.21,1.24-14.6,7.06-2.29,9.52,4.93,13.78,9.91,19.25,3.06,3.36,6.72,6.17,10,9.34,4.53,4.38,8.89,8.94,13.44,13.28,2.35,2.25,9.39,2.16,11.87,0,2.88-2.57,5.65-5.27,8.45-7.94,3.09-2.94,6.19-5.88,9.22-8.89,3.53-3.51,7.2-6.91,10.4-10.7a36.75,36.75,0,0,0,6-9.45c.61-1.48-1.09-3.87-1.62-5.87-1.18-4.52-4.91-6.39-8.73-7.19-4.41-.92-8,1.41-10.86,4.92-1.78,2.16-4.11,3.86-6.9,6.41V132l.86-.62c1.66,1.71,3.23,3.52,5,5.1,2.45,2.19,4.31,5.28,8.23,5.33s7.45.22,10.5-3.36c3.32-3.88,4.32-11.51.72-15.44-4.41-4.81-9.12-9.35-13.7-14-5.11-5.19-10.33-10.27-15.31-15.57-3.25-3.45-13.19-3.55-16.41,0q-4.23,4.68-8.69,9.16c-2.51,2.51-5.23,4.81-7.76,7.31-3,3-5.72,6.32-9,9-4.85,4.08-6.81,8.94-5.6,15.16a10.1,10.1,0,0,0,8.21,7.61c5.51.64,10.06-.49,13.28-5.61,1.26-2,3.56-3.38,6-5.59Z" transform="translate(-427 -45)"/><path class="cls-4" d="M816.43,558H589.75c-7.72,0-11-3.36-11-11.23q0-226-.09-451.93c0-9.26,5.63-12.72,13.1-12.83,27-.4,54.05-.17,81.07-.17l205.92,0c53.66,0,107.32-.07,161,.18A19.93,19.93,0,0,1,1051.13,86c2.69,2.08,4,6,4,10.11q-.11,224.24-.07,448.47c0,5.21-1.4,10-6.41,12.65a9.55,9.55,0,0,1-4.37.8q-60.51.09-121,.07H816.43Z" transform="translate(-427 -45)"/><path class="cls-5" d="M994.77,633H572.88c2.29,2.49,4,4.39,5.72,6.21,2.89,3,5.48,6,5.12,10.7a12.08,12.08,0,0,1-7.21,10.44c-3.21,1.57-6.78,1.93-9.89-1.09-4-3.82-8.17-7.35-12.19-11.09-3.61-3.37-7.22-6.75-10.63-10.32a150.07,150.07,0,0,1-10.07-11.48c-3.47-4.47-2.24-10.42,1.74-14,5.57-5.06,10.75-10.56,16.1-15.86,4.49-4.46,8.83-9.08,13.53-13.32,4.28-3.86,13.9-1.74,16.58,3.2,3.9,7.19,2.13,11.66-3.48,16.57-1.77,1.56-3.14,3.58-5.18,6H996.25c-2.62-2.47-4.69-4.67-7-6.57-6.32-5.18-6-15.63,1.27-19.82,3.72-2.15,10.65-1.2,13.89,2,8.66,8.62,17,17.55,26.11,25.72,2.9,2.61,4.35,5.61,6,8.72a3.28,3.28,0,0,1,.39,2.52c-1.93,3.78-2.29,8.4-6.84,10.8-2.39,1.26-4,4-6,6-4.62,4.65-9.2,9.34-13.94,13.86a79.81,79.81,0,0,1-8.48,7.11,10.06,10.06,0,0,1-14.33-2.65c-4.29-6.74-3.27-12.22,2.4-17.22,2-1.73,4-3.36,6-5Z" transform="translate(-427 -45)"/><path class="cls-5" d="M494.5,553.87V130.56c-2.43,2.21-4.73,3.58-6,5.59-3.22,5.12-7.77,6.25-13.28,5.61a10.1,10.1,0,0,1-8.21-7.61c-1.21-6.22.75-11.08,5.6-15.16,3.24-2.72,5.94-6.06,9-9,2.53-2.5,5.25-4.8,7.76-7.31q4.46-4.47,8.69-9.16c3.22-3.55,13.16-3.45,16.41,0,5,5.3,10.2,10.38,15.31,15.57,4.58,4.65,9.29,9.19,13.7,14,3.6,3.93,2.6,11.56-.72,15.44-3.05,3.58-6.6,3.42-10.5,3.36s-5.78-3.14-8.23-5.33c-1.78-1.58-3.35-3.39-5-5.1l-.86.62V554.49c2.79-2.55,5.12-4.25,6.9-6.41,2.89-3.51,6.45-5.84,10.86-4.92,3.82.8,7.55,2.67,8.73,7.19.53,2,2.23,4.39,1.62,5.87a36.75,36.75,0,0,1-6,9.45c-3.2,3.79-6.87,7.19-10.4,10.7-3,3-6.13,6-9.22,8.89-2.8,2.67-5.57,5.37-8.45,7.94-2.48,2.2-9.52,2.29-11.87,0-4.55-4.34-8.91-8.9-13.44-13.28-3.28-3.17-6.94-6-10-9.34-5-5.47-12.2-9.73-9.91-19.25,1.39-5.82,9.37-10.12,14.6-7.06,2.28,1.33,4.73,2.63,6.47,4.52s2.83,4.6,4.2,6.94Z" transform="translate(-427 -45)"/></svg>