<svg id="Ebene_1" data-name="Ebene 1" xmlns="http://www.w3.org/2000/svg" viewBox="0 0 1367 742.69"><defs><style>.cls-1,.cls-2,.cls-4{fill:#0f0756;}.cls-1,.cls-10{stroke:#0f0756;}.cls-1,.cls-10,.cls-4,.cls-5,.cls-8,.cls-9{stroke-miterlimit:10;stroke-width:3px;}.cls-10,.cls-3,.cls-9{fill:#fff;}.cls-4,.cls-8,.cls-9{stroke:#fff;}.cls-5,.cls-6,.cls-8{fill:#bbbbbc;}.cls-5{stroke:#bbbbbc;}.cls-7{fill:#dfdfdf;}.cls-11{fill:none;}</style></defs><title>Reihenhaus</title><rect class="cls-1" x="1202.65" y="117.55" width="36.5" height="93.5"/><rect class="cls-2" x="885.29" y="222.09" width="378.01" height="409.42"/><path class="cls-3" d="M1260.8,253.9V660.32h-375V253.9h375m3-3h-381V663.32h381V250.9Z" transform="translate(1 -30.31)"/><path class="cls-3" d="M920.74,657.75v-115a28.53,28.53,0,0,1,28.5-28.5h39.39a28.53,28.53,0,0,1,28.5,28.5v115Z" transform="translate(1 -30.31)"/><path class="cls-3" d="M988.63,515.73a27,27,0,0,1,27,27V656.25H922.24V542.73a27,27,0,0,1,27-27h39.39m0-3H949.24a30,30,0,0,0-30,30V659.25h99.39V542.73a30,30,0,0,0-30-30Z" transform="translate(1 -30.31)"/><polyline class="cls-4" points="882.97 217.56 1073.47 5.92 1263.97 217.56"/><rect class="cls-5" x="819.66" y="113.55" width="36.5" height="93.5"/><rect class="cls-6" x="502.3" y="219.77" width="378.01" height="409.42"/><path class="cls-3" d="M877.81,251.58V658h-375V251.58h375m3-3h-381V661h381V248.58Z" transform="translate(1 -30.31)"/><path class="cls-7" d="M546,659.49v-115a28.53,28.53,0,0,1,28.5-28.5h39.39a28.53,28.53,0,0,1,28.5,28.5v115Z" transform="translate(1 -30.31)"/><path class="cls-3" d="M613.92,517.48a27,27,0,0,1,27,27V658H547.53V544.48a27,27,0,0,1,27-27h39.39m0-3H574.53a30,30,0,0,0-30,30V661h99.39V544.48a30,30,0,0,0-30-30Z" transform="translate(1 -30.31)"/><polyline class="cls-8" points="499.97 213.88 690.48 2.24 880.98 213.88"/><rect class="cls-5" x="438.65" y="116.55" width="36.5" height="93.5"/><rect class="cls-6" x="121.29" y="220.77" width="378.01" height="409.42"/><path class="cls-3" d="M496.79,252.58V659h-375V252.58h375m3-3h-381V662h381V249.58Z" transform="translate(1 -30.31)"/><polyline class="cls-8" points="118.96 214.88 309.46 3.24 499.97 214.88"/><path class="cls-9" d="M277,357.43" transform="translate(1 -30.31)"/><path class="cls-10" d="M-196.45,582.38" transform="translate(1 -30.31)"/><path class="cls-9" d="M1057.22,662" transform="translate(1 -30.31)"/><path class="cls-2" d="M1003.38,602a4.5,4.5,0,1,0-4.5-4.5,4.55,4.55,0,0,0,4.5,4.5Z" transform="translate(1 -30.31)"/><path class="cls-3" d="M632.07,599.27a4.5,4.5,0,1,0-4.5-4.5,4.55,4.55,0,0,0,4.5,4.5Z" transform="translate(1 -30.31)"/><path class="cls-7" d="M166.67,660.49v-115a28.53,28.53,0,0,1,28.5-28.5h39.39a28.53,28.53,0,0,1,28.5,28.5v115Z" transform="translate(1 -30.31)"/><path class="cls-3" d="M234.56,518.48a27,27,0,0,1,27,27V659H168.17V545.48a27,27,0,0,1,27-27h39.39m0-3H195.17a30,30,0,0,0-30,30V662h99.39V545.48a30,30,0,0,0-30-30Z" transform="translate(1 -30.31)"/><path class="cls-3" d="M239.72,593.91a4.5,4.5,0,1,0-4.5-4.5,4.56,4.56,0,0,0,4.5,4.5Z" transform="translate(1 -30.31)"/><rect class="cls-7" x="166.01" y="306.24" width="50.96" height="37.9" rx="3.5"/><path class="cls-6" d="M212.48,338.05a2,2,0,0,1,2,2v30.89a2,2,0,0,1-2,2h-44a2,2,0,0,1-2-2V340.05a2,2,0,0,1,2-2h44m0-3h-44a5,5,0,0,0-5,5v30.89a5,5,0,0,0,5,5h44a5,5,0,0,0,5-5V340.05a5,5,0,0,0-5-5Z" transform="translate(1 -30.31)"/><rect class="cls-7" x="214.76" y="306.24" width="50.96" height="37.9" rx="3.5"/><path class="cls-6" d="M261.22,338.05a2,2,0,0,1,2,2v30.89a2,2,0,0,1-2,2h-44a2,2,0,0,1-2-2V340.05a2,2,0,0,1,2-2h44m0-3h-44a5,5,0,0,0-5,5v30.89a5,5,0,0,0,5,5h44a5,5,0,0,0,5-5V340.05a5,5,0,0,0-5-5Z" transform="translate(1 -30.31)"/><rect class="cls-7" x="166.01" y="344.07" width="50.96" height="56.85" rx="3.5"/><path class="cls-6" d="M212.48,375.88a2,2,0,0,1,2,2v49.84a2,2,0,0,1-2,2h-44a2,2,0,0,1-2-2V377.88a2,2,0,0,1,2-2h44m0-3h-44a5,5,0,0,0-5,5v49.84a5,5,0,0,0,5,5h44a5,5,0,0,0,5-5V377.88a5,5,0,0,0-5-5Z" transform="translate(1 -30.31)"/><rect class="cls-7" x="214.76" y="344.07" width="50.96" height="56.85" rx="3.5"/><path class="cls-6" d="M261.22,375.88a2,2,0,0,1,2,2v49.84a2,2,0,0,1-2,2h-44a2,2,0,0,1-2-2V377.88a2,2,0,0,1,2-2h44m0-3h-44a5,5,0,0,0-5,5v49.84a5,5,0,0,0,5,5h44a5,5,0,0,0,5-5V377.88a5,5,0,0,0-5-5Z" transform="translate(1 -30.31)"/><rect class="cls-7" x="350.53" y="306.89" width="50.96" height="37.9" rx="3.5"/><path class="cls-6" d="M397,338.7a2,2,0,0,1,2,2v30.9a2,2,0,0,1-2,2H353a2,2,0,0,1-2-2V340.7a2,2,0,0,1,2-2h44m0-3H353a5,5,0,0,0-5,5v30.9a5,5,0,0,0,5,5h44a5,5,0,0,0,5-5V340.7a5,5,0,0,0-5-5Z" transform="translate(1 -30.31)"/><rect class="cls-7" x="399.27" y="306.89" width="50.96" height="37.9" rx="3.5"/><path class="cls-6" d="M445.74,338.7a2,2,0,0,1,2,2v30.9a2,2,0,0,1-2,2h-44a2,2,0,0,1-2-2V340.7a2,2,0,0,1,2-2h44m0-3h-44a5,5,0,0,0-5,5v30.9a5,5,0,0,0,5,5h44a5,5,0,0,0,5-5V340.7a5,5,0,0,0-5-5Z" transform="translate(1 -30.31)"/><rect class="cls-7" x="350.53" y="344.72" width="50.96" height="56.85" rx="3.5"/><path class="cls-6" d="M397,376.53a2,2,0,0,1,2,2v49.85a2,2,0,0,1-2,2H353a2,2,0,0,1-2-2V378.53a2,2,0,0,1,2-2h44m0-3H353a5,5,0,0,0-5,5v49.85a5,5,0,0,0,5,5h44a5,5,0,0,0,5-5V378.53a5,5,0,0,0-5-5Z" transform="translate(1 -30.31)"/><rect class="cls-7" x="399.27" y="344.72" width="50.96" height="56.85" rx="3.5"/><path class="cls-6" d="M445.74,376.53a2,2,0,0,1,2,2v49.85a2,2,0,0,1-2,2h-44a2,2,0,0,1-2-2V378.53a2,2,0,0,1,2-2h44m0-3h-44a5,5,0,0,0-5,5v49.85a5,5,0,0,0,5,5h44a5,5,0,0,0,5-5V378.53a5,5,0,0,0-5-5Z" transform="translate(1 -30.31)"/><rect class="cls-7" x="350.53" y="483.25" width="50.96" height="37.9" rx="3.5"/><path class="cls-6" d="M397,515.06a2,2,0,0,1,2,2V548a2,2,0,0,1-2,2H353a2,2,0,0,1-2-2v-30.9a2,2,0,0,1,2-2h44m0-3H353a5,5,0,0,0-5,5V548a5,5,0,0,0,5,5h44a5,5,0,0,0,5-5v-30.9a5,5,0,0,0-5-5Z" transform="translate(1 -30.31)"/><rect class="cls-7" x="399.27" y="483.25" width="50.96" height="37.9" rx="3.5"/><path class="cls-6" d="M445.74,515.06a2,2,0,0,1,2,2V548a2,2,0,0,1-2,2h-44a2,2,0,0,1-2-2v-30.9a2,2,0,0,1,2-2h44m0-3h-44a5,5,0,0,0-5,5V548a5,5,0,0,0,5,5h44a5,5,0,0,0,5-5v-30.9a5,5,0,0,0-5-5Z" transform="translate(1 -30.31)"/><rect class="cls-7" x="350.53" y="521.08" width="50.96" height="56.85" rx="3.5"/><path class="cls-6" d="M397,552.89a2,2,0,0,1,2,2v49.85a2,2,0,0,1-2,2H353a2,2,0,0,1-2-2V554.89a2,2,0,0,1,2-2h44m0-3H353a5,5,0,0,0-5,5v49.85a5,5,0,0,0,5,5h44a5,5,0,0,0,5-5V554.89a5,5,0,0,0-5-5Z" transform="translate(1 -30.31)"/><rect class="cls-7" x="399.27" y="521.08" width="50.96" height="56.85" rx="3.5"/><path class="cls-6" d="M445.74,552.89a2,2,0,0,1,2,2v49.85a2,2,0,0,1-2,2h-44a2,2,0,0,1-2-2V554.89a2,2,0,0,1,2-2h44m0-3h-44a5,5,0,0,0-5,5v49.85a5,5,0,0,0,5,5h44a5,5,0,0,0,5-5V554.89a5,5,0,0,0-5-5Z" transform="translate(1 -30.31)"/><rect class="cls-7" x="733.18" y="304.6" width="50.96" height="37.9" rx="3.5"/><path class="cls-6" d="M779.64,336.41a2,2,0,0,1,2,2v30.9a2,2,0,0,1-2,2h-44a2,2,0,0,1-2-2v-30.9a2,2,0,0,1,2-2h44m0-3h-44a5,5,0,0,0-5,5v30.9a5,5,0,0,0,5,5h44a5,5,0,0,0,5-5v-30.9a5,5,0,0,0-5-5Z" transform="translate(1 -30.31)"/><rect class="cls-7" x="781.92" y="304.6" width="50.96" height="37.9" rx="3.5"/><path class="cls-6" d="M828.38,336.41a2,2,0,0,1,2,2v30.9a2,2,0,0,1-2,2h-44a2,2,0,0,1-2-2v-30.9a2,2,0,0,1,2-2h44m0-3h-44a5,5,0,0,0-5,5v30.9a5,5,0,0,0,5,5h44a5,5,0,0,0,5-5v-30.9a5,5,0,0,0-5-5Z" transform="translate(1 -30.31)"/><rect class="cls-7" x="733.18" y="342.43" width="50.96" height="56.85" rx="3.5"/><path class="cls-6" d="M779.64,374.24a2,2,0,0,1,2,2v49.85a2,2,0,0,1-2,2h-44a2,2,0,0,1-2-2V376.24a2,2,0,0,1,2-2h44m0-3h-44a5,5,0,0,0-5,5v49.85a5,5,0,0,0,5,5h44a5,5,0,0,0,5-5V376.24a5,5,0,0,0-5-5Z" transform="translate(1 -30.31)"/><rect class="cls-7" x="781.92" y="342.43" width="50.96" height="56.85" rx="3.5"/><path class="cls-6" d="M828.38,374.24a2,2,0,0,1,2,2v49.85a2,2,0,0,1-2,2h-44a2,2,0,0,1-2-2V376.24a2,2,0,0,1,2-2h44m0-3h-44a5,5,0,0,0-5,5v49.85a5,5,0,0,0,5,5h44a5,5,0,0,0,5-5V376.24a5,5,0,0,0-5-5Z" transform="translate(1 -30.31)"/><rect class="cls-7" x="733.18" y="482.95" width="50.96" height="37.9" rx="3.5"/><path class="cls-6" d="M779.64,514.76a2,2,0,0,1,2,2v30.9a2,2,0,0,1-2,2h-44a2,2,0,0,1-2-2v-30.9a2,2,0,0,1,2-2h44m0-3h-44a5,5,0,0,0-5,5v30.9a5,5,0,0,0,5,5h44a5,5,0,0,0,5-5v-30.9a5,5,0,0,0-5-5Z" transform="translate(1 -30.31)"/><rect class="cls-7" x="781.92" y="482.95" width="50.96" height="37.9" rx="3.5"/><path class="cls-6" d="M828.38,514.76a2,2,0,0,1,2,2v30.9a2,2,0,0,1-2,2h-44a2,2,0,0,1-2-2v-30.9a2,2,0,0,1,2-2h44m0-3h-44a5,5,0,0,0-5,5v30.9a5,5,0,0,0,5,5h44a5,5,0,0,0,5-5v-30.9a5,5,0,0,0-5-5Z" transform="translate(1 -30.31)"/><rect class="cls-7" x="733.18" y="520.78" width="50.96" height="56.85" rx="3.5"/><path class="cls-6" d="M779.64,552.59a2,2,0,0,1,2,2v49.85a2,2,0,0,1-2,2h-44a2,2,0,0,1-2-2V554.59a2,2,0,0,1,2-2h44m0-3h-44a5,5,0,0,0-5,5v49.85a5,5,0,0,0,5,5h44a5,5,0,0,0,5-5V554.59a5,5,0,0,0-5-5Z" transform="translate(1 -30.31)"/><rect class="cls-7" x="781.92" y="520.78" width="50.96" height="56.85" rx="3.5"/><path class="cls-6" d="M828.38,552.59a2,2,0,0,1,2,2v49.85a2,2,0,0,1-2,2h-44a2,2,0,0,1-2-2V554.59a2,2,0,0,1,2-2h44m0-3h-44a5,5,0,0,0-5,5v49.85a5,5,0,0,0,5,5h44a5,5,0,0,0,5-5V554.59a5,5,0,0,0-5-5Z" transform="translate(1 -30.31)"/><line class="cls-11" x1="1274.13" y1="300.69" x2="1274.13" y2="363.69"/><line class="cls-11" x1="1275.81" y1="282.12" x2="1275.81" y2="367.59"/><line class="cls-11" x1="603.51" y1="235.9" x2="603.51" y2="321.37"/><line class="cls-11" x1="1275.81" y1="282.12" x2="1275.81" y2="367.59"/><line class="cls-11" x1="1275.81" y1="282.12" x2="1275.81" y2="367.59"/><line class="cls-11" x1="630.01" y1="222.34" x2="630.01" y2="307.81"/><rect class="cls-7" x="548.66" y="304.6" width="50.96" height="37.9" rx="3.5"/><path class="cls-6" d="M595.12,336.41a2,2,0,0,1,2,2v30.9a2,2,0,0,1-2,2h-44a2,2,0,0,1-2-2v-30.9a2,2,0,0,1,2-2h44m0-3h-44a5,5,0,0,0-5,5v30.9a5,5,0,0,0,5,5h44a5,5,0,0,0,5-5v-30.9a5,5,0,0,0-5-5Z" transform="translate(1 -30.31)"/><rect class="cls-7" x="597.4" y="304.6" width="50.96" height="37.9" rx="3.5"/><path class="cls-6" d="M643.86,336.41a2,2,0,0,1,2,2v30.9a2,2,0,0,1-2,2h-44a2,2,0,0,1-2-2v-30.9a2,2,0,0,1,2-2h44m0-3h-44a5,5,0,0,0-5,5v30.9a5,5,0,0,0,5,5h44a5,5,0,0,0,5-5v-30.9a5,5,0,0,0-5-5Z" transform="translate(1 -30.31)"/><rect class="cls-7" x="548.66" y="342.43" width="50.96" height="56.85" rx="3.5"/><path class="cls-6" d="M595.12,374.24a2,2,0,0,1,2,2v49.85a2,2,0,0,1-2,2h-44a2,2,0,0,1-2-2V376.24a2,2,0,0,1,2-2h44m0-3h-44a5,5,0,0,0-5,5v49.85a5,5,0,0,0,5,5h44a5,5,0,0,0,5-5V376.24a5,5,0,0,0-5-5Z" transform="translate(1 -30.31)"/><rect class="cls-7" x="597.4" y="342.43" width="50.96" height="56.85" rx="3.5"/><path class="cls-6" d="M643.86,374.24a2,2,0,0,1,2,2v49.85a2,2,0,0,1-2,2h-44a2,2,0,0,1-2-2V376.24a2,2,0,0,1,2-2h44m0-3h-44a5,5,0,0,0-5,5v49.85a5,5,0,0,0,5,5h44a5,5,0,0,0,5-5V376.24a5,5,0,0,0-5-5Z" transform="translate(1 -30.31)"/><rect class="cls-3" x="926.79" y="306.88" width="50.96" height="37.9" rx="3.5"/><path class="cls-2" d="M973.25,338.69a2,2,0,0,1,2,2v30.9a2,2,0,0,1-2,2h-44a2,2,0,0,1-2-2v-30.9a2,2,0,0,1,2-2h44m0-3h-44a5,5,0,0,0-5,5v30.9a5,5,0,0,0,5,5h44a5,5,0,0,0,5-5v-30.9a5,5,0,0,0-5-5Z" transform="translate(1 -30.31)"/><rect class="cls-3" x="975.53" y="306.88" width="50.96" height="37.9" rx="3.5"/><path class="cls-2" d="M1022,338.69a2,2,0,0,1,2,2v30.9a2,2,0,0,1-2,2H978a2,2,0,0,1-2-2v-30.9a2,2,0,0,1,2-2h44m0-3H978a5,5,0,0,0-5,5v30.9a5,5,0,0,0,5,5h44a5,5,0,0,0,5-5v-30.9a5,5,0,0,0-5-5Z" transform="translate(1 -30.31)"/><rect class="cls-3" x="926.79" y="344.71" width="50.96" height="56.85" rx="3.5"/><path class="cls-2" d="M973.25,376.52a2,2,0,0,1,2,2v49.85a2,2,0,0,1-2,2h-44a2,2,0,0,1-2-2V378.52a2,2,0,0,1,2-2h44m0-3h-44a5,5,0,0,0-5,5v49.85a5,5,0,0,0,5,5h44a5,5,0,0,0,5-5V378.52a5,5,0,0,0-5-5Z" transform="translate(1 -30.31)"/><rect class="cls-3" x="975.53" y="344.71" width="50.96" height="56.85" rx="3.5"/><path class="cls-2" d="M1022,376.52a2,2,0,0,1,2,2v49.85a2,2,0,0,1-2,2H978a2,2,0,0,1-2-2V378.52a2,2,0,0,1,2-2h44m0-3H978a5,5,0,0,0-5,5v49.85a5,5,0,0,0,5,5h44a5,5,0,0,0,5-5V378.52a5,5,0,0,0-5-5Z" transform="translate(1 -30.31)"/><rect class="cls-3" x="1111.31" y="306.88" width="50.96" height="37.9" rx="3.5"/><path class="cls-2" d="M1157.77,338.69a2,2,0,0,1,2,2v30.9a2,2,0,0,1-2,2h-44a2,2,0,0,1-2-2v-30.9a2,2,0,0,1,2-2h44m0-3h-44a5,5,0,0,0-5,5v30.9a5,5,0,0,0,5,5h44a5,5,0,0,0,5-5v-30.9a5,5,0,0,0-5-5Z" transform="translate(1 -30.31)"/><rect class="cls-3" x="1160.05" y="306.88" width="50.96" height="37.9" rx="3.5"/><path class="cls-2" d="M1206.51,338.69a2,2,0,0,1,2,2v30.9a2,2,0,0,1-2,2h-44a2,2,0,0,1-2-2v-30.9a2,2,0,0,1,2-2h44m0-3h-44a5,5,0,0,0-5,5v30.9a5,5,0,0,0,5,5h44a5,5,0,0,0,5-5v-30.9a5,5,0,0,0-5-5Z" transform="translate(1 -30.31)"/><rect class="cls-3" x="1111.31" y="344.71" width="50.96" height="56.85" rx="3.5"/><path class="cls-2" d="M1157.77,376.52a2,2,0,0,1,2,2v49.85a2,2,0,0,1-2,2h-44a2,2,0,0,1-2-2V378.52a2,2,0,0,1,2-2h44m0-3h-44a5,5,0,0,0-5,5v49.85a5,5,0,0,0,5,5h44a5,5,0,0,0,5-5V378.52a5,5,0,0,0-5-5Z" transform="translate(1 -30.31)"/><rect class="cls-3" x="1160.05" y="344.71" width="50.96" height="56.85" rx="3.5"/><path class="cls-2" d="M1206.51,376.52a2,2,0,0,1,2,2v49.85a2,2,0,0,1-2,2h-44a2,2,0,0,1-2-2V378.52a2,2,0,0,1,2-2h44m0-3h-44a5,5,0,0,0-5,5v49.85a5,5,0,0,0,5,5h44a5,5,0,0,0,5-5V378.52a5,5,0,0,0-5-5Z" transform="translate(1 -30.31)"/><rect class="cls-3" x="1111.31" y="481.21" width="50.96" height="37.9" rx="3.5"/><path class="cls-2" d="M1157.77,513a2,2,0,0,1,2,2v30.9a2,2,0,0,1-2,2h-44a2,2,0,0,1-2-2V515a2,2,0,0,1,2-2h44m0-3h-44a5,5,0,0,0-5,5v30.9a5,5,0,0,0,5,5h44a5,5,0,0,0,5-5V515a5,5,0,0,0-5-5Z" transform="translate(1 -30.31)"/><rect class="cls-3" x="1160.05" y="481.21" width="50.96" height="37.9" rx="3.5"/><path class="cls-2" d="M1206.51,513a2,2,0,0,1,2,2v30.9a2,2,0,0,1-2,2h-44a2,2,0,0,1-2-2V515a2,2,0,0,1,2-2h44m0-3h-44a5,5,0,0,0-5,5v30.9a5,5,0,0,0,5,5h44a5,5,0,0,0,5-5V515a5,5,0,0,0-5-5Z" transform="translate(1 -30.31)"/><rect class="cls-3" x="1111.31" y="519.04" width="50.96" height="56.85" rx="3.5"/><path class="cls-2" d="M1157.77,550.85a2,2,0,0,1,2,2v49.84a2,2,0,0,1-2,2h-44a2,2,0,0,1-2-2V552.85a2,2,0,0,1,2-2h44m0-3h-44a5,5,0,0,0-5,5v49.84a5,5,0,0,0,5,5h44a5,5,0,0,0,5-5V552.85a5,5,0,0,0-5-5Z" transform="translate(1 -30.31)"/><rect class="cls-3" x="1160.05" y="519.04" width="50.96" height="56.85" rx="3.5"/><path class="cls-2" d="M1206.51,550.85a2,2,0,0,1,2,2v49.84a2,2,0,0,1-2,2h-44a2,2,0,0,1-2-2V552.85a2,2,0,0,1,2-2h44m0-3h-44a5,5,0,0,0-5,5v49.84a5,5,0,0,0,5,5h44a5,5,0,0,0,5-5V552.85a5,5,0,0,0-5-5Z" transform="translate(1 -30.31)"/><rect class="cls-1" x="1.5" y="631.66" width="1364" height="109.53"/></svg>