<svg id="Ebene_1" data-name="Ebene 1" xmlns="http://www.w3.org/2000/svg" viewBox="0 0 1367 741.69"><defs><style>.cls-1,.cls-2,.cls-4{fill:#0f0756;}.cls-1,.cls-10{stroke:#0f0756;}.cls-1,.cls-10,.cls-4,.cls-5,.cls-8,.cls-9{stroke-miterlimit:10;stroke-width:3px;}.cls-10,.cls-3,.cls-9{fill:#fff;}.cls-4,.cls-8,.cls-9{stroke:#fff;}.cls-5,.cls-6,.cls-8{fill:#bbbbbc;}.cls-5{stroke:#bbbbbc;}.cls-7{fill:#dfdfdf;}.cls-11{fill:none;}</style></defs><title>Reihenmittelhaus</title><rect class="cls-1" x="819.65" y="115.55" width="36.5" height="93.5"/><rect class="cls-2" x="502.29" y="220.09" width="378.01" height="409.42"/><path class="cls-3" d="M877.8,252.9V659.32h-375V252.9h375m3-3h-381V662.32h381V249.9Z" transform="translate(1 -31.31)"/><path class="cls-3" d="M537.74,656.75v-115a28.53,28.53,0,0,1,28.5-28.5h39.39a28.53,28.53,0,0,1,28.5,28.5v115Z" transform="translate(1 -31.31)"/><path class="cls-3" d="M605.63,514.73a27,27,0,0,1,27,27V655.25H539.24V541.73a27,27,0,0,1,27-27h39.39m0-3H566.24a30,30,0,0,0-30,30V658.25h99.39V541.73a30,30,0,0,0-30-30Z" transform="translate(1 -31.31)"/><polyline class="cls-4" points="499.97 215.56 690.47 3.92 880.97 215.56"/><rect class="cls-5" x="1200.66" y="115.55" width="36.5" height="93.5"/><rect class="cls-6" x="883.3" y="219.77" width="378.01" height="409.42"/><path class="cls-3" d="M1258.81,252.58V659h-375V252.58h375m3-3h-381V662h381V249.58Z" transform="translate(1 -31.31)"/><path class="cls-7" d="M927,660.49v-115a28.53,28.53,0,0,1,28.5-28.5h39.39a28.53,28.53,0,0,1,28.5,28.5v115Z" transform="translate(1 -31.31)"/><path class="cls-3" d="M994.92,518.48a27,27,0,0,1,27,27V659H928.53V545.48a27,27,0,0,1,27-27h39.39m0-3H955.53a30,30,0,0,0-30,30V662h99.39V545.48a30,30,0,0,0-30-30Z" transform="translate(1 -31.31)"/><polyline class="cls-8" points="880.97 213.88 1071.48 2.24 1261.98 213.88"/><rect class="cls-5" x="438.65" y="115.55" width="36.5" height="93.5"/><rect class="cls-6" x="121.29" y="219.77" width="378.01" height="409.42"/><path class="cls-3" d="M496.79,252.58V659h-375V252.58h375m3-3h-381V662h381V249.58Z" transform="translate(1 -31.31)"/><polyline class="cls-8" points="118.96 213.88 309.46 2.24 499.97 213.88"/><path class="cls-9" d="M277,357.43" transform="translate(1 -31.31)"/><path class="cls-10" d="M621.55,588.38" transform="translate(1 -31.31)"/><path class="cls-9" d="M1057.22,662" transform="translate(1 -31.31)"/><path class="cls-2" d="M622.38,599a4.5,4.5,0,1,0-4.5-4.5,4.55,4.55,0,0,0,4.5,4.5Z" transform="translate(1 -31.31)"/><path class="cls-3" d="M1000.07,595.27a4.5,4.5,0,1,0-4.5-4.5,4.55,4.55,0,0,0,4.5,4.5Z" transform="translate(1 -31.31)"/><path class="cls-7" d="M166.67,660.49v-115a28.53,28.53,0,0,1,28.5-28.5h39.39a28.53,28.53,0,0,1,28.5,28.5v115Z" transform="translate(1 -31.31)"/><path class="cls-3" d="M234.56,518.48a27,27,0,0,1,27,27V659H168.17V545.48a27,27,0,0,1,27-27h39.39m0-3H195.17a30,30,0,0,0-30,30V662h99.39V545.48a30,30,0,0,0-30-30Z" transform="translate(1 -31.31)"/><path class="cls-3" d="M239.72,593.91a4.5,4.5,0,1,0-4.5-4.5,4.56,4.56,0,0,0,4.5,4.5Z" transform="translate(1 -31.31)"/><rect class="cls-7" x="166.01" y="305.24" width="50.96" height="37.9" rx="3.5"/><path class="cls-6" d="M212.48,338.05a2,2,0,0,1,2,2v30.89a2,2,0,0,1-2,2h-44a2,2,0,0,1-2-2V340.05a2,2,0,0,1,2-2h44m0-3h-44a5,5,0,0,0-5,5v30.89a5,5,0,0,0,5,5h44a5,5,0,0,0,5-5V340.05a5,5,0,0,0-5-5Z" transform="translate(1 -31.31)"/><rect class="cls-7" x="214.76" y="305.24" width="50.96" height="37.9" rx="3.5"/><path class="cls-6" d="M261.22,338.05a2,2,0,0,1,2,2v30.89a2,2,0,0,1-2,2h-44a2,2,0,0,1-2-2V340.05a2,2,0,0,1,2-2h44m0-3h-44a5,5,0,0,0-5,5v30.89a5,5,0,0,0,5,5h44a5,5,0,0,0,5-5V340.05a5,5,0,0,0-5-5Z" transform="translate(1 -31.31)"/><rect class="cls-7" x="166.01" y="343.07" width="50.96" height="56.85" rx="3.5"/><path class="cls-6" d="M212.48,375.88a2,2,0,0,1,2,2v49.84a2,2,0,0,1-2,2h-44a2,2,0,0,1-2-2V377.88a2,2,0,0,1,2-2h44m0-3h-44a5,5,0,0,0-5,5v49.84a5,5,0,0,0,5,5h44a5,5,0,0,0,5-5V377.88a5,5,0,0,0-5-5Z" transform="translate(1 -31.31)"/><rect class="cls-7" x="214.76" y="343.07" width="50.96" height="56.85" rx="3.5"/><path class="cls-6" d="M261.22,375.88a2,2,0,0,1,2,2v49.84a2,2,0,0,1-2,2h-44a2,2,0,0,1-2-2V377.88a2,2,0,0,1,2-2h44m0-3h-44a5,5,0,0,0-5,5v49.84a5,5,0,0,0,5,5h44a5,5,0,0,0,5-5V377.88a5,5,0,0,0-5-5Z" transform="translate(1 -31.31)"/><rect class="cls-7" x="350.53" y="305.89" width="50.96" height="37.9" rx="3.5"/><path class="cls-6" d="M397,338.7a2,2,0,0,1,2,2v30.9a2,2,0,0,1-2,2H353a2,2,0,0,1-2-2V340.7a2,2,0,0,1,2-2h44m0-3H353a5,5,0,0,0-5,5v30.9a5,5,0,0,0,5,5h44a5,5,0,0,0,5-5V340.7a5,5,0,0,0-5-5Z" transform="translate(1 -31.31)"/><rect class="cls-7" x="399.27" y="305.89" width="50.96" height="37.9" rx="3.5"/><path class="cls-6" d="M445.74,338.7a2,2,0,0,1,2,2v30.9a2,2,0,0,1-2,2h-44a2,2,0,0,1-2-2V340.7a2,2,0,0,1,2-2h44m0-3h-44a5,5,0,0,0-5,5v30.9a5,5,0,0,0,5,5h44a5,5,0,0,0,5-5V340.7a5,5,0,0,0-5-5Z" transform="translate(1 -31.31)"/><rect class="cls-7" x="350.53" y="343.72" width="50.96" height="56.85" rx="3.5"/><path class="cls-6" d="M397,376.53a2,2,0,0,1,2,2v49.85a2,2,0,0,1-2,2H353a2,2,0,0,1-2-2V378.53a2,2,0,0,1,2-2h44m0-3H353a5,5,0,0,0-5,5v49.85a5,5,0,0,0,5,5h44a5,5,0,0,0,5-5V378.53a5,5,0,0,0-5-5Z" transform="translate(1 -31.31)"/><rect class="cls-7" x="399.27" y="343.72" width="50.96" height="56.85" rx="3.5"/><path class="cls-6" d="M445.74,376.53a2,2,0,0,1,2,2v49.85a2,2,0,0,1-2,2h-44a2,2,0,0,1-2-2V378.53a2,2,0,0,1,2-2h44m0-3h-44a5,5,0,0,0-5,5v49.85a5,5,0,0,0,5,5h44a5,5,0,0,0,5-5V378.53a5,5,0,0,0-5-5Z" transform="translate(1 -31.31)"/><rect class="cls-7" x="350.53" y="482.25" width="50.96" height="37.9" rx="3.5"/><path class="cls-6" d="M397,515.06a2,2,0,0,1,2,2V548a2,2,0,0,1-2,2H353a2,2,0,0,1-2-2v-30.9a2,2,0,0,1,2-2h44m0-3H353a5,5,0,0,0-5,5V548a5,5,0,0,0,5,5h44a5,5,0,0,0,5-5v-30.9a5,5,0,0,0-5-5Z" transform="translate(1 -31.31)"/><rect class="cls-7" x="399.27" y="482.25" width="50.96" height="37.9" rx="3.5"/><path class="cls-6" d="M445.74,515.06a2,2,0,0,1,2,2V548a2,2,0,0,1-2,2h-44a2,2,0,0,1-2-2v-30.9a2,2,0,0,1,2-2h44m0-3h-44a5,5,0,0,0-5,5V548a5,5,0,0,0,5,5h44a5,5,0,0,0,5-5v-30.9a5,5,0,0,0-5-5Z" transform="translate(1 -31.31)"/><rect class="cls-7" x="350.53" y="520.08" width="50.96" height="56.85" rx="3.5"/><path class="cls-6" d="M397,552.89a2,2,0,0,1,2,2v49.85a2,2,0,0,1-2,2H353a2,2,0,0,1-2-2V554.89a2,2,0,0,1,2-2h44m0-3H353a5,5,0,0,0-5,5v49.85a5,5,0,0,0,5,5h44a5,5,0,0,0,5-5V554.89a5,5,0,0,0-5-5Z" transform="translate(1 -31.31)"/><rect class="cls-7" x="399.27" y="520.08" width="50.96" height="56.85" rx="3.5"/><path class="cls-6" d="M445.74,552.89a2,2,0,0,1,2,2v49.85a2,2,0,0,1-2,2h-44a2,2,0,0,1-2-2V554.89a2,2,0,0,1,2-2h44m0-3h-44a5,5,0,0,0-5,5v49.85a5,5,0,0,0,5,5h44a5,5,0,0,0,5-5V554.89a5,5,0,0,0-5-5Z" transform="translate(1 -31.31)"/><rect class="cls-7" x="1114.18" y="304.6" width="50.96" height="37.9" rx="3.5"/><path class="cls-6" d="M1160.64,337.41a2,2,0,0,1,2,2v30.9a2,2,0,0,1-2,2h-44a2,2,0,0,1-2-2v-30.9a2,2,0,0,1,2-2h44m0-3h-44a5,5,0,0,0-5,5v30.9a5,5,0,0,0,5,5h44a5,5,0,0,0,5-5v-30.9a5,5,0,0,0-5-5Z" transform="translate(1 -31.31)"/><rect class="cls-7" x="1162.92" y="304.6" width="50.96" height="37.9" rx="3.5"/><path class="cls-6" d="M1209.38,337.41a2,2,0,0,1,2,2v30.9a2,2,0,0,1-2,2h-44a2,2,0,0,1-2-2v-30.9a2,2,0,0,1,2-2h44m0-3h-44a5,5,0,0,0-5,5v30.9a5,5,0,0,0,5,5h44a5,5,0,0,0,5-5v-30.9a5,5,0,0,0-5-5Z" transform="translate(1 -31.31)"/><rect class="cls-7" x="1114.18" y="342.43" width="50.96" height="56.85" rx="3.5"/><path class="cls-6" d="M1160.64,375.24a2,2,0,0,1,2,2v49.85a2,2,0,0,1-2,2h-44a2,2,0,0,1-2-2V377.24a2,2,0,0,1,2-2h44m0-3h-44a5,5,0,0,0-5,5v49.85a5,5,0,0,0,5,5h44a5,5,0,0,0,5-5V377.24a5,5,0,0,0-5-5Z" transform="translate(1 -31.31)"/><rect class="cls-7" x="1162.92" y="342.43" width="50.96" height="56.85" rx="3.5"/><path class="cls-6" d="M1209.38,375.24a2,2,0,0,1,2,2v49.85a2,2,0,0,1-2,2h-44a2,2,0,0,1-2-2V377.24a2,2,0,0,1,2-2h44m0-3h-44a5,5,0,0,0-5,5v49.85a5,5,0,0,0,5,5h44a5,5,0,0,0,5-5V377.24a5,5,0,0,0-5-5Z" transform="translate(1 -31.31)"/><rect class="cls-7" x="1114.18" y="482.95" width="50.96" height="37.9" rx="3.5"/><path class="cls-6" d="M1160.64,515.76a2,2,0,0,1,2,2v30.9a2,2,0,0,1-2,2h-44a2,2,0,0,1-2-2v-30.9a2,2,0,0,1,2-2h44m0-3h-44a5,5,0,0,0-5,5v30.9a5,5,0,0,0,5,5h44a5,5,0,0,0,5-5v-30.9a5,5,0,0,0-5-5Z" transform="translate(1 -31.31)"/><rect class="cls-7" x="1162.92" y="482.95" width="50.96" height="37.9" rx="3.5"/><path class="cls-6" d="M1209.38,515.76a2,2,0,0,1,2,2v30.9a2,2,0,0,1-2,2h-44a2,2,0,0,1-2-2v-30.9a2,2,0,0,1,2-2h44m0-3h-44a5,5,0,0,0-5,5v30.9a5,5,0,0,0,5,5h44a5,5,0,0,0,5-5v-30.9a5,5,0,0,0-5-5Z" transform="translate(1 -31.31)"/><rect class="cls-7" x="1114.18" y="520.78" width="50.96" height="56.85" rx="3.5"/><path class="cls-6" d="M1160.64,553.59a2,2,0,0,1,2,2v49.85a2,2,0,0,1-2,2h-44a2,2,0,0,1-2-2V555.59a2,2,0,0,1,2-2h44m0-3h-44a5,5,0,0,0-5,5v49.85a5,5,0,0,0,5,5h44a5,5,0,0,0,5-5V555.59a5,5,0,0,0-5-5Z" transform="translate(1 -31.31)"/><rect class="cls-7" x="1162.92" y="520.78" width="50.96" height="56.85" rx="3.5"/><path class="cls-6" d="M1209.38,553.59a2,2,0,0,1,2,2v49.85a2,2,0,0,1-2,2h-44a2,2,0,0,1-2-2V555.59a2,2,0,0,1,2-2h44m0-3h-44a5,5,0,0,0-5,5v49.85a5,5,0,0,0,5,5h44a5,5,0,0,0,5-5V555.59a5,5,0,0,0-5-5Z" transform="translate(1 -31.31)"/><line class="cls-11" x1="73.13" y1="292.69" x2="73.13" y2="355.69"/><line class="cls-11" x1="892.81" y1="280.12" x2="892.81" y2="365.59"/><line class="cls-11" x1="984.51" y1="235.9" x2="984.51" y2="321.37"/><line class="cls-11" x1="892.81" y1="280.12" x2="892.81" y2="365.59"/><line class="cls-11" x1="892.81" y1="280.12" x2="892.81" y2="365.59"/><line class="cls-11" x1="1011.01" y1="222.34" x2="1011.01" y2="307.81"/><rect class="cls-7" x="929.66" y="304.6" width="50.96" height="37.9" rx="3.5"/><path class="cls-6" d="M976.12,337.41a2,2,0,0,1,2,2v30.9a2,2,0,0,1-2,2h-44a2,2,0,0,1-2-2v-30.9a2,2,0,0,1,2-2h44m0-3h-44a5,5,0,0,0-5,5v30.9a5,5,0,0,0,5,5h44a5,5,0,0,0,5-5v-30.9a5,5,0,0,0-5-5Z" transform="translate(1 -31.31)"/><rect class="cls-7" x="978.4" y="304.6" width="50.96" height="37.9" rx="3.5"/><path class="cls-6" d="M1024.86,337.41a2,2,0,0,1,2,2v30.9a2,2,0,0,1-2,2h-44a2,2,0,0,1-2-2v-30.9a2,2,0,0,1,2-2h44m0-3h-44a5,5,0,0,0-5,5v30.9a5,5,0,0,0,5,5h44a5,5,0,0,0,5-5v-30.9a5,5,0,0,0-5-5Z" transform="translate(1 -31.31)"/><rect class="cls-7" x="929.66" y="342.43" width="50.96" height="56.85" rx="3.5"/><path class="cls-6" d="M976.12,375.24a2,2,0,0,1,2,2v49.85a2,2,0,0,1-2,2h-44a2,2,0,0,1-2-2V377.24a2,2,0,0,1,2-2h44m0-3h-44a5,5,0,0,0-5,5v49.85a5,5,0,0,0,5,5h44a5,5,0,0,0,5-5V377.24a5,5,0,0,0-5-5Z" transform="translate(1 -31.31)"/><rect class="cls-7" x="978.4" y="342.43" width="50.96" height="56.85" rx="3.5"/><path class="cls-6" d="M1024.86,375.24a2,2,0,0,1,2,2v49.85a2,2,0,0,1-2,2h-44a2,2,0,0,1-2-2V377.24a2,2,0,0,1,2-2h44m0-3h-44a5,5,0,0,0-5,5v49.85a5,5,0,0,0,5,5h44a5,5,0,0,0,5-5V377.24a5,5,0,0,0-5-5Z" transform="translate(1 -31.31)"/><rect class="cls-3" x="543.79" y="304.88" width="50.96" height="37.9" rx="3.5"/><path class="cls-2" d="M590.25,337.69a2,2,0,0,1,2,2v30.9a2,2,0,0,1-2,2h-44a2,2,0,0,1-2-2v-30.9a2,2,0,0,1,2-2h44m0-3h-44a5,5,0,0,0-5,5v30.9a5,5,0,0,0,5,5h44a5,5,0,0,0,5-5v-30.9a5,5,0,0,0-5-5Z" transform="translate(1 -31.31)"/><rect class="cls-3" x="592.53" y="304.88" width="50.96" height="37.9" rx="3.5"/><path class="cls-2" d="M639,337.69a2,2,0,0,1,2,2v30.9a2,2,0,0,1-2,2H595a2,2,0,0,1-2-2v-30.9a2,2,0,0,1,2-2h44m0-3H595a5,5,0,0,0-5,5v30.9a5,5,0,0,0,5,5h44a5,5,0,0,0,5-5v-30.9a5,5,0,0,0-5-5Z" transform="translate(1 -31.31)"/><rect class="cls-3" x="543.79" y="342.71" width="50.96" height="56.85" rx="3.5"/><path class="cls-2" d="M590.25,375.52a2,2,0,0,1,2,2v49.85a2,2,0,0,1-2,2h-44a2,2,0,0,1-2-2V377.52a2,2,0,0,1,2-2h44m0-3h-44a5,5,0,0,0-5,5v49.85a5,5,0,0,0,5,5h44a5,5,0,0,0,5-5V377.52a5,5,0,0,0-5-5Z" transform="translate(1 -31.31)"/><rect class="cls-3" x="592.53" y="342.71" width="50.96" height="56.85" rx="3.5"/><path class="cls-2" d="M639,375.52a2,2,0,0,1,2,2v49.85a2,2,0,0,1-2,2H595a2,2,0,0,1-2-2V377.52a2,2,0,0,1,2-2h44m0-3H595a5,5,0,0,0-5,5v49.85a5,5,0,0,0,5,5h44a5,5,0,0,0,5-5V377.52a5,5,0,0,0-5-5Z" transform="translate(1 -31.31)"/><rect class="cls-3" x="728.31" y="304.88" width="50.96" height="37.9" rx="3.5"/><path class="cls-2" d="M774.77,337.69a2,2,0,0,1,2,2v30.9a2,2,0,0,1-2,2h-44a2,2,0,0,1-2-2v-30.9a2,2,0,0,1,2-2h44m0-3h-44a5,5,0,0,0-5,5v30.9a5,5,0,0,0,5,5h44a5,5,0,0,0,5-5v-30.9a5,5,0,0,0-5-5Z" transform="translate(1 -31.31)"/><rect class="cls-3" x="777.05" y="304.88" width="50.96" height="37.9" rx="3.5"/><path class="cls-2" d="M823.51,337.69a2,2,0,0,1,2,2v30.9a2,2,0,0,1-2,2h-44a2,2,0,0,1-2-2v-30.9a2,2,0,0,1,2-2h44m0-3h-44a5,5,0,0,0-5,5v30.9a5,5,0,0,0,5,5h44a5,5,0,0,0,5-5v-30.9a5,5,0,0,0-5-5Z" transform="translate(1 -31.31)"/><rect class="cls-3" x="728.31" y="342.71" width="50.96" height="56.85" rx="3.5"/><path class="cls-2" d="M774.77,375.52a2,2,0,0,1,2,2v49.85a2,2,0,0,1-2,2h-44a2,2,0,0,1-2-2V377.52a2,2,0,0,1,2-2h44m0-3h-44a5,5,0,0,0-5,5v49.85a5,5,0,0,0,5,5h44a5,5,0,0,0,5-5V377.52a5,5,0,0,0-5-5Z" transform="translate(1 -31.31)"/><rect class="cls-3" x="777.05" y="342.71" width="50.96" height="56.85" rx="3.5"/><path class="cls-2" d="M823.51,375.52a2,2,0,0,1,2,2v49.85a2,2,0,0,1-2,2h-44a2,2,0,0,1-2-2V377.52a2,2,0,0,1,2-2h44m0-3h-44a5,5,0,0,0-5,5v49.85a5,5,0,0,0,5,5h44a5,5,0,0,0,5-5V377.52a5,5,0,0,0-5-5Z" transform="translate(1 -31.31)"/><rect class="cls-3" x="728.31" y="479.21" width="50.96" height="37.9" rx="3.5"/><path class="cls-2" d="M774.77,512a2,2,0,0,1,2,2v30.9a2,2,0,0,1-2,2h-44a2,2,0,0,1-2-2V514a2,2,0,0,1,2-2h44m0-3h-44a5,5,0,0,0-5,5v30.9a5,5,0,0,0,5,5h44a5,5,0,0,0,5-5V514a5,5,0,0,0-5-5Z" transform="translate(1 -31.31)"/><rect class="cls-3" x="777.05" y="479.21" width="50.96" height="37.9" rx="3.5"/><path class="cls-2" d="M823.51,512a2,2,0,0,1,2,2v30.9a2,2,0,0,1-2,2h-44a2,2,0,0,1-2-2V514a2,2,0,0,1,2-2h44m0-3h-44a5,5,0,0,0-5,5v30.9a5,5,0,0,0,5,5h44a5,5,0,0,0,5-5V514a5,5,0,0,0-5-5Z" transform="translate(1 -31.31)"/><rect class="cls-3" x="728.31" y="517.04" width="50.96" height="56.85" rx="3.5"/><path class="cls-2" d="M774.77,549.85a2,2,0,0,1,2,2v49.84a2,2,0,0,1-2,2h-44a2,2,0,0,1-2-2V551.85a2,2,0,0,1,2-2h44m0-3h-44a5,5,0,0,0-5,5v49.84a5,5,0,0,0,5,5h44a5,5,0,0,0,5-5V551.85a5,5,0,0,0-5-5Z" transform="translate(1 -31.31)"/><rect class="cls-3" x="777.05" y="517.04" width="50.96" height="56.85" rx="3.5"/><path class="cls-2" d="M823.51,549.85a2,2,0,0,1,2,2v49.84a2,2,0,0,1-2,2h-44a2,2,0,0,1-2-2V551.85a2,2,0,0,1,2-2h44m0-3h-44a5,5,0,0,0-5,5v49.84a5,5,0,0,0,5,5h44a5,5,0,0,0,5-5V551.85a5,5,0,0,0-5-5Z" transform="translate(1 -31.31)"/><rect class="cls-1" x="1.5" y="630.66" width="1364" height="109.53"/></svg>