<svg id="Layer_1" data-name="Layer 1" xmlns="http://www.w3.org/2000/svg" viewBox="0 0 272 271.94"><defs><style>.cls-1,.cls-3{fill:#0f0756;}.cls-1{stroke:#000;stroke-miterlimit:10;}.cls-2{fill:#e8e8eb;}.cls-4{fill:#fff;}</style></defs><title>sonstiges</title><path class="cls-1" d="M357.5,95.5" transform="translate(-564.22 -200.03)"/><path class="cls-2" d="M696.22,470.43a134.49,134.49,0,0,1,0-268.86Z" transform="translate(-564.22 -200.03)"/><path d="M694.72,203.12V468.88a133,133,0,0,1,0-265.76m3-3.09a136,136,0,0,0,0,271.94V200Z" transform="translate(-564.22 -200.03)"/><path class="cls-3" d="M704.22,201.57a134.49,134.49,0,0,1,0,268.86Z" transform="translate(-564.22 -200.03)"/><path class="cls-2" d="M705.72,203.12a133,133,0,0,1,0,265.76V203.12m-3-3.09V472a136,136,0,0,0,0-271.94Z" transform="translate(-564.22 -200.03)"/><path class="cls-4" d="M678.38,386l-.67-8.73c-2-18.14,4-38,20.83-58.12,15.11-17.8,23.51-30.9,23.51-46,0-17.13-10.75-28.55-31.91-28.89-12.1,0-25.53,4-33.93,10.41l-8.06-21.16c11.08-8.06,30.23-13.44,48-13.44,38.63,0,56.09,23.85,56.09,49.38,0,22.85-12.76,39.31-28.89,58.46-14.78,17.46-20.15,32.24-19.14,49.38l.33,8.73ZM671,433c0-12.43,8.4-21.16,20.16-21.16S711,420.6,711,433c0,11.76-7.73,20.83-20.16,20.83C679.05,453.86,671,444.79,671,433Z" transform="translate(-564.22 -200.03)"/></svg>