<svg id="Layer_1" data-name="Layer 1" xmlns="http://www.w3.org/2000/svg" viewBox="0 0 274.59 272.2"><defs><style>.cls-1,.cls-3{fill:#0f0756;}.cls-1{stroke:#000;stroke-miterlimit:10;}.cls-2{fill:#e8e8eb;}</style></defs><title>sonstiges2</title><path class="cls-1" d="M357.5,95.5" transform="translate(-564.22 -200.03)"/><path class="cls-2" d="M694.72,468.88a133,133,0,0,1,0-265.76v13.95c-18.11.28-36.94,5.71-48.34,14l-1.85,1.35,10.3,27.06L658,257c7.71-5.86,20.61-9.8,32.11-9.8,1.55,0,3.09.12,4.58.28v71.57c-15.43,19.23-22.16,38.89-20,58.46L675.6,389h19.12v20.12a24.9,24.9,0,0,0-3.57-.25C677.73,408.87,668,419,668,433c0,13.81,9.6,23.83,22.82,23.83a26.56,26.56,0,0,0,3.91-.29Z" transform="translate(-564.22 -200.03)"/><path d="M691.72,206.28v7.88c-17.77.8-35.86,6.31-47.1,14.48l-3.71,2.7,1.63,4.29,8.06,21.16,2.86,7.49,6.38-4.85c7.22-5.49,19.37-9.18,30.25-9.19l1.63,0v67.76c-15.47,19.59-22.19,39.69-20,59.77l.67,8.64.42,5.54h18.9v13.87h-.57C676,405.87,665,417.29,665,433c0,15.29,11.1,26.83,25.82,26.83l.91,0v5.88a130,130,0,0,1,0-259.44m6-6.25a136,136,0,0,0,0,271.94V452.79a22.34,22.34,0,0,1-6.91,1.07c-11.76,0-19.82-9.07-19.82-20.83,0-12.43,8.4-21.16,20.16-21.16a21.13,21.13,0,0,1,6.57,1V386H678.38l-.67-8.73c-2-17.84,3.84-37.31,20-57.11V244.9a51.17,51.17,0,0,0-7.58-.66c-12.1,0-25.53,4-33.93,10.41l-8.06-21.16c11.08-8.06,30.23-13.44,48-13.44.51,0,1,0,1.53,0V200Z" transform="translate(-564.22 -200.03)"/><path class="cls-3" d="M708.31,250.65c8.74,4,13.33,11.83,13.33,22.74,0,11.15-5.16,21.27-13.33,32.28Z" transform="translate(-564.22 -200.03)"/><path class="cls-2" d="M711.31,256c4.87,3.85,7.33,9.68,7.33,17.43,0,7.13-2.17,14.08-7.33,22.52V256m-6-9.65v68.07c12.46-15.32,19.33-27.34,19.33-41,0-13.32-6.5-23.18-19.33-27.08Z" transform="translate(-564.22 -200.03)"/><path class="cls-3" d="M708.31,452.06c5.26-4.34,8.25-11.09,8.25-18.77,0-7.86-3-14.73-8.25-19.12V389.26h2l-.45-11.85c-1-16.76,4.53-30.89,18.44-47.33,17.33-20.58,29.59-37,29.59-60.39,0-21.7-13-47.92-49.56-51.87V203.38a133,133,0,0,1,0,265.76Z" transform="translate(-564.22 -200.03)"/><path class="cls-2" d="M711.31,206.54a130,130,0,0,1,0,259.44V453.42c5.28-4.91,8.25-12.07,8.25-20.13,0-8.22-3-15.5-8.25-20.47V392.26h2.1l-.24-6.23-.34-8.74v-.12c-.94-15.85,4.37-29.35,17.74-45.16,17.17-20.39,30.3-37.92,30.3-62.32,0-22.42-13.11-49.41-49.56-54.52v-8.63m-6-6.25v20.27c34.07,2.55,49.56,25.09,49.56,49.13,0,22.85-12.76,39.31-28.88,58.45-14.79,17.47-20.16,32.25-19.15,49.38l.33,8.74h-1.86v29.39c5.15,3.66,8.25,9.94,8.25,17.64,0,7.31-3,13.59-8.25,17.28v21.66a136,136,0,0,0,0-271.94Z" transform="translate(-564.22 -200.03)"/></svg>