<svg id="Layer_1" data-name="Layer 1" xmlns="http://www.w3.org/2000/svg" xmlns:xlink="http://www.w3.org/1999/xlink" viewBox="0 0 857.46 775.23"><defs><style>.cls-1{fill:none;}.cls-2,.cls-3,.cls-4{fill:#0f0756;}.cls-2{stroke:#0f0756;stroke-width:5px;}.cls-2,.cls-4{stroke-miterlimit:10;}.cls-4{stroke:#f5f5f8;stroke-width:19px;}.cls-5{fill:url(#New_Pattern);}</style><pattern id="New_Pattern" data-name="New Pattern" x="-293.91" y="7.23" width="134" height="104" patternUnits="userSpaceOnUse" viewBox="0 0 134 104"><rect class="cls-1" width="134" height="104"/><line class="cls-2" x1="30.87" y1="16.39" x2="1175.13" y2="711.61"/><line class="cls-2" x1="-103.13" y1="16.39" x2="1041.13" y2="711.61"/><line class="cls-2" x1="-237.13" y1="16.39" x2="907.13" y2="711.61"/><line class="cls-2" x1="-371.13" y1="16.39" x2="773.13" y2="711.61"/><line class="cls-2" x1="-505.13" y1="16.39" x2="639.13" y2="711.61"/><line class="cls-2" x1="-639.13" y1="16.39" x2="505.13" y2="711.61"/><line class="cls-2" x1="-773.13" y1="16.39" x2="371.13" y2="711.61"/><line class="cls-2" x1="-907.13" y1="16.39" x2="237.13" y2="711.61"/><line class="cls-2" x1="-1041.13" y1="16.39" x2="103.13" y2="711.61"/><line class="cls-2" x1="30.87" y1="-87.61" x2="1175.13" y2="607.61"/><line class="cls-2" x1="-103.13" y1="-87.61" x2="1041.13" y2="607.61"/><line class="cls-2" x1="-237.13" y1="-87.61" x2="907.13" y2="607.61"/><line class="cls-2" x1="-371.13" y1="-87.61" x2="773.13" y2="607.61"/><line class="cls-2" x1="-505.13" y1="-87.61" x2="639.13" y2="607.61"/><line class="cls-2" x1="-639.13" y1="-87.61" x2="505.13" y2="607.61"/><line class="cls-2" x1="-773.13" y1="-87.61" x2="371.13" y2="607.61"/><line class="cls-2" x1="-907.13" y1="-87.61" x2="237.13" y2="607.61"/><line class="cls-2" x1="-1041.13" y1="-87.61" x2="103.13" y2="607.61"/><line class="cls-2" x1="30.87" y1="-191.61" x2="1175.13" y2="503.61"/><line class="cls-2" x1="-103.13" y1="-191.61" x2="1041.13" y2="503.61"/><line class="cls-2" x1="-237.13" y1="-191.61" x2="907.13" y2="503.61"/><line class="cls-2" x1="-371.13" y1="-191.61" x2="773.13" y2="503.61"/><line class="cls-2" x1="-505.13" y1="-191.61" x2="639.13" y2="503.61"/><line class="cls-2" x1="-639.13" y1="-191.61" x2="505.13" y2="503.61"/><line class="cls-2" x1="-773.13" y1="-191.61" x2="371.13" y2="503.61"/><line class="cls-2" x1="-907.13" y1="-191.61" x2="237.13" y2="503.61"/><line class="cls-2" x1="-1041.13" y1="-191.61" x2="103.13" y2="503.61"/><line class="cls-2" x1="30.87" y1="-295.61" x2="1175.13" y2="399.61"/><line class="cls-2" x1="-103.13" y1="-295.61" x2="1041.13" y2="399.61"/><line class="cls-2" x1="-237.13" y1="-295.61" x2="907.13" y2="399.61"/><line class="cls-2" x1="-371.13" y1="-295.61" x2="773.13" y2="399.61"/><line class="cls-2" x1="-505.13" y1="-295.61" x2="639.13" y2="399.61"/><line class="cls-2" x1="-639.13" y1="-295.61" x2="505.13" y2="399.61"/><line class="cls-2" x1="-773.13" y1="-295.61" x2="371.13" y2="399.61"/><line class="cls-2" x1="-907.13" y1="-295.61" x2="237.13" y2="399.61"/><line class="cls-2" x1="-1041.13" y1="-295.61" x2="103.13" y2="399.61"/><line class="cls-2" x1="30.87" y1="-399.61" x2="1175.13" y2="295.61"/><line class="cls-2" x1="-103.13" y1="-399.61" x2="1041.13" y2="295.61"/><line class="cls-2" x1="-237.13" y1="-399.61" x2="907.13" y2="295.61"/><line class="cls-2" x1="-371.13" y1="-399.61" x2="773.13" y2="295.61"/><line class="cls-2" x1="-505.13" y1="-399.61" x2="639.13" y2="295.61"/><line class="cls-2" x1="-639.13" y1="-399.61" x2="505.13" y2="295.61"/><line class="cls-2" x1="-773.13" y1="-399.61" x2="371.13" y2="295.61"/><line class="cls-2" x1="-907.13" y1="-399.61" x2="237.13" y2="295.61"/><line class="cls-2" x1="-1041.13" y1="-399.61" x2="103.13" y2="295.61"/><line class="cls-2" x1="30.87" y1="-503.61" x2="1175.13" y2="191.61"/><line class="cls-2" x1="-103.13" y1="-503.61" x2="1041.13" y2="191.61"/><line class="cls-2" x1="-237.13" y1="-503.61" x2="907.13" y2="191.61"/><line class="cls-2" x1="-371.13" y1="-503.61" x2="773.13" y2="191.61"/><line class="cls-2" x1="-505.13" y1="-503.61" x2="639.13" y2="191.61"/><line class="cls-2" x1="-639.13" y1="-503.61" x2="505.13" y2="191.61"/><line class="cls-2" x1="-773.13" y1="-503.61" x2="371.13" y2="191.61"/><line class="cls-2" x1="-907.13" y1="-503.61" x2="237.13" y2="191.61"/><line class="cls-2" x1="-1041.13" y1="-503.61" x2="103.13" y2="191.61"/><line class="cls-2" x1="30.87" y1="-607.61" x2="1175.13" y2="87.61"/><line class="cls-2" x1="-103.13" y1="-607.61" x2="1041.13" y2="87.61"/><line class="cls-2" x1="-237.13" y1="-607.61" x2="907.13" y2="87.61"/><line class="cls-2" x1="-371.13" y1="-607.61" x2="773.13" y2="87.61"/><line class="cls-2" x1="-505.13" y1="-607.61" x2="639.13" y2="87.61"/><line class="cls-2" x1="-639.13" y1="-607.61" x2="505.13" y2="87.61"/><line class="cls-2" x1="-773.13" y1="-607.61" x2="371.13" y2="87.61"/><line class="cls-2" x1="-907.13" y1="-607.61" x2="237.13" y2="87.61"/><line class="cls-2" x1="-1041.13" y1="-607.61" x2="103.13" y2="87.61"/></pattern></defs><title>threeStar</title><polygon class="cls-3" points="250.18 299.36 327.49 456.01 500.35 481.13 375.26 603.06 404.79 775.23 250.18 693.94 95.56 775.23 125.09 603.06 0 481.13 172.87 456.01 250.18 299.36"/><polygon class="cls-3" points="607.28 299.36 684.59 456.01 857.46 481.13 732.37 603.06 761.9 775.23 607.28 693.94 452.66 775.23 482.19 603.06 357.1 481.13 529.97 456.01 607.28 299.36"/><polygon class="cls-4" points="423.68 275.05 500.99 431.7 673.86 456.82 548.77 578.75 578.3 750.92 423.68 669.63 269.06 750.92 298.59 578.75 173.51 456.82 346.37 431.7 423.68 275.05"/><polygon class="cls-5" points="423.68 0 500.99 156.65 673.86 181.76 548.77 303.69 578.3 475.86 423.68 394.58 269.06 475.86 298.59 303.69 173.51 181.76 346.37 156.65 423.68 0"/></svg>