<svg id="Layer_1" data-name="Layer 1" xmlns="http://www.w3.org/2000/svg" xmlns:xlink="http://www.w3.org/1999/xlink" viewBox="0 0 1065 645"><defs><style>.cls-1,.cls-14,.cls-16,.cls-3,.cls-6{fill:none;}.cls-15,.cls-17,.cls-2,.cls-4{fill:#fff;}.cls-12,.cls-13,.cls-14,.cls-2,.cls-3,.cls-4,.cls-6,.cls-7{stroke:#0f0756;}.cls-12,.cls-13,.cls-14,.cls-15,.cls-16,.cls-17,.cls-2,.cls-3,.cls-4,.cls-6,.cls-7,.cls-8{stroke-miterlimit:10;}.cls-2,.cls-3,.cls-7{stroke-width:5px;}.cls-15,.cls-4,.cls-8{stroke-width:40px;}.cls-13,.cls-5{fill:#0f0756;}.cls-6{stroke-width:20px;}.cls-11,.cls-12,.cls-7{fill:url(#New_Pattern);}.cls-15,.cls-16,.cls-17,.cls-8{stroke:#fff;}.cls-18,.cls-8{fill:url(#New_Pattern-3);}.cls-9{fill:url(#New_Pattern_2);}.cls-10{fill:url(#New_Pattern_2-3);}.cls-12{stroke-width:10px;}.cls-13{stroke-width:17px;}.cls-14{stroke-width:21px;}.cls-16,.cls-17{stroke-width:23px;}</style><pattern id="New_Pattern" data-name="New Pattern" width="93" height="98" patternUnits="userSpaceOnUse" viewBox="0 0 93 98"><rect class="cls-1" width="93" height="98"/><line class="cls-2" x1="93.5" y1="51.5" x2="185.5" y2="144.5"/><line class="cls-2" x1="0.5" y1="51.5" x2="92.5" y2="144.5"/><line class="cls-2" x1="-92.5" y1="51.5" x2="-0.5" y2="144.5"/><line class="cls-2" x1="93.5" y1="2.5" x2="185.5" y2="95.5"/><line class="cls-2" x1="0.5" y1="2.5" x2="92.5" y2="95.5"/><line class="cls-2" x1="-92.5" y1="2.5" x2="-0.5" y2="95.5"/><line class="cls-2" x1="93.5" y1="-46.5" x2="185.5" y2="46.5"/><line class="cls-2" x1="0.5" y1="-46.5" x2="92.5" y2="46.5"/><line class="cls-2" x1="-92.5" y1="-46.5" x2="-0.5" y2="46.5"/></pattern><pattern id="New_Pattern-3" data-name="New Pattern" x="-174" y="-78" width="93" height="98" patternUnits="userSpaceOnUse" viewBox="0 0 93 98"><rect class="cls-1" width="93" height="98"/><line class="cls-2" x1="93.5" y1="51.5" x2="185.5" y2="144.5"/><line class="cls-2" x1="0.5" y1="51.5" x2="92.5" y2="144.5"/><line class="cls-2" x1="-92.5" y1="51.5" x2="-0.5" y2="144.5"/><line class="cls-2" x1="93.5" y1="2.5" x2="185.5" y2="95.5"/><line class="cls-2" x1="0.5" y1="2.5" x2="92.5" y2="95.5"/><line class="cls-2" x1="-92.5" y1="2.5" x2="-0.5" y2="95.5"/><line class="cls-2" x1="93.5" y1="-46.5" x2="185.5" y2="46.5"/><line class="cls-2" x1="0.5" y1="-46.5" x2="92.5" y2="46.5"/><line class="cls-2" x1="-92.5" y1="-46.5" x2="-0.5" y2="46.5"/></pattern><pattern id="New_Pattern_2" data-name="New Pattern 2" width="129" height="123" patternUnits="userSpaceOnUse" viewBox="0 0 129 123"><rect class="cls-1" width="129" height="123"/><line class="cls-3" x1="29" y1="809" x2="1390" y2="52"/><line class="cls-3" x1="-100" y1="809" x2="1261" y2="52"/><line class="cls-3" x1="-229" y1="809" x2="1132" y2="52"/><line class="cls-3" x1="-358" y1="809" x2="1003" y2="52"/><line class="cls-3" x1="-487" y1="809" x2="874" y2="52"/><line class="cls-3" x1="-616" y1="809" x2="745" y2="52"/><line class="cls-3" x1="-745" y1="809" x2="616" y2="52"/><line class="cls-3" x1="-874" y1="809" x2="487" y2="52"/><line class="cls-3" x1="-1003" y1="809" x2="358" y2="52"/><line class="cls-3" x1="-1132" y1="809" x2="229" y2="52"/><line class="cls-3" x1="-1261" y1="809" x2="100" y2="52"/><line class="cls-3" x1="29" y1="686" x2="1390" y2="-71"/><line class="cls-3" x1="-100" y1="686" x2="1261" y2="-71"/><line class="cls-3" x1="-229" y1="686" x2="1132" y2="-71"/><line class="cls-3" x1="-358" y1="686" x2="1003" y2="-71"/><line class="cls-3" x1="-487" y1="686" x2="874" y2="-71"/><line class="cls-3" x1="-616" y1="686" x2="745" y2="-71"/><line class="cls-3" x1="-745" y1="686" x2="616" y2="-71"/><line class="cls-3" x1="-874" y1="686" x2="487" y2="-71"/><line class="cls-3" x1="-1003" y1="686" x2="358" y2="-71"/><line class="cls-3" x1="-1132" y1="686" x2="229" y2="-71"/><line class="cls-3" x1="-1261" y1="686" x2="100" y2="-71"/><line class="cls-3" x1="29" y1="563" x2="1390" y2="-194"/><line class="cls-3" x1="-100" y1="563" x2="1261" y2="-194"/><line class="cls-3" x1="-229" y1="563" x2="1132" y2="-194"/><line class="cls-3" x1="-358" y1="563" x2="1003" y2="-194"/><line class="cls-3" x1="-487" y1="563" x2="874" y2="-194"/><line class="cls-3" x1="-616" y1="563" x2="745" y2="-194"/><line class="cls-3" x1="-745" y1="563" x2="616" y2="-194"/><line class="cls-3" x1="-874" y1="563" x2="487" y2="-194"/><line class="cls-3" x1="-1003" y1="563" x2="358" y2="-194"/><line class="cls-3" x1="-1132" y1="563" x2="229" y2="-194"/><line class="cls-3" x1="-1261" y1="563" x2="100" y2="-194"/><line class="cls-3" x1="29" y1="440" x2="1390" y2="-317"/><line class="cls-3" x1="-100" y1="440" x2="1261" y2="-317"/><line class="cls-3" x1="-229" y1="440" x2="1132" y2="-317"/><line class="cls-3" x1="-358" y1="440" x2="1003" y2="-317"/><line class="cls-3" x1="-487" y1="440" x2="874" y2="-317"/><line class="cls-3" x1="-616" y1="440" x2="745" y2="-317"/><line class="cls-3" x1="-745" y1="440" x2="616" y2="-317"/><line class="cls-3" x1="-874" y1="440" x2="487" y2="-317"/><line class="cls-3" x1="-1003" y1="440" x2="358" y2="-317"/><line class="cls-3" x1="-1132" y1="440" x2="229" y2="-317"/><line class="cls-3" x1="-1261" y1="440" x2="100" y2="-317"/><line class="cls-3" x1="29" y1="317" x2="1390" y2="-440"/><line class="cls-3" x1="-100" y1="317" x2="1261" y2="-440"/><line class="cls-3" x1="-229" y1="317" x2="1132" y2="-440"/><line class="cls-3" x1="-358" y1="317" x2="1003" y2="-440"/><line class="cls-3" x1="-487" y1="317" x2="874" y2="-440"/><line class="cls-3" x1="-616" y1="317" x2="745" y2="-440"/><line class="cls-3" x1="-745" y1="317" x2="616" y2="-440"/><line class="cls-3" x1="-874" y1="317" x2="487" y2="-440"/><line class="cls-3" x1="-1003" y1="317" x2="358" y2="-440"/><line class="cls-3" x1="-1132" y1="317" x2="229" y2="-440"/><line class="cls-3" x1="-1261" y1="317" x2="100" y2="-440"/><line class="cls-3" x1="29" y1="194" x2="1390" y2="-563"/><line class="cls-3" x1="-100" y1="194" x2="1261" y2="-563"/><line class="cls-3" x1="-229" y1="194" x2="1132" y2="-563"/><line class="cls-3" x1="-358" y1="194" x2="1003" y2="-563"/><line class="cls-3" x1="-487" y1="194" x2="874" y2="-563"/><line class="cls-3" x1="-616" y1="194" x2="745" y2="-563"/><line class="cls-3" x1="-745" y1="194" x2="616" y2="-563"/><line class="cls-3" x1="-874" y1="194" x2="487" y2="-563"/><line class="cls-3" x1="-1003" y1="194" x2="358" y2="-563"/><line class="cls-3" x1="-1132" y1="194" x2="229" y2="-563"/><line class="cls-3" x1="-1261" y1="194" x2="100" y2="-563"/><line class="cls-3" x1="29" y1="71" x2="1390" y2="-686"/><line class="cls-3" x1="-100" y1="71" x2="1261" y2="-686"/><line class="cls-3" x1="-229" y1="71" x2="1132" y2="-686"/><line class="cls-3" x1="-358" y1="71" x2="1003" y2="-686"/><line class="cls-3" x1="-487" y1="71" x2="874" y2="-686"/><line class="cls-3" x1="-616" y1="71" x2="745" y2="-686"/><line class="cls-3" x1="-745" y1="71" x2="616" y2="-686"/><line class="cls-3" x1="-874" y1="71" x2="487" y2="-686"/><line class="cls-3" x1="-1003" y1="71" x2="358" y2="-686"/><line class="cls-3" x1="-1132" y1="71" x2="229" y2="-686"/><line class="cls-3" x1="-1261" y1="71" x2="100" y2="-686"/></pattern><pattern id="New_Pattern_2-3" data-name="New Pattern 2" x="-174" y="-78" width="129" height="123" patternUnits="userSpaceOnUse" viewBox="0 0 129 123"><rect class="cls-1" width="129" height="123"/><line class="cls-3" x1="29" y1="809" x2="1390" y2="52"/><line class="cls-3" x1="-100" y1="809" x2="1261" y2="52"/><line class="cls-3" x1="-229" y1="809" x2="1132" y2="52"/><line class="cls-3" x1="-358" y1="809" x2="1003" y2="52"/><line class="cls-3" x1="-487" y1="809" x2="874" y2="52"/><line class="cls-3" x1="-616" y1="809" x2="745" y2="52"/><line class="cls-3" x1="-745" y1="809" x2="616" y2="52"/><line class="cls-3" x1="-874" y1="809" x2="487" y2="52"/><line class="cls-3" x1="-1003" y1="809" x2="358" y2="52"/><line class="cls-3" x1="-1132" y1="809" x2="229" y2="52"/><line class="cls-3" x1="-1261" y1="809" x2="100" y2="52"/><line class="cls-3" x1="29" y1="686" x2="1390" y2="-71"/><line class="cls-3" x1="-100" y1="686" x2="1261" y2="-71"/><line class="cls-3" x1="-229" y1="686" x2="1132" y2="-71"/><line class="cls-3" x1="-358" y1="686" x2="1003" y2="-71"/><line class="cls-3" x1="-487" y1="686" x2="874" y2="-71"/><line class="cls-3" x1="-616" y1="686" x2="745" y2="-71"/><line class="cls-3" x1="-745" y1="686" x2="616" y2="-71"/><line class="cls-3" x1="-874" y1="686" x2="487" y2="-71"/><line class="cls-3" x1="-1003" y1="686" x2="358" y2="-71"/><line class="cls-3" x1="-1132" y1="686" x2="229" y2="-71"/><line class="cls-3" x1="-1261" y1="686" x2="100" y2="-71"/><line class="cls-3" x1="29" y1="563" x2="1390" y2="-194"/><line class="cls-3" x1="-100" y1="563" x2="1261" y2="-194"/><line class="cls-3" x1="-229" y1="563" x2="1132" y2="-194"/><line class="cls-3" x1="-358" y1="563" x2="1003" y2="-194"/><line class="cls-3" x1="-487" y1="563" x2="874" y2="-194"/><line class="cls-3" x1="-616" y1="563" x2="745" y2="-194"/><line class="cls-3" x1="-745" y1="563" x2="616" y2="-194"/><line class="cls-3" x1="-874" y1="563" x2="487" y2="-194"/><line class="cls-3" x1="-1003" y1="563" x2="358" y2="-194"/><line class="cls-3" x1="-1132" y1="563" x2="229" y2="-194"/><line class="cls-3" x1="-1261" y1="563" x2="100" y2="-194"/><line class="cls-3" x1="29" y1="440" x2="1390" y2="-317"/><line class="cls-3" x1="-100" y1="440" x2="1261" y2="-317"/><line class="cls-3" x1="-229" y1="440" x2="1132" y2="-317"/><line class="cls-3" x1="-358" y1="440" x2="1003" y2="-317"/><line class="cls-3" x1="-487" y1="440" x2="874" y2="-317"/><line class="cls-3" x1="-616" y1="440" x2="745" y2="-317"/><line class="cls-3" x1="-745" y1="440" x2="616" y2="-317"/><line class="cls-3" x1="-874" y1="440" x2="487" y2="-317"/><line class="cls-3" x1="-1003" y1="440" x2="358" y2="-317"/><line class="cls-3" x1="-1132" y1="440" x2="229" y2="-317"/><line class="cls-3" x1="-1261" y1="440" x2="100" y2="-317"/><line class="cls-3" x1="29" y1="317" x2="1390" y2="-440"/><line class="cls-3" x1="-100" y1="317" x2="1261" y2="-440"/><line class="cls-3" x1="-229" y1="317" x2="1132" y2="-440"/><line class="cls-3" x1="-358" y1="317" x2="1003" y2="-440"/><line class="cls-3" x1="-487" y1="317" x2="874" y2="-440"/><line class="cls-3" x1="-616" y1="317" x2="745" y2="-440"/><line class="cls-3" x1="-745" y1="317" x2="616" y2="-440"/><line class="cls-3" x1="-874" y1="317" x2="487" y2="-440"/><line class="cls-3" x1="-1003" y1="317" x2="358" y2="-440"/><line class="cls-3" x1="-1132" y1="317" x2="229" y2="-440"/><line class="cls-3" x1="-1261" y1="317" x2="100" y2="-440"/><line class="cls-3" x1="29" y1="194" x2="1390" y2="-563"/><line class="cls-3" x1="-100" y1="194" x2="1261" y2="-563"/><line class="cls-3" x1="-229" y1="194" x2="1132" y2="-563"/><line class="cls-3" x1="-358" y1="194" x2="1003" y2="-563"/><line class="cls-3" x1="-487" y1="194" x2="874" y2="-563"/><line class="cls-3" x1="-616" y1="194" x2="745" y2="-563"/><line class="cls-3" x1="-745" y1="194" x2="616" y2="-563"/><line class="cls-3" x1="-874" y1="194" x2="487" y2="-563"/><line class="cls-3" x1="-1003" y1="194" x2="358" y2="-563"/><line class="cls-3" x1="-1132" y1="194" x2="229" y2="-563"/><line class="cls-3" x1="-1261" y1="194" x2="100" y2="-563"/><line class="cls-3" x1="29" y1="71" x2="1390" y2="-686"/><line class="cls-3" x1="-100" y1="71" x2="1261" y2="-686"/><line class="cls-3" x1="-229" y1="71" x2="1132" y2="-686"/><line class="cls-3" x1="-358" y1="71" x2="1003" y2="-686"/><line class="cls-3" x1="-487" y1="71" x2="874" y2="-686"/><line class="cls-3" x1="-616" y1="71" x2="745" y2="-686"/><line class="cls-3" x1="-745" y1="71" x2="616" y2="-686"/><line class="cls-3" x1="-874" y1="71" x2="487" y2="-686"/><line class="cls-3" x1="-1003" y1="71" x2="358" y2="-686"/><line class="cls-3" x1="-1132" y1="71" x2="229" y2="-686"/><line class="cls-3" x1="-1261" y1="71" x2="100" y2="-686"/></pattern></defs><title>vierZimmer</title><polyline class="cls-4" points="374 20 1045 20 1045 625 20 625 20 503 20 20 221 20"/><path class="cls-5" d="M429.22,200.68a5.88,5.88,0,0,0,4.55,1.13,4.58,4.58,0,0,0,3.59-2.34,2.88,2.88,0,0,0-.95-3.48c-3.08-2.57-6-5.27-8.74-8a5.49,5.49,0,0,0-3.87-1.45,5.16,5.16,0,0,0-4.27,1.94,2.81,2.81,0,0,0,.4,3.7C422.82,195.07,426,197.94,429.22,200.68Z" transform="translate(-174 -78)"/><path class="cls-5" d="M454.64,217.92a6,6,0,0,0,6.69-.75c1.57-1.57,1.13-3.78-1-4.95-3.72-2-7.36-4.22-10.82-6.5a5.75,5.75,0,0,0-3.19-.89h0a5,5,0,0,0-4.48,2.28,3,3,0,0,0,1.29,3.91C446.82,213.43,450.68,215.76,454.64,217.92Z" transform="translate(-174 -78)"/><path class="cls-5" d="M471.19,225.87c4.3,1.8,8.75,3.48,13.21,5a6.2,6.2,0,0,0,4.77-.35,3.24,3.24,0,0,0,2-3.22,3.79,3.79,0,0,0-2.79-2.88c-4.2-1.4-8.38-3-12.43-4.67a6.17,6.17,0,0,0-2.36-.46c-2.18,0-4.09,1.08-4.64,2.63S469.3,225.08,471.19,225.87Z" transform="translate(-174 -78)"/><path class="cls-5" d="M502.86,236c4.72,1.08,9.53,2,14.32,2.77,2.59.42,5.14-.8,5.7-2.71s-1.09-3.8-3.68-4.21c-4.51-.72-9.05-1.6-13.48-2.62a6.21,6.21,0,0,0-1.43-.16c-2.37,0-4.38,1.28-4.74,3S500.6,235.51,502.86,236Z" transform="translate(-174 -78)"/><path class="cls-5" d="M536.71,241c4.86.33,9.83.49,14.78.49v-7.09c-4.66,0-9.35-.15-13.92-.46h-.44c-2.56,0-4.67,1.49-4.78,3.39S534.15,240.82,536.71,241Z" transform="translate(-174 -78)"/><path class="cls-5" d="M396.66,141.59a5.59,5.59,0,0,0-3.73,1.31,2.89,2.89,0,0,0-1,3,95.71,95.71,0,0,0,3.7,10.6,4.47,4.47,0,0,0,3.51,2.41,5.92,5.92,0,0,0,4.59-1,2.91,2.91,0,0,0,1.07-3.45,89.39,89.39,0,0,1-3.49-10c-.46-1.63-2.42-2.81-4.68-2.81Z" transform="translate(-174 -78)"/><path class="cls-5" d="M403,166.75a2.76,2.76,0,0,0-.36,3.37,115.45,115.45,0,0,0,6.66,9.78,5.25,5.25,0,0,0,4.13,1.81,5.31,5.31,0,0,0,4.18-1.74,2.75,2.75,0,0,0,.05-3.55,105.59,105.59,0,0,1-6.26-9.19,5.1,5.1,0,0,0-4.38-2.1h0A5.36,5.36,0,0,0,403,166.75Z" transform="translate(-174 -78)"/><path class="cls-5" d="M394.27,134.65c2.64-.16,4.6-1.88,4.37-3.83a86.48,86.48,0,0,1-.56-9.8h-9.59a90.44,90.44,0,0,0,.6,10.41C389.32,133.38,391.64,134.82,394.27,134.65Z" transform="translate(-174 -78)"/><rect class="cls-5" x="214.49" y="0.51" width="9.59" height="35.43"/><rect class="cls-5" x="372.86" width="8.12" height="160.95"/><line class="cls-6" x1="789.23" y1="293" x2="706" y2="293"/><line class="cls-6" x1="1042" y1="293" x2="959.55" y2="293"/><line class="cls-6" x1="705" y1="613" x2="704.71" y2="523.57"/><path class="cls-7" d="M834.5,495.5" transform="translate(-174 -78)"/><line class="cls-8" x1="789.23" y1="293" x2="959.55" y2="293"/><path class="cls-9" d="M1507,538" transform="translate(-174 -78)"/><polyline class="cls-10" points="703 10 707.62 10.1 1045 17 1047 290 706 290 706.73 206.86 707.25 147.2 707.47 122.73 707.72 94.51 708 62 708 23"/><path class="cls-11" d="M1378,317" transform="translate(-174 -78)"/><path class="cls-11" d="M1447,497" transform="translate(-174 -78)"/><path class="cls-12" d="M755,672" transform="translate(-174 -78)"/><path class="cls-12" d="M753,622" transform="translate(-174 -78)"/><path class="cls-9" d="M752,679" transform="translate(-174 -78)"/><path class="cls-9" d="M753,622" transform="translate(-174 -78)"/><polyline class="cls-13" points="789.23 294 959.55 294 782.64 294 975.42 294 729.23 293.81 1000.77 293.81"/><path class="cls-6" d="M877,591" transform="translate(-174 -78)"/><path class="cls-6" d="M877,545" transform="translate(-174 -78)"/><path class="cls-6" d="M880,448" transform="translate(-174 -78)"/><path class="cls-6" d="M880,448" transform="translate(-174 -78)"/><path class="cls-5" d="M756.83,209.87a5.88,5.88,0,0,0-1.13,4.55,4.57,4.57,0,0,0,2.35,3.59,2.87,2.87,0,0,0,3.47-.95c2.58-3.08,5.28-6,8-8.74a5.41,5.41,0,0,0,1.45-3.87,5.16,5.16,0,0,0-1.94-4.27,2.79,2.79,0,0,0-3.69.4C762.44,203.47,759.57,206.6,756.83,209.87Z" transform="translate(-174 -78)"/><path class="cls-5" d="M739.6,235.29a6,6,0,0,0,.74,6.69c1.57,1.57,3.78,1.13,4.95-1,2-3.72,4.22-7.36,6.5-10.82a5.84,5.84,0,0,0,.9-3.19h0a5,5,0,0,0-2.28-4.48,3,3,0,0,0-3.91,1.29C744.08,227.47,741.76,231.33,739.6,235.29Z" transform="translate(-174 -78)"/><path class="cls-5" d="M731.64,251.84c-1.8,4.3-3.47,8.75-5,13.21a6.25,6.25,0,0,0,.35,4.77,3.26,3.26,0,0,0,3.23,2,3.8,3.8,0,0,0,2.88-2.79c1.4-4.2,3-8.38,4.67-12.43a6.17,6.17,0,0,0,.46-2.36c0-2.18-1.08-4.08-2.64-4.64S732.43,250,731.64,251.84Z" transform="translate(-174 -78)"/><path class="cls-5" d="M721.49,283.51c-1.09,4.72-2,9.53-2.78,14.32-.41,2.59.81,5.14,2.72,5.7s3.79-1.09,4.21-3.68c.71-4.51,1.59-9.05,2.61-13.48a6.21,6.21,0,0,0,.16-1.43c0-2.37-1.27-4.38-3-4.74S722,281.25,721.49,283.51Z" transform="translate(-174 -78)"/><path class="cls-5" d="M716.52,317.36c-.32,4.86-.49,9.83-.49,14.78h7.09c0-4.66.16-9.35.46-13.92,0-.15,0-.29,0-.44,0-2.56-1.49-4.67-3.38-4.78S716.69,314.8,716.52,317.36Z" transform="translate(-174 -78)"/><path class="cls-5" d="M815.92,177.31a5.59,5.59,0,0,0-1.31-3.73,2.89,2.89,0,0,0-3-1,97.16,97.16,0,0,0-10.6,3.7,4.47,4.47,0,0,0-2.41,3.51,6,6,0,0,0,1,4.59,2.93,2.93,0,0,0,3.46,1.07,89.23,89.23,0,0,1,10-3.49c1.64-.46,2.81-2.42,2.81-4.68Z" transform="translate(-174 -78)"/><path class="cls-5" d="M790.77,183.6a2.76,2.76,0,0,0-3.37-.36,113.86,113.86,0,0,0-9.78,6.66A5.26,5.26,0,0,0,775.8,194a5.34,5.34,0,0,0,1.74,4.18,2.75,2.75,0,0,0,3.55,0,105.74,105.74,0,0,1,9.2-6.26,5.12,5.12,0,0,0,2.1-4.38h0A5.4,5.4,0,0,0,790.77,183.6Z" transform="translate(-174 -78)"/><path class="cls-5" d="M822.86,174.92c.17,2.64,1.88,4.6,3.83,4.37a86.75,86.75,0,0,1,9.8-.56v-9.59a90.4,90.4,0,0,0-10.4.6C824.14,170,822.69,172.29,822.86,174.92Z" transform="translate(-174 -78)"/><rect class="cls-5" x="669.58" y="91.14" width="35.43" height="9.59"/><rect class="cls-5" x="544.57" y="249.52" width="160.95" height="8.12"/><path class="cls-5" d="M776.31,486.39a5.37,5.37,0,0,0-1,4.16,4.22,4.22,0,0,0,2.14,3.29,2.64,2.64,0,0,0,3.18-.87c2.36-2.82,4.83-5.51,7.34-8a5,5,0,0,0,1.32-3.54,4.74,4.74,0,0,0-1.77-3.91,2.56,2.56,0,0,0-3.38.38C781.44,480.54,778.82,483.4,776.31,486.39Z" transform="translate(-174 -78)"/><path class="cls-5" d="M760.55,509.64a5.46,5.46,0,0,0,.68,6.12c1.44,1.44,3.46,1,4.53-.91,1.86-3.4,3.86-6.73,5.94-9.89a5.36,5.36,0,0,0,.82-2.92h0a4.56,4.56,0,0,0-2.09-4.1,2.71,2.71,0,0,0-3.57,1.18C764.65,502.48,762.53,506,760.55,509.64Z" transform="translate(-174 -78)"/><path class="cls-5" d="M753.27,524.78c-1.64,3.93-3.17,8-4.53,12.08a5.67,5.67,0,0,0,.32,4.36,3,3,0,0,0,3,1.81,3.5,3.5,0,0,0,2.63-2.56c1.28-3.84,2.72-7.67,4.27-11.37a5.54,5.54,0,0,0,.42-2.16,4.36,4.36,0,0,0-2.41-4.24C755.5,522.19,754,523,753.27,524.78Z" transform="translate(-174 -78)"/><path class="cls-5" d="M744,553.74c-1,4.31-1.85,8.72-2.54,13.1-.38,2.37.73,4.7,2.48,5.21s3.48-1,3.85-3.37c.66-4.12,1.46-8.27,2.4-12.33a6.24,6.24,0,0,0,.14-1.3c0-2.17-1.17-4-2.75-4.34S744.46,551.67,744,553.74Z" transform="translate(-174 -78)"/><path class="cls-5" d="M739.45,584.7c-.3,4.44-.45,9-.45,13.52h6.48c0-4.27.14-8.55.42-12.74,0-.13,0-.26,0-.39,0-2.35-1.36-4.28-3.09-4.38S739.6,582.36,739.45,584.7Z" transform="translate(-174 -78)"/><path class="cls-5" d="M830.35,456.61a5.07,5.07,0,0,0-1.19-3.41,2.63,2.63,0,0,0-2.71-.88,85.73,85.73,0,0,0-9.7,3.38,4.11,4.11,0,0,0-2.2,3.21,5.4,5.4,0,0,0,1,4.19,2.66,2.66,0,0,0,3.16,1,80.72,80.72,0,0,1,9.12-3.18c1.5-.43,2.57-2.22,2.57-4.29Z" transform="translate(-174 -78)"/><path class="cls-5" d="M807.35,462.36a2.52,2.52,0,0,0-3.08-.32,102.24,102.24,0,0,0-8.95,6.09,4.8,4.8,0,0,0-1.66,3.77,4.88,4.88,0,0,0,1.59,3.83,2.52,2.52,0,0,0,3.25,0,95.1,95.1,0,0,1,8.41-5.72,4.67,4.67,0,0,0,1.92-4h0A4.93,4.93,0,0,0,807.35,462.36Z" transform="translate(-174 -78)"/><path class="cls-5" d="M836.7,454.43c.15,2.41,1.72,4.2,3.5,4a76.7,76.7,0,0,1,9-.52v-8.77a84.14,84.14,0,0,0-9.52.55C837.87,449.9,836.55,452,836.7,454.43Z" transform="translate(-174 -78)"/><rect class="cls-5" x="681.65" y="371.14" width="32.4" height="8.77"/><rect class="cls-5" x="567.32" y="515.99" width="147.2" height="7.42"/><polyline class="cls-4" points="219.58 625 294.76 625 358.34 625"/><polyline class="cls-6" points="704.2 383.83 704 303 704.34 180.16 704.42 153 704.46 137.19 704.57 100.73 704.78 23"/><path class="cls-6" d="M878,462" transform="translate(-174 -78)"/><path class="cls-6" d="M881.62,182.83" transform="translate(-174 -78)"/><polyline class="cls-14" points="202.39 293 164.45 293 154.39 293 111.81 293 20 293"/><path class="cls-14" d="M394.71,371" transform="translate(-174 -78)"/><path class="cls-14" d="M423.61,371" transform="translate(-174 -78)"/><polyline class="cls-14" points="704 306 704.11 336.93 704.86 557.58 708 633 1042 633 1047 290 706 293 294.76 293"/><path class="cls-14" d="M388.5,368.5" transform="translate(-174 -78)"/><path class="cls-5" d="M449.29,310a3.4,3.4,0,0,0-2.64-.65,2.63,2.63,0,0,0-2.09,1.36,1.67,1.67,0,0,0,.55,2c1.79,1.5,3.5,3.08,5.09,4.67a3.15,3.15,0,0,0,2.25.85,3,3,0,0,0,2.49-1.13,1.63,1.63,0,0,0-.24-2.15C453,313.29,451.2,311.62,449.29,310Z" transform="translate(-174 -78)"/><path class="cls-5" d="M434.5,300a3.5,3.5,0,0,0-3.9.44,1.74,1.74,0,0,0,.58,2.88c2.16,1.18,4.29,2.46,6.3,3.78a3.36,3.36,0,0,0,1.85.52h0a2.9,2.9,0,0,0,2.61-1.33,1.71,1.71,0,0,0-.75-2.27C439.05,302.6,436.8,301.25,434.5,300Z" transform="translate(-174 -78)"/><path class="cls-5" d="M424.86,295.36c-2.5-1.05-5.09-2-7.68-2.88a3.61,3.61,0,0,0-2.78.2,1.89,1.89,0,0,0-1.15,1.88,2.22,2.22,0,0,0,1.63,1.67c2.44.82,4.87,1.73,7.23,2.72a3.5,3.5,0,0,0,1.38.27,2.79,2.79,0,0,0,2.7-1.54A1.9,1.9,0,0,0,424.86,295.36Z" transform="translate(-174 -78)"/><path class="cls-5" d="M406.43,289.45c-2.74-.63-5.55-1.17-8.34-1.61-1.5-.24-3,.47-3.31,1.58s.63,2.21,2.14,2.45c2.63.41,5.27.93,7.85,1.52a3.84,3.84,0,0,0,.83.09,2.66,2.66,0,0,0,2.76-1.75C408.57,290.72,407.75,289.76,406.43,289.45Z" transform="translate(-174 -78)"/><path class="cls-5" d="M386.73,286.56c-2.83-.19-5.73-.28-8.61-.28v4.12c2.72,0,5.45.09,8.11.27h.25c1.49,0,2.72-.87,2.79-2S388.22,286.66,386.73,286.56Z" transform="translate(-174 -78)"/><path class="cls-5" d="M468.25,344.42a3.27,3.27,0,0,0,2.17-.76,1.69,1.69,0,0,0,.56-1.73,57.8,57.8,0,0,0-2.15-6.17,2.62,2.62,0,0,0-2.05-1.4,3.45,3.45,0,0,0-2.66.61,1.7,1.7,0,0,0-.63,2,52.44,52.44,0,0,1,2,5.8,2.72,2.72,0,0,0,2.73,1.64Z" transform="translate(-174 -78)"/><path class="cls-5" d="M464.59,329.78a1.61,1.61,0,0,0,.2-2,67.22,67.22,0,0,0-3.87-5.7,3.36,3.36,0,0,0-4.84,0,1.6,1.6,0,0,0,0,2.06,63.3,63.3,0,0,1,3.65,5.36,3,3,0,0,0,2.55,1.22h0A3.14,3.14,0,0,0,464.59,329.78Z" transform="translate(-174 -78)"/><path class="cls-5" d="M469.63,348.46c-1.53.09-2.67,1.09-2.54,2.23a49.26,49.26,0,0,1,.33,5.7H473a53.22,53.22,0,0,0-.35-6.05C472.52,349.2,471.17,348.36,469.63,348.46Z" transform="translate(-174 -78)"/><rect class="cls-5" x="293.42" y="282.52" width="5.58" height="20.62"/><rect class="cls-5" x="202.09" y="209.75" width="4.72" height="93.68"/><path class="cls-15" d="M878.71,182.83" transform="translate(-174 -78)"/><line class="cls-16" x1="706.5" y1="94.5" x2="704" y2="250"/><line class="cls-17" x1="705" y1="376" x2="705.5" y2="519.5"/><polygon class="cls-18" points="39.81 294 706 293 697.85 625 40 633 39.81 294"/><polygon class="cls-1" points="715 303 1025 303 1025 613 714 613 715 303"/></svg>