<svg id="Layer_1" data-name="Layer 1" xmlns="http://www.w3.org/2000/svg" xmlns:xlink="http://www.w3.org/1999/xlink" viewBox="0 0 644.26 695.82"><defs><style>.cls-1{fill:url(#linear-gradient);}.cls-2{fill:url(#linear-gradient-2);}.cls-3{fill:url(#linear-gradient-3);}.cls-4{fill:url(#linear-gradient-4);}.cls-5,.cls-6{fill:#fff;}.cls-5,.cls-6,.cls-7{stroke:#0f0756;stroke-miterlimit:10;}.cls-5{stroke-width:3px;}.cls-6,.cls-7{stroke-width:10px;}.cls-7,.cls-8{fill:#0f0756;}.cls-9{fill:url(#linear-gradient-5);}.cls-10{fill:url(#linear-gradient-6);}.cls-11{fill:url(#linear-gradient-7);}.cls-12{fill:url(#linear-gradient-8);}</style><linearGradient id="linear-gradient" x1="699.37" y1="523.71" x2="818.82" y2="523.71" gradientTransform="translate(24.43)" gradientUnits="userSpaceOnUse"><stop offset="0.01" stop-color="#0f078d"/><stop offset="1" stop-color="#0f0756"/></linearGradient><linearGradient id="linear-gradient-2" x1="789.04" y1="592.71" x2="897.9" y2="592.71" xlink:href="#linear-gradient"/><linearGradient id="linear-gradient-3" x1="491.04" y1="576.71" x2="599.9" y2="576.71" xlink:href="#linear-gradient"/><linearGradient id="linear-gradient-4" x1="478.55" y1="663.71" x2="587.41" y2="663.71" xlink:href="#linear-gradient"/><linearGradient id="linear-gradient-5" x1="344.23" y1="611.71" x2="463.68" y2="611.71" xlink:href="#linear-gradient"/><linearGradient id="linear-gradient-6" x1="469.37" y1="474.71" x2="588.82" y2="474.71" xlink:href="#linear-gradient"/><linearGradient id="linear-gradient-7" x1="598.37" y1="676.71" x2="717.82" y2="676.71" xlink:href="#linear-gradient"/><linearGradient id="linear-gradient-8" x1="766.04" y1="650.71" x2="874.9" y2="650.71" xlink:href="#linear-gradient"/></defs><title>wald</title><path class="cls-1" d="M795,550c-10.3-7-14.45-17.93-20-30.49,2.33,2.19,4.57,4.54,6.76,6.94,3.39,3.7,6.67,7.52,10.11,11.09-1.12-4.08-2.54-8.73-3.36-12.58,2.53,5,5.14,10.42,8.74,14.66-4.39-8.11-3.45-20.41-4.79-28.62,3.61,10.31,5.31,23.79,11.95,32.06-2.72-11.13-2.41-21-.79-32.31.19,9.63,1.61,24.77,7.23,32.31-2.58-8.17-2.07-19.85-.36-28.1,1.53,8,1.7,16.51,4,24.31,1.19-4.47,1.25-9.32,1.91-13.88.42,5.22.77,10.82,2.23,15.84.82-13.33-1-32.91,6.8-43.82.89,14.63-2.58,29.22.16,43.89,1.84-9,2.94-19.31,7.59-27.11.35,8.49-3.15,17.76-1.08,26.29,1.79-4.5,3.23-9.71,4.9-14.37,1.15,5.45-.74,11.67.48,17.32a38.56,38.56,0,0,1,2.69-8c.57,3.41.8,6.87,1.38,10.26,6.42-12.23,2.56-28.57,11.71-40.66a112.8,112.8,0,0,0-2.82,42c1.93-5.54,2.17-13.29,6-17.41.71,6.56-2.37,13.52-2.59,20.39Z" transform="translate(-318.98 -7.18)"/><path class="cls-2" d="M840,619c-10.3-7-14.45-17.93-20-30.49,2.33,2.19,4.56,4.54,6.76,6.94,3.38,3.7,6.68,7.52,10.11,11.09-1.12-4.08-2.54-8.73-3.36-12.58,2.53,5,5.14,10.42,8.74,14.66-4.39-8.11-3.45-20.41-4.78-28.62,3.6,10.31,5.3,23.79,11.94,32.06-2.72-11.13-2.41-21-.79-32.31.19,9.63,1.61,24.77,7.23,32.31-2.59-8.17-2.07-19.85-.36-28.1,1.53,8,1.71,16.51,4,24.31,1.19-4.47,1.25-9.32,1.91-13.88.42,5.22.77,10.82,2.23,15.84.82-13.33-1-32.91,6.79-43.82.9,14.63-2.57,29.22.17,43.89,1.84-9,2.94-19.31,7.59-27.11.35,8.49-3.15,17.76-1.08,26.29,1.79-4.5,3.23-9.71,4.9-14.37,1.15,5.45-.74,11.67.47,17.32a39.17,39.17,0,0,1,2.7-8c.57,3.41.8,6.87,1.38,10.26,6.42-12.23,2.56-28.57,11.71-40.66a112.59,112.59,0,0,0-2.81,42c1.92-5.54,2.16-13.29,6-17.41.71,6.56-2.37,13.52-2.59,20.39Z" transform="translate(-318.98 -7.18)"/><path class="cls-3" d="M542,603c-10.3-7-14.45-17.93-20-30.49,2.33,2.19,4.56,4.54,6.76,6.94,3.38,3.7,6.68,7.52,10.11,11.09-1.12-4.08-2.54-8.73-3.36-12.58,2.53,5,5.14,10.42,8.74,14.66-4.39-8.11-3.45-20.41-4.78-28.62,3.6,10.31,5.3,23.79,11.94,32.06-2.72-11.13-2.41-21-.79-32.31.19,9.63,1.61,24.77,7.23,32.31-2.59-8.17-2.07-19.85-.36-28.1,1.53,8,1.71,16.51,4,24.31,1.19-4.47,1.25-9.32,1.91-13.88.42,5.22.77,10.82,2.23,15.84.82-13.33-1-32.91,6.79-43.82.9,14.63-2.57,29.22.17,43.89,1.84-9,2.94-19.31,7.59-27.11.35,8.49-3.15,17.76-1.08,26.29,1.79-4.5,3.23-9.71,4.9-14.37,1.15,5.45-.74,11.67.47,17.32a39.17,39.17,0,0,1,2.7-8c.57,3.41.8,6.87,1.38,10.26,6.42-12.23,2.56-28.57,11.71-40.66a112.59,112.59,0,0,0-2.81,42c1.92-5.54,2.16-13.29,6-17.41.71,6.56-2.37,13.52-2.59,20.39Z" transform="translate(-318.98 -7.18)"/><path class="cls-4" d="M529.49,690c-10.29-7-14.45-17.93-20-30.49,2.33,2.19,4.57,4.54,6.76,6.94,3.39,3.7,6.68,7.52,10.11,11.09-1.12-4.08-2.54-8.73-3.36-12.58,2.53,5,5.14,10.42,8.74,14.66-4.39-8.11-3.45-20.41-4.78-28.62,3.6,10.31,5.3,23.79,11.94,32.06-2.72-11.13-2.41-21-.79-32.31.19,9.63,1.61,24.77,7.23,32.31-2.58-8.17-2.07-19.85-.36-28.1,1.53,8,1.71,16.51,4,24.31,1.19-4.47,1.25-9.32,1.91-13.88.42,5.22.77,10.82,2.23,15.84.82-13.33-1-32.91,6.8-43.82.89,14.63-2.58,29.22.16,43.89,1.84-9,2.94-19.31,7.59-27.11.35,8.49-3.15,17.76-1.08,26.29,1.79-4.5,3.23-9.71,4.9-14.37,1.15,5.45-.74,11.67.48,17.32a38,38,0,0,1,2.7-8c.56,3.41.79,6.87,1.37,10.26,6.42-12.23,2.56-28.57,11.71-40.66A112.59,112.59,0,0,0,585,687c1.92-5.54,2.16-13.29,6-17.41.71,6.56-2.37,13.52-2.59,20.39Z" transform="translate(-318.98 -7.18)"/><rect class="cls-5" x="474.49" y="468.57" width="33" height="60"/><polyline class="cls-6" points="490.99 53.07 447.69 148.07 461.59 148.07 426.04 226.07 440.05 226.07 393.56 328.07 409.3 328.07 345.49 468.07 490.99 468.07"/><polyline class="cls-7" points="490.99 53.57 534.29 148.57 520.39 148.57 555.94 226.57 541.93 226.57 588.42 328.57 572.68 328.57 636.49 468.57 490.99 468.57"/><rect class="cls-8" x="496.99" y="468.57" width="10.5" height="60"/><rect class="cls-5" x="259.52" y="417.57" width="33" height="60"/><polyline class="cls-6" points="276.02 2.07 232.72 97.07 246.62 97.07 211.06 175.07 225.08 175.07 178.59 277.07 194.33 277.07 130.52 417.07 276.02 417.07"/><polyline class="cls-7" points="276.02 2.57 319.32 97.57 305.42 97.57 340.97 175.57 326.95 175.57 373.44 277.57 357.7 277.57 421.52 417.57 276.02 417.57"/><rect class="cls-8" x="282.02" y="417.57" width="10.5" height="60"/><rect class="cls-5" x="136.77" y="562.48" width="33" height="60"/><polyline class="cls-6" points="153.27 146.98 109.97 241.98 123.87 241.98 88.32 319.98 102.34 319.98 55.84 421.98 71.59 421.98 7.77 561.98 153.27 561.98"/><polyline class="cls-7" points="153.27 147.48 196.57 242.48 182.67 242.48 218.23 320.48 204.21 320.48 250.7 422.48 234.96 422.48 298.77 562.48 153.27 562.48"/><rect class="cls-8" x="159.27" y="562.48" width="10.5" height="60"/><rect class="cls-5" x="379.52" y="623.57" width="33" height="60"/><polyline class="cls-6" points="396.02 208.07 352.71 303.07 366.62 303.07 331.06 381.07 345.08 381.07 298.59 483.07 314.33 483.07 250.52 623.07 396.02 623.07"/><polyline class="cls-7" points="396.02 208.57 439.32 303.57 425.42 303.57 460.97 381.57 446.95 381.57 493.44 483.57 477.7 483.57 541.52 623.57 396.02 623.57"/><rect class="cls-8" x="402.02" y="623.57" width="10.5" height="60"/><path class="cls-9" d="M439.85,638c-10.3-7-14.46-17.93-20-30.49,2.33,2.19,4.57,4.54,6.76,6.94,3.39,3.7,6.68,7.52,10.11,11.09-1.12-4.08-2.54-8.73-3.36-12.58,2.53,5,5.15,10.42,8.74,14.66-4.38-8.11-3.45-20.41-4.78-28.62,3.6,10.31,5.3,23.79,11.94,32.06-2.72-11.13-2.41-21-.79-32.31.19,9.63,1.61,24.77,7.23,32.31-2.58-8.17-2.07-19.85-.35-28.1,1.52,8,1.7,16.51,4,24.31,1.18-4.47,1.24-9.32,1.9-13.88.42,5.22.77,10.82,2.23,15.84.82-13.33-1-32.91,6.8-43.82.9,14.63-2.58,29.22.16,43.89,1.85-9,2.94-19.31,7.59-27.11.35,8.49-3.14,17.76-1.08,26.29,1.79-4.5,3.23-9.71,4.9-14.37,1.15,5.45-.74,11.67.48,17.32a38.58,38.58,0,0,1,2.7-8c.56,3.41.79,6.87,1.37,10.26,6.42-12.23,2.56-28.57,11.71-40.66a112.59,112.59,0,0,0-2.81,42c1.92-5.54,2.16-13.29,6-17.41.71,6.56-2.37,13.52-2.59,20.39Z" transform="translate(-318.98 -7.18)"/><path class="cls-10" d="M565,501c-10.3-7-14.45-17.93-20-30.49,2.33,2.19,4.57,4.54,6.76,6.94,3.39,3.7,6.67,7.52,10.11,11.09-1.12-4.08-2.54-8.73-3.36-12.58,2.53,5,5.14,10.42,8.74,14.66-4.39-8.11-3.45-20.41-4.79-28.62,3.61,10.31,5.31,23.79,11.95,32.06-2.72-11.13-2.41-21-.79-32.31.19,9.63,1.61,24.77,7.23,32.31-2.58-8.17-2.07-19.85-.36-28.1,1.53,8,1.7,16.51,4,24.31,1.19-4.47,1.25-9.32,1.91-13.88.42,5.22.77,10.82,2.23,15.84.82-13.33-1-32.91,6.8-43.82.89,14.63-2.58,29.22.16,43.89,1.84-9,2.94-19.31,7.59-27.11.35,8.49-3.15,17.76-1.08,26.29,1.79-4.5,3.23-9.71,4.9-14.37,1.15,5.45-.74,11.67.48,17.32a38.56,38.56,0,0,1,2.69-8c.57,3.41.8,6.87,1.38,10.26,6.42-12.23,2.56-28.57,11.71-40.66a112.8,112.8,0,0,0-2.82,42c1.93-5.54,2.17-13.29,6-17.41.71,6.56-2.37,13.52-2.59,20.39Z" transform="translate(-318.98 -7.18)"/><path class="cls-11" d="M694,703c-10.3-7-14.45-17.93-20-30.49,2.33,2.19,4.57,4.54,6.76,6.94,3.39,3.7,6.67,7.52,10.11,11.09-1.12-4.08-2.54-8.73-3.36-12.58,2.53,5,5.14,10.42,8.74,14.66-4.39-8.11-3.45-20.41-4.79-28.62,3.61,10.31,5.31,23.79,11.95,32.06-2.72-11.13-2.41-21-.79-32.31.19,9.63,1.61,24.77,7.23,32.31-2.58-8.17-2.07-19.85-.36-28.1,1.53,8,1.7,16.51,4,24.31,1.19-4.47,1.25-9.32,1.91-13.88.42,5.22.77,10.82,2.23,15.84.82-13.33-1-32.91,6.8-43.82.89,14.63-2.58,29.22.16,43.89,1.84-9,2.94-19.31,7.59-27.11.35,8.49-3.15,17.76-1.08,26.29,1.79-4.5,3.23-9.71,4.9-14.37,1.15,5.45-.74,11.67.48,17.32a38.56,38.56,0,0,1,2.69-8c.57,3.41.8,6.87,1.38,10.26,6.42-12.23,2.56-28.57,11.71-40.66a112.8,112.8,0,0,0-2.82,42c1.93-5.54,2.17-13.29,6-17.41.71,6.56-2.37,13.52-2.59,20.39Z" transform="translate(-318.98 -7.18)"/><path class="cls-12" d="M817,677c-10.3-7-14.45-17.93-20-30.49,2.33,2.19,4.56,4.54,6.76,6.94,3.38,3.7,6.68,7.52,10.11,11.09-1.12-4.08-2.54-8.73-3.36-12.58,2.53,5,5.14,10.42,8.74,14.66-4.39-8.11-3.45-20.41-4.78-28.62,3.6,10.31,5.3,23.79,11.94,32.06-2.72-11.13-2.41-21-.79-32.31.19,9.63,1.61,24.77,7.23,32.31-2.59-8.17-2.07-19.85-.36-28.1,1.53,8,1.71,16.51,4,24.31,1.19-4.47,1.25-9.32,1.91-13.88.42,5.22.77,10.82,2.23,15.84.82-13.33-1-32.91,6.79-43.82.9,14.63-2.57,29.22.17,43.89,1.84-9,2.94-19.31,7.59-27.11.35,8.49-3.15,17.76-1.08,26.29,1.79-4.5,3.23-9.71,4.9-14.37,1.15,5.45-.74,11.67.47,17.32a39.17,39.17,0,0,1,2.7-8c.57,3.41.8,6.87,1.38,10.26,6.42-12.23,2.56-28.57,11.71-40.66a112.59,112.59,0,0,0-2.81,42c1.92-5.54,2.16-13.29,6-17.41.71,6.56-2.37,13.52-2.59,20.39Z" transform="translate(-318.98 -7.18)"/></svg>