<svg id="Layer_1" data-name="Layer 1" xmlns="http://www.w3.org/2000/svg" viewBox="0 0 631.73 687.75"><defs><style>.cls-1{fill:#fff;}.cls-2{fill:#0f0756;}.cls-3,.cls-7{fill:#bbbbbc;}.cls-4{fill:#dfdfdf;}.cls-5,.cls-6{fill:none;}.cls-5,.cls-6,.cls-7{stroke:#bbbbbc;}.cls-5{stroke-linecap:round;stroke-linejoin:round;stroke-width:5px;}.cls-6,.cls-7{stroke-miterlimit:10;}</style></defs><title>windmill</title><polygon class="cls-1" points="163.99 672.21 169.31 609.73 194.72 310.6 317.72 154.62 440.72 310.6 467.93 630.59 471.45 672.21 163.99 672.21"/><path class="cls-2" d="M641.86,326.78,762.43,479.69l24.93,293.16,2.21,26.08,3.3,38.91h-302l5.09-59.77L498.15,752l23.13-272.3L641.86,326.78m0-8.07L516.43,477.77l-23.26,273.8L491,777.64l-5.55,65.2H798.31l-3.75-44.33-2.22-26.08L767.28,477.77,641.86,318.71Z" transform="translate(-324.14 -168.13)"/><rect class="cls-3" x="174.8" y="299.71" width="285.84" height="25.08" rx="4.5"/><path class="cls-1" d="M780.27,468.34a4,4,0,0,1,4,4v16.08a4,4,0,0,1-4,4H503.44a4,4,0,0,1-4-4V472.34a4,4,0,0,1,4-4H780.27m0-1H503.44a5,5,0,0,0-5,5v16.08a5,5,0,0,0,5,5H780.27a5,5,0,0,0,5-5V472.34a5,5,0,0,0-5-5Z" transform="translate(-324.14 -168.13)"/><path class="cls-3" d="M590.2,842.33V732.46A19.52,19.52,0,0,1,609.7,713H674a19.52,19.52,0,0,1,19.5,19.5V842.33Z" transform="translate(-324.14 -168.13)"/><path d="M674,713.45a19,19,0,0,1,19,19V841.84H590.7V732.45a19,19,0,0,1,19-19H674m0-1H609.7a20,20,0,0,0-20,20V842.84H694V732.45a20,20,0,0,0-20-20Z" transform="translate(-324.14 -168.13)"/><path class="cls-2" d="M603.24,829.3V764.61a38.62,38.62,0,1,1,77.23,0V829.3Z" transform="translate(-324.14 -168.13)"/><path d="M641.86,726.49A38.16,38.16,0,0,1,680,764.61V828.8H603.74V764.61a38.16,38.16,0,0,1,38.12-38.12m0-1a39.17,39.17,0,0,0-39.12,39.12V829.8H681V764.61a39.16,39.16,0,0,0-39.11-39.12Z" transform="translate(-324.14 -168.13)"/><path class="cls-3" d="M694,642.05H589.7V531.67a20,20,0,0,1,20-20H674a20,20,0,0,1,20,20Z" transform="translate(-324.14 -168.13)"/><path class="cls-2" d="M602.74,629V563.82a39.12,39.12,0,0,1,78.23,0V629Z" transform="translate(-324.14 -168.13)"/><rect class="cls-3" x="174.8" y="492.68" width="285.84" height="25.08" rx="4.5"/><path class="cls-1" d="M780.27,661.3a4,4,0,0,1,4,4v16.08a4,4,0,0,1-4,4H503.44a4,4,0,0,1-4-4V665.3a4,4,0,0,1,4-4H780.27m0-1H503.44a5,5,0,0,0-5,5v16.08a5,5,0,0,0,5,5H780.27a5,5,0,0,0,5-5V665.3a5,5,0,0,0-5-5Z" transform="translate(-324.14 -168.13)"/><path class="cls-1" d="M480.18,777.14a12.54,12.54,0,1,1,0-25.07h12.45l-2.14,25.07Z" transform="translate(-324.14 -168.13)"/><path class="cls-1" d="M492.08,752.57,490,776.64h-9.85a12,12,0,1,1,0-24.07h11.9m1.09-1h-13a13,13,0,0,0,0,26.07H491l2.22-26.07Z" transform="translate(-324.14 -168.13)"/><path class="cls-4" d="M491.5,777.14l2.13-25.07H519.3a12.54,12.54,0,1,1,0,25.07Z" transform="translate(-324.14 -168.13)"/><path class="cls-1" d="M519.3,752.57a12,12,0,1,1,0,24.07H492l2-24.07H519.3m0-1H493.17L491,777.64H519.3a13,13,0,1,0,0-26.07Z" transform="translate(-324.14 -168.13)"/><path class="cls-4" d="M777.45,798a12.54,12.54,0,1,1,0-25.08h14.43L794,798Z" transform="translate(-324.14 -168.13)"/><path class="cls-1" d="M791.42,773.43l2.05,24.08h-16a12,12,0,1,1,0-24.08h14m.92-1H777.45a13,13,0,0,0,0,26.08h17.11l-2.22-26.08Z" transform="translate(-324.14 -168.13)"/><rect class="cls-4" x="391.23" y="633.49" width="64.19" height="25.08" rx="4.5"/><path class="cls-1" d="M775.06,802.11a4,4,0,0,1,4,4v16.08a4,4,0,0,1-4,4H719.87a4,4,0,0,1-4-4V806.11a4,4,0,0,1,4-4h55.19m0-1H719.87a5,5,0,0,0-5,5v16.08a5,5,0,0,0,5,5h55.19a5,5,0,0,0,5-5V806.11a5,5,0,0,0-5-5Z" transform="translate(-324.14 -168.13)"/><rect class="cls-4" x="401.66" y="557.87" width="64.19" height="25.08" rx="4.5"/><path class="cls-1" d="M785.49,726.49a4,4,0,0,1,4,4v16.08a4,4,0,0,1-4,4H730.3a4,4,0,0,1-4-4V730.49a4,4,0,0,1,4-4h55.19m0-1H730.3a5,5,0,0,0-5,5v16.08a5,5,0,0,0,5,5h55.19a5,5,0,0,0,5-5V730.49a5,5,0,0,0-5-5Z" transform="translate(-324.14 -168.13)"/><rect class="cls-4" x="185.23" y="630.88" width="64.19" height="25.08" rx="4.5"/><path class="cls-1" d="M569.06,799.51a4,4,0,0,1,4,4v16.07a4,4,0,0,1-4,4H513.87a4,4,0,0,1-4-4V803.51a4,4,0,0,1,4-4h55.19m0-1H513.87a5,5,0,0,0-5,5v16.07a5,5,0,0,0,5,5h55.19a5,5,0,0,0,5-5V803.51a5,5,0,0,0-5-5Z" transform="translate(-324.14 -168.13)"/><rect class="cls-2" x="435.03" y="149.06" width="73.23" height="333.99" transform="translate(-409.48 257.95) rotate(-45)"/><path class="cls-3" d="M379.45,175.61,612.08,408.24l-48.24,48.25L331.21,223.86l48.24-48.25m0-7.07-55.31,55.32,239.7,239.7,55.31-55.32-239.7-239.7Z" transform="translate(-324.14 -168.13)"/><line class="cls-5" x1="36.88" y1="35.45" x2="315.3" y2="313.87"/><line class="cls-5" x1="33.19" y1="76.01" x2="75.6" y2="33.61"/><line class="cls-5" x1="53.47" y1="96.3" x2="95.88" y2="53.89"/><line class="cls-5" x1="73.75" y1="116.58" x2="116.16" y2="74.17"/><line class="cls-5" x1="94.04" y1="136.86" x2="136.45" y2="94.45"/><line class="cls-5" x1="114.32" y1="157.14" x2="156.73" y2="114.74"/><line class="cls-5" x1="134.6" y1="177.43" x2="177.01" y2="135.02"/><line class="cls-5" x1="154.88" y1="197.71" x2="197.29" y2="155.3"/><line class="cls-5" x1="175.17" y1="217.99" x2="217.57" y2="175.58"/><line class="cls-5" x1="195.45" y1="238.27" x2="237.86" y2="195.87"/><line class="cls-5" x1="215.73" y1="258.56" x2="258.14" y2="216.15"/><rect class="cls-2" x="770.61" y="484.64" width="73.23" height="333.99" transform="translate(-548.48 593.52) rotate(-45)"/><path class="cls-3" d="M715,511.2,947.66,743.83l-48.24,48.24L666.79,559.44,715,511.2m0-7.07-55.31,55.31,239.7,239.7,55.31-55.31L715,504.13Z" transform="translate(-324.14 -168.13)"/><line class="cls-5" x1="595.57" y1="594.14" x2="317.14" y2="315.72"/><line class="cls-5" x1="555" y1="597.83" x2="597.41" y2="555.42"/><line class="cls-5" x1="534.72" y1="577.54" x2="577.13" y2="535.13"/><line class="cls-5" x1="514.44" y1="557.26" x2="556.84" y2="514.85"/><line class="cls-5" x1="494.15" y1="536.98" x2="536.56" y2="494.57"/><line class="cls-5" x1="473.87" y1="516.7" x2="516.28" y2="474.29"/><line class="cls-5" x1="453.59" y1="496.41" x2="496" y2="454"/><line class="cls-5" x1="433.31" y1="476.13" x2="475.71" y2="433.72"/><line class="cls-5" x1="413.02" y1="455.85" x2="455.43" y2="413.44"/><line class="cls-5" x1="392.74" y1="435.57" x2="435.15" y2="393.16"/><line class="cls-5" x1="372.46" y1="415.28" x2="414.87" y2="372.88"/><path class="cls-2" d="M641.28,508.42a24.58,24.58,0,1,1,17.38-7.2A24.42,24.42,0,0,1,641.28,508.42Z" transform="translate(-324.14 -168.13)"/><path class="cls-3" d="M641.28,460.77A23.08,23.08,0,1,1,625,467.53a22.94,22.94,0,0,1,16.32-6.76m0-3a26.07,26.07,0,1,0,18.44,7.63,26,26,0,0,0-18.44-7.63Z" transform="translate(-324.14 -168.13)"/><rect class="cls-2" x="435.03" y="149.06" width="73.23" height="333.99" transform="translate(-409.48 257.95) rotate(-45)"/><path class="cls-3" d="M379.45,175.61,612.08,408.24l-48.24,48.25L331.21,223.86l48.24-48.25m0-7.07-55.31,55.32,239.7,239.7,55.31-55.32-239.7-239.7Z" transform="translate(-324.14 -168.13)"/><line class="cls-5" x1="36.88" y1="35.45" x2="315.3" y2="313.87"/><line class="cls-5" x1="33.19" y1="76.01" x2="75.6" y2="33.61"/><line class="cls-5" x1="53.47" y1="96.3" x2="95.88" y2="53.89"/><line class="cls-5" x1="73.75" y1="116.58" x2="116.16" y2="74.17"/><line class="cls-5" x1="94.04" y1="136.86" x2="136.45" y2="94.45"/><line class="cls-5" x1="114.32" y1="157.14" x2="156.73" y2="114.74"/><line class="cls-5" x1="134.6" y1="177.43" x2="177.01" y2="135.02"/><line class="cls-5" x1="154.88" y1="197.71" x2="197.29" y2="155.3"/><line class="cls-5" x1="175.17" y1="217.99" x2="217.57" y2="175.58"/><line class="cls-5" x1="195.45" y1="238.27" x2="237.86" y2="195.87"/><line class="cls-5" x1="215.73" y1="258.56" x2="258.14" y2="216.15"/><rect class="cls-2" x="770.61" y="484.64" width="73.23" height="333.99" transform="translate(-548.48 593.52) rotate(-45)"/><path class="cls-3" d="M715,511.2,947.66,743.83l-48.24,48.24L666.79,559.44,715,511.2m0-7.07-55.31,55.31,239.7,239.7,55.31-55.31L715,504.13Z" transform="translate(-324.14 -168.13)"/><line class="cls-5" x1="595.57" y1="594.14" x2="317.14" y2="315.72"/><line class="cls-5" x1="555" y1="597.83" x2="597.41" y2="555.42"/><line class="cls-5" x1="534.72" y1="577.54" x2="577.13" y2="535.13"/><line class="cls-5" x1="514.44" y1="557.26" x2="556.84" y2="514.85"/><line class="cls-5" x1="494.15" y1="536.98" x2="536.56" y2="494.57"/><line class="cls-5" x1="473.87" y1="516.7" x2="516.28" y2="474.29"/><line class="cls-5" x1="453.59" y1="496.41" x2="496" y2="454"/><line class="cls-5" x1="433.31" y1="476.13" x2="475.71" y2="433.72"/><line class="cls-5" x1="413.02" y1="455.85" x2="455.43" y2="413.44"/><line class="cls-5" x1="392.74" y1="435.57" x2="435.15" y2="393.16"/><line class="cls-5" x1="372.46" y1="415.28" x2="414.87" y2="372.88"/><path class="cls-2" d="M641.28,508.42a24.58,24.58,0,1,1,17.38-7.2A24.42,24.42,0,0,1,641.28,508.42Z" transform="translate(-324.14 -168.13)"/><path class="cls-3" d="M641.28,460.77A23.08,23.08,0,1,1,625,467.53a22.94,22.94,0,0,1,16.32-6.76m0-3a26.07,26.07,0,1,0,18.44,7.63,26,26,0,0,0-18.44-7.63Z" transform="translate(-324.14 -168.13)"/><rect class="cls-2" x="305.78" y="614.6" width="333.99" height="73.23" transform="translate(-646.14 356.91) rotate(-45)"/><path class="cls-3" d="M565,510.78,613.21,559,380.58,791.65l-48.24-48.24L565,510.78m0-7.07-239.7,239.7,55.31,55.32L620.28,559,565,503.71Z" transform="translate(-324.14 -168.13)"/><line class="cls-5" x1="36.16" y1="593.72" x2="314.59" y2="315.3"/><line class="cls-5" x1="76.73" y1="597.41" x2="34.32" y2="555"/><line class="cls-5" x1="97.01" y1="577.13" x2="54.6" y2="534.72"/><line class="cls-5" x1="117.29" y1="556.84" x2="74.88" y2="514.44"/><line class="cls-5" x1="137.58" y1="536.56" x2="95.17" y2="494.15"/><line class="cls-5" x1="157.86" y1="516.28" x2="115.45" y2="473.87"/><line class="cls-5" x1="178.14" y1="496" x2="135.73" y2="453.59"/><line class="cls-5" x1="198.42" y1="475.71" x2="156.01" y2="433.31"/><line class="cls-5" x1="218.71" y1="455.43" x2="176.3" y2="413.02"/><line class="cls-5" x1="238.99" y1="435.15" x2="196.58" y2="392.74"/><line class="cls-5" x1="259.27" y1="414.87" x2="216.86" y2="372.46"/><rect class="cls-2" x="641.36" y="279.02" width="333.99" height="73.23" transform="translate(-310.56 495.91) rotate(-45)"/><path class="cls-3" d="M900.55,175.2l48.24,48.24L716.16,456.07l-48.24-48.24L900.55,175.2m0-7.07-239.7,239.7,55.31,55.31,239.7-239.7-55.31-55.31Z" transform="translate(-324.14 -168.13)"/><line class="cls-5" x1="594.85" y1="35.03" x2="316.43" y2="313.46"/><line class="cls-5" x1="598.54" y1="75.6" x2="556.13" y2="33.19"/><line class="cls-5" x1="578.26" y1="95.88" x2="535.85" y2="53.47"/><line class="cls-5" x1="557.97" y1="116.16" x2="515.57" y2="73.75"/><line class="cls-5" x1="537.69" y1="136.45" x2="495.28" y2="94.04"/><line class="cls-5" x1="517.41" y1="156.73" x2="475" y2="114.32"/><line class="cls-5" x1="497.13" y1="177.01" x2="454.72" y2="134.6"/><line class="cls-5" x1="476.84" y1="197.29" x2="434.44" y2="154.88"/><line class="cls-5" x1="456.56" y1="217.58" x2="414.15" y2="175.17"/><line class="cls-5" x1="436.28" y1="237.86" x2="393.87" y2="195.45"/><line class="cls-5" x1="416" y1="258.14" x2="373.59" y2="215.73"/><path class="cls-2" d="M640.57,506.16a24.58,24.58,0,1,1,17.37-7.2A24.42,24.42,0,0,1,640.57,506.16Z" transform="translate(-324.14 -168.13)"/><path class="cls-3" d="M640.57,458.51a23.08,23.08,0,1,1-16.32,6.76,22.91,22.91,0,0,1,16.32-6.76m0-3A26.07,26.07,0,1,0,659,463.14a26,26,0,0,0-18.43-7.63Z" transform="translate(-324.14 -168.13)"/><rect class="cls-3" x="156.55" y="662.17" width="327.56" height="25.08" rx="4.5"/><path class="cls-1" d="M803.74,830.8a4,4,0,0,1,4,4v16.07a4,4,0,0,1-4,4H485.18a4,4,0,0,1-4-4V834.8a4,4,0,0,1,4-4H803.74m0-1H485.18a5,5,0,0,0-5,5v16.07a5,5,0,0,0,5,5H803.74a5,5,0,0,0,5-5V834.8a5,5,0,0,0-5-5Z" transform="translate(-324.14 -168.13)"/><line class="cls-6" x1="316.42" y1="352.67" x2="316.42" y2="459.58"/><line class="cls-7" x1="279.91" y1="417.86" x2="358.14" y2="417.86"/></svg>