<svg id="Layer_1" data-name="Layer 1" xmlns="http://www.w3.org/2000/svg" xmlns:xlink="http://www.w3.org/1999/xlink" viewBox="0 0 468.92 713.51"><defs><style>.cls-1,.cls-16,.cls-3,.cls-5,.cls-7{fill:#bbbbbc;}.cls-1,.cls-11,.cls-13,.cls-4,.cls-5{stroke:#bbbbbc;}.cls-1,.cls-10,.cls-11,.cls-12,.cls-13,.cls-14,.cls-16,.cls-4,.cls-5,.cls-7,.cls-8,.cls-9{stroke-miterlimit:10;}.cls-1{opacity:0.46;}.cls-10,.cls-11,.cls-13,.cls-2,.cls-8{fill:#0f0756;}.cls-4,.cls-9{fill:none;}.cls-6{fill:#cecece;}.cls-7,.cls-9{stroke:#cecece;}.cls-16,.cls-8{stroke:#000;}.cls-9{stroke-width:3px;}.cls-10,.cls-12,.cls-14{stroke:#0f0756;}.cls-11{stroke-width:0.75px;}.cls-12{fill:#fff;}.cls-14{fill:gray;}.cls-15{opacity:0.45;fill:url(#linear-gradient);}</style><linearGradient id="linear-gradient" x1="349.79" y1="248.8" x2="349.79" y2="347.44" gradientUnits="userSpaceOnUse"><stop offset="0" stop-color="#cbc9da" stop-opacity="0.17"/><stop offset="0" stop-color="#fff" stop-opacity="0"/><stop offset="0.98" stop-color="#0f0756"/></linearGradient></defs><title>wohnung</title><path class="cls-1" d="M906.67,220V843.38H622.93v1H489.17v-1H439.51V216.77l2.54-44.84a14,14,0,0,1,.36-2.43,14.38,14.38,0,0,1,13.79-11H889.8a14.38,14.38,0,0,1,13.79,11,14,14,0,0,1,.36,2.43Z" transform="translate(-438.5 -157.99)"/><path class="cls-2" d="M611.78,843.39V728.56a60.57,60.57,0,0,1,60.5-60.5h1.63a60.57,60.57,0,0,1,60.5,60.5V843.39Z" transform="translate(-438.5 -157.99)"/><path class="cls-3" d="M673.91,668.56a60.07,60.07,0,0,1,60,60V842.89H612.28V728.56a60.07,60.07,0,0,1,60-60h1.63m0-1h-1.63a61,61,0,0,0-61,61V843.89H734.91V728.56a61,61,0,0,0-61-61Z" transform="translate(-438.5 -157.99)"/><line class="cls-4" y1="472.59" x2="468.17" y2="472.59"/><line class="cls-4" x1="0.51" y1="356.05" x2="468.68" y2="356.05"/><rect class="cls-5" x="1.01" y="11.51" width="467.16" height="168.47"/><rect class="cls-5" x="1.01" y="348.45" width="467.16" height="168.47"/><rect class="cls-5" x="1.01" y="516.92" width="467.16" height="168.47"/><rect class="cls-6" x="50.67" y="457.39" width="133.76" height="229.01"/><rect class="cls-7" x="74.99" y="602.3" width="85.12" height="62.83"/><rect class="cls-8" x="73.47" y="472.59" width="85.12" height="102.35"/><line class="cls-9" x1="116.03" y1="474.61" x2="116.03" y2="574.94"/><line class="cls-9" x1="164.67" y1="525.28" x2="64.35" y2="525.28"/><rect class="cls-10" x="1.01" y="179.98" width="233.58" height="168.47"/><rect class="cls-8" x="234.59" y="179.98" width="233.58" height="168.47"/><polygon class="cls-5" points="162.64 345.48 117.28 345.48 117.28 319.4 117.28 310.96 162.64 310.96 162.64 319.48 162.64 345.48"/><polygon class="cls-5" points="162.61 311.13 117.24 310.93 117.3 297.86 117.32 293.63 162.68 293.83 162.66 298.1 162.61 311.13"/><rect class="cls-11" x="116.54" y="309.44" width="46.61" height="4.05"/><circle class="cls-10" cx="123.12" cy="302.85" r="2.53"/><circle class="cls-10" cx="129.2" cy="302.85" r="2.53"/><circle class="cls-10" cx="135.28" cy="302.85" r="2.53"/><polygon class="cls-12" points="88.69 347.94 1.54 347.94 1.54 287.09 1.54 267.38 88.69 267.38 88.69 287.26 88.69 347.94"/><polygon class="cls-12" points="88.69 266.88 1.54 266.88 1.54 232.04 1.54 220.77 88.69 220.77 88.69 232.15 88.69 266.88"/><rect class="cls-13" x="11.67" y="239.51" width="2.03" height="21.28"/><rect class="cls-13" x="11.67" y="274.98" width="2.03" height="21.28"/><path class="cls-14" d="M285.37,314.5h22.4a19.92,19.92,0,0,1,19.92,19.92v.27a0,0,0,0,1,0,0H265.45a0,0,0,0,1,0,0v-.27A19.92,19.92,0,0,1,285.37,314.5Z"/><rect class="cls-5" x="261.14" y="328.77" width="72.01" height="14.61"/><rect class="cls-10" x="735.51" y="457.96" width="0.87" height="64.38" transform="translate(787.6 -403.78) rotate(90)"/><path class="cls-5" d="M261.3,322.85h.08a2.9,2.9,0,0,1,2.9,2.9v17.63a0,0,0,0,1,0,0h-5.87a0,0,0,0,1,0,0V325.75A2.9,2.9,0,0,1,261.3,322.85Z"/><path class="cls-5" d="M332.53,322.85h.08a2.9,2.9,0,0,1,2.9,2.9v17.63a0,0,0,0,1,0,0h-5.87a0,0,0,0,1,0,0V325.75A2.9,2.9,0,0,1,332.53,322.85Z"/><rect class="cls-5" x="285.41" y="316.24" width="1.17" height="10.44"/><rect class="cls-5" x="306.15" y="316.24" width="1.17" height="10.44"/><polygon class="cls-15" points="381.53 347.44 318.05 347.44 338.22 248.8 361.36 248.8 381.53 347.44"/><rect class="cls-5" x="345.8" y="273.9" width="7.49" height="66.79"/><polygon class="cls-5" points="371.39 273.28 328.33 273.28 342.01 238.32 357.71 238.32 371.39 273.28"/><rect class="cls-5" x="343.31" y="339.44" width="13.11" height="7.49"/><rect class="cls-16" x="391.22" y="200.38" width="49.46" height="26.23"/><rect class="cls-16" x="338.01" y="200.38" width="49.46" height="26.23"/><rect class="cls-16" x="311.78" y="200.38" width="17.99" height="26.23"/><rect class="cls-5" x="137.73" y="238.6" width="70.45" height="8.99"/><path class="cls-5" d="M597.19,376.41V394a.8.8,0,0,1-.8.8h-6.6a.8.8,0,0,1-.8-.8V376.41a4.09,4.09,0,0,1,1.87-3.44,1.23,1.23,0,0,0,.57-1v-7.51a1.68,1.68,0,0,1,1.65-1.71,1.64,1.64,0,0,1,1.67,1.66V372a1.23,1.23,0,0,0,.57,1,4.28,4.28,0,0,1,.67.54A4.1,4.1,0,0,1,597.19,376.41Z" transform="translate(-438.5 -157.99)"/><path class="cls-5" d="M609.18,376.41V394a.8.8,0,0,1-.8.8h-6.6a.8.8,0,0,1-.8-.8V376.41a4.11,4.11,0,0,1,1.87-3.44,1.23,1.23,0,0,0,.57-1v-7.51a1.68,1.68,0,0,1,1.65-1.71,1.64,1.64,0,0,1,1.19.48,1.66,1.66,0,0,1,.48,1.18V372a1.23,1.23,0,0,0,.57,1,3.87,3.87,0,0,1,.67.54A4.1,4.1,0,0,1,609.18,376.41Z" transform="translate(-438.5 -157.99)"/><path class="cls-5" d="M621.17,376.41V394a.8.8,0,0,1-.8.8h-6.6a.8.8,0,0,1-.8-.8V376.41a4.11,4.11,0,0,1,1.87-3.44,1.23,1.23,0,0,0,.57-1v-7.51a1.68,1.68,0,0,1,1.65-1.71,1.63,1.63,0,0,1,1.19.48,1.67,1.67,0,0,1,.49,1.18V372a1.22,1.22,0,0,0,.56,1,3.87,3.87,0,0,1,.67.54A4.1,4.1,0,0,1,621.17,376.41Z" transform="translate(-438.5 -157.99)"/><path class="cls-5" d="M633.91,376.41V394a.8.8,0,0,1-.8.8h-6.6a.8.8,0,0,1-.8-.8V376.41a4.09,4.09,0,0,1,1.88-3.44,1.25,1.25,0,0,0,.56-1v-7.51a1.69,1.69,0,0,1,1.66-1.71,1.62,1.62,0,0,1,1.18.48,1.67,1.67,0,0,1,.49,1.18V372a1.22,1.22,0,0,0,.56,1,3.87,3.87,0,0,1,.67.54A4.1,4.1,0,0,1,633.91,376.41Z" transform="translate(-438.5 -157.99)"/><rect class="cls-10" x="0.75" y="685.28" width="467.67" height="27.73"/></svg>