<svg id="Layer_1" data-name="Layer 1" xmlns="http://www.w3.org/2000/svg" xmlns:xlink="http://www.w3.org/1999/xlink" viewBox="0 0 1065 645"><defs><style>.cls-1,.cls-13,.cls-3,.cls-6{fill:none;}.cls-14,.cls-15,.cls-2,.cls-4{fill:#fff;}.cls-12,.cls-13,.cls-2,.cls-3,.cls-4,.cls-6,.cls-7{stroke:#0f0756;}.cls-12,.cls-13,.cls-14,.cls-15,.cls-2,.cls-3,.cls-4,.cls-6,.cls-7,.cls-8{stroke-miterlimit:10;}.cls-2,.cls-3,.cls-7{stroke-width:5px;}.cls-14,.cls-4,.cls-8{stroke-width:40px;}.cls-5{fill:#0f0756;}.cls-6{stroke-width:20px;}.cls-11,.cls-12,.cls-7{fill:url(#New_Pattern);}.cls-14,.cls-15,.cls-8{stroke:#fff;}.cls-8{fill:url(#New_Pattern-3);}.cls-9{fill:url(#New_Pattern_2);}.cls-10{fill:url(#New_Pattern_2-3);}.cls-12{stroke-width:10px;}.cls-13{stroke-width:21px;}.cls-15{stroke-width:23px;}</style><pattern id="New_Pattern" data-name="New Pattern" width="93" height="98" patternUnits="userSpaceOnUse" viewBox="0 0 93 98"><rect class="cls-1" width="93" height="98"/><line class="cls-2" x1="93.5" y1="51.5" x2="185.5" y2="144.5"/><line class="cls-2" x1="0.5" y1="51.5" x2="92.5" y2="144.5"/><line class="cls-2" x1="-92.5" y1="51.5" x2="-0.5" y2="144.5"/><line class="cls-2" x1="93.5" y1="2.5" x2="185.5" y2="95.5"/><line class="cls-2" x1="0.5" y1="2.5" x2="92.5" y2="95.5"/><line class="cls-2" x1="-92.5" y1="2.5" x2="-0.5" y2="95.5"/><line class="cls-2" x1="93.5" y1="-46.5" x2="185.5" y2="46.5"/><line class="cls-2" x1="0.5" y1="-46.5" x2="92.5" y2="46.5"/><line class="cls-2" x1="-92.5" y1="-46.5" x2="-0.5" y2="46.5"/></pattern><pattern id="New_Pattern-3" data-name="New Pattern" x="-174" y="-78" width="93" height="98" patternUnits="userSpaceOnUse" viewBox="0 0 93 98"><rect class="cls-1" width="93" height="98"/><line class="cls-2" x1="93.5" y1="51.5" x2="185.5" y2="144.5"/><line class="cls-2" x1="0.5" y1="51.5" x2="92.5" y2="144.5"/><line class="cls-2" x1="-92.5" y1="51.5" x2="-0.5" y2="144.5"/><line class="cls-2" x1="93.5" y1="2.5" x2="185.5" y2="95.5"/><line class="cls-2" x1="0.5" y1="2.5" x2="92.5" y2="95.5"/><line class="cls-2" x1="-92.5" y1="2.5" x2="-0.5" y2="95.5"/><line class="cls-2" x1="93.5" y1="-46.5" x2="185.5" y2="46.5"/><line class="cls-2" x1="0.5" y1="-46.5" x2="92.5" y2="46.5"/><line class="cls-2" x1="-92.5" y1="-46.5" x2="-0.5" y2="46.5"/></pattern><pattern id="New_Pattern_2" data-name="New Pattern 2" width="129" height="123" patternUnits="userSpaceOnUse" viewBox="0 0 129 123"><rect class="cls-1" width="129" height="123"/><line class="cls-3" x1="29" y1="809" x2="1390" y2="52"/><line class="cls-3" x1="-100" y1="809" x2="1261" y2="52"/><line class="cls-3" x1="-229" y1="809" x2="1132" y2="52"/><line class="cls-3" x1="-358" y1="809" x2="1003" y2="52"/><line class="cls-3" x1="-487" y1="809" x2="874" y2="52"/><line class="cls-3" x1="-616" y1="809" x2="745" y2="52"/><line class="cls-3" x1="-745" y1="809" x2="616" y2="52"/><line class="cls-3" x1="-874" y1="809" x2="487" y2="52"/><line class="cls-3" x1="-1003" y1="809" x2="358" y2="52"/><line class="cls-3" x1="-1132" y1="809" x2="229" y2="52"/><line class="cls-3" x1="-1261" y1="809" x2="100" y2="52"/><line class="cls-3" x1="29" y1="686" x2="1390" y2="-71"/><line class="cls-3" x1="-100" y1="686" x2="1261" y2="-71"/><line class="cls-3" x1="-229" y1="686" x2="1132" y2="-71"/><line class="cls-3" x1="-358" y1="686" x2="1003" y2="-71"/><line class="cls-3" x1="-487" y1="686" x2="874" y2="-71"/><line class="cls-3" x1="-616" y1="686" x2="745" y2="-71"/><line class="cls-3" x1="-745" y1="686" x2="616" y2="-71"/><line class="cls-3" x1="-874" y1="686" x2="487" y2="-71"/><line class="cls-3" x1="-1003" y1="686" x2="358" y2="-71"/><line class="cls-3" x1="-1132" y1="686" x2="229" y2="-71"/><line class="cls-3" x1="-1261" y1="686" x2="100" y2="-71"/><line class="cls-3" x1="29" y1="563" x2="1390" y2="-194"/><line class="cls-3" x1="-100" y1="563" x2="1261" y2="-194"/><line class="cls-3" x1="-229" y1="563" x2="1132" y2="-194"/><line class="cls-3" x1="-358" y1="563" x2="1003" y2="-194"/><line class="cls-3" x1="-487" y1="563" x2="874" y2="-194"/><line class="cls-3" x1="-616" y1="563" x2="745" y2="-194"/><line class="cls-3" x1="-745" y1="563" x2="616" y2="-194"/><line class="cls-3" x1="-874" y1="563" x2="487" y2="-194"/><line class="cls-3" x1="-1003" y1="563" x2="358" y2="-194"/><line class="cls-3" x1="-1132" y1="563" x2="229" y2="-194"/><line class="cls-3" x1="-1261" y1="563" x2="100" y2="-194"/><line class="cls-3" x1="29" y1="440" x2="1390" y2="-317"/><line class="cls-3" x1="-100" y1="440" x2="1261" y2="-317"/><line class="cls-3" x1="-229" y1="440" x2="1132" y2="-317"/><line class="cls-3" x1="-358" y1="440" x2="1003" y2="-317"/><line class="cls-3" x1="-487" y1="440" x2="874" y2="-317"/><line class="cls-3" x1="-616" y1="440" x2="745" y2="-317"/><line class="cls-3" x1="-745" y1="440" x2="616" y2="-317"/><line class="cls-3" x1="-874" y1="440" x2="487" y2="-317"/><line class="cls-3" x1="-1003" y1="440" x2="358" y2="-317"/><line class="cls-3" x1="-1132" y1="440" x2="229" y2="-317"/><line class="cls-3" x1="-1261" y1="440" x2="100" y2="-317"/><line class="cls-3" x1="29" y1="317" x2="1390" y2="-440"/><line class="cls-3" x1="-100" y1="317" x2="1261" y2="-440"/><line class="cls-3" x1="-229" y1="317" x2="1132" y2="-440"/><line class="cls-3" x1="-358" y1="317" x2="1003" y2="-440"/><line class="cls-3" x1="-487" y1="317" x2="874" y2="-440"/><line class="cls-3" x1="-616" y1="317" x2="745" y2="-440"/><line class="cls-3" x1="-745" y1="317" x2="616" y2="-440"/><line class="cls-3" x1="-874" y1="317" x2="487" y2="-440"/><line class="cls-3" x1="-1003" y1="317" x2="358" y2="-440"/><line class="cls-3" x1="-1132" y1="317" x2="229" y2="-440"/><line class="cls-3" x1="-1261" y1="317" x2="100" y2="-440"/><line class="cls-3" x1="29" y1="194" x2="1390" y2="-563"/><line class="cls-3" x1="-100" y1="194" x2="1261" y2="-563"/><line class="cls-3" x1="-229" y1="194" x2="1132" y2="-563"/><line class="cls-3" x1="-358" y1="194" x2="1003" y2="-563"/><line class="cls-3" x1="-487" y1="194" x2="874" y2="-563"/><line class="cls-3" x1="-616" y1="194" x2="745" y2="-563"/><line class="cls-3" x1="-745" y1="194" x2="616" y2="-563"/><line class="cls-3" x1="-874" y1="194" x2="487" y2="-563"/><line class="cls-3" x1="-1003" y1="194" x2="358" y2="-563"/><line class="cls-3" x1="-1132" y1="194" x2="229" y2="-563"/><line class="cls-3" x1="-1261" y1="194" x2="100" y2="-563"/><line class="cls-3" x1="29" y1="71" x2="1390" y2="-686"/><line class="cls-3" x1="-100" y1="71" x2="1261" y2="-686"/><line class="cls-3" x1="-229" y1="71" x2="1132" y2="-686"/><line class="cls-3" x1="-358" y1="71" x2="1003" y2="-686"/><line class="cls-3" x1="-487" y1="71" x2="874" y2="-686"/><line class="cls-3" x1="-616" y1="71" x2="745" y2="-686"/><line class="cls-3" x1="-745" y1="71" x2="616" y2="-686"/><line class="cls-3" x1="-874" y1="71" x2="487" y2="-686"/><line class="cls-3" x1="-1003" y1="71" x2="358" y2="-686"/><line class="cls-3" x1="-1132" y1="71" x2="229" y2="-686"/><line class="cls-3" x1="-1261" y1="71" x2="100" y2="-686"/></pattern><pattern id="New_Pattern_2-3" data-name="New Pattern 2" x="-174" y="-78" width="129" height="123" patternUnits="userSpaceOnUse" viewBox="0 0 129 123"><rect class="cls-1" width="129" height="123"/><line class="cls-3" x1="29" y1="809" x2="1390" y2="52"/><line class="cls-3" x1="-100" y1="809" x2="1261" y2="52"/><line class="cls-3" x1="-229" y1="809" x2="1132" y2="52"/><line class="cls-3" x1="-358" y1="809" x2="1003" y2="52"/><line class="cls-3" x1="-487" y1="809" x2="874" y2="52"/><line class="cls-3" x1="-616" y1="809" x2="745" y2="52"/><line class="cls-3" x1="-745" y1="809" x2="616" y2="52"/><line class="cls-3" x1="-874" y1="809" x2="487" y2="52"/><line class="cls-3" x1="-1003" y1="809" x2="358" y2="52"/><line class="cls-3" x1="-1132" y1="809" x2="229" y2="52"/><line class="cls-3" x1="-1261" y1="809" x2="100" y2="52"/><line class="cls-3" x1="29" y1="686" x2="1390" y2="-71"/><line class="cls-3" x1="-100" y1="686" x2="1261" y2="-71"/><line class="cls-3" x1="-229" y1="686" x2="1132" y2="-71"/><line class="cls-3" x1="-358" y1="686" x2="1003" y2="-71"/><line class="cls-3" x1="-487" y1="686" x2="874" y2="-71"/><line class="cls-3" x1="-616" y1="686" x2="745" y2="-71"/><line class="cls-3" x1="-745" y1="686" x2="616" y2="-71"/><line class="cls-3" x1="-874" y1="686" x2="487" y2="-71"/><line class="cls-3" x1="-1003" y1="686" x2="358" y2="-71"/><line class="cls-3" x1="-1132" y1="686" x2="229" y2="-71"/><line class="cls-3" x1="-1261" y1="686" x2="100" y2="-71"/><line class="cls-3" x1="29" y1="563" x2="1390" y2="-194"/><line class="cls-3" x1="-100" y1="563" x2="1261" y2="-194"/><line class="cls-3" x1="-229" y1="563" x2="1132" y2="-194"/><line class="cls-3" x1="-358" y1="563" x2="1003" y2="-194"/><line class="cls-3" x1="-487" y1="563" x2="874" y2="-194"/><line class="cls-3" x1="-616" y1="563" x2="745" y2="-194"/><line class="cls-3" x1="-745" y1="563" x2="616" y2="-194"/><line class="cls-3" x1="-874" y1="563" x2="487" y2="-194"/><line class="cls-3" x1="-1003" y1="563" x2="358" y2="-194"/><line class="cls-3" x1="-1132" y1="563" x2="229" y2="-194"/><line class="cls-3" x1="-1261" y1="563" x2="100" y2="-194"/><line class="cls-3" x1="29" y1="440" x2="1390" y2="-317"/><line class="cls-3" x1="-100" y1="440" x2="1261" y2="-317"/><line class="cls-3" x1="-229" y1="440" x2="1132" y2="-317"/><line class="cls-3" x1="-358" y1="440" x2="1003" y2="-317"/><line class="cls-3" x1="-487" y1="440" x2="874" y2="-317"/><line class="cls-3" x1="-616" y1="440" x2="745" y2="-317"/><line class="cls-3" x1="-745" y1="440" x2="616" y2="-317"/><line class="cls-3" x1="-874" y1="440" x2="487" y2="-317"/><line class="cls-3" x1="-1003" y1="440" x2="358" y2="-317"/><line class="cls-3" x1="-1132" y1="440" x2="229" y2="-317"/><line class="cls-3" x1="-1261" y1="440" x2="100" y2="-317"/><line class="cls-3" x1="29" y1="317" x2="1390" y2="-440"/><line class="cls-3" x1="-100" y1="317" x2="1261" y2="-440"/><line class="cls-3" x1="-229" y1="317" x2="1132" y2="-440"/><line class="cls-3" x1="-358" y1="317" x2="1003" y2="-440"/><line class="cls-3" x1="-487" y1="317" x2="874" y2="-440"/><line class="cls-3" x1="-616" y1="317" x2="745" y2="-440"/><line class="cls-3" x1="-745" y1="317" x2="616" y2="-440"/><line class="cls-3" x1="-874" y1="317" x2="487" y2="-440"/><line class="cls-3" x1="-1003" y1="317" x2="358" y2="-440"/><line class="cls-3" x1="-1132" y1="317" x2="229" y2="-440"/><line class="cls-3" x1="-1261" y1="317" x2="100" y2="-440"/><line class="cls-3" x1="29" y1="194" x2="1390" y2="-563"/><line class="cls-3" x1="-100" y1="194" x2="1261" y2="-563"/><line class="cls-3" x1="-229" y1="194" x2="1132" y2="-563"/><line class="cls-3" x1="-358" y1="194" x2="1003" y2="-563"/><line class="cls-3" x1="-487" y1="194" x2="874" y2="-563"/><line class="cls-3" x1="-616" y1="194" x2="745" y2="-563"/><line class="cls-3" x1="-745" y1="194" x2="616" y2="-563"/><line class="cls-3" x1="-874" y1="194" x2="487" y2="-563"/><line class="cls-3" x1="-1003" y1="194" x2="358" y2="-563"/><line class="cls-3" x1="-1132" y1="194" x2="229" y2="-563"/><line class="cls-3" x1="-1261" y1="194" x2="100" y2="-563"/><line class="cls-3" x1="29" y1="71" x2="1390" y2="-686"/><line class="cls-3" x1="-100" y1="71" x2="1261" y2="-686"/><line class="cls-3" x1="-229" y1="71" x2="1132" y2="-686"/><line class="cls-3" x1="-358" y1="71" x2="1003" y2="-686"/><line class="cls-3" x1="-487" y1="71" x2="874" y2="-686"/><line class="cls-3" x1="-616" y1="71" x2="745" y2="-686"/><line class="cls-3" x1="-745" y1="71" x2="616" y2="-686"/><line class="cls-3" x1="-874" y1="71" x2="487" y2="-686"/><line class="cls-3" x1="-1003" y1="71" x2="358" y2="-686"/><line class="cls-3" x1="-1132" y1="71" x2="229" y2="-686"/><line class="cls-3" x1="-1261" y1="71" x2="100" y2="-686"/></pattern></defs><title>zweiZimmer</title><polyline class="cls-4" points="374 20 1045 20 1045 625 20 625 20 503 20 20 221 20"/><path class="cls-5" d="M429.22,200.68a5.88,5.88,0,0,0,4.55,1.13,4.58,4.58,0,0,0,3.59-2.34,2.88,2.88,0,0,0-.95-3.48c-3.08-2.57-6-5.27-8.74-8a5.49,5.49,0,0,0-3.87-1.45,5.16,5.16,0,0,0-4.27,1.94,2.81,2.81,0,0,0,.4,3.7C422.82,195.07,426,197.94,429.22,200.68Z" transform="translate(-174 -78)"/><path class="cls-5" d="M454.64,217.92a6,6,0,0,0,6.69-.75c1.57-1.57,1.13-3.78-1-4.95-3.72-2-7.36-4.22-10.82-6.5a5.75,5.75,0,0,0-3.19-.89h0a5,5,0,0,0-4.48,2.28,3,3,0,0,0,1.29,3.91C446.82,213.43,450.68,215.76,454.64,217.92Z" transform="translate(-174 -78)"/><path class="cls-5" d="M471.19,225.87c4.3,1.8,8.75,3.48,13.21,5a6.2,6.2,0,0,0,4.77-.35,3.24,3.24,0,0,0,2-3.22,3.79,3.79,0,0,0-2.79-2.88c-4.2-1.4-8.38-3-12.43-4.67a6.17,6.17,0,0,0-2.36-.46c-2.18,0-4.09,1.08-4.64,2.63S469.3,225.08,471.19,225.87Z" transform="translate(-174 -78)"/><path class="cls-5" d="M502.86,236c4.72,1.08,9.53,2,14.32,2.77,2.59.42,5.14-.8,5.7-2.71s-1.09-3.8-3.68-4.21c-4.51-.72-9.05-1.6-13.48-2.62a6.21,6.21,0,0,0-1.43-.16c-2.37,0-4.38,1.28-4.74,3S500.6,235.51,502.86,236Z" transform="translate(-174 -78)"/><path class="cls-5" d="M536.71,241c4.86.33,9.83.49,14.78.49v-7.09c-4.66,0-9.35-.15-13.92-.46h-.44c-2.56,0-4.67,1.49-4.78,3.39S534.15,240.82,536.71,241Z" transform="translate(-174 -78)"/><path class="cls-5" d="M396.66,141.59a5.59,5.59,0,0,0-3.73,1.31,2.89,2.89,0,0,0-1,3,95.71,95.71,0,0,0,3.7,10.6,4.47,4.47,0,0,0,3.51,2.41,5.92,5.92,0,0,0,4.59-1,2.91,2.91,0,0,0,1.07-3.45,89.39,89.39,0,0,1-3.49-10c-.46-1.63-2.42-2.81-4.68-2.81Z" transform="translate(-174 -78)"/><path class="cls-5" d="M403,166.75a2.76,2.76,0,0,0-.36,3.37,115.45,115.45,0,0,0,6.66,9.78,5.25,5.25,0,0,0,4.13,1.81,5.31,5.31,0,0,0,4.18-1.74,2.75,2.75,0,0,0,.05-3.55,105.59,105.59,0,0,1-6.26-9.19,5.1,5.1,0,0,0-4.38-2.1h0A5.36,5.36,0,0,0,403,166.75Z" transform="translate(-174 -78)"/><path class="cls-5" d="M394.27,134.65c2.64-.16,4.6-1.88,4.37-3.83a86.48,86.48,0,0,1-.56-9.8h-9.59a90.44,90.44,0,0,0,.6,10.41C389.32,133.38,391.64,134.82,394.27,134.65Z" transform="translate(-174 -78)"/><rect class="cls-5" x="214.49" y="0.51" width="9.59" height="35.43"/><rect class="cls-5" x="372.86" width="8.12" height="160.95"/><line class="cls-6" x1="789.23" y1="293" x2="706" y2="293"/><line class="cls-6" x1="1042" y1="293" x2="959.55" y2="293"/><path class="cls-7" d="M834.5,495.5" transform="translate(-174 -78)"/><line class="cls-8" x1="789.23" y1="293" x2="959.55" y2="293"/><path class="cls-9" d="M1507,538" transform="translate(-174 -78)"/><polyline class="cls-10" points="703 10 707.62 10.1 1045 17 1047 290 706 290 706.73 206.86 707.25 147.2 707.47 122.73 707.72 94.51 708 62 708 23"/><path class="cls-11" d="M1378,317" transform="translate(-174 -78)"/><path class="cls-11" d="M1447,497" transform="translate(-174 -78)"/><path class="cls-12" d="M755,672" transform="translate(-174 -78)"/><path class="cls-12" d="M753,622" transform="translate(-174 -78)"/><path class="cls-9" d="M752,679" transform="translate(-174 -78)"/><path class="cls-9" d="M753,622" transform="translate(-174 -78)"/><path class="cls-6" d="M877,591" transform="translate(-174 -78)"/><path class="cls-6" d="M877,545" transform="translate(-174 -78)"/><path class="cls-6" d="M880,448" transform="translate(-174 -78)"/><path class="cls-6" d="M880,448" transform="translate(-174 -78)"/><path class="cls-5" d="M1005.79,486.94a6.13,6.13,0,0,0,4.74,1.11,4.77,4.77,0,0,0,3.71-2.49,3,3,0,0,0-1-3.6c-3.24-2.64-6.34-5.41-9.21-8.23a5.64,5.64,0,0,0-4-1.45,5.4,5.4,0,0,0-4.42,2.08,2.91,2.91,0,0,0,.48,3.84C999.05,481.19,1002.34,484.13,1005.79,486.94Z" transform="translate(-174 -78)"/><path class="cls-5" d="M1032.48,504.51a6.23,6.23,0,0,0,7-.87c1.61-1.65,1.12-3.95-1.1-5.13-3.9-2.07-7.72-4.29-11.35-6.61a6.06,6.06,0,0,0-3.33-.89h0a5.18,5.18,0,0,0-4.63,2.44,3.07,3.07,0,0,0,1.4,4C1024.27,500,1028.33,502.32,1032.48,504.51Z" transform="translate(-174 -78)"/><path class="cls-5" d="M1049.81,512.56c4.5,1.81,9.14,3.49,13.81,5a6.5,6.5,0,0,0,5-.43,3.41,3.41,0,0,0,2-3.38,4,4,0,0,0-2.95-3c-4.39-1.4-8.76-3-13-4.69a6.47,6.47,0,0,0-2.46-.44c-2.27,0-4.24,1.18-4.79,2.81S1047.82,511.76,1049.81,512.56Z" transform="translate(-174 -78)"/><path class="cls-5" d="M1082.9,522.68c4.92,1.06,9.95,2,14.94,2.69,2.7.39,5.33-.92,5.89-2.91s-1.19-3.94-3.89-4.33c-4.7-.68-9.44-1.53-14.06-2.54a6.72,6.72,0,0,0-1.49-.14c-2.47,0-4.54,1.39-4.89,3.2S1080.54,522.17,1082.9,522.68Z" transform="translate(-174 -78)"/><path class="cls-5" d="M1118.18,527.37c5.06.27,10.24.37,15.39.3l-.1-7.38c-4.85.07-9.73,0-14.49-.28h-.45c-2.67,0-4.84,1.62-4.93,3.59S1115.52,527.22,1118.18,527.37Z" transform="translate(-174 -78)"/><path class="cls-5" d="M971.08,425.92a5.74,5.74,0,0,0-3.86,1.41,3,3,0,0,0-1,3.1,102.19,102.19,0,0,0,4,11,4.68,4.68,0,0,0,3.69,2.46,6.18,6.18,0,0,0,4.75-1.15,3,3,0,0,0,1.07-3.61A96.6,96.6,0,0,1,976,428.78c-.5-1.7-2.55-2.89-4.91-2.86Z" transform="translate(-174 -78)"/><path class="cls-5" d="M978,452a2.87,2.87,0,0,0-.31,3.51,117,117,0,0,0,7.06,10.08,5.45,5.45,0,0,0,4.32,1.83,5.56,5.56,0,0,0,4.33-1.87,2.88,2.88,0,0,0,0-3.69,108.56,108.56,0,0,1-6.65-9.48,5.29,5.29,0,0,0-4.59-2.12h0A5.6,5.6,0,0,0,978,452Z" transform="translate(-174 -78)"/><path class="cls-5" d="M968.5,418.73c2.74-.21,4.75-2,4.49-4a91.5,91.5,0,0,1-.72-10.19l-10,.13a91.22,91.22,0,0,0,.77,10.82C963.33,417.47,965.76,418.94,968.5,418.73Z" transform="translate(-174 -78)"/><rect class="cls-5" x="961.95" y="360.33" width="9.98" height="36.86" transform="translate(-179.02 -64.92) rotate(-0.77)"/><rect class="cls-5" x="1127.59" y="357.58" width="8.45" height="167.47" transform="translate(-179.85 -62.7) rotate(-0.77)"/><polyline class="cls-4" points="219.58 625 294.76 625 358.34 625"/><polyline class="cls-6" points="704.2 303 704 240.28 704.34 144.95 704.42 123.88 704.46 111.61 704.57 83.32 704.78 23"/><path class="cls-6" d="M878,462" transform="translate(-174 -78)"/><path class="cls-6" d="M881.62,182.83" transform="translate(-174 -78)"/><path class="cls-13" d="M394.71,371" transform="translate(-174 -78)"/><path class="cls-13" d="M423.61,371" transform="translate(-174 -78)"/><path class="cls-13" d="M388.5,368.5" transform="translate(-174 -78)"/><path class="cls-14" d="M878.71,182.83" transform="translate(-174 -78)"/><line class="cls-15" x1="705" y1="376" x2="705.5" y2="519.5"/><polygon class="cls-1" points="715 303 1025 303 1025 613 714 613 715 303"/></svg>